<svg xmlns="http://www.w3.org/2000/svg" viewBox="0 0 500 500"><g id="freepik--background-complete--inject-106"><path d="M385.78,153c.54-3.88-4.95-7.08-9.07-7.41-2-.16-4,.14-5.87-.51-4-1.4-5.64-6.62-9.58-8.28-2.94-1.24-6.33-.13-9.18,1.3s-5.68,3.25-8.86,3.45c-2.78.18-5.79-.85-8.21.5-1.81,1-2.76,3.1-4.42,4.32a10.49,10.49,0,0,1-5.78,1.57,16.36,16.36,0,0,0-6,1c-1.84.85-3.36,2.79-3,4.78Z" style="fill:#ebebeb"></path><path d="M115.84,175.56c.49-3.54-4.5-6.45-8.26-6.75-1.79-.15-3.65.13-5.35-.46-3.67-1.29-5.14-6-8.72-7.55-2.68-1.13-5.77-.12-8.37,1.19s-5.17,2.95-8.07,3.14c-2.53.16-5.27-.78-7.48.46-1.64.92-2.51,2.81-4,3.93A9.6,9.6,0,0,1,60.3,171a14.82,14.82,0,0,0-5.43.89c-1.67.77-3.06,2.54-2.71,4.35Z" style="fill:#ebebeb"></path><path d="M453.49,218.84c.53-3.89-4.95-7.09-9.07-7.42-2-.16-4,.14-5.87-.51-4-1.4-5.65-6.61-9.58-8.28-3-1.24-6.34-.13-9.19,1.3s-5.67,3.25-8.86,3.45c-2.77.18-5.78-.85-8.21.51-1.8,1-2.75,3.09-4.42,4.32a10.55,10.55,0,0,1-5.78,1.56,16.1,16.1,0,0,0-5.95,1c-1.84.84-3.37,2.79-3,4.78Z" style="fill:#f5f5f5"></path><path d="M334.33,52.23c.9-6.53-8.32-11.91-15.25-12.46-3.3-.27-6.74.23-9.87-.86-6.78-2.36-9.49-11.12-16.1-13.91-4.95-2.09-10.65-.23-15.44,2.18s-9.54,5.45-14.9,5.8c-4.66.3-9.72-1.43-13.8.84-3,1.7-4.63,5.2-7.43,7.27s-6.31,2.45-9.71,2.63-6.92.22-10,1.64-5.65,4.69-5,8Z" style="fill:#f5f5f5"></path><path d="M186.08,242.66c.78-5.72-7.29-10.43-13.36-10.92-2.89-.23-5.9.21-8.64-.74-5.94-2.07-8.31-9.75-14.11-12.19-4.33-1.83-9.32-.2-13.52,1.91s-8.35,4.78-13,5.08c-4.08.26-8.51-1.25-12.09.74-2.66,1.49-4,4.55-6.5,6.36s-5.53,2.15-8.51,2.31-6.06.19-8.77,1.43-5,4.11-4.39,7Z" style="fill:#f5f5f5"></path><path d="M248.94,426.41a33.88,33.88,0,0,0-31.19-44.88,30,30,0,0,0-40.2-40.59c4.79-17.26-8.55-36.06-25.78-41s-36.16,1.79-49.81,13.38c-11.58,9.84-20.54,25.4-16,39.9a36.88,36.88,0,0,0-43.11,42,32.37,32.37,0,0,0-24.23,16c-5,8.75-10.27,26.16,11.16,54.88l236.8-16.31C270.05,438.93,260.36,426.07,248.94,426.41Z" style="fill:#ebebeb"></path><path d="M488.58,447.12a11.26,11.26,0,0,0-10.12-9.86,29.44,29.44,0,0,0-17.8-49.43c4.4-8.57,8.85-17.32,10.47-26.82s0-20.05-6.5-27.15-18.57-9.33-26-3.19c-3.6-17.45-7.7-35.09-16.32-50.68s-22.41-29.14-39.66-33.6c-19.29-5-40.94,2.62-53.84,17.81s-17.05,37-11.87,56.24a36.68,36.68,0,0,0-39.86,47.89c-6.16-3.62-20.52-.65-27.72,7.74-15.76,18.36.26,46.34.26,46.34s-19.92-12.05-41.66-7.12c-15.46,3.51-32.15,14.44-32.26,30.29l304.76,13.1A11.26,11.26,0,0,0,488.58,447.12Z" style="fill:#f5f5f5"></path></g><g id="freepik--Floor--inject-106"><path d="M224.08,402.18a3.26,3.26,0,0,0,0,.71c0,.52.06,1.18.11,2,.12,1.74.24,4.26.34,7.37s.12,6.82,0,10.94-.36,8.63-.8,13.36-1.08,9.22-1.74,13.28-1.4,7.7-2.09,10.74-1.28,5.49-1.72,7.17c-.2.8-.36,1.44-.48,1.95a2.79,2.79,0,0,0-.13.69,3,3,0,0,0,.24-.66c.15-.5.35-1.13.59-1.92.51-1.67,1.17-4.1,1.91-7.14s1.5-6.67,2.22-10.74,1.32-8.57,1.78-13.31.67-9.28.76-13.41,0-7.85-.16-11-.33-5.64-.52-7.38c-.09-.81-.16-1.47-.22-2A3.37,3.37,0,0,0,224.08,402.18Z" style="fill:#ffd39d"></path><path d="M222,424.32a10.08,10.08,0,0,0,1,3.27,10.25,10.25,0,0,0,1.56,3.05,10.26,10.26,0,0,0-1-3.27A10.37,10.37,0,0,0,222,424.32Z" style="fill:#ffd39d"></path><path d="M227,422.12a18.5,18.5,0,0,0-2.35,6.16,18.72,18.72,0,0,0,2.35-6.16Z" style="fill:#ffd39d"></path><path d="M222.37,418.79a8.69,8.69,0,0,0,1,3,9.1,9.1,0,0,0,1.55,2.8,8.78,8.78,0,0,0-1-3A9.05,9.05,0,0,0,222.37,418.79Z" style="fill:#ffd39d"></path><path d="M227.57,414.76a8.39,8.39,0,0,0-1.63,2.94,8.5,8.5,0,0,0-.92,3.23,11.09,11.09,0,0,0,1.46-3A11.78,11.78,0,0,0,227.57,414.76Z" style="fill:#ffd39d"></path><path d="M222.6,412.77a5.75,5.75,0,0,0,.89,2.35c.63,1.21,1.26,2.13,1.41,2.07s-.25-1.12-.89-2.34S222.74,412.69,222.6,412.77Z" style="fill:#ffd39d"></path><path d="M226.57,408.86a6.9,6.9,0,0,0-1.15,2.59,7.2,7.2,0,0,0-.58,2.77,6.8,6.8,0,0,0,1.14-2.59A7.1,7.1,0,0,0,226.57,408.86Z" style="fill:#ffd39d"></path><path d="M222.31,406.56c-.14.09.26,1.05.9,2.15s1.27,1.94,1.41,1.86-.26-1.05-.9-2.15S222.45,406.48,222.31,406.56Z" style="fill:#ffd39d"></path><path d="M226.24,402.43a5.83,5.83,0,0,0-1.16,2.27,5.73,5.73,0,0,0-.61,2.47c.15.06.67-.95,1.16-2.26A5.73,5.73,0,0,0,226.24,402.43Z" style="fill:#ffd39d"></path><path d="M221.94,402.38c-.13.1.28.74.9,1.44s1.23,1.16,1.35,1-.3-.76-.91-1.44S222.07,402.28,221.94,402.38Z" style="fill:#ffd39d"></path><path d="M223.64,398.78a5,5,0,0,0,0,2.4,5.09,5.09,0,0,0,.58,2.33,5.18,5.18,0,0,0,0-2.4A5.09,5.09,0,0,0,223.64,398.78Z" style="fill:#ffd39d"></path><path d="M224.49,436.74c-38.25-13.27-79.14-24.95-118.77-16.66-20.14,4.21-59.07,13.26-96.4,24.56l.79,35.78L331,478.84Q278.67,455.56,224.49,436.74Z" style="fill:#ffd39d"></path><path d="M153.54,400.92a2.49,2.49,0,0,0-.13-2.06,5.9,5.9,0,0,0-1.24-1.49.19.19,0,0,0-.16-.09.22.22,0,0,0-.15.13,2.09,2.09,0,0,0,.19,2,6,6,0,0,0,1.49,1.49" style="fill:#ffd39d"></path><path d="M154.14,398.46a2.5,2.5,0,0,0,.22-2.06,6.23,6.23,0,0,0-1-1.67.22.22,0,0,0-.15-.12.23.23,0,0,0-.17.11,2.07,2.07,0,0,0-.15,2,6.42,6.42,0,0,0,1.22,1.72" style="fill:#ffd39d"></path><path d="M154.89,395.83a2.45,2.45,0,0,0,.06-2.07,6,6,0,0,0-1.11-1.59.22.22,0,0,0-.15-.1.2.2,0,0,0-.16.12,2,2,0,0,0,0,2,6.34,6.34,0,0,0,1.35,1.62" style="fill:#ffd39d"></path><path d="M155.66,393.21a2.5,2.5,0,0,0-.11-2.07,6.36,6.36,0,0,0-1.24-1.5c-.05,0-.1-.09-.16-.08s-.12.07-.15.13a2.07,2.07,0,0,0,.18,2,6.38,6.38,0,0,0,1.48,1.5" style="fill:#ffd39d"></path><path d="M156.33,390.83a2.47,2.47,0,0,0-.25-2.06,6.13,6.13,0,0,0-1.33-1.41c-.05,0-.11-.09-.17-.08s-.11.08-.14.15a2.08,2.08,0,0,0,.31,2,6.43,6.43,0,0,0,1.58,1.4" style="fill:#ffd39d"></path><path d="M157,388.36a2.54,2.54,0,0,0-.33-2.05,6.15,6.15,0,0,0-1.39-1.35s-.11-.09-.17-.07-.11.08-.14.14a2.1,2.1,0,0,0,.39,2,6.46,6.46,0,0,0,1.64,1.34" style="fill:#ffd39d"></path><path d="M157.77,385.62a2.5,2.5,0,0,0-.43-2,6,6,0,0,0-1.46-1.29.23.23,0,0,0-.17-.07.21.21,0,0,0-.13.16,2.07,2.07,0,0,0,.49,2,6.07,6.07,0,0,0,1.7,1.26" style="fill:#ffd39d"></path><path d="M153.53,400.93a2.51,2.51,0,0,1,1.16-1.72,6,6,0,0,1,1.83-.65.17.17,0,0,1,.24.2,2.08,2.08,0,0,1-1.19,1.64,6.15,6.15,0,0,1-2,.53" style="fill:#ffd39d"></path><path d="M154.11,398.44a2.51,2.51,0,0,1,1.16-1.72,6.15,6.15,0,0,1,1.83-.65c.06,0,.13,0,.18,0a.19.19,0,0,1,.06.19,2.07,2.07,0,0,1-1.18,1.64,6.27,6.27,0,0,1-2,.53" style="fill:#ffd39d"></path><path d="M154.9,395.83a2.46,2.46,0,0,1,1.08-1.76,6,6,0,0,1,1.8-.73.19.19,0,0,1,.18,0,.22.22,0,0,1,.07.19,2.08,2.08,0,0,1-1.12,1.69,6.34,6.34,0,0,1-2,.61" style="fill:#ffd39d"></path><path d="M155.61,393.24a2.47,2.47,0,0,1,1.08-1.76,6.14,6.14,0,0,1,1.8-.73.25.25,0,0,1,.19,0,.22.22,0,0,1,.07.19,2.09,2.09,0,0,1-1.12,1.69,6.47,6.47,0,0,1-2,.61" style="fill:#ffd39d"></path><path d="M156.27,390.84a2.5,2.5,0,0,1,1.09-1.76,6.4,6.4,0,0,1,1.8-.72.25.25,0,0,1,.19,0,.22.22,0,0,1,.07.19,2.12,2.12,0,0,1-1.13,1.69,6.06,6.06,0,0,1-2,.6" style="fill:#ffd39d"></path><path d="M156.88,388.34a2.46,2.46,0,0,1,1.18-1.7,6.17,6.17,0,0,1,1.84-.63.27.27,0,0,1,.18,0,.21.21,0,0,1,.06.2,2.08,2.08,0,0,1-1.21,1.62,6.23,6.23,0,0,1-2.05.5" style="fill:#ffd39d"></path><path d="M157.73,385.68a2.47,2.47,0,0,1,1.15-1.72,5.81,5.81,0,0,1,1.83-.66c.06,0,.13,0,.18,0a.19.19,0,0,1,.06.19,2.07,2.07,0,0,1-1.18,1.64,6.22,6.22,0,0,1-2,.54" style="fill:#ffd39d"></path><path d="M145.33,430.82c.16,0,3.28-10.85,7-24.33S158.86,382,158.71,382s-3.28,10.85-7,24.34S145.17,430.78,145.33,430.82Z" style="fill:#ffd39d"></path><path d="M158.17,384a2.4,2.4,0,0,0,1.2-1.66,4.51,4.51,0,0,0-.15-2,2.89,2.89,0,0,0-1.24,1.65,2.3,2.3,0,0,0,.19,2" style="fill:#ffd39d"></path><path d="M121,403.92a2.49,2.49,0,0,0-1.2-1.69,6.23,6.23,0,0,0-1.84-.61.3.3,0,0,0-.19,0,.24.24,0,0,0-.06.2,2.11,2.11,0,0,0,1.23,1.61,6.26,6.26,0,0,0,2.06.48" style="fill:#ffd39d"></path><path d="M120.2,401.51a2.46,2.46,0,0,0-.89-1.86,6,6,0,0,0-1.72-.91.2.2,0,0,0-.18,0,.23.23,0,0,0-.09.18,2.07,2.07,0,0,0,.94,1.79,6.07,6.07,0,0,0,1.94.82" style="fill:#ffd39d"></path><path d="M119.45,398.88a2.48,2.48,0,0,0-1-1.79,6,6,0,0,0-1.79-.76.23.23,0,0,0-.18,0,.22.22,0,0,0-.07.19,2.06,2.06,0,0,0,1.08,1.71,6,6,0,0,0,2,.66" style="fill:#ffd39d"></path><path d="M118.71,396.25a2.51,2.51,0,0,0-1.18-1.7,6.23,6.23,0,0,0-1.84-.61.21.21,0,0,0-.19,0c-.06,0-.06.12-.06.19a2.09,2.09,0,0,0,1.22,1.62,6.47,6.47,0,0,0,2,.49" style="fill:#ffd39d"></path><path d="M118,393.87a2.51,2.51,0,0,0-1.3-1.61,6.08,6.08,0,0,0-1.88-.5.28.28,0,0,0-.18,0c-.06,0-.06.13,0,.2a2.11,2.11,0,0,0,1.33,1.53,6.31,6.31,0,0,0,2.08.35" style="fill:#ffd39d"></path><path d="M117.24,391.45a2.47,2.47,0,0,0-1.36-1.56,6.1,6.1,0,0,0-1.89-.42.3.3,0,0,0-.19,0,.2.2,0,0,0,0,.2,2.08,2.08,0,0,0,1.38,1.48,6.13,6.13,0,0,0,2.09.27" style="fill:#ffd39d"></path><path d="M116.49,388.69a2.49,2.49,0,0,0-1.44-1.49,6.12,6.12,0,0,0-1.91-.32.19.19,0,0,0-.18,0,.21.21,0,0,0,0,.19,2.11,2.11,0,0,0,1.46,1.42,6.15,6.15,0,0,0,2.1.16" style="fill:#ffd39d"></path><path d="M121,403.92a2.48,2.48,0,0,1,.08-2.06,6.1,6.1,0,0,1,1.2-1.53.28.28,0,0,1,.17-.09c.07,0,.11.07.15.13a2.13,2.13,0,0,1-.14,2,6,6,0,0,1-1.46,1.52" style="fill:#ffd39d"></path><path d="M120.17,401.51a2.46,2.46,0,0,1,.08-2.07,5.88,5.88,0,0,1,1.2-1.52c0-.05.1-.1.16-.09s.12.07.16.13a2.11,2.11,0,0,1-.14,2,6.42,6.42,0,0,1-1.46,1.53" style="fill:#ffd39d"></path><path d="M119.46,398.88a2.49,2.49,0,0,1,0-2.07,6.07,6.07,0,0,1,1.14-1.57.23.23,0,0,1,.16-.1c.07,0,.12.06.16.12a2.1,2.1,0,0,1-.06,2,6.32,6.32,0,0,1-1.38,1.59" style="fill:#ffd39d"></path><path d="M118.69,396.3a2.49,2.49,0,0,1,0-2.07,6.18,6.18,0,0,1,1.14-1.57.26.26,0,0,1,.16-.09c.07,0,.12.06.16.12a2.1,2.1,0,0,1-.06,2,6.15,6.15,0,0,1-1.39,1.58" style="fill:#ffd39d"></path><path d="M118,393.91a2.43,2.43,0,0,1,0-2.06,5.88,5.88,0,0,1,1.15-1.57.21.21,0,0,1,.16-.1.22.22,0,0,1,.15.13,2.08,2.08,0,0,1-.06,2,6,6,0,0,1-1.4,1.58" style="fill:#ffd39d"></path><path d="M117.17,391.47a2.5,2.5,0,0,1,.11-2.07,6.08,6.08,0,0,1,1.23-1.5.22.22,0,0,1,.16-.09.22.22,0,0,1,.15.13,2.06,2.06,0,0,1-.17,2,6.24,6.24,0,0,1-1.48,1.51" style="fill:#ffd39d"></path><path d="M116.49,388.76a2.46,2.46,0,0,1,.07-2.07,5.84,5.84,0,0,1,1.2-1.52.22.22,0,0,1,.16-.09c.07,0,.12.07.15.13a2.08,2.08,0,0,1-.13,2,6.2,6.2,0,0,1-1.45,1.53" style="fill:#ffd39d"></path><path d="M129.84,433.63c.16,0-3-10.94-7-24.33s-7.36-24.22-7.52-24.18,3,10.95,7,24.34S129.69,433.68,129.84,433.63Z" style="fill:#ffd39d"></path><path d="M116,387.06a2.43,2.43,0,0,0,.15-2,4.64,4.64,0,0,0-1.21-1.64,2.91,2.91,0,0,0-.18,2.05,2.3,2.3,0,0,0,1.24,1.63" style="fill:#ffd39d"></path><path d="M43.86,393.81a4.35,4.35,0,0,0,.3.64c.24.46.55,1.05.94,1.77.83,1.53,2,3.77,3.39,6.56s3,6.14,4.61,9.91,3.28,8,4.87,12.47S60.85,434,62,438s1.95,7.58,2.6,10.62,1.14,5.52,1.44,7.24c.15.81.28,1.46.37,2a3.09,3.09,0,0,0,.18.68,3.08,3.08,0,0,0-.06-.7l-.27-2c-.23-1.73-.65-4.22-1.26-7.28s-1.43-6.69-2.48-10.68-2.38-8.34-3.95-12.84-3.28-8.71-4.93-12.49-3.28-7.13-4.73-9.89-2.67-5-3.56-6.48c-.43-.7-.77-1.27-1-1.72A2.77,2.77,0,0,0,43.86,393.81Z" style="fill:#ffd39d"></path><path d="M51.25,414.78a10.07,10.07,0,0,0,2.29,2.55,10.12,10.12,0,0,0,2.69,2.11,10.18,10.18,0,0,0-2.29-2.54A10.21,10.21,0,0,0,51.25,414.78Z" style="fill:#ffd39d"></path><path d="M54.89,410.68a9.65,9.65,0,0,0-.07,3.31,9.2,9.2,0,0,0,.52,3.27,18.54,18.54,0,0,0-.45-6.58Z" style="fill:#ffd39d"></path><path d="M49.26,409.61c-.1.13.88,1.17,2.18,2.33A9,9,0,0,0,54,413.83c.11-.12-.87-1.16-2.19-2.33A8.76,8.76,0,0,0,49.26,409.61Z" style="fill:#ffd39d"></path><path d="M52.29,403.77a8.53,8.53,0,0,0-.24,3.35,8.38,8.38,0,0,0,.52,3.32,11.68,11.68,0,0,0,.07-3.34A11.13,11.13,0,0,0,52.29,403.77Z" style="fill:#ffd39d"></path><path d="M47,404c-.09.14.71.92,1.78,1.76s2,1.41,2.15,1.29-.69-.91-1.79-1.76S47.05,403.91,47,404Z" style="fill:#ffd39d"></path><path d="M48.91,398.83a7,7,0,0,0,.05,2.83,7.11,7.11,0,0,0,.63,2.76,7.1,7.1,0,0,0,0-2.83A7,7,0,0,0,48.91,398.83Z" style="fill:#ffd39d"></path><path d="M44.09,398.53c-.09.13.68.83,1.72,1.57s2,1.23,2,1.09-.67-.83-1.71-1.57S44.18,398.4,44.09,398.53Z" style="fill:#ffd39d"></path><path d="M45.93,393.13a11.16,11.16,0,0,0,.38,5.05,11.16,11.16,0,0,0-.38-5.05Z" style="fill:#ffd39d"></path><path d="M42,394.88c-.08.14.56.56,1.42.93s1.61.54,1.66.39-.58-.57-1.43-.93S42.07,394.74,42,394.88Z" style="fill:#ffd39d"></path><path d="M42,390.9c-.13.09.31,1.07,1,2.19s1.37,2,1.51,1.87-.31-1.06-1-2.18S42.17,390.82,42,390.9Z" style="fill:#ffd39d"></path><g style="opacity:0.30000000000000004"><path d="M98.84,421.82s54.19,36.34,58.5,58.08l31-.19s-39.77-51.35-77-60.68A78.61,78.61,0,0,0,98.84,421.82Z" style="fill:#fff"></path></g><g style="opacity:0.30000000000000004"><path d="M50.2,432.49S94.44,462.16,98,479.9l25.31-.15S90.8,437.82,60.45,430.21A64,64,0,0,0,50.2,432.49Z" style="fill:#fff"></path></g><g style="opacity:0.30000000000000004"><path d="M145.5,417.88s48.63,27.15,80.62,61.6l27.79-.17s-54.79-46.38-78.9-56.87c-9.75-2.89-19.71-4-29.28-4.67" style="fill:#fff"></path></g><path d="M33.12,411.82a40.87,40.87,0,0,0,2,3.66c1.29,2.24,3,5.37,4.7,8.92s3.06,6.85,4,9.26a36.1,36.1,0,0,0,1.57,3.88,4,4,0,0,0-.25-1.1c-.19-.7-.51-1.7-.93-2.92a88.87,88.87,0,0,0-3.86-9.37,90.49,90.49,0,0,0-4.87-8.88c-.69-1.1-1.27-2-1.69-2.56A4.06,4.06,0,0,0,33.12,411.82Z" style="fill:#ffd39d"></path><path d="M29,422.31a22.22,22.22,0,0,0,2,2.74c1.27,1.65,3,3.95,4.84,6.54s3.44,5,4.58,6.74a21.92,21.92,0,0,0,1.92,2.78,16.68,16.68,0,0,0-1.57-3c-1-1.81-2.6-4.25-4.45-6.86s-3.64-4.87-5-6.46A16.73,16.73,0,0,0,29,422.31Z" style="fill:#ffd39d"></path><path d="M44.91,416.39a21.23,21.23,0,0,0,.87,2.85,56.52,56.52,0,0,1,1.73,6.95,57.32,57.32,0,0,1,.8,7.12,21.47,21.47,0,0,0,.18,3,11.44,11.44,0,0,0,.24-3,40.76,40.76,0,0,0-.64-7.21,40.69,40.69,0,0,0-1.92-7A11.33,11.33,0,0,0,44.91,416.39Z" style="fill:#ffd39d"></path><path d="M145.72,401.65a20.07,20.07,0,0,0-1.41,2.65c-.82,1.66-2,3.93-3.35,6.39s-2.71,4.63-3.69,6.2a17.43,17.43,0,0,0-1.52,2.59,13.48,13.48,0,0,0,1.87-2.36,69,69,0,0,0,3.85-6.15,72.18,72.18,0,0,0,3.22-6.49A13.48,13.48,0,0,0,145.72,401.65Z" style="fill:#ffd39d"></path><path d="M138.33,398.06a20.84,20.84,0,0,0-.42,3,55,55,0,0,1-3.65,14,22.63,22.63,0,0,0-1.11,2.82,12.53,12.53,0,0,0,1.49-2.65,41.2,41.2,0,0,0,3.69-14.16A12.25,12.25,0,0,0,138.33,398.06Z" style="fill:#ffd39d"></path><path d="M131,408.51a26.31,26.31,0,0,0,0,5.49c.13,3,.37,5.47.54,5.46a51,51,0,0,0-.49-10.95Z" style="fill:#ffd39d"></path><path d="M58,388.35a8.31,8.31,0,0,0,.29,1.53c.23,1,.54,2.37.9,4.11a123,123,0,0,1,2,13.74,123.28,123.28,0,0,1,.4,13.88c0,1.78-.11,3.22-.17,4.21a8,8,0,0,0,0,1.55,7.48,7.48,0,0,0,.25-1.53c.12-1,.25-2.43.35-4.21a97.55,97.55,0,0,0-.23-13.95,98.27,98.27,0,0,0-2.2-13.78c-.42-1.73-.79-3.13-1.09-4.08A7.61,7.61,0,0,0,58,388.35Z" style="fill:#ffd39d"></path><path d="M74.38,411.32a18.86,18.86,0,0,0-.5,3.11c-.25,1.92-.63,4.58-1.14,7.49s-1,5.54-1.46,7.43a20.17,20.17,0,0,0-.59,3.1,14.8,14.8,0,0,0,1-3c.52-1.88,1.13-4.5,1.64-7.43s.82-5.61,1-7.55A14.15,14.15,0,0,0,74.38,411.32Z" style="fill:#ffd39d"></path><path d="M239.16,403.13a8.11,8.11,0,0,0-.38,1.5c-.19,1-.5,2.39-.9,4.12A126.16,126.16,0,0,1,234,422.07a122.77,122.77,0,0,1-5.45,12.77c-.79,1.6-1.45,2.88-1.92,3.76a7.21,7.21,0,0,0-.66,1.4,8.24,8.24,0,0,0,.86-1.29c.53-.85,1.25-2.1,2.09-3.68a99.81,99.81,0,0,0,5.63-12.76,98,98,0,0,0,3.76-13.43c.35-1.75.6-3.18.73-4.17A7.35,7.35,0,0,0,239.16,403.13Z" style="fill:#ffd39d"></path><path d="M243.05,420.12a20,20,0,0,0-1.75,2.61c-1,1.64-2.49,3.9-4.17,6.33s-3.28,4.59-4.45,6.14a19.44,19.44,0,0,0-1.82,2.56,15.32,15.32,0,0,0,2.15-2.31c1.25-1.48,2.91-3.61,4.6-6.06s3.1-4.74,4-6.44A14.56,14.56,0,0,0,243.05,420.12Z" style="fill:#ffd39d"></path><path d="M490.42,442.53c-41.86-10-84.05-18.78-102.5-22.64-39.63-8.29-85.68,3.25-119.78,25.07-3.95,2.53-24.32,12.6-57.12,34l279.51,1.23Z" style="fill:#ffd39d"></path><path d="M340.11,400.74a2.47,2.47,0,0,1,.12-2.07,6.31,6.31,0,0,1,1.24-1.49s.1-.09.17-.08.11.07.15.13a2.09,2.09,0,0,1-.19,2,6.2,6.2,0,0,1-1.49,1.49" style="fill:#ffd39d"></path><path d="M339.51,398.28a2.47,2.47,0,0,1-.23-2.06,6.06,6.06,0,0,1,1-1.68c0-.05.08-.11.14-.11s.13.05.17.1a2.1,2.1,0,0,1,.16,2,6.31,6.31,0,0,1-1.22,1.73" style="fill:#ffd39d"></path><path d="M338.75,395.65a2.49,2.49,0,0,1-.05-2.07,6,6,0,0,1,1.1-1.6c.05,0,.1-.1.16-.1s.12.06.16.12a2.09,2.09,0,0,1,0,2,6.18,6.18,0,0,1-1.36,1.62" style="fill:#ffd39d"></path><path d="M338,393a2.44,2.44,0,0,1,.11-2.06,5.94,5.94,0,0,1,1.24-1.5.22.22,0,0,1,.16-.09.22.22,0,0,1,.15.13,2.09,2.09,0,0,1-.18,2A6,6,0,0,1,338,393" style="fill:#ffd39d"></path><path d="M337.31,390.64a2.52,2.52,0,0,1,.25-2.05,6,6,0,0,1,1.34-1.41.18.18,0,0,1,.16-.08c.07,0,.12.08.15.14a2.07,2.07,0,0,1-.32,2,5.89,5.89,0,0,1-1.58,1.4" style="fill:#ffd39d"></path><path d="M336.7,388.17a2.44,2.44,0,0,1,.33-2,6.19,6.19,0,0,1,1.39-1.36.23.23,0,0,1,.17-.07.22.22,0,0,1,.13.15,2.07,2.07,0,0,1-.39,2,6.18,6.18,0,0,1-1.63,1.33" style="fill:#ffd39d"></path><path d="M335.88,385.43a2.51,2.51,0,0,1,.43-2,6.18,6.18,0,0,1,1.45-1.29.2.2,0,0,1,.18-.06.23.23,0,0,1,.12.15,2.09,2.09,0,0,1-.48,2,6.18,6.18,0,0,1-1.7,1.25" style="fill:#ffd39d"></path><path d="M340.11,400.74A2.45,2.45,0,0,0,339,399a6.17,6.17,0,0,0-1.83-.66.31.31,0,0,0-.19,0,.24.24,0,0,0-.06.19,2.12,2.12,0,0,0,1.19,1.65,6.2,6.2,0,0,0,2,.52" style="fill:#ffd39d"></path><path d="M339.53,398.26a2.47,2.47,0,0,0-1.15-1.72,6.25,6.25,0,0,0-1.83-.65.21.21,0,0,0-.19,0,.24.24,0,0,0-.06.19,2.1,2.1,0,0,0,1.19,1.64,6.21,6.21,0,0,0,2,.53" style="fill:#ffd39d"></path><path d="M338.75,395.65a2.51,2.51,0,0,0-1.08-1.77,6.43,6.43,0,0,0-1.8-.73.31.31,0,0,0-.19,0,.22.22,0,0,0-.07.19,2.09,2.09,0,0,0,1.12,1.69,6.09,6.09,0,0,0,2,.62" style="fill:#ffd39d"></path><path d="M338,393.05a2.5,2.5,0,0,0-1.09-1.76,5.91,5.91,0,0,0-1.8-.72.19.19,0,0,0-.18,0,.22.22,0,0,0-.07.19,2.09,2.09,0,0,0,1.12,1.68,5.85,5.85,0,0,0,2,.61" style="fill:#ffd39d"></path><path d="M337.38,390.66a2.49,2.49,0,0,0-1.1-1.76,5.66,5.66,0,0,0-1.8-.72.19.19,0,0,0-.18,0,.22.22,0,0,0-.07.19,2.08,2.08,0,0,0,1.13,1.68,6.32,6.32,0,0,0,2,.61" style="fill:#ffd39d"></path><path d="M336.77,388.15a2.49,2.49,0,0,0-1.19-1.7,6.09,6.09,0,0,0-1.83-.62.21.21,0,0,0-.19,0,.24.24,0,0,0-.06.19,2.11,2.11,0,0,0,1.22,1.63,6.22,6.22,0,0,0,2,.49" style="fill:#ffd39d"></path><path d="M335.92,385.49a2.49,2.49,0,0,0-1.15-1.72,6.15,6.15,0,0,0-1.83-.65.25.25,0,0,0-.19,0,.28.28,0,0,0-.06.2,2.1,2.1,0,0,0,1.19,1.64,6.15,6.15,0,0,0,2,.53" style="fill:#ffd39d"></path><path d="M348.32,430.64c-.16,0-3.28-10.85-7-24.33s-6.56-24.45-6.4-24.49,3.28,10.85,7,24.33S348.47,430.6,348.32,430.64Z" style="fill:#ffd39d"></path><path d="M335.48,383.77a2.43,2.43,0,0,1-1.21-1.66,4.52,4.52,0,0,1,.16-2,2.84,2.84,0,0,1,1.23,1.65,2.3,2.3,0,0,1-.18,2" style="fill:#ffd39d"></path><path d="M372.65,403.73a2.5,2.5,0,0,1,1.2-1.68,5.87,5.87,0,0,1,1.84-.61.21.21,0,0,1,.19,0,.21.21,0,0,1,.05.19,2.09,2.09,0,0,1-1.23,1.62,6.19,6.19,0,0,1-2.05.47" style="fill:#ffd39d"></path><path d="M373.44,401.33a2.49,2.49,0,0,1,.9-1.87,6.11,6.11,0,0,1,1.71-.91.25.25,0,0,1,.19,0,.23.23,0,0,1,.09.18,2.11,2.11,0,0,1-.94,1.8,6.36,6.36,0,0,1-1.95.82" style="fill:#ffd39d"></path><path d="M374.19,398.69a2.48,2.48,0,0,1,1.05-1.78,6,6,0,0,1,1.78-.77.21.21,0,0,1,.19,0c.06,0,.07.12.07.19A2.1,2.1,0,0,1,376.2,398a6.08,6.08,0,0,1-2,.65" style="fill:#ffd39d"></path><path d="M374.93,396.06a2.45,2.45,0,0,1,1.19-1.69,6.25,6.25,0,0,1,1.84-.62.31.31,0,0,1,.19,0,.23.23,0,0,1,.05.2,2.08,2.08,0,0,1-1.22,1.61,6,6,0,0,1-2.05.49" style="fill:#ffd39d"></path><path d="M375.62,393.69a2.46,2.46,0,0,1,1.3-1.61,6,6,0,0,1,1.87-.5.24.24,0,0,1,.19,0,.23.23,0,0,1,0,.2,2.06,2.06,0,0,1-1.32,1.53,6.07,6.07,0,0,1-2.08.36" style="fill:#ffd39d"></path><path d="M376.4,391.26a2.44,2.44,0,0,1,1.37-1.55,5.77,5.77,0,0,1,1.89-.42.22.22,0,0,1,.18,0,.23.23,0,0,1,0,.2,2.09,2.09,0,0,1-1.39,1.48,6.35,6.35,0,0,1-2.09.26" style="fill:#ffd39d"></path><path d="M377.16,388.51a2.45,2.45,0,0,1,1.43-1.49,5.91,5.91,0,0,1,1.92-.33.28.28,0,0,1,.18,0,.2.2,0,0,1,0,.2,2.06,2.06,0,0,1-1.45,1.41,6.17,6.17,0,0,1-2.1.17" style="fill:#ffd39d"></path><path d="M372.65,403.74a2.5,2.5,0,0,0-.07-2.07,6.1,6.1,0,0,0-1.21-1.52.26.26,0,0,0-.16-.09c-.07,0-.12.07-.15.13a2.06,2.06,0,0,0,.14,2,6.2,6.2,0,0,0,1.45,1.53" style="fill:#ffd39d"></path><path d="M373.47,401.32a2.46,2.46,0,0,0-.07-2.07,6.28,6.28,0,0,0-1.21-1.52.24.24,0,0,0-.16-.09.22.22,0,0,0-.15.13,2.09,2.09,0,0,0,.14,2,6.2,6.2,0,0,0,1.45,1.53" style="fill:#ffd39d"></path><path d="M374.19,398.69a2.49,2.49,0,0,0,0-2.07,6.18,6.18,0,0,0-1.14-1.57s-.09-.1-.15-.09a.2.2,0,0,0-.16.12,2.08,2.08,0,0,0,.05,2,6,6,0,0,0,1.39,1.59" style="fill:#ffd39d"></path><path d="M375,396.12a2.49,2.49,0,0,0,0-2.07,5.88,5.88,0,0,0-1.15-1.57.22.22,0,0,0-.15-.1c-.07,0-.12.07-.16.13a2.08,2.08,0,0,0,.06,2,6,6,0,0,0,1.39,1.59" style="fill:#ffd39d"></path><path d="M375.66,393.73a2.49,2.49,0,0,0,0-2.07,6.23,6.23,0,0,0-1.15-1.56.23.23,0,0,0-.16-.1c-.07,0-.12.06-.16.12a2.1,2.1,0,0,0,.07,2,6.15,6.15,0,0,0,1.39,1.58" style="fill:#ffd39d"></path><path d="M376.47,391.28a2.48,2.48,0,0,0-.1-2.06,6.36,6.36,0,0,0-1.23-1.51c-.05,0-.1-.09-.17-.08s-.11.07-.15.13a2.12,2.12,0,0,0,.17,2,6.2,6.2,0,0,0,1.48,1.5" style="fill:#ffd39d"></path><path d="M377.16,388.58a2.5,2.5,0,0,0-.07-2.07,6.29,6.29,0,0,0-1.2-1.52.25.25,0,0,0-.17-.1.27.27,0,0,0-.15.13,2.11,2.11,0,0,0,.14,2,6.19,6.19,0,0,0,1.45,1.53" style="fill:#ffd39d"></path><path d="M363.8,433.45c-.15-.05,3-10.95,6.95-24.34s7.37-24.22,7.52-24.17-3,10.94-6.95,24.34S364,433.5,363.8,433.45Z" style="fill:#ffd39d"></path><path d="M377.7,386.88a2.36,2.36,0,0,1-.15-2,4.77,4.77,0,0,1,1.2-1.65,2.83,2.83,0,0,1,.18,2.06,2.29,2.29,0,0,1-1.23,1.63" style="fill:#ffd39d"></path><path d="M444,402.79a2.83,2.83,0,0,1-.29.64l-.94,1.78c-.83,1.53-2,3.76-3.39,6.55s-3,6.14-4.61,9.92-3.29,8-4.87,12.47-2.88,8.82-4,12.78-1.95,7.58-2.6,10.63-1.14,5.52-1.44,7.23c-.15.81-.28,1.46-.38,2a3,3,0,0,1-.17.68,3.06,3.06,0,0,1,.06-.7c.07-.52.15-1.18.26-2,.24-1.73.66-4.22,1.26-7.28s1.43-6.69,2.48-10.69,2.39-8.33,4-12.84,3.28-8.7,4.93-12.49,3.28-7.12,4.73-9.89,2.67-5,3.56-6.47l1-1.73A3.82,3.82,0,0,1,444,402.79Z" style="fill:#ffd39d"></path><path d="M436.62,423.77a10.13,10.13,0,0,1-2.29,2.54,9.87,9.87,0,0,1-2.69,2.11,10.32,10.32,0,0,1,2.29-2.54A9.87,9.87,0,0,1,436.62,423.77Z" style="fill:#ffd39d"></path><path d="M433,419.66a9.65,9.65,0,0,1,.07,3.31,9.4,9.4,0,0,1-.52,3.27,18.54,18.54,0,0,1,.45-6.58Z" style="fill:#ffd39d"></path><path d="M438.61,418.6a9.13,9.13,0,0,1-2.19,2.33,8.72,8.72,0,0,1-2.57,1.88c-.11-.11.86-1.15,2.18-2.32A8.52,8.52,0,0,1,438.61,418.6Z" style="fill:#ffd39d"></path><path d="M435.57,412.75a8.42,8.42,0,0,1,.25,3.35,8.55,8.55,0,0,1-.52,3.32,11.64,11.64,0,0,1-.07-3.34A11.89,11.89,0,0,1,435.57,412.75Z" style="fill:#ffd39d"></path><path d="M440.91,413c.09.13-.71.92-1.79,1.75s-2,1.42-2.14,1.3.69-.91,1.78-1.76S440.82,412.89,440.91,413Z" style="fill:#ffd39d"></path><path d="M439,407.81a6.89,6.89,0,0,1,0,2.83,7,7,0,0,1-.63,2.76,6.87,6.87,0,0,1,0-2.83A7.11,7.11,0,0,1,439,407.81Z" style="fill:#ffd39d"></path><path d="M443.78,407.51c.09.14-.68.84-1.72,1.58s-2,1.22-2.06,1.09.68-.84,1.72-1.57S443.68,407.38,443.78,407.51Z" style="fill:#ffd39d"></path><path d="M441.94,402.12a11.13,11.13,0,0,1-.38,5,11.13,11.13,0,0,1,.38-5Z" style="fill:#ffd39d"></path><path d="M445.87,403.86c.07.15-.56.57-1.43.93s-1.6.55-1.65.39.58-.57,1.42-.93S445.8,403.72,445.87,403.86Z" style="fill:#ffd39d"></path><path d="M445.83,399.89c.14.08-.31,1.06-1,2.18s-1.36,2-1.5,1.87.31-1.06,1-2.18S445.7,399.8,445.83,399.89Z" style="fill:#ffd39d"></path><g style="opacity:0.30000000000000004"><path d="M321.65,421.36S376,458.25,380.27,480l31.33.3S372.12,428.36,334.94,419Z" style="fill:#fff"></path></g><g style="opacity:0.30000000000000004"><path d="M367.66,417.31S418,446,449.94,480.41l27.24.25s-55.7-47.92-79.8-58.41a110.6,110.6,0,0,0-28.53-4.88" style="fill:#fff"></path></g><path d="M467.8,411.6a37.56,37.56,0,0,1-2,3.66c-1.29,2.24-3,5.37-4.7,8.92s-3.06,6.85-4,9.25a38.19,38.19,0,0,1-1.57,3.89,4,4,0,0,1,.25-1.11c.19-.69.51-1.69.93-2.92a90.65,90.65,0,0,1,3.86-9.37,91.68,91.68,0,0,1,4.87-8.88c.69-1.1,1.27-2,1.69-2.56A4.37,4.37,0,0,1,467.8,411.6Z" style="fill:#ffd39d"></path><path d="M471.93,422.08a22.22,22.22,0,0,1-2,2.74c-1.27,1.66-3,3.95-4.84,6.55s-3.44,5-4.58,6.73a22.63,22.63,0,0,1-1.92,2.79,16.53,16.53,0,0,1,1.57-3c1.05-1.8,2.6-4.25,4.45-6.85s3.64-4.88,5-6.47A17.41,17.41,0,0,1,471.93,422.08Z" style="fill:#ffd39d"></path><path d="M456,416.16a20.59,20.59,0,0,1-.87,2.86,54.1,54.1,0,0,0-2.53,14.06,21.29,21.29,0,0,1-.18,3,11.36,11.36,0,0,1-.24-3,40.76,40.76,0,0,1,.64-7.21,39.79,39.79,0,0,1,1.92-7A11.59,11.59,0,0,1,456,416.16Z" style="fill:#ffd39d"></path><path d="M347.92,401.47a16.31,16.31,0,0,1,1.41,2.65c.82,1.65,2,3.92,3.36,6.38s2.7,4.64,3.68,6.21a17.43,17.43,0,0,1,1.52,2.59,14.33,14.33,0,0,1-1.86-2.36c-1.07-1.52-2.47-3.68-3.86-6.15a70.89,70.89,0,0,1-3.22-6.5A13.54,13.54,0,0,1,347.92,401.47Z" style="fill:#ffd39d"></path><path d="M355.32,397.88a21.62,21.62,0,0,1,.41,3,54.49,54.49,0,0,0,3.66,14,21.3,21.3,0,0,1,1.11,2.82,11.79,11.79,0,0,1-1.49-2.66,40.46,40.46,0,0,1-3.69-14.16A12.15,12.15,0,0,1,355.32,397.88Z" style="fill:#ffd39d"></path><path d="M362.63,408.32c.17,0,.19,2.47.06,5.49a26.32,26.32,0,0,1-.54,5.47,25.6,25.6,0,0,1,0-5.49A26,26,0,0,1,362.63,408.32Z" style="fill:#ffd39d"></path><path d="M429.91,397.34a7.51,7.51,0,0,1-.28,1.52c-.23,1-.54,2.38-.9,4.12a117.74,117.74,0,0,0-2.43,27.61c.05,1.78.11,3.22.17,4.22a7.44,7.44,0,0,1,0,1.55,8.32,8.32,0,0,1-.24-1.54c-.13-1-.25-2.43-.35-4.21a97.38,97.38,0,0,1,.22-13.95,99.41,99.41,0,0,1,2.21-13.77c.42-1.74.79-3.13,1.09-4.09A8.89,8.89,0,0,1,429.91,397.34Z" style="fill:#ffd39d"></path><path d="M419.27,411.13a20,20,0,0,1,.49,3.11c.26,1.93.63,4.58,1.14,7.5s1.06,5.53,1.47,7.43a17.78,17.78,0,0,1,.58,3.1,15.26,15.26,0,0,1-1-3c-.52-1.88-1.14-4.5-1.65-7.43s-.82-5.61-1-7.55A14.57,14.57,0,0,1,419.27,411.13Z" style="fill:#ffd39d"></path><path d="M268.54,441.66c-34.46-3.06-93.66,12.82-118.94,37.73l225.31.38C341.11,472.33,303,444.72,268.54,441.66Z" style="fill:#ffd39d"></path><path d="M173.56,400.24a8.9,8.9,0,0,1,.1,1.6c0,1,0,2.52,0,4.36-.07,3.67-.32,8.75-.89,14.34s-1.38,10.61-2.07,14.23c-.34,1.8-.65,3.26-.89,4.26a7.94,7.94,0,0,1-.42,1.54,8,8,0,0,1,.2-1.58c.18-1.13.42-2.57.7-4.3.58-3.62,1.31-8.64,1.89-14.21s.89-10.63,1.06-14.3c.08-1.75.15-3.21.2-4.34A8,8,0,0,1,173.56,400.24Z" style="fill:#ffd39d"></path><path d="M156.6,413.6s.27.2.68.63,1,1.09,1.64,1.93a35.9,35.9,0,0,1,4.29,7.16,36.3,36.3,0,0,1,2.54,7.94,22.73,22.73,0,0,1,.37,2.51,2.93,2.93,0,0,1,0,.93c-.09,0-.3-1.29-.79-3.35a44.22,44.22,0,0,0-6.76-15C157.37,414.67,156.53,413.66,156.6,413.6Z" style="fill:#ffd39d"></path><path d="M182.68,415.44c.15.07-1.72,5-4.18,11.1s-4.58,10.93-4.73,10.87,1.72-5,4.18-11.09S182.53,415.38,182.68,415.44Z" style="fill:#ffd39d"></path><path d="M220.92,421.61a9.14,9.14,0,0,0-.5,1.53c-.28,1-.66,2.43-1.09,4.21-.86,3.58-1.9,8.56-2.74,14.11s-1.35,10.62-1.59,14.29c-.12,1.83-.19,3.32-.21,4.35a7.93,7.93,0,0,0,0,1.6,8.36,8.36,0,0,0,.2-1.59c.11-1.13.25-2.59.41-4.33.34-3.65.9-8.69,1.75-14.23S219,431,219.74,427.44c.36-1.71.67-3.13.91-4.25A8.33,8.33,0,0,0,220.92,421.61Z" style="fill:#ffd39d"></path><path d="M208.27,434c-.16,0,.4,5.3,1.25,11.79s1.67,11.73,1.83,11.71-.4-5.3-1.25-11.79S208.43,434,208.27,434Z" style="fill:#ffd39d"></path><path d="M192.24,413.26a10.35,10.35,0,0,1,.09,1.77c0,1.14.06,2.8.14,4.84A150.33,150.33,0,0,0,197,451.36c.5,2,.93,3.58,1.24,4.68a10.22,10.22,0,0,1,.41,1.73,11.63,11.63,0,0,1-.63-1.67c-.37-1.08-.86-2.66-1.42-4.63a125.33,125.33,0,0,1-4.58-31.59c0-2.05,0-3.71,0-4.85A10,10,0,0,1,192.24,413.26Z" style="fill:#ffd39d"></path><path d="M192.81,430.22c-.16-.05.42-2.12,1.28-4.62a20.43,20.43,0,0,1,1.84-4.43c.16.06-.42,2.13-1.28,4.62A19.6,19.6,0,0,1,192.81,430.22Z" style="fill:#ffd39d"></path><path d="M191.74,425.81c-.14.08-.91-.92-1.73-2.25a7,7,0,0,1-1.22-2.55c.13-.09.91.92,1.72,2.24A6.93,6.93,0,0,1,191.74,425.81Z" style="fill:#ffd39d"></path><path d="M193,419.71a6.33,6.33,0,0,1,.56-2.68c.47-1.42,1-2.54,1.13-2.48a6.6,6.6,0,0,1-.57,2.67A6.76,6.76,0,0,1,193,419.71Z" style="fill:#ffd39d"></path><path d="M299.49,416.21a9.72,9.72,0,0,1-.47,1.72c-.34,1.09-.82,2.67-1.39,4.63A155.34,155.34,0,0,0,294,438.08a157.59,157.59,0,0,0-1.94,15.82c-.14,2-.24,3.69-.29,4.83a10.62,10.62,0,0,1-.15,1.77,10,10,0,0,1-.08-1.78c0-1.14,0-2.8.11-4.84a125.33,125.33,0,0,1,5.57-31.44c.61-1.95,1.15-3.52,1.56-4.58A10.37,10.37,0,0,1,299.49,416.21Z" style="fill:#ffd39d"></path><path d="M294.7,432.5a19.82,19.82,0,0,1,2.67-4,20,20,0,0,1,3.14-3.63,20,20,0,0,1-2.67,4A19.3,19.3,0,0,1,294.7,432.5Z" style="fill:#ffd39d"></path><path d="M295.07,428a7.22,7.22,0,0,1-.93-2.67,6.9,6.9,0,0,1-.36-2.81,7,7,0,0,1,.93,2.67A6.91,6.91,0,0,1,295.07,428Z" style="fill:#ffd39d"></path><path d="M298.19,422.58a6.59,6.59,0,0,1,1.38-2.36c.89-1.21,1.72-2.11,1.85-2a6.59,6.59,0,0,1-1.38,2.36C299.15,421.77,298.32,422.67,298.19,422.58Z" style="fill:#ffd39d"></path><path d="M245.83,418.31a4,4,0,0,1,.49,1c.28.67.65,1.65,1.09,2.87.88,2.43,2,5.84,3,9.66s1.72,7.33,2.16,9.88c.22,1.28.38,2.32.46,3a4.11,4.11,0,0,1,.08,1.12,32.87,32.87,0,0,1-.95-4.08c-.54-2.52-1.32-6-2.32-9.81s-2-7.22-2.81-9.68A37.2,37.2,0,0,1,245.83,418.31Z" style="fill:#ffd39d"></path><path d="M259.13,422.85a17.57,17.57,0,0,1-.35,3.21c-.3,2.16-.67,4.79-1.07,7.69s-.72,5.54-1,7.71a20.07,20.07,0,0,1-.51,3.18,16.67,16.67,0,0,1,.09-3.23c.15-2,.42-4.72.82-7.74S258,428,258.37,426A18.33,18.33,0,0,1,259.13,422.85Z" style="fill:#ffd39d"></path><path d="M265.32,432.22c.16.09-1.16,2.69-2.35,6.07s-1.81,6.23-2,6.2a27.59,27.59,0,0,1,4.33-12.27Z" style="fill:#ffd39d"></path><path d="M311.17,429.94a4.34,4.34,0,0,1,.07,1.12c0,.73,0,1.77-.08,3.07-.11,2.58-.38,6.15-.89,10.07s-1.18,7.44-1.74,10c-.28,1.26-.53,2.28-.72,3a3.91,3.91,0,0,1-.36,1.07,38.44,38.44,0,0,1,.67-4.13c.46-2.54,1.05-6.06,1.56-10s.85-7.46,1.07-10A35.31,35.31,0,0,1,311.17,429.94Z" style="fill:#ffd39d"></path><path d="M321.76,439.18a18.45,18.45,0,0,1-1.54,2.84c-1.09,1.88-2.43,4.17-3.9,6.71l-3.84,6.75a18.16,18.16,0,0,1-1.68,2.76,17,17,0,0,1,1.31-2.95c.89-1.79,2.18-4.22,3.7-6.86s3-5,4.06-6.63A16.63,16.63,0,0,1,321.76,439.18Z" style="fill:#ffd39d"></path><path d="M323.94,450.19c.11.14-2.09,2.05-4.47,4.73s-4,5.09-4.18,5a27.43,27.43,0,0,1,8.65-9.72Z" style="fill:#ffd39d"></path><g style="opacity:0.30000000000000004"><path d="M332.16,479.9s-46.7-35.78-92.07-37.48c-2.46.2-5,.56-7.72,1.05,0,0,55.66,19.59,70.38,36.43Z" style="fill:#fff"></path></g><g style="opacity:0.30000000000000004"><path d="M269.71,479.29s-34.79-26.66-68.59-27.93c-1.83.16-3.75.43-5.75.79,0,0,41.47,14.59,52.43,27.14Z" style="fill:#fff"></path></g><path d="M350.81,478a1.1,1.1,0,0,1-.22-.17l-.64-.54c-.57-.47-1.36-1.23-2.51-2.09a100.3,100.3,0,0,0-10.13-7c-4.5-2.78-10.11-5.92-16.7-9.16a238,238,0,0,0-22.52-9.77h0a86.35,86.35,0,0,0-22.3-6.21,117.82,117.82,0,0,0-25.55-.89,211.19,211.19,0,0,0-32.83,4.43,150.42,150.42,0,0,0-27.62,8.63h0a129.1,129.1,0,0,0-17.53,8.16,137.17,137.17,0,0,0-12.55,7.9c-3.35,2.38-5.85,4.4-7.53,5.8-.84.7-1.46,1.27-1.89,1.63s-.66.55-.66.55a85.37,85.37,0,0,1,9.93-8.18,133.11,133.11,0,0,1,12.53-8,129.17,129.17,0,0,1,17.55-8.27h0a149.16,149.16,0,0,1,27.7-8.72,208.1,208.1,0,0,1,32.91-4.47c17.66-1.25,34.7,1.27,48.08,7.21h0a232.65,232.65,0,0,1,22.54,9.86c6.58,3.26,12.18,6.44,16.67,9.26a95.67,95.67,0,0,1,10.08,7.13c1.13.88,1.9,1.65,2.46,2.14l.61.57Z" style="fill:#263238"></path><path d="M485.89,479.74c0,.14-106.52.26-237.88.26s-237.9-.12-237.9-.26,106.49-.26,237.9-.26S485.89,479.6,485.89,479.74Z" style="fill:#263238"></path></g><g id="freepik--Birds--inject-106"><path d="M132.4,106.88a5.4,5.4,0,0,0-1.56.08,3.74,3.74,0,0,0-2.07,1.51,2.1,2.1,0,0,0,.79,0,19.61,19.61,0,0,1,3.16-.11,1.89,1.89,0,0,0-.32-1.49" style="fill:#FF725E"></path><path d="M150,111.13a61.62,61.62,0,0,1-10.63-2.63c-2.36,2.21-3.9,5.27-6.56,7.1a36.33,36.33,0,0,0-3.71,2.35,12,12,0,0,0-3,5.21,136.88,136.88,0,0,0-4.59,15.9l3.62-4.77-.13,2.87,5-8.09.5,2.6L142,121.57a58.76,58.76,0,0,0,5.86-6.1Z" style="fill:#e0e0e0"></path><path d="M140.2,105.62a23.88,23.88,0,0,0,3.37-6.11c1.5-3.87,1.94-11.85,6.39-15.09s15.55-11.1,15.55-11.1l-4.61,6.49,5.61-4.49a21,21,0,0,1-4.74,6.36l4.52-2.13s-.56,4.87-2.6,5.21c-.28,0-1.58,1.83-1.58,1.83l.5,1.17s-5.37,11.42-6.79,13.7-5.06,6.79-5.06,6.79Z" style="fill:#e0e0e0"></path><path d="M132.22,107.23c.05-.16.25-2.16,3.51-2.26a16.72,16.72,0,0,1,4.72.32s9.31,2.48,10.65,3.21S161.87,107,161.87,107s4.27,7.5-1.33,12.42-8.75,3.1-8.75,3.1-.48-5.86-2.88-7.36c0,0-4.16-.05-6.13-1s-5.66-4.43-6.4-4.91-2.88-.18-3.63-.73A1.19,1.19,0,0,1,132.22,107.23Z" style="fill:#e0e0e0"></path><circle cx="134.35" cy="106.75" r="0.66" style="fill:#263238"></circle><path d="M162.61,87.76l-.5-1.17s1.3-1.79,1.58-1.83c2-.34,2.6-5.21,2.6-5.21l-4.52,2.13a21,21,0,0,0,4.74-6.36l-5.61,4.49,4.61-6.49S154.42,81.18,150,84.42l7.15-2.3-1.33,3.37,5.64-2.43a4,4,0,0,0-.55,3.37C161.5,88.16,162.61,87.76,162.61,87.76Z" style="fill:#263238"></path><path d="M130.48,131.67l-.5-2.6-5,8.09.13-2.87-3.62,4.77a136.88,136.88,0,0,1,4.59-15.9L126,128l2.78-2v3.5l2.43-2.25Z" style="fill:#263238"></path><path d="M156.89,117.19s-.36-.24-1-.51-1.54-.52-2.51-1a9.52,9.52,0,0,1-3.18-2.15c.06-.07,1.41,1,3.31,1.86.94.44,1.86.71,2.48,1.06S156.92,117.16,156.89,117.19Z" style="fill:#263238"></path><path d="M158.12,115.13a11.45,11.45,0,0,1-3.6-.91,11,11,0,0,1-3.27-1.76c0-.08,1.49.73,3.39,1.46S158.14,115,158.12,115.13Z" style="fill:#263238"></path><path d="M149.33,114.82a1.69,1.69,0,0,1-.5.22,11.46,11.46,0,0,1-1.46.39,6.48,6.48,0,0,1-2.25.11,6.62,6.62,0,0,1-2.55-1,20.56,20.56,0,0,1-3.94-3c-.45-.44-.8-.82-1-1.09s-.34-.43-.32-.45.57.54,1.51,1.38a25.2,25.2,0,0,0,3.94,2.9,5.84,5.84,0,0,0,4.6,1C148.57,115,149.32,114.77,149.33,114.82Z" style="fill:#263238"></path><path d="M156.56,83.77a9,9,0,0,1-.68.76l-1.95,2c-.82.84-1.83,1.82-2.89,2.94a4.13,4.13,0,0,0-1.11,2,10.5,10.5,0,0,0-.06,2.58,18.82,18.82,0,0,1-.39,5.07,12.68,12.68,0,0,1-1.57,3.85,10.13,10.13,0,0,1-1.81,2.14,5.78,5.78,0,0,1-.6.47c-.14.1-.22.14-.23.13a12.07,12.07,0,0,0,2.45-2.86,13,13,0,0,0,1.47-3.8,18.62,18.62,0,0,0,.37-5,10.2,10.2,0,0,1,.06-2.65,4.49,4.49,0,0,1,1.2-2.18c1.1-1.13,2.11-2.08,3-2.9l2-1.93A5.08,5.08,0,0,1,156.56,83.77Z" style="fill:#263238"></path><path d="M161.81,89.23s-.13.14-.4.33a13.18,13.18,0,0,1-1.18.74,22.49,22.49,0,0,1-8.73,2.82c-.58.06-1.06.08-1.39.08a1.56,1.56,0,0,1-.51,0,19,19,0,0,1,1.88-.29,29.07,29.07,0,0,0,4.44-1,27.88,27.88,0,0,0,4.2-1.76C161.17,89.57,161.79,89.19,161.81,89.23Z" style="fill:#263238"></path><path d="M162.06,84.64a1.54,1.54,0,0,1-.28.47,4.58,4.58,0,0,1-1.12,1,16.65,16.65,0,0,1-1.94,1c-.75.33-1.57.68-2.44,1-1.75.69-3.36,1.25-4.52,1.64a13.54,13.54,0,0,1-1.91.56,12.74,12.74,0,0,1,1.83-.77l4.48-1.72c.87-.35,1.69-.68,2.44-1a17.41,17.41,0,0,0,1.94-.89A6.26,6.26,0,0,0,162.06,84.64Z" style="fill:#263238"></path><path d="M157.86,95.11a2,2,0,0,1-1,.71,19.23,19.23,0,0,1-2.89.77,13.51,13.51,0,0,1-3,.48,1.87,1.87,0,0,1-1.21-.3,7.89,7.89,0,0,0,1.2.08,20.49,20.49,0,0,0,2.9-.57c1.13-.26,2.18-.43,2.88-.67A10.87,10.87,0,0,0,157.86,95.11Z" style="fill:#263238"></path><path d="M127.69,127.32a2.87,2.87,0,0,1,.21-.75,9.32,9.32,0,0,1,1-1.89,9.47,9.47,0,0,1,2.19-2.28,18.31,18.31,0,0,1,3.41-1.84,18.19,18.19,0,0,0,3.35-1.8,13.32,13.32,0,0,0,2.3-2.09,27.29,27.29,0,0,0,1.68-2.33,3.57,3.57,0,0,1-.32.71,11.09,11.09,0,0,1-1.19,1.76A11.85,11.85,0,0,1,138,119a17.6,17.6,0,0,1-3.39,1.86,19,19,0,0,0-3.37,1.79,10,10,0,0,0-2.18,2.17A14.94,14.94,0,0,0,127.69,127.32Z" style="fill:#263238"></path><path d="M132.64,128.65a28,28,0,0,0,.48-3.31,32.49,32.49,0,0,0-.23-3.34,7.16,7.16,0,0,1,.54,3.35A7,7,0,0,1,132.64,128.65Z" style="fill:#263238"></path><path d="M136.46,125.54a23.39,23.39,0,0,1-.13-2.43c-.08-1.34-.29-2.41-.2-2.44a6,6,0,0,1,.52,2.41A6.13,6.13,0,0,1,136.46,125.54Z" style="fill:#263238"></path><path d="M139.65,123a18.59,18.59,0,0,1-.46-2.41,19.32,19.32,0,0,1-.49-2.39,6,6,0,0,1,.8,2.33A6.39,6.39,0,0,1,139.65,123Z" style="fill:#263238"></path><path d="M143.2,117.64c-.06.07-.46-.2-.9-.59s-.75-.76-.69-.83.46.2.9.59S143.26,117.58,143.2,117.64Z" style="fill:#263238"></path><path d="M151.71,106.48a20.63,20.63,0,0,1-4.15-3,10,10,0,0,1,2.16,1.39A10.74,10.74,0,0,1,151.71,106.48Z" style="fill:#263238"></path><path d="M155.82,101.17a7.6,7.6,0,0,1-3.56.82c-1,0-1.93-.09-2.59-.12a6.64,6.64,0,0,1-1.06-.09,2.61,2.61,0,0,1,1.07-.14c.66,0,1.58.06,2.57,0A30.44,30.44,0,0,0,155.82,101.17Z" style="fill:#263238"></path><path d="M88,94.36a5.09,5.09,0,0,1-1.21-.25c-.74-.2-1.75-.51-2.85-.89s-2.09-.78-2.79-1.08A5.54,5.54,0,0,1,80,91.59,5.48,5.48,0,0,1,81.2,92l2.8,1,2.82,1A5.71,5.71,0,0,1,88,94.36Z" style="fill:#263238"></path><path d="M89,93.33a5.52,5.52,0,0,1-1.21-.26c-.74-.2-1.75-.51-2.85-.89s-2.08-.77-2.79-1.08A5,5,0,0,1,81,90.55a5.48,5.48,0,0,1,1.19.36l2.8,1,2.82,1A5.33,5.33,0,0,1,89,93.33Z" style="fill:#263238"></path><path d="M57.72,83.5s1.84-1.93,3.32-2.19S74.7,83.06,74.7,83.06l19.7,7.45s-1.22,1.92-4.46,1.31-6.83-1.67-6.83-1.67a12.86,12.86,0,0,1-6.48,1.79c-3.68,0-8.32-.91-11-3.8s-6-1-6.69-3.45A1.54,1.54,0,0,0,57.72,83.5Z" style="fill:#e0e0e0"></path><path d="M105.91,61.82a39.65,39.65,0,0,1-4.09,4.87,2.68,2.68,0,0,1-1.64,1,25.05,25.05,0,0,0,4.43-8.56c-.63.95-1.29,1.87-2,2.76a19.19,19.19,0,0,1-1.68,1.93,29,29,0,0,1-5.44,3.93A33.64,33.64,0,0,1,91,70.3a70.78,70.78,0,0,1-6.82,2.29c-1.06.36-3,.8-3.89,1.51a6.66,6.66,0,0,0-1.09,1.28,29.58,29.58,0,0,1-10.34,8.81l6.34,3.14a11.39,11.39,0,0,0,8-2,18.76,18.76,0,0,0,5.58-6.26,4.41,4.41,0,0,1,1.27-1.59A5.8,5.8,0,0,1,91.65,77a6,6,0,0,0,2.47-1.49,3,3,0,0,1-1.94.07,52.22,52.22,0,0,0,5.87-2.62,12.13,12.13,0,0,0,4.66-3.64,5.73,5.73,0,0,1-2.6,1.19A18,18,0,0,0,105.91,61.82Z" style="fill:#e0e0e0"></path><path d="M60.94,82.88a.38.38,0,0,0-.41,0,.54.54,0,0,0-.2.36.65.65,0,0,0,.4.66.62.62,0,0,0,.72-.26.59.59,0,0,0-.16-.75,1.17,1.17,0,0,0-.53-.15" style="fill:#263238"></path><path d="M58.25,83a4.27,4.27,0,0,0-2.74.69c-.92.85-1.24,1.73-1.1,1.81s.41-.48,1.85-.59a24.13,24.13,0,0,1,2.83,0Z" style="fill:#FF725E"></path><path d="M72.84,80.86l-5.16-7.93a14.6,14.6,0,0,1-1.58-2.87c-.78-2.15-.52-4.57-1.31-6.71L64,64.79a15.41,15.41,0,0,0-.59-4.22c-.3.56-.61,1.11-.92,1.67a14.53,14.53,0,0,0-.87-5.77,3.72,3.72,0,0,0-1.49,2.2,36.29,36.29,0,0,0-.85-5.28c-2.77,3.68-3.37,8.53-3.47,13.13A9.62,9.62,0,0,0,56,69.2a9,9,0,0,0,1.33,2.65c2.38,3.54,5.45,6.69,7,10.68l10.22,2.3C74.11,84.48,73.05,81.18,72.84,80.86Z" style="fill:#e0e0e0"></path><path d="M74.61,84.86l-.1,0S74.59,84.88,74.61,84.86Z" style="fill:#e0e0e0"></path><path d="M88.79,79.11a4.41,4.41,0,0,1,1.27-1.59A5.8,5.8,0,0,1,91.65,77a6,6,0,0,0,2.47-1.49,3,3,0,0,1-1.94.07,52.22,52.22,0,0,0,5.87-2.62,12.13,12.13,0,0,0,4.66-3.64,5.73,5.73,0,0,1-2.6,1.19,18,18,0,0,0,5.8-8.64,39.65,39.65,0,0,1-4.09,4.87,2.68,2.68,0,0,1-1.64,1,25.05,25.05,0,0,0,4.43-8.56c-.63.95-1.29,1.87-2,2.76a19.19,19.19,0,0,1-1.68,1.93,29,29,0,0,1-5.44,3.93c-1.48.9-3,1.8-4.51,2.58l6.64-1.19-4,2.85,3.71-.62s-6.62,3.06-8.1,5.09a5.38,5.38,0,0,0-1.16,3.82Z" style="fill:#263238"></path><path d="M66.1,70.06c-.78-2.15-.52-4.57-1.31-6.71L64,64.79a15.41,15.41,0,0,0-.59-4.22c-.3.56-.61,1.11-.92,1.67a14.53,14.53,0,0,0-.87-5.77,3.72,3.72,0,0,0-1.49,2.2,36.29,36.29,0,0,0-.85-5.28c-2.77,3.68-3.37,8.53-3.47,13.13A9.62,9.62,0,0,0,56,69.2l1.27-3.48s1.44-4.6,2.21-2.43,2.47,5.82,2.47,5.82l.34-3.3s1,3.22,2,3.86A2.2,2.2,0,0,0,66.1,70.06Z" style="fill:#263238"></path><path d="M79.84,74.52h0c.05,0,0,0,0,0a1.59,1.59,0,0,1-.11.16c-.1.14-.26.34-.47.59-.41.5-1,1.22-1.8,2.08s-1.7,1.89-2.79,3c-.55.55-1.13,1.11-1.77,1.65a5.74,5.74,0,0,1-1.08.75,2.23,2.23,0,0,1-.72,0l-.66-.07c-3.53-.42-6.68-1-9-1.31a2.37,2.37,0,0,0-1.45.32,7.64,7.64,0,0,0-1,.63c-.52.39-.77.65-.79.63s0-.08.17-.2.3-.3.55-.52a6.87,6.87,0,0,1,1-.69,2.54,2.54,0,0,1,1.55-.37c2.32.23,5.48.8,9,1.23l.65.06a2.78,2.78,0,0,0,.58,0,5.83,5.83,0,0,0,1-.71c.63-.52,1.21-1.08,1.76-1.62,1.09-1.07,2-2.08,2.83-2.93s1.4-1.5,1.87-2c.2-.21.36-.4.5-.55l.14-.14s0,0,0,0Z" style="fill:#263238"></path><path d="M93.7,71.69a2.21,2.21,0,0,1-.15.18,4.15,4.15,0,0,1-.47.46,8.55,8.55,0,0,1-2,1.27,21.12,21.12,0,0,1-3.38,1.14,15.6,15.6,0,0,0-2,.61,6.32,6.32,0,0,0-1.88,1.14A22.08,22.08,0,0,0,81,79.77a15.46,15.46,0,0,1-2.46,2.59,13.64,13.64,0,0,1-2,1.37A6.14,6.14,0,0,1,76,84l-.21.08s.26-.17.73-.48a17.92,17.92,0,0,0,1.9-1.44,16.71,16.71,0,0,0,2.38-2.6,21.61,21.61,0,0,1,2.83-3.33,6.65,6.65,0,0,1,2-1.19,17.67,17.67,0,0,1,2-.6A22.13,22.13,0,0,0,91,73.42,9.79,9.79,0,0,0,93,72.24C93.46,71.89,93.68,71.67,93.7,71.69Z" style="fill:#263238"></path><path d="M74.2,89.54a1.54,1.54,0,0,1-1.28-.14c-.68-.3-1-.82-1-.86s.46.33,1.07.6S74.2,89.46,74.2,89.54Z" style="fill:#263238"></path><path d="M77,89.88a3.55,3.55,0,0,1-2.16-.21A3.47,3.47,0,0,1,73,88.45c.06-.07.8.56,1.89,1S77,89.79,77,89.88Z" style="fill:#263238"></path></g><g id="freepik--Sun--inject-106"><path d="M437.25,80.16a11.8,11.8,0,1,1-11.8-11.8A11.8,11.8,0,0,1,437.25,80.16Z" style="fill:#FF725E"></path><path d="M423.77,106.55a48.16,48.16,0,0,1-.12-4.87,48.16,48.16,0,0,1,.12-4.87,48.16,48.16,0,0,1,.12,4.87A48.16,48.16,0,0,1,423.77,106.55Z" style="fill:#FF725E"></path><path d="M417,94.07c.06,0-1.05,2.07-2.48,4.54s-2.63,4.45-2.69,4.42,1.05-2.07,2.48-4.54A49.86,49.86,0,0,1,417,94.07Z" style="fill:#FF725E"></path><path d="M410,89.72a25.49,25.49,0,0,1-2.75,2.35,25.9,25.9,0,0,1-2.92,2.16,26.28,26.28,0,0,1,2.76-2.35A29.32,29.32,0,0,1,410,89.72Z" style="fill:#FF725E"></path><path d="M435.54,101.75a7.39,7.39,0,0,1-.31-1.19c-.17-.75-.41-1.77-.71-2.89s-.61-2.13-.83-2.86a5.9,5.9,0,0,1-.33-1.19,6,6,0,0,1,.49,1.13c.27.72.61,1.72.91,2.85s.52,2.17.64,2.92A5.48,5.48,0,0,1,435.54,101.75Z" style="fill:#FF725E"></path><path d="M447.51,93.26A42.78,42.78,0,0,1,444,90.38a38.6,38.6,0,0,1-3.32-3.08,41.79,41.79,0,0,1,3.49,2.89A39.55,39.55,0,0,1,447.51,93.26Z" style="fill:#FF725E"></path><path d="M452.1,81.59a10.63,10.63,0,0,1-1.43-.21c-.87-.14-2.08-.33-3.42-.48s-2.56-.25-3.45-.3a9.1,9.1,0,0,1-1.43-.13,7.7,7.7,0,0,1,1.44,0c.89,0,2.12.08,3.47.23s2.56.37,3.43.56A7.61,7.61,0,0,1,452.1,81.59Z" style="fill:#FF725E"></path><path d="M452.11,70.11c0,.07-2.54.75-5.7,1.52s-5.75,1.34-5.77,1.28,2.54-.75,5.71-1.52S452.09,70,452.11,70.11Z" style="fill:#FF725E"></path><path d="M438.78,56.74c.05,0-1.17,2-2.73,4.35s-2.88,4.26-2.94,4.22A49.49,49.49,0,0,1,435.84,61,49.81,49.81,0,0,1,438.78,56.74Z" style="fill:#FF725E"></path><path d="M425.54,54a11,11,0,0,1,0,1.62c0,1,0,2.37,0,3.9s0,2.9,0,3.9a12.25,12.25,0,0,1,0,1.62,9.16,9.16,0,0,1-.17-1.61c-.06-1-.11-2.38-.11-3.91s.05-2.91.1-3.91A9.76,9.76,0,0,1,425.54,54Z" style="fill:#FF725E"></path><path d="M415.52,66.43c-.06,0-1.3-1.9-2.77-4.31s-2.63-4.4-2.57-4.43,1.3,1.89,2.78,4.3S415.58,66.39,415.52,66.43Z" style="fill:#FF725E"></path><path d="M409.54,71.51a5.08,5.08,0,0,1-1.26-.19c-.77-.17-1.82-.42-3-.76s-2.17-.7-2.9-1a6.13,6.13,0,0,1-1.16-.51,7.61,7.61,0,0,1,1.22.35c.74.24,1.77.56,2.91.9s2.19.62,2.94.82A8.87,8.87,0,0,1,409.54,71.51Z" style="fill:#FF725E"></path><path d="M406.92,80.58a28.2,28.2,0,0,1-3.77.49,28.81,28.81,0,0,1-3.78.24,27.88,27.88,0,0,1,3.76-.49A28.92,28.92,0,0,1,406.92,80.58Z" style="fill:#FF725E"></path></g><g id="freepik--Character--inject-106"><path d="M251.66,331.51c.41,1.12,26.61,30.35,32.44,38.87,6.6,9.64,8,17.78,8.31,19.69,1.83,10.91,3.18,18.56,8.14,30.49s19.5,44.54,19.5,44.54l19.83-4.4s-15.1-67.27-16.34-77-3.3-17.16-8.68-26.11-29.08-57.53-29.08-57.53L248.3,315.85Z" style="fill:#ae7461"></path><path d="M371.45,465.29s-6.95,5.6-14,7.85-18.12,4-22.17,4.72-14.28,6.45-16.61,3-1.11-20.19-1.11-20.19c0-.84,3.34.66,6.39.2a21,21,0,0,0,10.83-5.2s1.12-6.21,3.2-7.29,3.89,5.33,3.89,5.33,8.3,5.17,12.57,5.26,4.86,1.15,9.12-.49,6.91-.93,6.91-.93,3.36,2.65,2.88,4.3A12.43,12.43,0,0,1,371.45,465.29Z" style="fill:#263238"></path><path d="M373.36,461.74a9.06,9.06,0,0,1-1.87,3.6s-7,5.6-14,7.85-18.12,4-22.17,4.72-14.29,6.45-16.61,3a6.75,6.75,0,0,1-1.15-3.24s12.14-1.57,17.37-3.85,18-3.23,23.94-5.74a79.13,79.13,0,0,0,12-6.74l1.52-1.86C373,460.24,373.56,460.72,373.36,461.74Z" style="fill:#455a64"></path><path d="M352.67,458.48a15.67,15.67,0,0,1,.08,2.26,14.32,14.32,0,0,1-.6,2.17,3,3,0,0,0,1-2.13A3.11,3.11,0,0,0,352.67,458.48Z" style="fill:#fff"></path><path d="M348,456.86a8,8,0,0,1-1.07,5.21,3.89,3.89,0,0,0,1.35-2.44A3.81,3.81,0,0,0,348,456.86Z" style="fill:#fff"></path><path d="M344.33,455c-.11,0-.28,1-.71,2.14a21.65,21.65,0,0,0-.86,2.09,5.85,5.85,0,0,0,1.57-4.23Z" style="fill:#fff"></path><path d="M327,471.41a5.86,5.86,0,0,0,1.52-.3c.93-.25,2.2-.63,3.57-1.13s2.6-1,3.46-1.43a6.26,6.26,0,0,0,1.37-.75c-.05-.1-2.22.83-5,1.82S326.94,471.3,327,471.41Z" style="fill:#fff"></path><path d="M293.73,200l3.9,21.06,16.63-6.59,9.48,11.82S296.52,249,288.08,242.41s-7.83-32.95-7.83-32.95Z" style="fill:#ae7461"></path><path d="M314.26,214.5s2.68-7.09,3.71-7.9,5.78-3.84,6.54-3.56a3,3,0,0,0,1.38.16s4.59-1.32,5.78.46,1.34,2.82,1.83,3,2.06,1.13,2.16,2.31a10.53,10.53,0,0,0,.73,3.26,9.82,9.82,0,0,1,1.31,2.28,10.66,10.66,0,0,1,.25,2.66,2.88,2.88,0,0,1,.59,2.87c-.69,1.46-4.55,3.18-6,3.68-1.73.63-5.08,2.62-6.43,2.56a14.92,14.92,0,0,0-2.42.07l-9.06,4.53-7.62-10.78Z" style="fill:#ae7461"></path><path d="M324.66,218.41a10.51,10.51,0,0,0,1.36-2.18,6.62,6.62,0,0,0,.47-2.77,6,6,0,0,0-1.11-3.29l-.77-1.08,1.12.72a6.35,6.35,0,0,0,2.35,1.11,2.13,2.13,0,0,0,1.95-.63,1.49,1.49,0,0,0,0-1.8,12.6,12.6,0,0,0-1.25-1.53c-.42-.47-.83-.9-1.2-1.28-1.5-1.54-2.53-2.4-2.48-2.46s.31.15.79.52,1.16.93,1.95,1.67c.39.37.82.79,1.26,1.26a12,12,0,0,1,1.34,1.57,2.47,2.47,0,0,1,.4,1.14,1.75,1.75,0,0,1-.41,1.23,2.6,2.6,0,0,1-2.42.82,6.69,6.69,0,0,1-2.55-1.19l.34-.37a6.38,6.38,0,0,1,1.14,3.58,6.71,6.71,0,0,1-.61,2.91,5.59,5.59,0,0,1-1.11,1.61A2.2,2.2,0,0,1,324.66,218.41Z" style="fill:#6f4439"></path><path d="M332.79,206.56c0,.14-.58.45-1.31.87s-1.32.78-1.42.67.37-.68,1.16-1.12S332.75,206.42,332.79,206.56Z" style="fill:#6f4439"></path><path d="M333,212.07a8.17,8.17,0,0,1-3.08,2.15,11,11,0,0,1-1.37.56,1.93,1.93,0,0,1-1.3,0,1.1,1.1,0,0,1-.63-.61c-.07-.21,0-.33,0-.33s.16.44.76.6,1.4-.28,2.32-.7C331.56,212.88,332.94,212,333,212.07Z" style="fill:#6f4439"></path><path d="M335.94,216.44a5.85,5.85,0,0,1-1.5.83l-1.69.78a14.42,14.42,0,0,1-2.15.84,2.22,2.22,0,0,1-1.3,0,2.27,2.27,0,0,1-1-.74,2.39,2.39,0,0,1-.42-1.92c.27-1.12.91-1.53.93-1.48a5.66,5.66,0,0,0-.57,1.54,2.09,2.09,0,0,0,.44,1.57,1.68,1.68,0,0,0,1.78.58,18.29,18.29,0,0,0,2.08-.79l1.72-.67A5.31,5.31,0,0,1,335.94,216.44Z" style="fill:#6f4439"></path><path d="M332.91,223.4s-.45.31-1.22.07a2.38,2.38,0,0,1-1.1-.81,2.6,2.6,0,0,1-.47-1.62,3.15,3.15,0,0,1,1.5-2.5c.64-.4,1.11-.45,1.13-.39s-.38.25-.92.69a3.12,3.12,0,0,0-1.19,2.22,2.13,2.13,0,0,0,1.19,2.06C332.44,223.42,332.89,223.31,332.91,223.4Z" style="fill:#6f4439"></path><path d="M293.73,182.94c-5.91-10.17-16.38-25.67-16.38-25.67l-27.22-3.87-10.32,8.24-4.78,42,5.91,30.72S240,239,236,252.13l48.55,26s4.75-15.87,5.4-22.35,4-27.8,4-27.8,3.33-14.87,4.31-22.2C299.39,197.8,299.63,193.11,293.73,182.94Z" style="fill:#ae7461"></path><path d="M295.34,221.82s2-8.72,3-16c1.07-8,1.31-12.66-4.59-22.83s-16.38-25.67-16.38-25.67l-4.47-.63-5-.72-17.73-2.52-10.32,8.24-4.78,42,3.3,17.14Z" style="fill:#FF725E"></path><polygon points="238.49 221.65 237.24 215.13 296.3 217.13 295.29 222.72 238.49 221.65" style="fill:#e0e0e0"></polygon><path d="M295.09,223a3.48,3.48,0,0,1,0,.94c0,.6-.09,1.47-.2,2.54-.22,2.14-.68,5.08-1.31,8.29s-1.19,6-1.64,8.22a25.94,25.94,0,0,1-.73,3.4,3.55,3.55,0,0,1,0-.94c.06-.6.17-1.46.33-2.52.31-2.13.86-5,1.49-8.26s1.14-6.12,1.45-8.24A30.34,30.34,0,0,1,295.09,223Z" style="fill:#6f4439"></path><path d="M246.35,101.57A14.29,14.29,0,0,0,229,107c-2,3.19-2.72,7.28-5.68,9.56-3.21,2.46-7.72,1.86-11.68,2.66-3.5.7-6.91,2.78-8.33,6.05s-.22,7.72,3.06,9.15a9.51,9.51,0,0,0,8,16,8.78,8.78,0,1,0,17.4,2.27c2.58,3,7.95,1.78,10-1.57s1.33-7.8-.63-11.2a7.11,7.11,0,0,0,3.87-13.31" style="fill:#263238"></path><path d="M310.3,104.45s4.6,2.77,1.26,7.64c-3.83,5.58-20.32,4.24-20.32,4.24l.6-6.3Z" style="fill:#FF725E"></path><g style="opacity:0.30000000000000004"><path d="M310.3,104.45s4.6,2.77,1.26,7.64c-3.83,5.58-20.32,4.24-20.32,4.24l.6-6.3Z"></path></g><path d="M274.88,84.1c-6.09-1.65-11.77.2-17.33,3.19s-8.2,7.94-11,13.58a26.2,26.2,0,0,0-2.68,17.8c1.22,6.53,2.85,14.14,8.46,17.71,7.66,4.88,18.1,4.46,25.85-.29s12.73-13.36,14-22.36a30,30,0,0,0-3-18.22A22.88,22.88,0,0,0,274.88,84.1" style="fill:#263238"></path><path d="M249.81,155.1l4.91-53.5a4.63,4.63,0,0,1,4.75-4.09l25.21-2.83c7.92.24,11.8,10.56,11.22,18.46-.64,8.78-1.77,19.47-3.69,25.83C288.35,151.74,278.12,152,278.12,152s-.06.5-.77,5.24c0,0-1.27,9.81-12.18,7.65C258.06,163.51,249.81,155.1,249.81,155.1Z" style="fill:#ae7461"></path><path d="M291.23,123.33a1.69,1.69,0,0,1-1.84,1.47,1.62,1.62,0,0,1-1.52-1.75,1.68,1.68,0,0,1,1.84-1.47A1.62,1.62,0,0,1,291.23,123.33Z" style="fill:#263238"></path><path d="M292.83,118.36c-.23.19-1.37-.92-3.18-1.16s-3.24.48-3.41.23.18-.47.82-.81a4.61,4.61,0,0,1,2.77-.46,4.41,4.41,0,0,1,2.49,1.2C292.82,117.86,293,118.28,292.83,118.36Z" style="fill:#263238"></path><path d="M275.54,121a1.7,1.7,0,0,1-1.85,1.47,1.62,1.62,0,0,1-1.52-1.75,1.69,1.69,0,0,1,1.85-1.47A1.62,1.62,0,0,1,275.54,121Z" style="fill:#263238"></path><path d="M275.6,115.38c-.24.19-1.38-.92-3.19-1.16s-3.24.48-3.41.23.18-.48.82-.82a4.63,4.63,0,0,1,2.77-.45,4.41,4.41,0,0,1,2.49,1.2C275.58,114.88,275.71,115.3,275.6,115.38Z" style="fill:#263238"></path><path d="M279.79,130.54a11.34,11.34,0,0,1,3-.13c.46,0,.91,0,1-.32a2.33,2.33,0,0,0-.12-1.41l-.88-3.69c-1.21-5.24-2-9.53-1.8-9.58s1.36,4.17,2.57,9.42c.28,1.29.56,2.52.82,3.7a2.7,2.7,0,0,1,0,1.84,1.15,1.15,0,0,1-.85.57,3,3,0,0,1-.8,0A11.86,11.86,0,0,1,279.79,130.54Z" style="fill:#263238"></path><path d="M278.12,152A33.47,33.47,0,0,1,261.27,145s3.16,9.64,16.39,10.2Z" style="fill:#6f4439"></path><path d="M278.43,134.78a3.29,3.29,0,0,0-2.75-1.61,3,3,0,0,0-2.19.82,1.9,1.9,0,0,0-.44,2.13,2.19,2.19,0,0,0,2.28.92,6.85,6.85,0,0,0,2.49-1.06,1.92,1.92,0,0,0,.59-.46.6.6,0,0,0,.09-.67" style="fill:#6f4439"></path><path d="M274.31,131.06c.3,0,0,2,1.52,3.6s3.6,1.68,3.57,2c0,.13-.51.32-1.4.22a4.9,4.9,0,0,1-3-1.53,4.28,4.28,0,0,1-1.15-3C273.9,131.49,274.18,131,274.31,131.06Z" style="fill:#263238"></path><path d="M277.14,108.2c-.24.47-2,0-4.16,0s-3.94.31-4.16-.17c-.1-.22.26-.64,1-1a7,7,0,0,1,3.19-.65,6.85,6.85,0,0,1,3.15.81C276.91,107.54,277.25,108,277.14,108.2Z" style="fill:#263238"></path><path d="M293.39,110.41c-.37.37-1.56-.23-3.05-.45s-2.79-.1-3-.57c-.09-.23.16-.61.77-.92a4.47,4.47,0,0,1,4.89.82C293.44,109.79,293.56,110.23,293.39,110.41Z" style="fill:#263238"></path><path d="M251.05,99.2c3.3-7.28,15.48-16.44,23.33-15l11.74,9.07a12.27,12.27,0,0,1-9.37,8.35c-2.31.42-5,.29-6.58,2s-1.13,4.76-2.63,6.63c-2.08,2.6-6.84,1.9-8.51,4.78-.73,1.26-.62,2.88-1.37,4.12-1,1.66-5.7,3.36-7.46,2.57s-1.4-3.92-1.81-5.63a8.7,8.7,0,0,1,.41-5.84C250,106.74,249.48,102.67,251.05,99.2Z" style="fill:#263238"></path><path d="M255.43,124c.13-1-.68-3.42-1.62-3.7-2.51-.75-7.16-1.18-8.1,5.33-1.27,8.89,7.92,8.34,8,8.09S255,127.35,255.43,124Z" style="fill:#ae7461"></path><path d="M251.45,130s-.17.08-.45.17a1.57,1.57,0,0,1-1.16-.15c-.89-.48-1.47-2.08-1.28-3.69a5.14,5.14,0,0,1,.75-2.16,1.82,1.82,0,0,1,1.34-1,.8.8,0,0,1,.85.55c.08.27,0,.44.05.46s.21-.12.19-.5a1,1,0,0,0-.27-.6,1.15,1.15,0,0,0-.82-.35,2.19,2.19,0,0,0-1.82,1.14,5.33,5.33,0,0,0-.89,2.41c-.2,1.8.47,3.6,1.71,4.16a1.69,1.69,0,0,0,1.45,0C251.4,130.16,251.48,130,251.45,130Z" style="fill:#6f4439"></path><path d="M283.79,90.35c.47,3.72,5.54,8.92,7.69,12,4.11,5.86,4.85,7.74,3.62,19.82,2.6-4,4.67-7.89,5-12.61s-2-8.4-5-12.1-6.57-7.32-11.3-7.1" style="fill:#263238"></path><path d="M246.51,98.64a9.47,9.47,0,0,0,1.48.52c.48.16,1.08.34,1.78.5s1.49.38,2.39.51a41.47,41.47,0,0,0,6.33.68,48.26,48.26,0,0,0,7.79-.42,47.56,47.56,0,0,0,7.59-1.77,42.17,42.17,0,0,0,5.89-2.42c.82-.38,1.52-.82,2.15-1.17a16.63,16.63,0,0,0,1.57-1,9.54,9.54,0,0,0,1.28-.91,8.28,8.28,0,0,0-1.39.74c-.43.26-1,.56-1.6.88s-1.35.73-2.17,1.09a49.06,49.06,0,0,1-5.88,2.29,47.1,47.1,0,0,1-15.22,2.17,48.63,48.63,0,0,1-6.28-.56c-.89-.11-1.68-.3-2.38-.44s-1.31-.27-1.79-.4A8.29,8.29,0,0,0,246.51,98.64Z" style="fill:#455a64"></path><path d="M245,105a4.3,4.3,0,0,0,1,.35,26.32,26.32,0,0,0,2.84.65,36,36,0,0,0,19-1.84,23.7,23.7,0,0,0,2.67-1.18,4.24,4.24,0,0,0,.92-.54c0-.08-1.41.57-3.72,1.37a42.4,42.4,0,0,1-9.29,2,41.7,41.7,0,0,1-9.51-.21C246.45,105.25,245,104.86,245,105Z" style="fill:#455a64"></path><path d="M298.72,103S288.43,74.9,262.94,83.23c-23.93,7.83-19.11,35.44-19.11,35.44S255.46,108.45,263,106s20.14-1.29,28.23-1.53S298.72,103,298.72,103Z" style="fill:#FF725E"></path><path d="M298.72,103l-29.06,1.48,7.5,1.31s16.15,2.61,22.14,2.31a21.36,21.36,0,0,0,11-3.62Z" style="fill:#FF725E"></path><path d="M298.2,102.66a5.32,5.32,0,0,1-1.23-.12c-.79-.11-1.93-.25-3.33-.39a58.78,58.78,0,0,0-21.87,2c-1.36.39-2.45.73-3.2,1a6,6,0,0,1-1.19.34,6.25,6.25,0,0,1,1.12-.53c.73-.31,1.81-.71,3.17-1.14a51.7,51.7,0,0,1,22-2c1.41.19,2.54.39,3.32.56A7.09,7.09,0,0,1,298.2,102.66Z" style="fill:#263238"></path><path d="M259,108.72a3.25,3.25,0,0,1-.13-.94c-.05-.61-.08-1.5-.08-2.59a46.3,46.3,0,0,1,.84-8.48A46.88,46.88,0,0,1,262,88.52c.41-1,.77-1.82,1-2.36a3.28,3.28,0,0,1,.47-.82c.08,0-.45,1.27-1.17,3.31a60.49,60.49,0,0,0-2.23,8.16,58.77,58.77,0,0,0-1,8.39C259.08,107.37,259.1,108.71,259,108.72Z" style="fill:#263238"></path><path d="M262.1,326.93a67.66,67.66,0,0,1-2.5,8,69.41,69.41,0,0,1-3,7.81,69,69,0,0,1,2.51-8A69.26,69.26,0,0,1,262.1,326.93Z" style="fill:#6f4439"></path><path d="M131.74,387.43s32.76-10.72,45.08-16.13c15.1-6.62,35.17-7.07,35.17-7.07h0s.85-1.8,2.37-11.93,3.34-45.17,3.34-45.17l-.2-23.73,34.89,2.78L268.17,307s-14.26,46.3-19.11,55.89-9.89,29.52-25.77,32.32c-10.09,1.78-81.48,7.71-81.48,7.71Z" style="fill:#ae7461"></path><path d="M218.39,372.93a36.26,36.26,0,0,0-3.41-5.32,34.93,34.93,0,0,0-4.66-4.26,5.08,5.08,0,0,1,1.67.88,16.76,16.76,0,0,1,5.82,6.91A5.19,5.19,0,0,1,218.39,372.93Z" style="fill:#6f4439"></path><path d="M136,436.7s-5.13-7.31-6.91-14.51-2.81-18.34-3.23-22.43-5.5-14.68-1.89-16.77,20.22.23,20.22.23c.84,0-.88,3.29-.63,6.37A21,21,0,0,0,148,400.73s6.12,1.53,7.07,3.67-5.58,3.54-5.58,3.54-5.71,7.94-6.08,12.19-1.47,4.78-.12,9.13.47,7,.47,7-2.86,3.17-4.47,2.59A12.29,12.29,0,0,1,136,436.7Z" style="fill:#263238"></path><path d="M139.38,438.84a9.23,9.23,0,0,1-3.46-2.11s-5.13-7.31-6.91-14.5-2.81-18.35-3.24-22.43-5.49-14.69-1.89-16.78a6.88,6.88,0,0,1,3.31-.93s.77,12.21,2.69,17.59,2,18.17,4.15,24.26A79.27,79.27,0,0,0,140,436.41l1.76,1.63C140.9,438.58,140.39,439.1,139.38,438.84Z" style="fill:#455a64"></path><path d="M144,418.41a17.17,17.17,0,0,1-2.25-.07,16.93,16.93,0,0,1-2.13-.74,3.07,3.07,0,0,0,2.06,1.11A3.1,3.1,0,0,0,144,418.41Z" style="fill:#fff"></path><path d="M145.93,413.83a14.52,14.52,0,0,1-2.68-.28,13.21,13.21,0,0,1-2.44-1.14,3.86,3.86,0,0,0,2.34,1.51A3.91,3.91,0,0,0,145.93,413.83Z" style="fill:#fff"></path><path d="M148.07,410.32a22.39,22.39,0,0,0-2.09-.86,22.32,22.32,0,0,0-2-1,4.2,4.2,0,0,0,1.87,1.34A4.29,4.29,0,0,0,148.07,410.32Z" style="fill:#fff"></path><path d="M132.81,391.9a5.88,5.88,0,0,0,.2,1.54c.18.95.48,2.24.89,3.64s.85,2.66,1.2,3.55a5.63,5.63,0,0,0,.66,1.41c.1,0-.69-2.27-1.5-5.06S132.92,391.88,132.81,391.9Z" style="fill:#fff"></path><g style="opacity:0.30000000000000004"><path d="M216.08,320.31l-.13,1-.32,2.57,22.78-11s.15,10.47,21.57,18.56l2.73-4.73V313l-16.54-12.86H234.7L216.47,313.8"></path></g><path d="M274,318.62l23.86,1.62c0-1.07-5.35-21.54-6.59-29.45-1.49-9.53-2.54-21.47-2.54-21.47L290,255.77l-52.23-10.06L236,252.13c-2.15,2.68-6.41,7.81-11.74,14.29-10.63,12.92-11.05,31.94-11.05,31.94h0a22.53,22.53,0,0,0-.21,3.47c.18,7.29-1.3,20.42-1.3,20.42s26.76-14.35,28.75-16.09c0,0-2,14.4,20.77,21.12l4,.76,2.91-8.78Z" style="fill:#455a64"></path><path d="M274.73,299.09c.13,0-1.62,5.92-3.91,13.12s-4.27,13-4.4,13,1.61-5.91,3.9-13.12S274.59,299,274.73,299.09Z" style="fill:#263238"></path><path d="M284.77,276.24a3.43,3.43,0,0,1-.1.93,23.58,23.58,0,0,1-.54,2.5,49.09,49.09,0,0,1-2.93,7.9c-1.37,3-2.79,5.61-3.81,7.51a28.12,28.12,0,0,1-1.72,3,19.06,19.06,0,0,1,1.39-3.19c.94-1.94,2.3-4.58,3.67-7.55a66,66,0,0,0,3-7.79C284.41,277.52,284.68,276.22,284.77,276.24Z" style="fill:#263238"></path><path d="M238.15,200a12.35,12.35,0,0,0,11.66-2.42c3.87-3.37,16.13-16.26,5.24-32.17C252.77,162.1,238.15,200,238.15,200Z" style="fill:#ae7461"></path><path d="M248.5,160.64s-11.43-5.46-24.71,14.59c-15.51,23.41-32.11,44.32-27.82,53.27s62.57,20,62.57,20l7.4-13.68-42.15-15.73,30.42-34.45S263.29,165.57,248.5,160.64Z" style="fill:#ae7461"></path><path d="M223.79,219.07l42.15,15.73s8.89-4.75,11.06-6.43l10.47-1.84a4.53,4.53,0,0,1-1.35,4.3c-2,1.66-5.32.93-5.07,3.26S292.6,239,292,242s-4.09,4-4.09,4a3.94,3.94,0,0,1-1.18,4.1c-2,1.66.47,1-1.77,3.81l-.9,1.72a1.93,1.93,0,0,1-.56,2.28c-1.17.85-1.68,2.33-6.87-1-3.36-2.15-8.16-4-12.54-6a64,64,0,0,0-11.31-3.55s-21.53-4.82-25.93-6" style="fill:#ae7461"></path><path d="M226.86,241.32l.3.05.88.18,3.4.74,12.71,2.87,8.93,2a65.29,65.29,0,0,1,10.23,3.09c3.44,1.62,7.16,3.08,10.92,5,1.91.92,3.62,2.29,5.6,3.1,1,.38,2.09.62,2.88-.13.21-.16.42-.35.66-.53a1.58,1.58,0,0,0,.46-.54,1.8,1.8,0,0,0,0-1.44l0-.12.05-.1.9-1.72v0l0,0a4.17,4.17,0,0,0,1-1.74,1.17,1.17,0,0,0-.06-.47,1,1,0,0,1,.07-.7,3.13,3.13,0,0,1,.81-.91,3.65,3.65,0,0,0,1.13-3.85l-.07-.24.24-.09a7.34,7.34,0,0,0,2.6-1.57,4.91,4.91,0,0,0,.92-1.21,3.65,3.65,0,0,0,.29-.71l.1-.37a.81.81,0,0,0,0-.31,2.15,2.15,0,0,0-.82-1.18,8.72,8.72,0,0,0-1.31-.91c-.95-.56-1.95-1-3-1.51-1.4-.67-2.83-1.28-4.18-2.08a7.23,7.23,0,0,1-1-.69,1.91,1.91,0,0,1-.71-1.11,1.79,1.79,0,0,1,.31-1.27,2.37,2.37,0,0,1,1-.7c.75-.28,1.48-.42,2.18-.66a4.71,4.71,0,0,0,1.84-1,4.18,4.18,0,0,0,1.05-3.85l.29.19L277,228.62l.11-.05c-1.86,1.32-3.77,2.36-5.63,3.43s-3.69,2.05-5.48,3l-.09.05-.09,0-30.5-11.47-8.56-3.26-2.25-.88-.57-.23a.73.73,0,0,1-.19-.1l.2.06.59.2,2.27.81,8.61,3.14c7.41,2.75,17.95,6.64,30.56,11.3l-.19,0q2.67-1.44,5.46-3c1.84-1.07,3.77-2.13,5.56-3.41l0,0H277l10.47-1.85.24,0,.05.23a4.71,4.71,0,0,1-1.2,4.34c-1.16,1.16-2.84,1.33-4.18,1.81a1.85,1.85,0,0,0-.83.54,1.35,1.35,0,0,0-.21.9c.11.54.84,1,1.45,1.4,1.3.77,2.72,1.39,4.14,2.06,1,.48,2,1,3,1.53a10.18,10.18,0,0,1,1.39,1,2.66,2.66,0,0,1,1,1.48,1.68,1.68,0,0,1,0,.5l-.11.42a4.65,4.65,0,0,1-.33.8,5.17,5.17,0,0,1-1,1.34,7.66,7.66,0,0,1-2.81,1.69l.17-.32a4.52,4.52,0,0,1,0,2.42,3.94,3.94,0,0,1-1.31,2,2.85,2.85,0,0,0-.67.74.46.46,0,0,0,0,.37,1.75,1.75,0,0,1,.06.62,4.31,4.31,0,0,1-1.06,2l0-.05-.91,1.73v-.22a2.32,2.32,0,0,1,0,1.86,2.16,2.16,0,0,1-.62.72c-.21.16-.42.34-.64.52a2.49,2.49,0,0,1-1.7.59,5.45,5.45,0,0,1-1.67-.4c-2.09-.86-3.76-2.23-5.64-3.13-3.71-1.9-7.45-3.39-10.86-5A65.59,65.59,0,0,0,253,247.57l-8.92-2.1-12.67-3-3.38-.83-.87-.22A1.32,1.32,0,0,1,226.86,241.32Z" style="fill:#6f4439"></path><path d="M223.86,218.85a15,15,0,0,0-10.93.9" style="fill:#ae7461"></path><path d="M212.93,219.75a12.26,12.26,0,0,1,10.93-.9,30,30,0,0,0-5.53-.32A29.66,29.66,0,0,0,212.93,219.75Z" style="fill:#6f4439"></path><path d="M252,190.28c0,.07-.89.7-2.27,1.9s-3.25,2.91-5.28,4.84l-5.15,5a19.48,19.48,0,0,1-2.18,2,15.5,15.5,0,0,1,1.92-2.28c1.25-1.35,3-3.17,5-5.1s4-3.62,5.4-4.75A9.88,9.88,0,0,1,252,190.28Z" style="fill:#6f4439"></path><path d="M242,159.83a6.18,6.18,0,0,1,2.48-.2,12.16,12.16,0,0,1,5.7,1.88,12,12,0,0,1,4.07,4.41,5.88,5.88,0,0,1,.85,2.33c-.08,0-.38-.87-1.17-2.15a12.79,12.79,0,0,0-9.48-6.1C242.9,159.82,242,159.92,242,159.83Z" style="fill:#6f4439"></path><polygon points="259.11 231.61 253.93 247.86 258.54 249.18 262.7 233.06 259.11 231.61" style="fill:#263238"></polygon><rect x="253.93" y="235.37" width="9.99" height="9.99" rx="1.64" transform="matrix(0.97, 0.25, -0.25, 0.97, 68.7, -57.35)" style="fill:#263238"></rect></g></svg>
