<svg xmlns="http://www.w3.org/2000/svg" viewBox="0 0 500 500"><g id="freepik--background-complete--inject-65"><path d="M443.92,351.8H263.17a5.87,5.87,0,0,1-5.86-5.86V82.67a5.86,5.86,0,0,1,5.86-5.86H443.92a5.86,5.86,0,0,1,5.86,5.86V345.94A5.87,5.87,0,0,1,443.92,351.8ZM263.17,77.06a5.61,5.61,0,0,0-5.61,5.61V345.94a5.61,5.61,0,0,0,5.61,5.61H443.92a5.61,5.61,0,0,0,5.61-5.61V82.67a5.61,5.61,0,0,0-5.61-5.61Z" style="fill:#ebebeb"></path><path d="M235.49,351.8H54.75a5.87,5.87,0,0,1-5.87-5.86V82.67a5.86,5.86,0,0,1,5.87-5.86H235.49a5.86,5.86,0,0,1,5.86,5.86V345.94A5.86,5.86,0,0,1,235.49,351.8ZM54.75,77.06a5.62,5.62,0,0,0-5.62,5.61V345.94a5.62,5.62,0,0,0,5.62,5.61H235.49a5.61,5.61,0,0,0,5.61-5.61V82.67a5.61,5.61,0,0,0-5.61-5.61Z" style="fill:#ebebeb"></path><rect x="297.17" y="210.92" width="147.2" height="9.71" style="fill:#f0f0f0"></rect><polygon points="312.17 220.63 316.11 228.88 325.38 228.88 328.02 220.63 312.17 220.63" style="fill:#e0e0e0"></polygon><polygon points="429.37 220.63 425.44 228.88 416.16 228.88 413.52 220.63 429.37 220.63" style="fill:#e0e0e0"></polygon><polygon points="394.65 206.89 395.14 208.69 395.24 209.08 395.71 210.92 409.74 210.92 410.21 209.08 410.31 208.69 410.8 206.89 410.9 206.5 415.75 188.55 415.85 188.16 416.34 186.36 416.44 185.97 416.98 183.97 388.47 183.97 389.01 185.97 389.11 186.36 389.6 188.16 389.7 188.55 394.55 206.5 394.65 206.89" style="fill:#f0f0f0"></polygon><path d="M404.55,158.56a1.48,1.48,0,0,1-1.79-1.12,1.73,1.73,0,0,1,0-.32,1.45,1.45,0,0,1,.34-.94c1.95-2.37,11.84-13.81,16.47-9C425.14,152.93,410,157.24,404.55,158.56Z" style="fill:#f0f0f0"></path><path d="M402.73,162.78a1.17,1.17,0,0,1,0,.32,1.48,1.48,0,0,1-1.79,1.12c-5.4-1.32-20.59-5.62-15-11.4,4.63-4.79,14.52,6.65,16.48,9A1.47,1.47,0,0,1,402.73,162.78Z" style="fill:#f0f0f0"></path><path d="M403.85,151.18a1.49,1.49,0,0,1-.45.9,1.18,1.18,0,0,1-.25.19,1.31,1.31,0,0,1-.56.2,1.49,1.49,0,0,1-1.49-.72C398.33,146.93,391,133,399,133,405.68,133.09,404.22,148.14,403.85,151.18Z" style="fill:#f0f0f0"></path><path d="M404.55,170.7a1.47,1.47,0,0,1-1.55-.57,1.51,1.51,0,0,1-.24-.55,1.66,1.66,0,0,1,0-.32,1.49,1.49,0,0,1,.34-.94c1.95-2.36,11.84-13.8,16.47-9C425.14,165.08,410,169.39,404.55,170.7Z" style="fill:#f0f0f0"></path><path d="M402.73,174.92a1.12,1.12,0,0,1,0,.32,1.51,1.51,0,0,1-.24.55,1.47,1.47,0,0,1-1.55.57c-5.4-1.31-20.59-5.62-15-11.4,4.63-4.78,14.52,6.66,16.48,9A1.49,1.49,0,0,1,402.73,174.92Z" style="fill:#f0f0f0"></path><path d="M404.55,182.14a1.47,1.47,0,0,1-1.55-.57,1.51,1.51,0,0,1-.24-.55,1.55,1.55,0,0,1,0-.31,1.49,1.49,0,0,1,.34-1c1.95-2.36,11.84-13.8,16.47-9C425.14,176.52,410,180.83,404.55,182.14Z" style="fill:#f0f0f0"></path><path d="M344.09,204.15h-.89v-1.33h33.7a4,4,0,1,1,0,8.1H343.2v-1.16h.89Z" style="fill:#e0e0e0"></path><path d="M343.86,204.15v5.61h30.93a2.76,2.76,0,0,0,2.73-2.8,2.82,2.82,0,0,0-.8-2,2.7,2.7,0,0,0-1.93-.83Z" style="fill:#fff"></path><path d="M343.86,205.57v.86H374a.42.42,0,0,0,.42-.43h0a.43.43,0,0,0-.42-.43Z" style="fill:#f0f0f0"></path><path d="M343.86,207.69v.85H374a.42.42,0,0,0,.42-.42h0a.42.42,0,0,0-.42-.42Z" style="fill:#f0f0f0"></path><path d="M305.13,204.15h-.89v-1.33h33.7a4.05,4.05,0,0,1,0,8.1h-33.7v-1.16h.89Z" style="fill:#e0e0e0"></path><path d="M304.9,204.15v5.61h30.92a2.82,2.82,0,0,0,1.93-4.78,2.67,2.67,0,0,0-1.93-.83Z" style="fill:#fff"></path><path d="M304.9,205.57v.86H335a.43.43,0,0,0,.43-.43h0a.43.43,0,0,0-.43-.43Z" style="fill:#f0f0f0"></path><path d="M304.9,207.69v.85H335a.42.42,0,0,0,.43-.42h0a.42.42,0,0,0-.43-.42Z" style="fill:#f0f0f0"></path><path d="M344.09,196.15h-.89v-1.33h33.7a4,4,0,0,1,2.86,1.19,4,4,0,0,1-2.86,6.9H343.2v-1.15h.89Z" style="fill:#e0e0e0"></path><path d="M343.86,196.15v5.61h30.93a2.77,2.77,0,0,0,2.73-2.8,2.86,2.86,0,0,0-.8-2,2.69,2.69,0,0,0-1.93-.82Z" style="fill:#fff"></path><path d="M343.86,197.57v.86H374a.42.42,0,0,0,.42-.43h0a.42.42,0,0,0-.42-.43Z" style="fill:#f0f0f0"></path><path d="M343.86,199.68v.86H374a.42.42,0,0,0,.42-.43h0a.42.42,0,0,0-.42-.43Z" style="fill:#f0f0f0"></path><path d="M403,184V149a.55.55,0,0,0-1.09,0V184Z" style="fill:#e0e0e0"></path><rect x="63.33" y="93.3" width="159.91" height="200.24" style="fill:#e0e0e0"></rect><rect x="47.16" y="117.46" width="192.24" height="151.91" transform="translate(336.7 50.13) rotate(90)" style="fill:#f5f5f5"></rect><polygon points="113.02 165.46 113.02 289.54 67.38 289.54 67.38 165.46 72.54 165.46 81.37 150.16 89.27 136.48 89.27 111.24 91.13 111.24 91.13 136.48 99.03 150.16 107.86 165.46 113.02 165.46" style="fill:#e6e6e6"></polygon><rect x="72.53" y="173.02" width="7.08" height="3.32" style="fill:#fafafa"></rect><rect x="86.66" y="173.02" width="7.08" height="3.32" style="fill:#fafafa"></rect><rect x="100.78" y="173.02" width="7.08" height="3.32" style="fill:#fafafa"></rect><rect x="72.53" y="181.24" width="7.08" height="3.32" style="fill:#fafafa"></rect><rect x="86.66" y="181.24" width="7.08" height="3.32" style="fill:#fafafa"></rect><rect x="100.78" y="181.24" width="7.08" height="3.32" style="fill:#fafafa"></rect><rect x="72.53" y="189.46" width="7.08" height="3.32" style="fill:#fafafa"></rect><rect x="86.66" y="189.46" width="7.08" height="3.32" style="fill:#fafafa"></rect><rect x="100.78" y="189.46" width="7.08" height="3.32" style="fill:#fafafa"></rect><rect x="72.53" y="197.67" width="7.08" height="3.32" style="fill:#fafafa"></rect><rect x="86.66" y="197.67" width="7.08" height="3.32" style="fill:#fafafa"></rect><rect x="100.78" y="197.67" width="7.08" height="3.32" style="fill:#fafafa"></rect><rect x="72.53" y="205.89" width="7.08" height="3.32" style="fill:#fafafa"></rect><rect x="86.66" y="205.89" width="7.08" height="3.32" style="fill:#fafafa"></rect><rect x="100.78" y="205.89" width="7.08" height="3.32" style="fill:#fafafa"></rect><rect x="72.53" y="214.11" width="7.08" height="3.32" style="fill:#fafafa"></rect><rect x="86.66" y="214.11" width="7.08" height="3.32" style="fill:#fafafa"></rect><rect x="100.78" y="214.11" width="7.08" height="3.32" style="fill:#fafafa"></rect><rect x="72.53" y="222.32" width="7.08" height="3.32" style="fill:#fafafa"></rect><rect x="86.66" y="222.32" width="7.08" height="3.32" style="fill:#fafafa"></rect><rect x="100.78" y="222.32" width="7.08" height="3.32" style="fill:#fafafa"></rect><rect x="72.53" y="230.54" width="7.08" height="3.32" style="fill:#fafafa"></rect><rect x="86.66" y="230.54" width="7.08" height="3.32" style="fill:#fafafa"></rect><rect x="100.78" y="230.54" width="7.08" height="3.32" style="fill:#fafafa"></rect><rect x="72.53" y="238.76" width="7.08" height="3.32" style="fill:#fafafa"></rect><rect x="86.66" y="238.76" width="7.08" height="3.32" style="fill:#fafafa"></rect><rect x="100.78" y="238.76" width="7.08" height="3.32" style="fill:#fafafa"></rect><rect x="72.53" y="246.97" width="7.08" height="3.32" style="fill:#fafafa"></rect><rect x="86.66" y="246.97" width="7.08" height="3.32" style="fill:#fafafa"></rect><rect x="100.78" y="246.97" width="7.08" height="3.32" style="fill:#fafafa"></rect><rect x="72.53" y="255.19" width="7.08" height="3.32" style="fill:#fafafa"></rect><rect x="86.66" y="255.19" width="7.08" height="3.32" style="fill:#fafafa"></rect><rect x="100.78" y="255.19" width="7.08" height="3.32" style="fill:#fafafa"></rect><rect x="72.53" y="263.41" width="7.08" height="3.32" style="fill:#fafafa"></rect><rect x="86.66" y="263.41" width="7.08" height="3.32" style="fill:#fafafa"></rect><rect x="100.78" y="263.41" width="7.08" height="3.32" style="fill:#fafafa"></rect><polygon points="167.06 139.71 167.06 289.54 116 289.54 116 139.71 119.63 139.71 119.63 109.59 156.01 126.07 156.01 97.3 157.88 97.3 157.88 126.92 161.78 128.68 161.78 139.71 167.06 139.71" style="fill:#e6e6e6"></polygon><rect x="123.87" y="149.06" width="7.08" height="3.32" style="fill:#fafafa"></rect><rect x="137.99" y="149.06" width="7.08" height="3.32" style="fill:#fafafa"></rect><rect x="152.12" y="149.06" width="7.08" height="3.32" style="fill:#fafafa"></rect><rect x="123.87" y="157.27" width="7.08" height="3.32" style="fill:#fafafa"></rect><rect x="137.99" y="157.27" width="7.08" height="3.32" style="fill:#fafafa"></rect><rect x="152.12" y="157.27" width="7.08" height="3.32" style="fill:#fafafa"></rect><rect x="123.87" y="165.49" width="7.08" height="3.32" style="fill:#fafafa"></rect><rect x="137.99" y="165.49" width="7.08" height="3.32" style="fill:#fafafa"></rect><rect x="152.12" y="165.49" width="7.08" height="3.32" style="fill:#fafafa"></rect><rect x="123.87" y="173.71" width="7.08" height="3.32" style="fill:#fafafa"></rect><rect x="137.99" y="173.71" width="7.08" height="3.32" style="fill:#fafafa"></rect><rect x="152.12" y="173.71" width="7.08" height="3.32" style="fill:#fafafa"></rect><rect x="123.87" y="181.93" width="7.08" height="3.32" style="fill:#fafafa"></rect><rect x="137.99" y="181.93" width="7.08" height="3.32" style="fill:#fafafa"></rect><rect x="152.12" y="181.93" width="7.08" height="3.32" style="fill:#fafafa"></rect><rect x="123.87" y="190.14" width="7.08" height="3.32" style="fill:#fafafa"></rect><rect x="137.99" y="190.14" width="7.08" height="3.32" style="fill:#fafafa"></rect><rect x="152.12" y="190.14" width="7.08" height="3.32" style="fill:#fafafa"></rect><rect x="123.87" y="198.36" width="7.08" height="3.32" style="fill:#fafafa"></rect><rect x="137.99" y="198.36" width="7.08" height="3.32" style="fill:#fafafa"></rect><rect x="152.12" y="198.36" width="7.08" height="3.32" style="fill:#fafafa"></rect><rect x="123.87" y="206.58" width="7.08" height="3.32" style="fill:#fafafa"></rect><rect x="137.99" y="206.58" width="7.08" height="3.32" style="fill:#fafafa"></rect><rect x="152.12" y="206.58" width="7.08" height="3.32" style="fill:#fafafa"></rect><rect x="123.87" y="214.79" width="7.08" height="3.32" style="fill:#fafafa"></rect><rect x="137.99" y="214.79" width="7.08" height="3.32" style="fill:#fafafa"></rect><rect x="152.12" y="214.79" width="7.08" height="3.32" style="fill:#fafafa"></rect><rect x="123.87" y="223.01" width="7.08" height="3.32" style="fill:#fafafa"></rect><rect x="137.99" y="223.01" width="7.08" height="3.32" style="fill:#fafafa"></rect><rect x="152.12" y="223.01" width="7.08" height="3.32" style="fill:#fafafa"></rect><rect x="123.87" y="231.23" width="7.08" height="3.32" style="fill:#fafafa"></rect><rect x="137.99" y="231.23" width="7.08" height="3.32" style="fill:#fafafa"></rect><rect x="152.12" y="231.23" width="7.08" height="3.32" style="fill:#fafafa"></rect><rect x="123.87" y="239.44" width="7.08" height="3.32" style="fill:#fafafa"></rect><rect x="137.99" y="239.44" width="7.08" height="3.32" style="fill:#fafafa"></rect><rect x="152.12" y="239.44" width="7.08" height="3.32" style="fill:#fafafa"></rect><rect x="123.87" y="246.81" width="7.08" height="3.32" style="fill:#fafafa"></rect><rect x="137.99" y="246.81" width="7.08" height="3.32" style="fill:#fafafa"></rect><rect x="152.12" y="246.81" width="7.08" height="3.32" style="fill:#fafafa"></rect><rect x="123.87" y="255.02" width="7.08" height="3.32" style="fill:#fafafa"></rect><rect x="137.99" y="255.02" width="7.08" height="3.32" style="fill:#fafafa"></rect><rect x="152.12" y="255.02" width="7.08" height="3.32" style="fill:#fafafa"></rect><polygon points="219.24 173.03 219.24 289.54 170.33 289.54 170.33 173.03 173.93 173.03 173.93 169.05 175.59 169.05 175.59 167.89 180.53 167.89 180.53 169.05 185.89 169.05 185.89 167.89 190.83 167.89 190.83 169.05 192.38 169.05 192.38 173.03 205.12 173.03 205.12 169.1 216.12 169.1 216.12 173.03 219.24 173.03" style="fill:#e6e6e6"></polygon><rect x="177.51" y="182.9" width="7.08" height="3.32" style="fill:#fafafa"></rect><rect x="191.64" y="182.9" width="7.08" height="3.32" style="fill:#fafafa"></rect><rect x="205.76" y="182.9" width="7.08" height="3.32" style="fill:#fafafa"></rect><rect x="177.51" y="191.12" width="7.08" height="3.32" style="fill:#fafafa"></rect><rect x="191.64" y="191.12" width="7.08" height="3.32" style="fill:#fafafa"></rect><rect x="205.76" y="191.12" width="7.08" height="3.32" style="fill:#fafafa"></rect><rect x="177.51" y="199.33" width="7.08" height="3.32" style="fill:#fafafa"></rect><rect x="191.64" y="199.33" width="7.08" height="3.32" style="fill:#fafafa"></rect><rect x="205.76" y="199.33" width="7.08" height="3.32" style="fill:#fafafa"></rect><rect x="177.51" y="207.55" width="7.08" height="3.32" style="fill:#fafafa"></rect><rect x="191.64" y="207.55" width="7.08" height="3.32" style="fill:#fafafa"></rect><rect x="205.76" y="207.55" width="7.08" height="3.32" style="fill:#fafafa"></rect><rect x="177.51" y="215.77" width="7.08" height="3.32" style="fill:#fafafa"></rect><rect x="191.64" y="215.77" width="7.08" height="3.32" style="fill:#fafafa"></rect><rect x="205.76" y="215.77" width="7.08" height="3.32" style="fill:#fafafa"></rect><rect x="177.51" y="223.98" width="7.08" height="3.32" style="fill:#fafafa"></rect><rect x="191.64" y="223.98" width="7.08" height="3.32" style="fill:#fafafa"></rect><rect x="205.76" y="223.98" width="7.08" height="3.32" style="fill:#fafafa"></rect><rect x="177.51" y="232.2" width="7.08" height="3.32" style="fill:#fafafa"></rect><rect x="191.64" y="232.2" width="7.08" height="3.32" style="fill:#fafafa"></rect><rect x="205.76" y="232.2" width="7.08" height="3.32" style="fill:#fafafa"></rect><rect x="177.51" y="240.42" width="7.08" height="3.32" style="fill:#fafafa"></rect><rect x="191.64" y="240.42" width="7.08" height="3.32" style="fill:#fafafa"></rect><rect x="205.76" y="240.42" width="7.08" height="3.32" style="fill:#fafafa"></rect><rect x="177.51" y="248.63" width="7.08" height="3.32" style="fill:#fafafa"></rect><rect x="191.64" y="248.63" width="7.08" height="3.32" style="fill:#fafafa"></rect><rect x="205.76" y="248.63" width="7.08" height="3.32" style="fill:#fafafa"></rect><rect x="177.51" y="256.85" width="7.08" height="3.32" style="fill:#fafafa"></rect><rect x="191.64" y="256.85" width="7.08" height="3.32" style="fill:#fafafa"></rect><rect x="205.76" y="256.85" width="7.08" height="3.32" style="fill:#fafafa"></rect><rect x="177.51" y="265.07" width="7.08" height="3.32" style="fill:#fafafa"></rect><rect x="191.64" y="265.07" width="7.08" height="3.32" style="fill:#fafafa"></rect><rect x="205.76" y="265.07" width="7.08" height="3.32" style="fill:#fafafa"></rect><rect x="177.51" y="273.29" width="7.08" height="3.32" style="fill:#fafafa"></rect><rect x="191.64" y="273.29" width="7.08" height="3.32" style="fill:#fafafa"></rect><rect x="205.76" y="273.29" width="7.08" height="3.32" style="fill:#fafafa"></rect><rect x="97.25" y="305.01" width="27.99" height="12.6" rx="1.7" transform="translate(222.49 622.62) rotate(180)" style="fill:#f5f5f5"></rect><rect x="67.33" y="305.01" width="27.99" height="12.6" rx="1.7" transform="translate(162.64 622.62) rotate(180)" style="fill:#f5f5f5"></rect><rect x="83.26" y="319.07" width="27.99" height="12.6" rx="1.7" transform="translate(194.51 650.73) rotate(180)" style="fill:#f5f5f5"></rect><rect x="400.77" y="92.46" width="27.99" height="12.6" rx="1.7" transform="translate(829.53 197.51) rotate(180)" style="fill:#f5f5f5"></rect><rect x="370.85" y="92.46" width="27.99" height="12.6" rx="1.7" transform="translate(769.68 197.51) rotate(180)" style="fill:#f5f5f5"></rect><rect x="386.78" y="106.51" width="27.99" height="12.6" rx="1.7" transform="translate(801.55 225.62) rotate(180)" style="fill:#f5f5f5"></rect><rect x="389.44" y="250.08" width="27.99" height="12.6" rx="1.7" transform="translate(806.87 512.76) rotate(180)" style="fill:#f5f5f5"></rect><rect x="359.51" y="250.08" width="27.99" height="12.6" rx="1.7" transform="translate(747.01 512.76) rotate(180)" style="fill:#f5f5f5"></rect><rect x="375.45" y="264.14" width="27.99" height="12.6" rx="1.7" transform="translate(778.88 540.87) rotate(180)" style="fill:#f5f5f5"></rect><circle cx="326.23" cy="116.12" r="27.03" transform="translate(94.68 373.61) rotate(-67.63)" style="fill:#e0e0e0"></circle><circle cx="326.23" cy="116.12" r="24.9" transform="translate(-7.43 23.5) rotate(-4.08)" style="fill:#fafafa"></circle><rect x="325.36" y="93.48" width="0.93" height="5.19" style="fill:#e0e0e0"></rect><rect x="325.36" y="133.44" width="0.93" height="5.19" style="fill:#e0e0e0"></rect><rect x="303.26" y="115.59" width="5.19" height="0.93" style="fill:#e0e0e0"></rect><rect x="343.21" y="115.59" width="5.19" height="0.93" style="fill:#e0e0e0"></rect><rect x="337.36" y="101.47" width="5.19" height="0.93" transform="translate(27.51 270.26) rotate(-45)" style="fill:#e0e0e0"></rect><rect x="309.11" y="129.72" width="5.19" height="0.93" transform="translate(-0.75 258.56) rotate(-45)" style="fill:#e0e0e0"></rect><rect x="311.24" y="99.34" width="0.93" height="5.19" transform="translate(19.22 250.26) rotate(-45)" style="fill:#e0e0e0"></rect><rect x="339.49" y="127.59" width="0.93" height="5.19" transform="translate(7.52 278.51) rotate(-45)" style="fill:#e0e0e0"></rect><rect x="329.51" y="112.81" width="0.8" height="9.46" transform="translate(99.67 381.46) rotate(-68.51)" style="fill:#e0e0e0"></rect><polygon points="326.23 116.46 311.7 116.46 311.7 115.66 325.43 115.66 325.43 104.38 326.23 104.38 326.23 116.46" style="fill:#e0e0e0"></polygon></g><g id="freepik--Character--inject-65"><path d="M217.39,227.89l-2.66.26-2.52.22c-1.67.12-3.33.21-5,.29-3.33.18-6.66.21-10,.22a172.45,172.45,0,0,1-20.36-1.22,93.45,93.45,0,0,1-21.68-5,42.29,42.29,0,0,1-12.27-6.84,30.66,30.66,0,0,1-3.2-3c-.53-.59-1-1.2-1.54-1.84l-.74-1-.18-.26-.36-.53a16.47,16.47,0,0,1-1-1.71,16.94,16.94,0,0,1-1.64-6,18.5,18.5,0,0,1,.09-4,24.11,24.11,0,0,1,1.23-5,37.07,37.07,0,0,1,3-6.24c1-1.75,2-3.3,3.06-4.8,2-3,4.14-5.67,6.25-8.28s4.32-5.07,6.51-7.5,4.39-4.81,6.66-7.12,4.53-4.6,6.83-6.85,4.65-4.43,7-6.62c4.75-4.32,9.49-8.55,14.57-12.61l9.7,9L178.06,172.3c-3.4,5.13-6.81,10.21-9.81,15.3-1.53,2.51-3,5-4.19,7.42-.61,1.19-1.15,2.36-1.58,3.42a13.18,13.18,0,0,0-.77,2.41c0,.15.06.19.18-.44a6.41,6.41,0,0,0,.06-1.68,10.29,10.29,0,0,0-1-3.73,9.7,9.7,0,0,0-.67-1.2l-.19-.28h0v0a.11.11,0,0,0,0-.08s0-.06,0-.06.12,0,.31.12a26,26,0,0,0,4.44,1.74,53.44,53.44,0,0,0,7.11,1.52c2.59.38,5.31.74,8.11,1,5.59.43,11.42.64,17.31.63,2.94,0,5.9,0,8.86-.07l4.43-.12,2.19,0,2-.08Z" style="fill:#ff8b7b"></path><path d="M189,153.8c-1.84,0-3.82-1-5.91-2.87-2.82-2.58-4.22-5.21-4.16-7.82a7.58,7.58,0,0,1,2.49-5.3.5.5,0,0,1,.64.76,6.7,6.7,0,0,0-2.13,4.58c0,2.3,1.25,4.67,3.83,7,2.22,2,4.24,2.88,6,2.54a5.45,5.45,0,0,0,3.44-2.76.49.49,0,0,1,.66-.23.5.5,0,0,1,.24.67,6.4,6.4,0,0,1-4.15,3.3A5.12,5.12,0,0,1,189,153.8Z" style="fill:#263238"></path><path d="M221.25,189.89s-11.7,6.49-34.59,4.37c-5.41-.5-10.43,36-8.77,39,3.89,7,37.93,5.65,37.93,5.65S220.59,203.35,221.25,189.89Z" style="fill:#407BFF"></path><g style="opacity:0.2"><path d="M221.25,189.89s-11.7,6.49-34.59,4.37c-5.41-.5-10.43,36-8.77,39,3.89,7,37.93,5.65,37.93,5.65S220.59,203.35,221.25,189.89Z"></path></g><path d="M247,108.38s-7.67-2.74-11.19,1.87-.61,12.21-.61,12.21Z" style="fill:#263238"></path><polygon points="235.1 417.43 242.95 365.93 191.54 347.15 179.74 417.43 235.1 417.43" style="fill:#263238"></polygon><path d="M300.26,417.43c-.5-33.5-1.78-52.64.18-68.25l-70.2,7.23c3.11,19.85,2.71,42.13,6.21,61Z" style="fill:#263238"></path><g style="opacity:0.2"><path d="M290.9,393.43c.58,0,1.17,0,1.78,0v24h1.08V364.72h-1.08V392.3c-8.42.37-14.93-1.8-19.38-6.43-7.72-8.05-6.57-21-6.56-21.1l-1.08-.11c-.06.56-1.21,13.54,6.85,21.95C276.86,391.14,283,393.43,290.9,393.43Z" style="fill:#fff"></path></g><g style="opacity:0.2"><path d="M186.68,377.32l-.23-1.06c12.23-2.63,13.07-21.49,13.07-21.68l1.08,0C200.58,355.43,199.73,374.52,186.68,377.32Z" style="fill:#fff"></path></g><g style="opacity:0.2"><path d="M241.34,361.59l-7.05,33.49-1.06-.22.91-4.33a6.74,6.74,0,0,1-5-3.09c-5.2-7.9,1.13-28,1.4-28.85l1,.34c-.06.19-6.44,20.45-1.53,27.92a5.64,5.64,0,0,0,4.33,2.62l5.91-28.11Z" style="fill:#fff"></path></g><path d="M310.41,286c-3.57,31.4-5.1,68.44-10.92,75-2.75,3.06-8.93,5.06-17.09,6.13l-.51.07c-34.08,4.29-101.3-7.08-96.73-23.5,1.41-5.1,4.61-22.06,8.11-42.5.07-.39.13-.77.2-1.16q.53-3.09,1.06-6.27c2.48-14.81,5-30.85,7.12-45.24.3-2,.58-4,.86-6,.05-.38.11-.76.16-1.14,2.39-17,4-30.72,3.78-35.84-.59-16.64,35.64-21.74,35.64-21.74l12-.86s25.56,2.24,40.67,9.91c.51.26,1,.53,1.5.81,10.4,5.82,14.85,33.64,15.38,60.29A247.75,247.75,0,0,1,310.41,286Z" style="fill:#407BFF"></path><g style="opacity:0.2"><path d="M297.35,292.54a322.67,322.67,0,0,1-15,74.59l-.07.22-.44-.15-.5-.17a320.22,320.22,0,0,0,12.32-51.72A48.78,48.78,0,0,1,278.27,318c-10.83,0-20.31-4.07-32-9.08-4.74-2-10.11-4.34-16-6.56-18.67-7-31.6-3.4-37-1.12.07-.39.13-.77.2-1.16,5.87-2.35,18.82-5.52,37.12,1.34,5.95,2.23,11.33,4.54,16.08,6.58,16.79,7.2,29,12.43,47.2,6.24.47-3.13.88-6.2,1.24-9.18-.1.42-.21.84-.33,1.25,0,0-12.24,8.56-35.58,0-21.11-7.74-44.18-21.32-64.67-12.5,2.48-14.81,5-30.85,7.12-45.24,8-2.84,23.67-4.93,46.69,7.11,30.15,15.77,45.25,8.14,48.86,5.72-.05-1.94-.12-3.75-.21-5.42a44.76,44.76,0,0,1-15.21,2.81c-10.14,0-19-3.9-29.95-8.72-4.43-1.95-9.45-4.17-15-6.3-17.23-6.63-29.2-3.36-34.33-1.16.05-.38.11-.76.16-1.14,5.6-2.25,17.63-5.14,34.53,1.37,5.56,2.14,10.6,4.36,15,6.31,15.83,7,27.27,12,44.56,5.84l.17.48c-.43-8.44-1.15-13.23-1.17-13.39l1-.16a187.84,187.84,0,0,1,1.49,23.39.49.49,0,0,1,0,.12A192.31,192.31,0,0,1,297.35,292.54Z"></path></g><path d="M274.06,154.29s2.7,8.05.72,9-3.06-2.17-3.06-2.17-.37,5-3.62,3.89-3.89-7.41-3.89-7.41Z" style="fill:#263238"></path><path d="M267.54,185.7c-1.28,3.26-11.49,11.6-19.2,13.1-8.12,1.57-11.33-7.09-8.14-12.11a25.67,25.67,0,0,0,2.57-9.9c0-.71.07-1.42,0-2.15s-.09-1.75-.2-2.66c0,0,0,0,0-.08-.05-.37-.07-.74-.14-1.12s-.1-.57-.16-.84l-.63-4.15,4.58-1.87,11.87-4.84,10.9-7.46C266.19,161.49,266.38,174.41,267.54,185.7Z" style="fill:#ff8b7b"></path><path d="M243.48,210.73a16.4,16.4,0,0,1-3.36-.35c-3.3-.69-5.48-2.3-6.48-4.81-3.09-7.73,6.12-21.19,6.51-21.76l.83.57c-.1.13-9.31,13.58-6.41,20.82.87,2.17,2.81,3.59,5.75,4.2a15,15,0,0,0,3.08.32c15.5,0,25.06-24.52,25.16-24.79l.94.36C269.08,186.39,259.57,210.73,243.48,210.73Z" style="fill:#fff"></path><g style="opacity:0.2"><path d="M254.61,171a18.39,18.39,0,0,1-12,.95s0,0,0-.08c-.05-.37-.07-.74-.14-1.12s-.1-.57-.16-.84l-.63-4.15,4.58-1.87L259,165.23C259.76,166.55,258.13,169.43,254.61,171Z"></path></g><path d="M279.48,138.71a22.74,22.74,0,0,0-20.3-32.93c-17.57-.1-29.11,21.85-31.52,37-2.67,16.86,13.39,31.75,30,24.71,11-4.68,14.54-13.82,21.84-28.81" style="fill:#ff8b7b"></path><path d="M248.33,104.46s-7.35.85-10,3.38.67,3.52.67,3.52-3.59,2.17-3.08,3.77c1.07,3.35,14.5-1.8,14.5-1.8s-5.7,5.42-2.11,6.14,10.79-3.79,10.79-3.79-3.84,8.19,0,8.43,6.09-6.63,6.09-6.63,0,8.5,3.82,8a7.84,7.84,0,0,0,5.39-2.83S264.84,133,268,137.54c0,0-6.86,5.6-2.8,9s13.46-2.43,15.45-4.83,9.39-11.8-1.81-27.7S248.33,104.46,248.33,104.46Z" style="fill:#263238"></path><path d="M253.26,102.11s4.4-3.69,18.5-1S291,119.55,291,119.55s7.32,3.69,4.74,11.81-7.31,6.77-7.31,6.77a5.6,5.6,0,0,1-7.59,1.72S284.78,113.06,253.26,102.11Z" style="fill:#407BFF"></path><g style="opacity:0.1"><path d="M253.26,102.11s4.4-3.69,18.5-1S291,119.55,291,119.55s7.32,3.69,4.74,11.81-7.31,6.77-7.31,6.77a5.6,5.6,0,0,1-7.59,1.72S284.78,113.06,253.26,102.11Z" style="fill:#fff"></path></g><path d="M243.25,105.48s22.14,5,30,17.12,4.88,20,4.88,20,7.31-.48,7.58-7.63-7.52-25-22.9-30.79C248.52,98.83,243.25,105.48,243.25,105.48Z" style="fill:#407BFF"></path><g style="opacity:0.1"><path d="M243.25,105.48s22.14,5,30,17.12,4.88,20,4.88,20,7.31-.48,7.58-7.63-7.52-25-22.9-30.79C248.52,98.83,243.25,105.48,243.25,105.48Z"></path></g><path d="M245.22,132.05a14.16,14.16,0,0,1-6.56,3.25c-3.79.63-4.13,2.59-2.56,4.65a4.34,4.34,0,0,0,2.85,1.8C241.37,139.63,243.36,136.07,245.22,132.05Z" style="fill:#ff5652"></path><path d="M238,132.78a2.79,2.79,0,0,1-1.29-.32,3.36,3.36,0,0,1-2-3.22.5.5,0,0,1,1,.09,2.41,2.41,0,0,0,1.43,2.24c1.51.76,3-.87,3-.89a.5.5,0,0,1,.74.68A4.49,4.49,0,0,1,238,132.78Z" style="fill:#263238"></path><path d="M251.82,138.19a3.37,3.37,0,0,1-1.9-.58,3.82,3.82,0,0,1-1.85-3.63.5.5,0,1,1,1,.17,2.84,2.84,0,0,0,1.42,2.63c1.6,1.08,3.3-.27,3.37-.33a.5.5,0,1,1,.64.78A4.52,4.52,0,0,1,251.82,138.19Z" style="fill:#263238"></path><path d="M239.66,148.65c-.68,1.78-2.43,2.77-3.89,2.21s-2.1-2.47-1.41-4.25,2.43-2.78,3.9-2.22S240.35,146.86,239.66,148.65Z" style="fill:#fff"></path><path d="M281.83,151.7a15.84,15.84,0,0,1-10.61,5.8c-5.53.56-7.35-4.61-5-9.33,2.1-4.25,7.5-9.66,12.67-8s6.15,7.51,3,11.55" style="fill:#ff8b7b"></path><path d="M270.94,156.25a2.28,2.28,0,1,1-2.27-2.27A2.27,2.27,0,0,1,270.94,156.25Z" style="fill:#fff"></path><path d="M237.05,123.39a.66.66,0,0,0,.66-.09,3.44,3.44,0,0,1,2.58-.86,4,4,0,0,1,2.33,1.4.66.66,0,0,0,.92.14.68.68,0,0,0,.14-.93,5.24,5.24,0,0,0-3.22-1.92,4.7,4.7,0,0,0-3.57,1.13.66.66,0,0,0,.16,1.13Z" style="fill:#263238"></path><path d="M258.2,132.64a.73.73,0,0,0,.3.05.66.66,0,0,0,.61-.7,5.2,5.2,0,0,0-1.63-3.37,4.68,4.68,0,0,0-3.61-1,.65.65,0,0,0-.6.72.66.66,0,0,0,.71.6,3.44,3.44,0,0,1,2.63.68,4,4,0,0,1,1.18,2.46A.68.68,0,0,0,258.2,132.64Z" style="fill:#263238"></path><path d="M368.89,260.81a17.42,17.42,0,0,0-1.28-2.36l-.43-.69-.85-1.34c-.56-.9-1.16-1.75-1.76-2.59-1.19-1.72-2.45-3.31-3.71-4.92-2.55-3.14-5.22-6.07-7.95-8.88A171.18,171.18,0,0,0,335.6,225c-3-2.28-6-4.46-9.1-6.58s-6.21-4.1-9.36-6-6.36-3.8-9.61-5.58c-1.64-.89-3.27-1.77-4.93-2.63l-2.53-1.25-2.7-1.3-13.1,27,2,1.08,2.14,1.18c1.45.79,2.89,1.6,4.34,2.42,2.88,1.64,5.77,3.31,8.61,5s5.67,3.45,8.44,5.25,5.54,3.58,8.2,5.47,5.32,3.77,7.86,5.73,5,4,7.34,6,4.6,4.15,6.67,6.31c1,1.09,2,2.17,2.93,3.28a2.65,2.65,0,0,0,.21.26,62.14,62.14,0,0,1-4.13,6.78c-3.58,5.17-7.89,10.37-12.29,15.53-6,6.92-12.33,13.79-18.74,20.59,0,.05,0,.1,0,.16a60.79,60.79,0,0,0-.56,20.3l.69.83c6.07-4,11.79-8.22,17.52-12.59s11.3-8.91,16.76-13.76a179,179,0,0,0,16-15.73,71.18,71.18,0,0,0,7.57-10.05,35.67,35.67,0,0,0,3.48-7.35,23.16,23.16,0,0,0,1.13-5.78A18.79,18.79,0,0,0,368.89,260.81Zm-24.84,7a3.14,3.14,0,0,1-.22.91c0-.11,0-.21,0-.3C343.93,267.82,344.05,267.72,344.05,267.83Z" style="fill:#ff8b7b"></path><path d="M279.21,231.71l39.57,25.86s18.71-20.48,17.08-38.7c0,0-22.47-21.27-39.56-25.17S261.19,218.64,279.21,231.71Z" style="fill:#407BFF"></path><g style="opacity:0.2"><path d="M279.21,231.71l39.57,25.86s18.71-20.48,17.08-38.7c0,0-22.47-21.27-39.56-25.17S261.19,218.64,279.21,231.71Z"></path></g><path d="M165.09,128.6C157.83,125,172,96.25,179.28,99.83a140.38,140.38,0,0,1,13.4,6.61c6.5,3.7,8.83,14,12.86,16.53s10.23-1.42,15.24.31c3,1,6.65,6.08,9.15,10a9.8,9.8,0,0,1,1.44,6.61l3.85,1.9-2.79,5.65-3.85-1.9a10.5,10.5,0,0,1-1.41,1.18,9.93,9.93,0,0,1-4.7,1.7c-4.65.41-10.89.57-13.52-1.17-4.42-2.93-5.11-10.22-9.53-11.91s-14,2.76-20.93-.13A143.19,143.19,0,0,1,165.09,128.6Z" style="fill:#407BFF"></path><g style="opacity:0.5"><path d="M165.09,128.6C157.83,125,172,96.25,179.28,99.83a140.38,140.38,0,0,1,13.4,6.61c6.5,3.7,8.83,14,12.86,16.53s10.23-1.42,15.24.31c3,1,6.65,6.08,9.15,10a9.8,9.8,0,0,1,1.44,6.61l3.85,1.9-2.79,5.65-3.85-1.9a10.5,10.5,0,0,1-1.41,1.18,9.93,9.93,0,0,1-4.7,1.7c-4.65.41-10.89.57-13.52-1.17-4.42-2.93-5.11-10.22-9.53-11.91s-14,2.76-20.93-.13A143.19,143.19,0,0,1,165.09,128.6Z" style="fill:#fff"></path><g style="opacity:0.1"><path d="M227.3,135c-3.68-5.8-6.37-8.33-7.53-8.73-1.63-.56-3.78-.2-6.05.18a31.69,31.69,0,0,1-4.53.53,9.56,9.56,0,0,1-5.29-1.32c-2.45-1.51-4.11-4.5-5.87-7.66-1.87-3.35-4-7.15-6.89-8.81-4.77-2.72-9.82-5-12-6a30.22,30.22,0,0,0-9.87,14.07,38.73,38.73,0,0,0-2.14,8.93c1.64.91,7,3.82,12.55,6.16,3.08,1.3,7.38.66,11.17.1,3.59-.53,7-1,9.66,0,3.42,1.3,5.12,4.5,6.61,7.3,1.09,2,2.11,4,3.54,4.92,1,.68,4.67,1.27,11.51.65a6.26,6.26,0,0,0,2-.5,3.43,3.43,0,0,0,.44-.19l3.6-7.3A6.64,6.64,0,0,0,227.3,135Z"></path></g></g><path d="M222.43,142.75c-2.34-5.18-11.12-2-11.05-8.11,0-.1-.19-1.9-2.49-4a12.41,12.41,0,0,0-4.4-2.63c-12.09-4.19-14.65-18.77-27.3-23.11a30.76,30.76,0,0,0-7.9,12.39,38.73,38.73,0,0,0-2.14,8.93c1.64.91,7,3.82,12.55,6.16,3.08,1.3,7.38.66,11.17.1,3.59-.53,7-1,9.66,0,3.42,1.3,5.12,4.5,6.61,7.3,1.09,2,2.11,4,3.54,4.92,1,.68,4.67,1.27,11.51.65a6.26,6.26,0,0,0,2-.5A4.76,4.76,0,0,1,222.43,142.75Z" style="fill:#407BFF"></path><path d="M212.27,137.7a15.77,15.77,0,0,0,8.48,1.05c4.79-.72,4,2.74,6.91,4.06s5.21.68,6,2.24c1.9,2.65,3.07,4.82,2.15,5.81-2.78-.65-7.41-5.65-9.14-5.51a31.48,31.48,0,0,1-5,0C218.76,145.3,212.27,137.7,212.27,137.7Z" style="fill:#407BFF"></path><path d="M199.13,141.41s9.15,2.31,11.14-.7-1.5-4.16-3.37-5.91-7.75-5.62-8.75-3.5,2.29,4.58,2.29,4.58a11.34,11.34,0,0,0-9,0C186.9,138.05,199.13,141.41,199.13,141.41Z" style="fill:#ff8b7b"></path><path d="M303.2,325.86s-9.48,3.55-10.11,6.08,9.45.32,9.45.32-5.55,2.24-6.36,4.15,6.89,1,6.89,1-3.64,1.65-2.9,3.71,2.45,2.18,4.7,1.78a6.08,6.08,0,0,0,4.35-3.24c.45-1.15-1.14-2.9-1.14-2.9s2.73-3.25,2.27-4.63a3.16,3.16,0,0,0-1.8-1.86,3.34,3.34,0,0,0,1.42-2.84,2.94,2.94,0,0,0-1.31-2.48,40.56,40.56,0,0,0-.22-5.51c-.31-1.92-4-1.95-6.3-2.22s-4,5-6.76,7c0,0-1.14,1.64,1,2.07s5-2.88,5.79-3.15S303.2,325.86,303.2,325.86Z" style="fill:#ff8b7b"></path><g style="opacity:0.2"><path d="M310.62,333.16h-.05a.24.24,0,0,1-.19-.29,2.77,2.77,0,0,0-1.45-2.8.26.26,0,0,1-.13-.2.27.27,0,0,1,.11-.22s1.48-1.06,1.48-2.23a2.78,2.78,0,0,0-1.58-2.46.25.25,0,0,1-.15-.18.23.23,0,0,1,.06-.22,4.18,4.18,0,0,0,.52-3,5.1,5.1,0,0,0-2-3.34.25.25,0,0,1,.28-.42,5.52,5.52,0,0,1,2.2,3.71,5.09,5.09,0,0,1-.46,3.13,3.2,3.2,0,0,1,1.62,2.79,3.54,3.54,0,0,1-1.41,2.41,3.08,3.08,0,0,1,1.38,3.14A.24.24,0,0,1,310.62,333.16Z"></path></g><path d="M207.22,123.64s-6,5.42-8.55,4.78,3.54-8.35,3.54-8.35-4.6,3.83-6.66,3.65,2.36-6.56,2.36-6.56-3.1,3.78-4.57,2.16.16-4.28,1.58-6.07,2.68-2.71,3.91-2.56,2,2.37,2,2.37,4.15-.87,5.16.19a3.18,3.18,0,0,1,.79,2.46,3.33,3.33,0,0,1,3.17.09c1.58,1,.9,3.37.9,3.37s3.21-.42,4.21,1.92c.77,1.79-2,2.81-2.81,5s-3.29,2.61-6.37,4.09c0,0-2,.23-1.34-1.9s3.4-3.31,4-3.9S207.22,123.64,207.22,123.64Z" style="fill:#ff8b7b"></path></g><g id="freepik--Table--inject-65"><rect x="37.61" y="413.98" width="423.44" height="15.44" rx="7.6" style="fill:#e0e0e0"></rect><path d="M440.72,438.43H61.44a9,9,0,0,1-9-9H449.72A9,9,0,0,1,440.72,438.43Z" style="fill:#ebebeb"></path></g><g id="freepik--Circles--inject-65"><path d="M168.73,322.86a6.4,6.4,0,1,1,6.39-6.4A6.41,6.41,0,0,1,168.73,322.86Zm0-12a5.65,5.65,0,1,0,5.64,5.64A5.65,5.65,0,0,0,168.73,310.82Z" style="fill:#407BFF"></path><g style="opacity:0.5"><path d="M168.73,322.86a6.4,6.4,0,1,1,6.39-6.4A6.41,6.41,0,0,1,168.73,322.86Zm0-12a5.65,5.65,0,1,0,5.64,5.64A5.65,5.65,0,0,0,168.73,310.82Z" style="fill:#fff"></path></g><path d="M303.84,174.64a6.4,6.4,0,1,1,6.4-6.39A6.4,6.4,0,0,1,303.84,174.64Zm0-12a5.65,5.65,0,1,0,5.65,5.65A5.65,5.65,0,0,0,303.84,162.6Z" style="fill:#407BFF"></path><g style="opacity:0.5"><path d="M303.84,174.64a6.4,6.4,0,1,1,6.4-6.39A6.4,6.4,0,0,1,303.84,174.64Zm0-12a5.65,5.65,0,1,0,5.65,5.65A5.65,5.65,0,0,0,303.84,162.6Z" style="fill:#fff"></path></g></g><g id="freepik--Plant--inject-65"><path d="M382,400l1.21,10.22h0l.08.66h0a3.83,3.83,0,0,0,3.8,3.37h25.52a3.81,3.81,0,0,0,3.79-3.38l.1-.84.09-.76.3-2.63.09-.8.06-.52.08-.68.7-6.08.08-.67,1.38-12h0l.08-.7.65-5.62c0-2-40.43-2-40.43,0l.47,4,.08.65.87,7.33.07.64.57,4.78.08.69.21,1.78Z" style="fill:#407BFF"></path><path d="M418,380.32c0,.52-8.26.95-18.44.95s-18.45-.43-18.45-.95,8.26-1,18.45-1S418,379.79,418,380.32Z" style="fill:#263238"></path><path d="M400.82,364.77s-5.67.89-13.3-8.2l5.17.48-7.5-3.54c-7.89-11.84-6.29-32.22-6.29-32.22A69.11,69.11,0,0,1,390.12,334l1.35,7.3.7-4.14C396.32,344,401.33,355.3,400.82,364.77Z" style="fill:#407BFF"></path><path d="M400.09,342.89s5.72-.43,11.08-11l-4.93,1.64,6.5-5.16c5-13.33-1.24-32.8-1.24-32.8a68.86,68.86,0,0,0-8,14.94l.36,7.42-1.63-3.87C399.74,321.67,397.43,333.79,400.09,342.89Z" style="fill:#407BFF"></path><path d="M400.29,374.41s5.57,1.38,14-7l-5.19,0,7.78-2.87c8.89-11.11,9.08-31.54,9.08-31.54a69.19,69.19,0,0,0-12.29,11.68l-2,7.16-.34-4.18C406.59,354.15,400.61,364.93,400.29,374.41Z" style="fill:#407BFF"></path><g style="opacity:0.5"><path d="M400.82,364.77s-5.67.89-13.3-8.2l5.17.48-7.5-3.54c-7.89-11.84-6.29-32.22-6.29-32.22A69.11,69.11,0,0,1,390.12,334l1.35,7.3.7-4.14C396.32,344,401.33,355.3,400.82,364.77Z" style="fill:#fff"></path></g><g style="opacity:0.5"><path d="M400.09,342.89s5.72-.43,11.08-11l-4.93,1.64,6.5-5.16c5-13.33-1.24-32.8-1.24-32.8a68.86,68.86,0,0,0-8,14.94l.36,7.42-1.63-3.87C399.74,321.67,397.43,333.79,400.09,342.89Z" style="fill:#fff"></path></g><g style="opacity:0.5"><path d="M400.29,374.41s5.57,1.38,14-7l-5.19,0,7.78-2.87c8.89-11.11,9.08-31.54,9.08-31.54a69.19,69.19,0,0,0-12.29,11.68l-2,7.16-.34-4.18C406.59,354.15,400.61,364.93,400.29,374.41Z" style="fill:#fff"></path></g><path d="M398.82,380.51h1.67a143.56,143.56,0,0,0-.92-45.8,96.82,96.82,0,0,0-5.18-18.79.82.82,0,0,0-1.08-.44.83.83,0,0,0-.44,1.08A97.75,97.75,0,0,1,397.94,335,141.89,141.89,0,0,1,398.82,380.51Z" style="fill:#407BFF"></path></g><g id="freepik--Lamp--inject-65"><path d="M93.69,414.09h34.18a8.27,8.27,0,0,0,6.42-3,30.33,30.33,0,1,0-47,0A8.24,8.24,0,0,0,93.69,414.09Z" style="fill:#407BFF"></path><polygon points="145.12 377.45 76.44 377.45 92.61 337.9 128.95 337.9 145.12 377.45" style="fill:#407BFF"></polygon><g style="opacity:0.30000000000000004"><polygon points="145.12 377.45 76.44 377.45 92.61 337.9 128.95 337.9 145.12 377.45" style="fill:#fff"></polygon></g></g></svg>
