<svg xmlns="http://www.w3.org/2000/svg" xmlns:xlink="http://www.w3.org/1999/xlink" viewBox="0 0 500 500"><defs><clipPath id="freepik--clip-path--inject-11"><path d="M322.58,130.81a2.82,2.82,0,0,0-1.66-2.32,8.88,8.88,0,0,0-8,0,2.83,2.83,0,0,0-1.67,2.32h0v2.52h0a2.83,2.83,0,0,0,1.67,2.32,8.88,8.88,0,0,0,8,0,2.82,2.82,0,0,0,1.66-2.32h0v-2.52Z" style="fill:none"></path></clipPath></defs><g id="freepik--Background--inject-11"><path id="freepik--background--inject-11" d="M448.19,414.67C517.91,348,497,223,439.94,143.14,348.56,15.26,208.65-17.59,101.65,57.4,8.2,122.89-20.29,286.59,28.23,377.94c32.17,60.55,118.8,101,201,105.4C336.5,489,404.72,456.27,448.19,414.67Z" style="fill:#37474f"></path></g><g id="freepik--Window--inject-11"><g id="freepik--window--inject-11"><path id="freepik--Light--inject-11" d="M446.33,378.53,263.94,483.83q-16.66.45-34.75-.49C147,479,60.4,438.49,28.23,377.94-7.19,311.25-1.57,206,40.41,128.54l298.86-79,31.86-8.42c35.6,21,74.53,43,74.53,43V222.93Z" style="fill:#BA68C8;opacity:0.2"></path><g id="freepik--window--inject-11"><polygon points="371.13 177.26 445.66 220.28 445.66 84.16 371.13 41.16 371.13 177.26" style="fill:#BA68C8"></polygon><polygon points="371.13 177.26 445.66 220.28 445.66 84.16 371.13 41.16 371.13 177.26" style="opacity:0.55"></polygon><polygon points="447.92 221.59 445.66 222.94 368.87 178.6 371.13 177.26 447.92 221.59" style="fill:#263238"></polygon><path d="M364.61,181.06l85.31,49.25V81.71L364.61,32.46Zm4.26-141.23,76.79,44.33V222.94l-76.79-44.33Z" style="fill:#455a64"></path><polygon points="368.87 178.6 371.13 177.26 371.13 41.16 368.87 39.83 368.87 178.6" style="fill:#263238"></polygon><polygon points="364.61 32.46 366.9 31.14 452.21 80.39 449.92 81.7 364.61 32.46" style="fill:#37474f"></polygon><polygon points="452.21 80.39 449.92 81.7 449.92 230.31 452.21 229 452.21 80.39"></polygon><polygon points="443.74 151.43 443.74 154.08 368.83 110.74 371.09 109.4 443.74 151.43" style="fill:#263238"></polygon><polygon points="410.89 64.11 408.6 62.78 408.6 201.56 410.89 200.25 410.89 64.11" style="fill:#263238"></polygon><polygon points="404.34 60.34 408.6 62.78 408.6 201.56 404.34 199.1 404.34 60.34" style="fill:#455a64"></polygon><polygon points="368.83 110.74 368.83 115.66 445.66 160.27 445.66 155.35 368.83 110.74" style="fill:#455a64"></polygon><polygon points="408.6 133.77 410.89 132.44 445.66 152.5 445.66 155.15 408.6 133.77" style="fill:#263238"></polygon></g><g id="freepik--moon-and-stars--inject-11"><g style="opacity:0.6000000000000001"><path d="M433.38,122.62a.48.48,0,0,1,.27.63.47.47,0,0,1-.62.27.48.48,0,0,1-.28-.62A.49.49,0,0,1,433.38,122.62Z" style="fill:#fff"></path><path d="M436.48,125.55a1,1,0,1,1-.71,1.8,1,1,0,0,1-.55-1.25A1,1,0,0,1,436.48,125.55Z" style="fill:#fff"></path></g><g style="opacity:0.30000000000000004"><path d="M432.26,168.05a.48.48,0,0,1,.27.63.47.47,0,0,1-.62.27.48.48,0,1,1,.35-.9Z" style="fill:#fff"></path><path d="M435.36,171a1,1,0,1,1-1.26.55A1,1,0,0,1,435.36,171Z" style="fill:#fff"></path></g><g style="opacity:0.6000000000000001"><path d="M397.1,67.37a.48.48,0,1,1-.63.27A.48.48,0,0,1,397.1,67.37Z" style="fill:#fff"></path><path d="M400.2,70.3a1,1,0,0,1,.54,1.25,1,1,0,0,1-1.25.55,1,1,0,1,1,.71-1.8Z" style="fill:#fff"></path></g><path d="M397,109.84a1,1,0,0,1-.71,1.81,1,1,0,0,1,.71-1.81Z" style="fill:#fff;opacity:0.6000000000000001"></path><path d="M377.12,129.59a1,1,0,1,1-1.26.55A1,1,0,0,1,377.12,129.59Z" style="fill:#fff;opacity:0.6000000000000001"></path><g style="opacity:0.30000000000000004"><path d="M382.51,104.27a1,1,0,1,1-1-1A1,1,0,0,1,382.51,104.27Z" style="fill:#fff"></path><path d="M379.47,107.05a.61.61,0,0,1-.61.61.61.61,0,1,1,.61-.61Z" style="fill:#fff"></path><path d="M377.74,103.26a.49.49,0,1,1-.49-.49A.49.49,0,0,1,377.74,103.26Z" style="fill:#fff"></path></g><g style="opacity:0.30000000000000004"><path d="M439.16,95.41a1,1,0,1,1,.77-1.21A1,1,0,0,1,439.16,95.41Z" style="fill:#fff"></path><path d="M435.79,93a.6.6,0,0,1-.72-.46.61.61,0,1,1,.72.46Z" style="fill:#fff"></path><path d="M439.13,90.54a.49.49,0,1,1,.38-.58A.49.49,0,0,1,439.13,90.54Z" style="fill:#fff"></path></g><g style="opacity:0.30000000000000004"><path d="M394.9,153a1,1,0,1,1,.77-1.21A1,1,0,0,1,394.9,153Z" style="fill:#fff"></path><path d="M391.53,150.61a.61.61,0,1,1,.47-.73A.62.62,0,0,1,391.53,150.61Z" style="fill:#fff"></path><path d="M394.88,148.11a.49.49,0,0,1-.59-.37.48.48,0,0,1,.38-.58.49.49,0,0,1,.58.37A.48.48,0,0,1,394.88,148.11Z" style="fill:#fff"></path></g><g style="opacity:0.30000000000000004"><path d="M420.28,82.79a1,1,0,1,1-1-1A1,1,0,0,1,420.28,82.79Z" style="fill:#fff"></path><path d="M417.24,85.57a.61.61,0,0,1-.61.61.61.61,0,0,1-.61-.61.62.62,0,0,1,.61-.61A.61.61,0,0,1,417.24,85.57Z" style="fill:#fff"></path><path d="M415.52,81.77a.49.49,0,1,1-.49-.49A.49.49,0,0,1,415.52,81.77Z" style="fill:#fff"></path></g><g style="opacity:0.30000000000000004"><path d="M383.89,54.74a1,1,0,1,1-1-1A1,1,0,0,1,383.89,54.74Z" style="fill:#fff"></path><path d="M380.85,57.52a.61.61,0,1,1-.61-.61A.61.61,0,0,1,380.85,57.52Z" style="fill:#fff"></path><path d="M379.13,53.72a.49.49,0,1,1-.49-.49A.49.49,0,0,1,379.13,53.72Z" style="fill:#fff"></path></g><g style="opacity:0.6000000000000001"><path d="M429.69,102.59a1,1,0,1,1-1-1A1,1,0,0,1,429.69,102.59Z" style="fill:#fff"></path></g><path d="M417.58,105.72a.48.48,0,1,1-.35.9A.47.47,0,0,1,417,106,.48.48,0,0,1,417.58,105.72Z" style="fill:#fff;opacity:0.6000000000000001"></path><path d="M419.44,133.39a.48.48,0,1,1-.63.27A.49.49,0,0,1,419.44,133.39Z" style="fill:#fff;opacity:0.6000000000000001"></path><path d="M381.67,167.25a.48.48,0,1,1-.63.27A.48.48,0,0,1,381.67,167.25Z" style="fill:#fff;opacity:0.6000000000000001"></path><path d="M419.92,183.93a.49.49,0,1,1-.63.28A.5.5,0,0,1,419.92,183.93Z" style="fill:#fff;opacity:0.6000000000000001"></path><path d="M397.37,85.13c-.12,5-2.71,8.13-6.58,7.42-4.91-.89-10.12-7.62-11.58-15s1.38-12.73,6.29-11.83a6.87,6.87,0,0,1,2.52,1c-3.08.15-4.64,4-3.65,9,1.12,5.66,5.08,10.81,8.84,11.5A3.74,3.74,0,0,0,397.37,85.13Z" style="fill:#fafafa"></path></g></g></g><g id="freepik--Shadows--inject-11"><path id="freepik--Shadow--inject-11" d="M475.55,363.44c2.55-1.47,2.55-3.86,0-5.33L220.64,211a10.21,10.21,0,0,0-9.23,0L7.73,312.22v0c3.51,24,10.29,46.48,20.5,65.7,32.17,60.55,118.8,101,201,105.4,29.51,1.56,56.05.22,79.95-3.42Z" style="fill:#263238"></path><path id="freepik--shadow--inject-11" d="M339.4,212.38,292,184.94a5.06,5.06,0,0,0-4.61,0l-54.14,31.25c-1.27.74-1.27,1.93,0,2.67l47.43,27.45a5.13,5.13,0,0,0,4.61,0l54.14-31.26C340.68,214.31,340.68,213.12,339.4,212.38Z" style="fill:#263238"></path></g><g id="freepik--nightstand-2--inject-11"><g id="freepik--Nightstand--inject-11"><g id="freepik--nightstand--inject-11"><g id="freepik--nightstand--inject-11"><polygon points="236.05 148.29 283.27 175.61 283.27 237.07 236.05 209.75 236.05 148.29" style="fill:#263238"></polygon><polygon points="283.27 175.61 336.57 144.83 336.57 206.29 283.27 237.07 283.27 175.61" style="fill:#37474f"></polygon><polygon points="336.57 144.83 336.74 160.2 336.85 175.56 336.93 206.29 336.93 206.5 336.75 206.61 310.06 221.93 296.68 229.53 283.27 237.07 296.5 229.22 309.78 221.44 336.38 205.98 336.2 206.29 336.29 175.56 336.39 160.2 336.57 144.83" style="fill:#263238"></polygon><polygon points="336.57 144.83 289.35 117.51 236.05 148.29 283.27 175.61 336.57 144.83" style="fill:#455a64"></polygon><polygon points="287.36 177.97 332.47 151.92 332.47 166.11 287.36 192.16 287.36 177.97" style="fill:#455a64"></polygon><polygon points="287.36 196.88 332.47 170.84 332.47 203.93 287.36 229.98 287.36 196.88" style="opacity:0.2"></polygon><path d="M301.34,172.89c0,.65,2,.05,4.37-1.34l7.64-4.42c2.41-1.39,4.37-3,4.37-3.7v-1.18l-16.38,9.45Z" style="fill:#37474f"></path><polygon points="332.47 203.93 304.01 187.27 287.36 196.88 287.36 229.98 332.47 203.93" style="opacity:0.2"></polygon></g></g><g id="freepik--Pills--inject-11"><path id="freepik--shadow--inject-11" d="M321.72,140.68c2.66,1.54,2.66,4,0,5.57a10.7,10.7,0,0,1-9.64,0c-2.66-1.54-2.66-4,0-5.57A10.7,10.7,0,0,1,321.72,140.68Z" style="fill:#263238"></path><path id="freepik--shadow--inject-11" d="M297.92,159.3c1.33.77,1.33,2,0,2.78a5.32,5.32,0,0,1-4.82,0c-1.33-.77-1.33-2,0-2.78A5.32,5.32,0,0,1,297.92,159.3Z" style="fill:#263238"></path><path id="freepik--shadow--inject-11" d="M298.93,146c1.33.77,1.33,2,0,2.78a5.32,5.32,0,0,1-4.82,0c-1.33-.77-1.33-2,0-2.78A5.32,5.32,0,0,1,298.93,146Z" style="fill:#263238"></path><path id="freepik--shadow--inject-11" d="M302,144.56c1.33.77,1.33,2,0,2.79a5.38,5.38,0,0,1-4.82,0c-1.33-.77-1.33-2,0-2.79A5.38,5.38,0,0,1,302,144.56Z" style="fill:#263238"></path><g id="freepik--Pill--inject-11"><path d="M299.26,145.91a.77.77,0,0,0-.07-.16l-.07-.11a1.53,1.53,0,0,0-.44-.44v.45l-.39-.23V145a4.41,4.41,0,0,0-3.74.11,1.53,1.53,0,0,0-.76.83.19.19,0,0,0,0,.07,1,1,0,0,0,0,.23v.91a1,1,0,0,0,.2.61,2,2,0,0,0,.61.53,4.34,4.34,0,0,0,3.94,0,1.38,1.38,0,0,0,.82-1.14v-.91A1,1,0,0,0,299.26,145.91Z" style="fill:#f0f0f0"></path><path d="M297.4,144.69a4.29,4.29,0,0,0-2.85.39,1.53,1.53,0,0,0-.76.83.19.19,0,0,0,0,.07,1,1,0,0,0,0,.23v.91a1,1,0,0,0,.2.61,2,2,0,0,0,.61.53,4.42,4.42,0,0,0,2.85.39Z" style="fill:#ebebeb"></path><path d="M294.55,145.08c-1,.59-1.08,1.52-.18,2.15l3.92-2.26A4.41,4.41,0,0,0,294.55,145.08Z" style="fill:#fafafa"></path><path d="M294.36,147s-1.08-.83.13-1.87a1.15,1.15,0,0,0-.12,2.11l3.92-2.26Z" style="fill:#fff"></path><path d="M298.68,145.2l-3.92,2.26a4.38,4.38,0,0,0,3.73-.11C299.51,146.76,299.58,145.83,298.68,145.2Z" style="fill:#fafafa"></path><path d="M294.76,147.46a4.38,4.38,0,0,0,3.73-.11,2.7,2.7,0,0,0,.33-.22,4.51,4.51,0,0,1-3.62.29l3.48-2.22Z" style="fill:#fff"></path><polygon points="298.29 145.42 294.37 147.7 294.37 147.23 298.29 144.97 298.29 145.42" style="fill:#e0e0e0"></polygon><polygon points="294.76 147.46 294.76 147.93 294.37 147.7 294.76 147.46" style="opacity:0.2"></polygon></g><g id="freepik--pill--inject-11"><path d="M302.36,144.38a.75.75,0,0,0,0-.16.5.5,0,0,0-.05-.13,2,2,0,0,0-.37-.51l-.07.46-.35-.28.06-.46a4.3,4.3,0,0,0-3.67-.42,1.59,1.59,0,0,0-.87.73l0,.07a.86.86,0,0,0-.06.23l-.13.91a1.1,1.1,0,0,0,.11.63,2,2,0,0,0,.53.62,4.22,4.22,0,0,0,3.86.55,1.38,1.38,0,0,0,1-1l.13-.91A1.08,1.08,0,0,0,302.36,144.38Z" style="fill:#f0f0f0"></path><path d="M300.71,142.89a4.26,4.26,0,0,0-2.84,0,1.59,1.59,0,0,0-.87.73l0,.07a.86.86,0,0,0-.06.23l-.13.91a1.1,1.1,0,0,0,.11.63,2,2,0,0,0,.53.62,4.24,4.24,0,0,0,2.73.79Z" style="fill:#ebebeb"></path><path d="M297.87,142.88c-1.09.45-1.28,1.38-.49,2.13l4.16-1.71A4.3,4.3,0,0,0,297.87,142.88Z" style="fill:#fafafa"></path><path d="M297.41,144.77s-.94-1,.39-1.85a1.17,1.17,0,0,0-.42,2.09l4.16-1.71Z" style="fill:#fff"></path><path d="M301.9,143.58l-4.17,1.72a4.28,4.28,0,0,0,3.68.41C302.49,145.27,302.69,144.34,301.9,143.58Z" style="fill:#fafafa"></path><path d="M297.73,145.3a4.28,4.28,0,0,0,3.68.41,2.85,2.85,0,0,0,.35-.17,4.37,4.37,0,0,1-3.59-.22l3.73-1.74Z" style="fill:#fff"></path><polygon points="301.48 143.76 297.31 145.48 297.38 145.01 301.54 143.3 301.48 143.76" style="fill:#e0e0e0"></polygon><polygon points="297.73 145.3 297.67 145.76 297.31 145.48 297.73 145.3" style="opacity:0.2"></polygon></g><g id="freepik--pill--inject-11"><path d="M298.24,159.13a.94.94,0,0,0-.06-.15.41.41,0,0,0-.07-.11,1.69,1.69,0,0,0-.44-.45v.46l-.4-.23v-.45a4.38,4.38,0,0,0-3.73.11,1.62,1.62,0,0,0-.77.82s0,.06,0,.08a1,1,0,0,0,0,.23v.91a1,1,0,0,0,.21.61,1.81,1.81,0,0,0,.61.53,4.34,4.34,0,0,0,3.94,0,1.38,1.38,0,0,0,.81-1.14v-.91A.87.87,0,0,0,298.24,159.13Z" style="fill:#f0f0f0"></path><path d="M296.38,157.91a4.33,4.33,0,0,0-2.84.4,1.62,1.62,0,0,0-.77.82s0,.06,0,.08a1,1,0,0,0,0,.23v.91a1,1,0,0,0,.21.61,1.81,1.81,0,0,0,.61.53,4.39,4.39,0,0,0,2.84.39Z" style="fill:#ebebeb"></path><path d="M293.54,158.3c-1,.59-1.09,1.53-.19,2.16l3.92-2.26A4.42,4.42,0,0,0,293.54,158.3Z" style="fill:#fafafa"></path><path d="M293.35,160.22s-1.08-.83.12-1.87a1.15,1.15,0,0,0-.12,2.11l3.92-2.26Z" style="fill:#fff"></path><path d="M297.67,158.42l-3.93,2.27a4.41,4.41,0,0,0,3.74-.11C298.5,160,298.56,159.06,297.67,158.42Z" style="fill:#fafafa"></path><path d="M293.74,160.69a4.41,4.41,0,0,0,3.74-.11,2,2,0,0,0,.32-.22,4.51,4.51,0,0,1-3.62.29l3.49-2.23Z" style="fill:#fff"></path><polygon points="297.27 158.65 293.35 160.93 293.35 160.46 297.27 158.2 297.27 158.65" style="fill:#e0e0e0"></polygon><polygon points="293.75 160.69 293.75 161.15 293.35 160.93 293.75 160.69" style="opacity:0.2"></polygon></g><g id="freepik--pill-bottle--inject-11"><path d="M322.26,133.26a2.67,2.67,0,0,0-1.57-2.19,8.37,8.37,0,0,0-7.58,0,2.68,2.68,0,0,0-1.56,2.19h0v9.9h0a2.66,2.66,0,0,0,1.56,2.19,8.37,8.37,0,0,0,7.58,0,2.66,2.66,0,0,0,1.57-2.19h0Z" style="fill:#BA68C8"></path><path d="M320.2,130.82V145.6l.49-.25a4.22,4.22,0,0,0,.85-.65v-13a4.22,4.22,0,0,0-.85-.65Z" style="fill:#fff;opacity:0.4"></path><path d="M318.8,146.05a6.73,6.73,0,0,0,.77-.21V130.58c-.25-.08-.51-.15-.77-.21Z" style="fill:#fff;opacity:0.4"></path><path d="M322.17,132.69a3.86,3.86,0,0,0-1.25-1.08,8.93,8.93,0,0,0-7.55-.25v-.42l-.26.13a2.68,2.68,0,0,0-1.56,2.19v9.9a2.66,2.66,0,0,0,1.56,2.19,8.37,8.37,0,0,0,7.58,0,3.94,3.94,0,0,0,.95-.75c-1,.93-3.47,1.44-5.31,1.08s-3-1.54-3-2.37v-1.58a8,8,0,0,0,3.7.82v-4a8.07,8.07,0,0,1-3.7-.76v-1.27a8.93,8.93,0,0,0,7.55-.25,3.67,3.67,0,0,0,1.34-1.23v-1.75A1.88,1.88,0,0,0,322.17,132.69Z" style="opacity:0.1"></path><path d="M312.45,143.55v-12a2.3,2.3,0,0,0-.9,1.72v9.9a2.66,2.66,0,0,0,1.56,2.19,7,7,0,0,0,2,.73C313.14,145.54,312.45,144.16,312.45,143.55Z" style="opacity:0.1"></path><path d="M322.58,130.81a2.82,2.82,0,0,0-1.66-2.32,8.88,8.88,0,0,0-8,0,2.83,2.83,0,0,0-1.67,2.32h0v2.52h0a2.83,2.83,0,0,0,1.67,2.32,8.88,8.88,0,0,0,8,0,2.82,2.82,0,0,0,1.66-2.32h0v-2.52Z" style="fill:#e0e0e0"></path><g style="clip-path:url(#freepik--clip-path--inject-11)"><g style="opacity:0.2"><rect x="322.45" y="130.58" width="0.27" height="3.92"></rect><rect x="321.82" y="131.64" width="0.27" height="3.94"></rect><rect x="320.87" y="132.36" width="0.27" height="3.96"></rect><rect x="319.79" y="132.82" width="0.27" height="3.98"></rect><rect x="318.6" y="133.12" width="0.27" height="4"></rect><rect x="317.34" y="133.27" width="0.27" height="4.02"></rect><rect x="316.06" y="133.27" width="0.27" height="4.04"></rect><rect x="314.82" y="133.1" width="0.27" height="4.07"></rect><rect x="313.65" y="132.76" width="0.27" height="4.09"></rect><rect x="312.59" y="132.24" width="0.27" height="4.11"></rect><rect x="311.75" y="131.52" width="0.27" height="4.13"></rect><rect x="311.09" y="130.35" width="0.27" height="4.15"></rect></g><path d="M318.26,136.51c-2.81,0-4.29-.89-4.74-1.64a5.74,5.74,0,0,1-.41-2.65s-.31-2.36-.25-2.37-.67-.16-1.22-.27a2.1,2.1,0,0,0-.42,1.23h0v2.52h0a2.83,2.83,0,0,0,1.67,2.32A8.7,8.7,0,0,0,318.26,136.51Z" style="opacity:0.1"></path></g><path d="M312.89,133.13a8.88,8.88,0,0,0,8,0c2.22-1.28,2.22-3.36,0-4.64a8.88,8.88,0,0,0-8,0C310.67,129.77,310.67,131.85,312.89,133.13Z" style="fill:#ebebeb"></path><path d="M321.22,132.94c1.91-1.29,1.81-3.23-.3-4.45a8.14,8.14,0,0,0-3.91-1,6.17,6.17,0,0,0-2.07.7,2.39,2.39,0,0,0,0,4.38A7.83,7.83,0,0,0,321.22,132.94Z" style="fill:#f5f5f5"></path><path d="M313.42,145.1a8.69,8.69,0,0,0,7,0c1.92-1,1.92-2.53,0-3.49a8.69,8.69,0,0,0-7,0C311.5,142.57,311.5,144.14,313.42,145.1Z" style="opacity:0.1"></path><path d="M311.55,135.69a2.68,2.68,0,0,0,1.56,2.19,7.81,7.81,0,0,0,3.79.9v3.93a7.81,7.81,0,0,1-3.79-.9,2.68,2.68,0,0,1-1.56-2.19Z" style="fill:#fff"></path><path d="M311.66,132.07a7.59,7.59,0,0,0,5.41,1.77c3.57-.1,5-2.05,5.19-2.66a2.21,2.21,0,0,0-.48-2.05,2.34,2.34,0,0,1,.8,1.68v2.52c0,.21.11.95-1,1.89a2.75,2.75,0,0,0,.68-1.5V132s-1.27,2.11-5.15,2.11S311.85,132.39,311.66,132.07Z" style="fill:#fff"></path></g><path d="M316.33,141a1.32,1.32,0,0,1-1.25.9,1.34,1.34,0,1,1,0-2.68,1.09,1.09,0,0,1,.36.06,1,1,0,0,0-.84,1,1,1,0,0,0,1,1A1,1,0,0,0,316.33,141Z" style="fill:#455a64"></path></g><polygon id="freepik--shadow--inject-11" points="262.5 155.16 251.06 148.55 273.94 135.34 285.38 141.95 262.5 155.16" style="fill:#263238"></polygon><g id="freepik--Picture--inject-11"><g id="freepik--Frame--inject-11"><polygon points="262.77 150.7 263.72 151.16 281.38 140.97 280.42 140.51 262.77 150.7" style="fill:#263238"></polygon><polygon points="280.42 140.51 263.63 150.21 261.19 125.09 277.98 115.4 280.42 140.51" style="fill:#455a64"></polygon><path d="M280.29,112.18l-20.9,12.07,2.88,29.62,20.9-12.06ZM281.38,141l-17.66,10.19-2.53-26.07,17.65-10.2Z" style="fill:#37474f"></path><polygon points="281.38 140.97 280.42 140.51 277.98 115.4 278.84 114.89 281.38 140.97" style="fill:#263238"></polygon><polygon points="280.29 112.18 279.32 111.73 258.43 123.8 259.39 124.25 280.29 112.18" style="fill:#455a64"></polygon><polygon points="258.43 123.8 259.39 124.25 262.27 153.88 261.31 153.43 258.43 123.8" style="fill:#263238"></polygon></g><g id="freepik--Land--inject-11"><polygon points="279.69 140.03 264.2 148.97 263.79 144.74 266.67 132.31 269.42 136.55 268.85 140.13 273.43 126.94 279.27 135.8 279.69 140.03" style="fill:#37474f"></polygon><path d="M266.43,127.08a2.17,2.17,0,0,0-1,1.91c.07.69.63.95,1.27.59a2.18,2.18,0,0,0,1-1.91C267.63,127,267.07,126.71,266.43,127.08Z" style="fill:#37474f"></path></g></g></g></g><g id="freepik--Shoes--inject-11"><g id="freepik--Slippers--inject-11"><g id="freepik--shadow--inject-11"><path d="M222.12,398.38c4.85,2.5,3.79,6,0,9.38s-7.62,5.12-10.35,8.34-8.7,9.21-17.66,9.21-16.4-5.21-12.48-9.9,8.06-4.57,14.62-7.52,10.42-6.42,14.68-8.74C214.52,397.19,218,396.24,222.12,398.38Z" style="opacity:0.2"></path><path d="M193.94,382.73c4.85,2.5,3.79,6,0,9.38s-7.62,5.12-10.35,8.33-8.71,9.21-17.67,9.21-16.39-5.21-12.48-9.9,8.06-4.56,14.63-7.51,10.41-6.42,14.68-8.75C186.34,381.53,189.77,380.59,193.94,382.73Z" style="opacity:0.2"></path></g><path d="M153.82,397.52a11.09,11.09,0,0,0,0,3.55c.74,2.29,4.4,5.4,10.1,5.93,5.23.49,9.91-.64,13.44-3.23s8.66-7.53,11.45-9.74c3.32-2.65,6-5,6.7-6.08s.25-3.63.25-3.63Z"></path><path d="M176.68,401.92c3.41-2.88,12.75-10.4,15.94-13.2s4.75-5.12.72-7.35a13.61,13.61,0,0,0-14.12.75c-4.39,3.08-21.59,14.67-21.59,14.67Z" style="fill:#37474f"></path><path d="M162.53,389.35c5.17.08,8.2,1.91,11.54,5.28a8.78,8.78,0,0,1,2.61,7.29,17.75,17.75,0,0,1-14.1,2.75c-7.73-1.65-8.83-6.57-8.83-6.57S151.89,392.7,162.53,389.35Z" style="fill:#455a64"></path><path d="M182.12,412.8a11.26,11.26,0,0,0,.08,3.55c.79,2.27,4.52,5.3,10.23,5.7,5.25.37,9.89-.87,13.36-3.54s8.49-7.72,11.22-10c3.26-2.72,5.9-5.11,6.57-6.24s.16-3.63.16-3.63Z"></path><path d="M205.07,416.67c3.35-2.95,12.51-10.69,15.64-13.56s4.63-5.23.55-7.36a13.63,13.63,0,0,0-14.11,1.07C202.84,400,185.91,412,185.91,412Z" style="fill:#37474f"></path><path d="M190.64,404.43c5.17,0,8.24,1.73,11.65,5a8.76,8.76,0,0,1,2.78,7.22,17.73,17.73,0,0,1-14,3.08c-7.77-1.47-9-6.37-9-6.37S180.56,407.12,190.64,404.43Z" style="fill:#455a64"></path></g></g><g id="freepik--Character--inject-11"><g id="freepik--Bed--inject-11"><path d="M95.9,311l-17.12-9.88a6.86,6.86,0,0,1-3.11-5.39V195.14a6.86,6.86,0,0,1,3.11-5.38l139.64-80.63a6.88,6.88,0,0,1,6.22,0L241.76,119a6.86,6.86,0,0,1,3.11,5.38V225a6.86,6.86,0,0,1-3.11,5.38L102.12,311A6.88,6.88,0,0,1,95.9,311Z" style="fill:#455a64"></path><path d="M244.87,124.4V225a6.86,6.86,0,0,1-3.11,5.38L102.12,311c-1.72,1-3.11.19-3.11-1.79V208.62a6.86,6.86,0,0,1,3.11-5.39l139.64-80.62C243.48,121.62,244.87,122.42,244.87,124.4Z" style="fill:#263238"></path><path d="M101.4,311.35a6.94,6.94,0,0,1-5.5-.33l-17.12-9.88a6.89,6.89,0,0,1-3.11-5.39V195.14a6.39,6.39,0,0,1,.91-3.06l23.34,13.47a6.39,6.39,0,0,0-.91,3.06V309.23C99,310.92,100,311.75,101.4,311.35Z" style="fill:#37474f"></path><path d="M339.76,404.57l-14.39-8.31a3.41,3.41,0,0,0-3.11,0l-14.4,8.31a3.16,3.16,0,0,0-1.1,1.16h0c-.05.09-.08.2-.13.29a3.06,3.06,0,0,0-.33,1.24v23.36h0a3.43,3.43,0,0,0,1.44,2.6s.07.07.11.09l14.39,8.31h0l.19.07a2.89,2.89,0,0,0,.54.21,3.84,3.84,0,0,0,.83.09,3.14,3.14,0,0,0,1.55-.37l14.4-8.31a3.42,3.42,0,0,0,1.55-2.69V407.26A3.42,3.42,0,0,0,339.76,404.57Z" style="fill:#455a64"></path><path d="M325.36,441.62l14.4-8.31a3.42,3.42,0,0,0,1.55-2.69V407.26c0-1-.69-1.39-1.55-.9l-14.39,8.31a3.44,3.44,0,0,0-1.56,2.69v23.36C323.81,441.72,324.51,442.12,325.36,441.62Z" style="fill:#37474f"></path><path d="M462.28,333.83l-14.39-8.31a3.41,3.41,0,0,0-3.11,0l-14.4,8.31a3.16,3.16,0,0,0-1.1,1.16h0c0,.09-.08.2-.13.29a3,3,0,0,0-.32,1.24v23.36h0a3.46,3.46,0,0,0,1.44,2.6.87.87,0,0,0,.11.09l14.4,8.31h0a1,1,0,0,0,.18.07,3.55,3.55,0,0,0,.54.21,3.84,3.84,0,0,0,.83.09,3.18,3.18,0,0,0,1.56-.37l14.39-8.31a3.42,3.42,0,0,0,1.55-2.69V336.52A3.43,3.43,0,0,0,462.28,333.83Z" style="fill:#455a64"></path><path d="M447.89,370.88l14.39-8.31a3.42,3.42,0,0,0,1.55-2.69V336.52c0-1-.7-1.39-1.56-.9l-14.39,8.31a3.44,3.44,0,0,0-1.56,2.7V370C446.33,371,447,371.38,447.89,370.88Z" style="fill:#37474f"></path><path d="M238.65,198.46l-133.42,77A13.72,13.72,0,0,0,99,286.26v5.9a13.75,13.75,0,0,0,6.22,10.78L317.59,425.45a13.71,13.71,0,0,0,12.44,0l133.42-77a13.72,13.72,0,0,0,6.22-10.77v-5.9A13.75,13.75,0,0,0,463.45,321L251.09,198.46A13.71,13.71,0,0,0,238.65,198.46Z" style="fill:#455a64"></path><path d="M469.67,331.75v5.9a13.78,13.78,0,0,1-6.22,10.78L330,425.46a12.71,12.71,0,0,1-6.22,1.48V406.67a12.71,12.71,0,0,0,6.22-1.48l133.42-77c3.2-1.86,3.42-4.78.63-6.78A13.92,13.92,0,0,1,469.67,331.75Z" style="fill:#263238"></path><path d="M105.23,282.67c-3.27-1.88-3.42-4.87-.47-6.86A13.84,13.84,0,0,0,99,286.26v5.9a13.75,13.75,0,0,0,6.22,10.78L317.59,425.45a12.63,12.63,0,0,0,6.22,1.49V406.67a12.77,12.77,0,0,1-6.22-1.48Z" style="fill:#37474f"></path><path d="M238.65,164.83l-133.42,77A13.72,13.72,0,0,0,99,252.63v12.58A13.75,13.75,0,0,0,105.23,276L317.59,398.51a13.77,13.77,0,0,0,12.44,0l133.42-77a13.72,13.72,0,0,0,6.22-10.77V298.12a13.75,13.75,0,0,0-6.22-10.78L251.09,164.83A13.71,13.71,0,0,0,238.65,164.83Z" style="fill:#BA68C8"></path><path d="M105.23,249,317.59,371.56a13.77,13.77,0,0,0,12.44,0l133.42-77c3.44-2,3.44-5.2,0-7.19L251.09,164.83a13.71,13.71,0,0,0-12.44,0l-133.42,77C101.79,243.84,101.79,247.06,105.23,249Z" style="fill:#fff;opacity:0.8"></path><path d="M128.18,235.34l29,16.85c3.44,2,6.9,1.5,11.82,0s21.21-8,21.21-8S192.87,254.71,204,269c4.24,5.44,12.28,15.66,25.78,23l79.24-46.53-64.18-37.06,5.83-3.3c4.34-2.63,3.44-4.88,0-6.87l-35.33-20.33L128.16,228.6C124.73,230.59,124.74,233.36,128.18,235.34Z" style="opacity:0.05"></path><path d="M469.67,298.12v12.59a13.76,13.76,0,0,1-6.22,10.77L330,398.51a12.71,12.71,0,0,1-6.22,1.48V373a12.71,12.71,0,0,0,6.22-1.48l133.42-77c3.2-1.86,3.42-4.78.63-6.78A13.92,13.92,0,0,1,469.67,298.12Z" style="fill:#fff;opacity:0.5"></path><path d="M105.23,249c-3.27-1.88-3.42-4.87-.47-6.86A13.84,13.84,0,0,0,99,252.63v12.58A13.75,13.75,0,0,0,105.23,276L317.59,398.51a12.74,12.74,0,0,0,6.22,1.48V373a12.77,12.77,0,0,1-6.22-1.48Z" style="fill:#fff;opacity:0.6000000000000001"></path><path d="M251.37,194.2c.49-4-3.84-11-9.67-15.57L218.23,160.2c-3.26-2.56-6.3-3.83-8.43-3.76l0,0c-5.5-.26-29,11.06-40.72,17.81s-37.42,23.14-42,30.38C125.56,207,163.64,245,169,244c11.93-2.27,34.27-12.87,45.93-20,19.06-11.63,30.26-21.52,34.3-25.78C251.15,196.17,251.27,195.05,251.37,194.2Z" style="fill:#fafafa"></path><path d="M188.51,185.32c-8.44,4.84-9,10.87-4.86,18,2.76,4.75,7,11.32,14.12,14.43,4.27,1.87,6.25,3.72,9.34,7.51.06.07.1.15.15.22,4.18-2.1,8.27-4.31,12-6.41Z" style="fill:#e0e0e0"></path><path d="M136,222l23.47,18.43c5.84,4.58,11,5,11.46,1s-3.84-11-9.67-15.57l-23.47-18.43c-5.83-4.58-11-5-11.46-1S130.15,217.39,136,222Z" style="fill:#e0e0e0"></path><g id="freepik--Chest--inject-11"><path d="M276.34,223.84c-2.76-1.62-5.95-3.09-18-9-9.53-4.64-13.2-6.65-17.57-7.65-5.29-1.22-11.06.64-17.31,2.41l36.27,23.76Z" style="fill:#c8856a"></path><path d="M222.8,209.8c10.38-3.43,15.43-5,24.3-.8,11.54,5.44,24.32,12.25,24.32,12.25-4.48.19-11.07,8.22-10.63,14.92Z" style="fill:#37474f"></path><path d="M204.5,217.45a123,123,0,0,0-11.5,8.76c-3,2.87.14,3.78,1,7.79,5,23.81,46.77,45,46.77,45l41.4-32.49a343.41,343.41,0,0,1-35.63-26.66c-10-8.46-14.42-13.32-27.23-9.05C208.77,214.29,204.5,217.45,204.5,217.45Z" style="fill:#455a64"></path><path d="M214.74,174.63a13.94,13.94,0,1,0-24.08,14c.12.21.27.41.4.62l-2.59,8.07-6.35-8.94a3.06,3.06,0,0,0-3.1-2.7,2.84,2.84,0,0,0-2.72,3.08l4-.14a5.05,5.05,0,0,0-1.62,2.62c-.64,2.58,3.25,7.2,8.19,11.07,0,0,7.29,8,9,9.08a4.79,4.79,0,0,0,3.53.53l-1.73-17.34a13.93,13.93,0,0,0,17.11-20Z" style="fill:#263238"></path><path d="M191.9,200c-.48.87-2.36.06-3.82-.36s-5.19,0-4.85,4,5.61,6.62,8.37,6c4.77-1.08,3.86-4,3.86-4l9,14.8h0c8.74,3.5,23.14-5.43,13.45-8.76l-2.59-4.41a24,24,0,0,0,4.76-2.6c2.7-2.19,3.2-5.61,2.23-9.34-1.56-6-3.44-10.46-10.56-19.87C204,165.09,191,172.5,186.58,181S191.9,200,191.9,200Z" style="fill:#c8856a"></path><path d="M205.79,191.47c.22.71-.21,3.24-1.75,3.9A2.32,2.32,0,0,0,205.79,191.47Z" style="fill:#af6152"></path><path d="M211.23,188.52c.56.48,3.06,1.08,4.27-.07A2.32,2.32,0,0,1,211.23,188.52Z" style="fill:#af6152"></path><path d="M212.77,199.47a2.26,2.26,0,0,0-2.24-.6,2.84,2.84,0,0,0-1.8,1.11.26.26,0,0,0-.07.15c0,.42.9-.12,1-.18a4.55,4.55,0,0,1,1.08-.35,3.5,3.5,0,0,1,1-.06,2.44,2.44,0,0,1,.46.07,1.52,1.52,0,0,0,.47.1C212.83,199.71,212.8,199.52,212.77,199.47Z" style="fill:#af6152"></path><path d="M205.15,192.59a2,2,0,1,1-1.55-2.34A2,2,0,0,1,205.15,192.59Z" style="fill:#af6152"></path><path d="M214.63,185.92a2,2,0,1,1-2.52-1.24A2,2,0,0,1,214.63,185.92Z" style="fill:#af6152"></path><path d="M214.63,185.92a2,2,0,1,1-2.52-1.24A2,2,0,0,1,214.63,185.92Z" style="fill:#af6152"></path><path d="M212.85,187.07a1.53,1.53,0,0,1-1.94-.95c-.28-.79.37-1.13,1.17-1.41s1.43-.38,1.71.42A1.54,1.54,0,0,1,212.85,187.07Z" style="fill:#263238"></path><path d="M203.49,192.6a1.51,1.51,0,0,1-2.15-.08c-.57-.62-.12-1.19.5-1.76s1.16-.93,1.74-.31A1.52,1.52,0,0,1,203.49,192.6Z" style="fill:#263238"></path><path d="M192.62,201.23c-.36.22-3.13-1.3-4.54-1.6-1.94-.41-6.41-11.85-6.41-11.85a5.73,5.73,0,0,1-1.86-6c.72-3.39,4.57-6.06,7.25-7.84,1.91-1.28,3.82-2.57,5.6-4s3.41-3.07,5-4.68a7.11,7.11,0,0,0,2.17-3.11.5.5,0,0,1,.14-.28.42.42,0,0,1,.33-.06,3,3,0,0,1,1.82,1.15,9.47,9.47,0,0,1,1.5,3.29,9.15,9.15,0,0,0,.94-1.52,8.06,8.06,0,0,0,.41-1.84.42.42,0,0,1,.08-.22.32.32,0,0,1,.24-.11,1,1,0,0,1,.7.41,8.76,8.76,0,0,1,2.17,4.35,9.55,9.55,0,0,1-.36,4.86c-.86,2.38-3,4.06-5,5.55-4.38,3.33-12.13,6.92-13.21,7.37-1.48.61-1,2.11.38,6.16C191.25,194.77,193.86,200.48,192.62,201.23Z" style="fill:#263238"></path><path d="M215.35,207.22s-8.21,2.8-11.24,2.92a8.75,8.75,0,0,1-5-1.3,12,12,0,0,0,4,2.67c2.95,1.18,13.31-2.53,13.31-2.53Z" style="fill:#af6152"></path><path d="M197.56,189.51l1.87-3.24a2,2,0,0,1,.69,2.63A1.82,1.82,0,0,1,197.56,189.51Z" style="fill:#263238"></path><path d="M208.43,180.23l3.76.35a1.81,1.81,0,0,1-2,1.72A2,2,0,0,1,208.43,180.23Z" style="fill:#263238"></path><polygon points="206.1 187.5 210.81 195.64 214.32 192.03 206.1 187.5" style="fill:#af6152"></polygon><path d="M253.58,278.52a67.25,67.25,0,0,1-9.84-7c-2.45-2.22-4.76-5.2-3.74-8.35l-13.79,8c2.42,5.11,8.18,8.15,13.09,11q4,2.26,8,4.4l3.12,1.62c15.22,7.78,31.09,14.29,46.93,20.78,1.92.79,4,1.6,6,1.12Z" style="opacity:0.1"></path></g><path d="M185.34,295.3v47.15l138.47,79.86V373a12.69,12.69,0,0,1-6.22-1.48Z" style="fill:#BA68C8"></path><path d="M185.34,295.3v47.15l138.47,79.86V373a12.69,12.69,0,0,1-6.22-1.48Z" style="opacity:0.30000000000000004"></path><path d="M463.45,294.53c3.2-1.86,3.42-4.78.63-6.78a13.92,13.92,0,0,1,5.59,10.37v40L323.81,422.31V373a12.75,12.75,0,0,0,6.22-1.48Z" style="fill:#BA68C8"></path><path d="M463.45,294.53c3.2-1.86,3.42-4.78.63-6.78a13.92,13.92,0,0,1,5.59,10.37v40L323.81,422.31V373a12.75,12.75,0,0,0,6.22-1.48Z" style="opacity:0.45"></path><path d="M463.45,287.34,331.2,211.08l-54,31.08c-18-2.63-41.91,13.91-49.67,28.77l-42.2,24.37,132.25,76.26a13.77,13.77,0,0,0,12.44,0l133.42-77C466.89,292.54,466.89,289.33,463.45,287.34Z" style="fill:#BA68C8"></path><path d="M463.45,287.34,331.2,211.08l-54,31.08c-18-2.63-41.91,13.91-49.67,28.77l-42.2,24.37,132.25,76.26a13.77,13.77,0,0,0,12.44,0l133.42-77C466.89,292.54,466.89,289.33,463.45,287.34Z" style="opacity:0.2"></path><path d="M463.45,287.34,331.2,211.08l-54,31.08a288.71,288.71,0,0,0,27,14.86c6.66,3.85,25.15,13.48,43.23,23.73,5.84,3.31,22,6.38,29,5.61a89.79,89.79,0,0,0,18.1-4.1,8.74,8.74,0,0,1,3.43-.49c5.06.52,4.54,5.57,3.7,9.15a38.39,38.39,0,0,1-5.42,13.35,29.92,29.92,0,0,0-2.6,6c-.64,3.79,1.23,6.68,4.85,8.28s17.86,3.16,24.77-.83l40.21-23.21C466.87,292.55,466.87,289.32,463.45,287.34Z" style="opacity:0.1"></path><path d="M343.6,333q-4.28-2.6-8.44-5.39c-1.09-.73-6-3.92-7.22-5,3.61,1.59,7.17,3.24,10.74,4.93,3.9,1.84,7.84,3.6,11.86,5.18,5.4,2.12,13,6.07,17.62.38,2.77-3.38,3.42-8.28,4.34-12.56.38-1.77,2.59-5.44,4.06-9.56,2.16-6.05,2.93-12.51-4.31-10.77-1.12.27-3,1.15-4.15,1.49-5.1,1.57-9.74,4.76-15.05,5.29-7,.69-14.09-3.11-19.18-7.48-5.85-5-19.78-13.51-26.45-17.35-.56-.32-.52-.09-1-.54,3,1.13,12.86,6.56,15.6,8.17,2.09,1.23,4.1,2.58,6.2,3.8a121.78,121.78,0,0,0,12.13,6.37,27,27,0,0,0,13.21,2.61c5.33-.47,10.2-3.06,15.17-5a12.52,12.52,0,0,1,6.1-1.2c3.32.43,6.1,4.59,5.92,7.81,0,.1,0,.2,0,.3-.63,5.43-1.55,10.82-2.06,16.28a8.49,8.49,0,0,0,.51,4.8,6.74,6.74,0,0,0,4.61,2.95c1.84.42,3.75.48,5.54,1.06a1.19,1.19,0,0,1,.62.37c.28.4,0,.94-.29,1.32a16.64,16.64,0,0,1-6.47,4.78c-2.47,1.12-5.07,1.92-7.56,3a31.69,31.69,0,0,1-6,2.27,21.75,21.75,0,0,1-4,.29c-2.33,0-6.89,0-13.92-3.83C349,336.19,346.26,334.6,343.6,333Z" style="opacity:0.1"></path><polygon points="208.68 308.77 208.68 356.02 211.6 357.61 211.59 310.45 208.68 308.77" style="opacity:0.2"></polygon><path d="M208.68,308.77l38.67-22.33c9.37-11.36,34.51-33.32,53.84-31.17l53.37-30.72,3,1.77L304.19,257c-19.36,1-37.17,13.13-53.74,31.05l-38.86,22.38Z" style="opacity:0.1"></path><g id="freepik--Arm--inject-11"><path d="M236.12,289.73c-3.59-1.21-18.8-6.14-25.39-9.59-5.91-3.11-6.58-4.17-8.64-8.05-2.63-5-6.88-13.1-12-24.22-4.75-10.32-.46-15.9,2.45-19.28L204.3,236l14.82,28.73s14.66,9,19.65,11.81a22.5,22.5,0,0,0,7.55,2.53,61.51,61.51,0,0,1,10.3,1.42,31.79,31.79,0,0,0,7.05.86c2-.12,3.08-.51,2.62.93-.6,1.84-2.32,2.8-5.66,3.21,2.32,1.63,5.08,3.3,7.33,5.09s4.83,3.65,5.14,4.69a2.33,2.33,0,0,1-.48,2,5.35,5.35,0,0,1,1.84,1.38,1.78,1.78,0,0,1-1.89,2.55,2.15,2.15,0,0,1-1.79,1.3,10.47,10.47,0,0,1-3.42-.9s.12,1.48-1.89,1.1a34.29,34.29,0,0,1-6.11-2.06,25.47,25.47,0,0,0-4.18-1.43,12.58,12.58,0,0,1-4.56-1.29,54.45,54.45,0,0,1-7.39-4.35A37.39,37.39,0,0,0,236.12,289.73Z" style="fill:#c8856a"></path><path d="M253.58,281.74c1.23.52,2.46,1,3.66,1.59a19.9,19.9,0,0,1,1.76.95,11.73,11.73,0,0,1,1.63,1.16c-1.19-.6-2.38-1.16-3.57-1.73-.6-.3-1.2-.59-1.78-.91A12,12,0,0,1,253.58,281.74Z" style="fill:#af6152"></path><path d="M272.62,297.19a34.53,34.53,0,0,1-3.22-1.91c-1.06-.66-2.17-1.22-3.28-1.82s-2.17-1.25-3.22-1.94a15.13,15.13,0,0,1-2.94-2.34,10.72,10.72,0,0,0,1.51,1.09c.53.34,1.06.66,1.6,1,1.08.63,2.16,1.25,3.26,1.85s2.2,1.18,3.24,1.91S271.57,296.52,272.62,297.19Z" style="fill:#af6152"></path><path d="M272.57,301.12c0-.16-.09-.29-.2-.4a2.88,2.88,0,0,0-.38-.28,7.31,7.31,0,0,0-.83-.45c-.56-.3-1.15-.54-1.72-.85-1.12-.62-2.17-1.36-3.23-2.07a25.19,25.19,0,0,0-3.27-1.91,29.42,29.42,0,0,1-3.29-2c1.12.61,2.29,1.12,3.44,1.67a22.53,22.53,0,0,1,3.36,1.86c1,.74,2.08,1.46,3.15,2.13.53.34,1.11.61,1.66.95.27.17.54.34.8.54a2.18,2.18,0,0,1,.35.33A.5.5,0,0,1,272.57,301.12Z" style="fill:#af6152"></path><path d="M267.36,301.52a2.94,2.94,0,0,0-1.39-1.06c-.53-.27-1.08-.51-1.63-.76-1.09-.53-2.17-1-3.26-1.51s-2.16-1-3.23-1.58a5.44,5.44,0,0,0-3.45-.42,5.41,5.41,0,0,1,1.79-.28,5.29,5.29,0,0,1,1.79.4c1.1.49,2.19,1,3.28,1.5s2.19,1,3.22,1.61c.53.28,1.07.55,1.59.86A2.82,2.82,0,0,1,267.36,301.52Z" style="fill:#af6152"></path><path d="M193,226.21c-7.05,4.45-8.2,11-4.72,19.27,2.81,6.68,11.44,23.51,11.44,23.51,2.07-4.9,12-10.73,17.22-9.22l-9.46-20S201.66,225.16,193,226.21Z" style="fill:#37474f"></path></g><g id="freepik--arm--inject-11"><path d="M289.93,231.85a113.19,113.19,0,0,0,9.92,5.52c2.89,1.41,6,1.69,9.34,3.33,2.24,1.09,4.35,3.05,7.18,5,3.33,2.29,4.31,2.83,3.54,3.9,0,0,1,.59,1.37.87,1.85,1.29,1.79,2.24.54,3,0,0,2.24,1.44,1.69,2.4-.87,1.51-2.77.85-3.7.31,0,0,1.19.93.43,1.74s-2.33,1-4.64-.25-6.79-3.6-9.78-5.41-2.34-.56-1.41.18a15.07,15.07,0,0,1,2.92,3.29,3.32,3.32,0,0,1,.26,3.45c-.55.87-1.72-.34-3-1.55s-3.45-2.17-4.84-3.17-2.25-1.2-4.91-5.36c-2.33-3.65-4.69-4.06-9.88-6.15-3.59-1.43-11.56-4.44-17.58-6.69-1.75-1.28-3.6-2.68-5.56-4.17l13.71-8.73S285.57,229.23,289.93,231.85Z" style="fill:#c8856a"></path><path d="M319.81,256.18c-2.18-1.29-4.28-2.69-6.42-4l-3.19-2c-1.08-.64-2.05-1.55-3.36-1.6a4,4,0,0,1,1.83.47l1.61,1,3.25,2,3.15,2.09C317.73,254.74,318.77,255.45,319.81,256.18Z" style="fill:#af6152"></path><path d="M321.82,253.47c-2.06-1.15-4.06-2.39-6.07-3.62-1-.63-2-1.25-2.95-1.94-.48-.35-1-.69-1.42-1.06a3.18,3.18,0,0,1-.63-.64,2.62,2.62,0,0,1-.29-.84,2.48,2.48,0,0,0,.34.8,3.29,3.29,0,0,0,.65.58c.47.35,1,.67,1.45,1,1,.66,2,1.28,3,1.89C317.88,250.9,319.88,252.14,321.82,253.47Z" style="fill:#af6152"></path><path d="M319.91,249.58c-1.43-.7-2.8-1.49-4.17-2.29-.67-.41-1.35-.82-2-1.26-.32-.24-.65-.45-1-.72a3.37,3.37,0,0,1-.59-1,3.23,3.23,0,0,0,.68.95,9.73,9.73,0,0,0,1,.64l2,1.22C317.22,247.9,318.59,248.7,319.91,249.58Z" style="fill:#af6152"></path></g></g></g><g id="freepik--nightstand-1--inject-11"><g id="freepik--nightstand--inject-11"><g id="freepik--nightstand--inject-11"><polygon points="22.37 270.78 69.58 298.1 69.58 359.56 22.37 332.24 22.37 270.78" style="fill:#263238"></polygon><path d="M69.58,359.56q-11.89-6.68-23.74-13.43L22.19,332.55l-.18-.1v-.21l.07-30.73.1-15.36.19-15.37.18,15.37.11,15.36.06,30.73-.17-.3,23.56,13.73Q57.89,352.55,69.58,359.56Z"></path><polygon points="69.58 298.1 122.88 267.32 122.88 328.79 69.58 359.56 69.58 298.1" style="fill:#37474f"></polygon><polygon points="122.88 267.32 75.67 240 22.37 270.78 69.58 298.1 122.88 267.32" style="fill:#455a64"></polygon><polygon points="73.68 300.46 118.79 274.42 118.79 288.6 73.68 314.65 73.68 300.46" style="fill:#455a64"></polygon><polygon points="73.68 319.38 118.79 293.33 118.79 326.42 73.68 352.47 73.68 319.38" style="opacity:0.2"></polygon><path d="M87.66,295.38c0,.65,2,.05,4.36-1.34l7.65-4.42c2.41-1.39,4.36-3.05,4.37-3.7v-1.18l-16.38,9.45Z" style="fill:#37474f"></path><polygon points="118.79 326.42 90.32 309.76 73.68 319.38 73.68 352.47 118.79 326.42" style="opacity:0.2"></polygon></g><g id="freepik--Clock--inject-11"><path id="freepik--shadow--inject-11" d="M77.74,284.56l-10.06-5.8a.57.57,0,0,1,0-1.07l24.22-14a2.08,2.08,0,0,1,1.85,0l10,5.8a.57.57,0,0,1,0,1.07l-24.22,14A2.05,2.05,0,0,1,77.74,284.56Z" style="fill:#263238"></path><g id="freepik--clock--inject-11"><path d="M92.41,255.44a.81.81,0,0,0-.83.06l-20.5,11.84a3,3,0,0,0-1.27,2.42v7.31a1.12,1.12,0,0,0,.45,1l8.79,5.08a.84.84,0,0,0,.83-.07l20.5-11.84a3,3,0,0,0,1.26-2.42v-7.31a1.14,1.14,0,0,0-.44-1Z" style="fill:#BA68C8"></path><path d="M92.41,255.44a.81.81,0,0,0-.83.06l-20.5,11.84a3,3,0,0,0-1.27,2.42v7.31a1.12,1.12,0,0,0,.45,1l8.79,5.08a.84.84,0,0,0,.83-.07l20.5-11.84a3,3,0,0,0,1.26-2.42v-7.31a1.14,1.14,0,0,0-.44-1Z" style="opacity:0.30000000000000004"></path><path d="M101.64,261.54v7.31a3,3,0,0,1-1.26,2.42l-20.5,11.84c-.7.4-1.27,0-1.27-1v-7.32a3,3,0,0,1,1.27-2.41l20.5-11.84C101.08,260.18,101.64,260.61,101.64,261.54Z" style="fill:#BA68C8"></path><path d="M101.64,261.54v7.31a3,3,0,0,1-1.26,2.42l-20.5,11.84c-.7.4-1.27,0-1.27-1v-7.32a3,3,0,0,1,1.27-2.41l20.5-11.84C101.08,260.18,101.64,260.61,101.64,261.54Z" style="opacity:0.15"></path><path d="M96.4,271.64l-15.62,9c-.43.25-.78,0-.78-.6v-4.74a1.88,1.88,0,0,1,.78-1.5l15.62-9c.43-.25.78,0,.78.59v4.74A1.88,1.88,0,0,1,96.4,271.64Z" style="fill:#263238"></path><path d="M80.78,280.33c-.3.18-.54,0-.54-.41v-4.74a1.31,1.31,0,0,1,.54-1l15.62-9c.3-.17.54,0,.54.41v4.74a1.3,1.3,0,0,1-.54,1Z" style="fill:#37474f"></path><path d="M82.27,277.83l-.6.35a.36.36,0,0,1-.43,0,.53.53,0,0,1-.18-.46v-1.61a1.4,1.4,0,0,1,.18-.67,1.08,1.08,0,0,1,.43-.48l.6-.35a.36.36,0,0,1,.43,0,.56.56,0,0,1,.17.46v1.61a1.51,1.51,0,0,1-.17.67A1.08,1.08,0,0,1,82.27,277.83Zm-.6-.05.6-.35a.43.43,0,0,0,.14-.13l-1-1.32v1.57a.3.3,0,0,0,.09.24A.2.2,0,0,0,81.67,277.78Zm.6-2.76-.6.35a.58.58,0,0,0-.15.13l1,1.32v-1.57a.3.3,0,0,0-.09-.24A.18.18,0,0,0,82.27,275Z" style="fill:#BA68C8"></path><path d="M85.28,275.09v.2a1.55,1.55,0,0,1-.17.67,1.13,1.13,0,0,1-.43.48l-.6.35a.36.36,0,0,1-.43,0,.54.54,0,0,1-.18-.47.33.33,0,0,1,0-.16.25.25,0,0,1,.1-.12s.08,0,.11,0a.15.15,0,0,1,0,.12.29.29,0,0,0,.08.23.18.18,0,0,0,.22,0l.6-.35a.63.63,0,0,0,.21-.24.72.72,0,0,0,.09-.34v-.2a.26.26,0,0,0-.09-.23.18.18,0,0,0-.21,0l-.15.09a.09.09,0,0,1-.11,0,.16.16,0,0,1,0-.12.35.35,0,0,1,0-.17.26.26,0,0,1,.11-.12l.15-.09a.63.63,0,0,0,.21-.24.68.68,0,0,0,.09-.33v-.2a.28.28,0,0,0-.09-.24.18.18,0,0,0-.21,0l-.6.35a.47.47,0,0,0-.22.24.8.8,0,0,0-.08.33.37.37,0,0,1,0,.17.22.22,0,0,1-.11.12s-.07,0-.1,0a.13.13,0,0,1,0-.11,1.38,1.38,0,0,1,.18-.67,1.17,1.17,0,0,1,.43-.49l.6-.34a.36.36,0,0,1,.43,0,.55.55,0,0,1,.17.46v.2a1.64,1.64,0,0,1,0,.37,2.17,2.17,0,0,1-.15.35.42.42,0,0,1,.15.19A.85.85,0,0,1,85.28,275.09Z" style="fill:#BA68C8"></path><path d="M85.71,274.55a.36.36,0,0,1,.14-.29c.09-.05.14,0,.15.12a.35.35,0,0,1-.15.29C85.77,274.71,85.71,274.66,85.71,274.55Zm0,1.13a.34.34,0,0,1,.14-.28c.09,0,.14,0,.15.12a.33.33,0,0,1-.15.28C85.77,275.85,85.71,275.8,85.71,275.68Z" style="fill:#BA68C8"></path><path d="M87.59,274.76l-.6.35a.38.38,0,0,1-.43,0,.55.55,0,0,1-.17-.47v-1.6a1.43,1.43,0,0,1,.17-.68,1.2,1.2,0,0,1,.43-.48l.6-.34a.38.38,0,0,1,.43,0,.55.55,0,0,1,.17.47v1.61a1.42,1.42,0,0,1-.17.67A1.2,1.2,0,0,1,87.59,274.76Zm-.6-.05.6-.35a.43.43,0,0,0,.14-.13l-1-1.32v1.57a.26.26,0,0,0,.09.23Q86.85,274.78,87,274.71Zm.6-2.76-.6.35a.44.44,0,0,0-.15.13l1,1.32v-1.57a.28.28,0,0,0-.09-.24A.18.18,0,0,0,87.59,272Z" style="fill:#BA68C8"></path><path d="M90,273.37l-.6.35a.38.38,0,0,1-.43,0,.58.58,0,0,1-.17-.47v-1.61A1.55,1.55,0,0,1,89,271a1.2,1.2,0,0,1,.43-.48l.6-.35a.38.38,0,0,1,.43,0,.56.56,0,0,1,.18.47v1.61a1.43,1.43,0,0,1-.18.67A1.2,1.2,0,0,1,90,273.37Zm-.6-.05L90,273a.64.64,0,0,0,.15-.14l-1.05-1.32v1.58a.26.26,0,0,0,.09.23A.2.2,0,0,0,89.4,273.32Zm.6-2.77-.6.35a.47.47,0,0,0-.14.14l1,1.32v-1.58a.29.29,0,0,0-.08-.23A.21.21,0,0,0,90,270.55Z" style="fill:#BA68C8"></path><path d="M93.57,271.25a.29.29,0,0,1-.1.12.11.11,0,0,1-.11,0s0-.06,0-.12v-.9a.08.08,0,0,0,0-.06.06.06,0,0,0-.06,0l-1,.61-.06.06a.29.29,0,0,0,0,.09v.9a.35.35,0,0,1,0,.17.43.43,0,0,1-.11.12.09.09,0,0,1-.1,0,.14.14,0,0,1,0-.12v-2.21a1.43,1.43,0,0,1,.18-.67,1.26,1.26,0,0,1,.42-.48l.61-.35a.36.36,0,0,1,.42,0,.56.56,0,0,1,.18.47v2.21A.37.37,0,0,1,93.57,271.25ZM93.32,269a.26.26,0,0,0-.09-.23.18.18,0,0,0-.21,0l-.61.35a.63.63,0,0,0-.21.24.75.75,0,0,0-.09.34v.7a.08.08,0,0,0,0,.06h.06l1-.61a.17.17,0,0,0,.06-.06.31.31,0,0,0,0-.08Z" style="fill:#BA68C8"></path><path d="M96,269.85a.26.26,0,0,1-.11.12.09.09,0,0,1-.11,0s0-.06,0-.12v-2.19l-.47,1.16a.4.4,0,0,1-.13.17.09.09,0,0,1-.13,0l-.48-.61v2.19a.38.38,0,0,1,0,.17.23.23,0,0,1-.11.11.08.08,0,0,1-.1,0,.14.14,0,0,1,0-.12v-2.81a.37.37,0,0,1,0-.17.25.25,0,0,1,.1-.12.11.11,0,0,1,.07,0h0l0,0,.63.8.62-1.52a.15.15,0,0,1,0-.07l0-.05a.19.19,0,0,1,.07-.06.11.11,0,0,1,.11,0,.12.12,0,0,1,0,.11v2.82A.32.32,0,0,1,96,269.85Z" style="fill:#BA68C8"></path><g style="opacity:0.30000000000000004"><path d="M82.27,277.83l-.6.35a.36.36,0,0,1-.43,0,.53.53,0,0,1-.18-.46v-1.61a1.4,1.4,0,0,1,.18-.67,1.08,1.08,0,0,1,.43-.48l.6-.35a.36.36,0,0,1,.43,0,.56.56,0,0,1,.17.46v1.61a1.51,1.51,0,0,1-.17.67A1.08,1.08,0,0,1,82.27,277.83Zm-.6-.05.6-.35a.43.43,0,0,0,.14-.13l-1-1.32v1.57a.3.3,0,0,0,.09.24A.2.2,0,0,0,81.67,277.78Zm.6-2.76-.6.35a.58.58,0,0,0-.15.13l1,1.32v-1.57a.3.3,0,0,0-.09-.24A.18.18,0,0,0,82.27,275Z" style="fill:#fff"></path><path d="M85.28,275.09v.2a1.55,1.55,0,0,1-.17.67,1.13,1.13,0,0,1-.43.48l-.6.35a.36.36,0,0,1-.43,0,.54.54,0,0,1-.18-.47.33.33,0,0,1,0-.16.25.25,0,0,1,.1-.12s.08,0,.11,0a.15.15,0,0,1,0,.12.29.29,0,0,0,.08.23.18.18,0,0,0,.22,0l.6-.35a.63.63,0,0,0,.21-.24.72.72,0,0,0,.09-.34v-.2a.26.26,0,0,0-.09-.23.18.18,0,0,0-.21,0l-.15.09a.09.09,0,0,1-.11,0,.16.16,0,0,1,0-.12.35.35,0,0,1,0-.17.26.26,0,0,1,.11-.12l.15-.09a.63.63,0,0,0,.21-.24.68.68,0,0,0,.09-.33v-.2a.28.28,0,0,0-.09-.24.18.18,0,0,0-.21,0l-.6.35a.47.47,0,0,0-.22.24.8.8,0,0,0-.08.33.37.37,0,0,1,0,.17.22.22,0,0,1-.11.12s-.07,0-.1,0a.13.13,0,0,1,0-.11,1.38,1.38,0,0,1,.18-.67,1.17,1.17,0,0,1,.43-.49l.6-.34a.36.36,0,0,1,.43,0,.55.55,0,0,1,.17.46v.2a1.64,1.64,0,0,1,0,.37,2.17,2.17,0,0,1-.15.35.42.42,0,0,1,.15.19A.85.85,0,0,1,85.28,275.09Z" style="fill:#fff"></path><path d="M85.71,274.55a.36.36,0,0,1,.14-.29c.09-.05.14,0,.15.12a.35.35,0,0,1-.15.29C85.77,274.71,85.71,274.66,85.71,274.55Zm0,1.13a.34.34,0,0,1,.14-.28c.09,0,.14,0,.15.12a.33.33,0,0,1-.15.28C85.77,275.85,85.71,275.8,85.71,275.68Z" style="fill:#fff"></path><path d="M87.59,274.76l-.6.35a.38.38,0,0,1-.43,0,.55.55,0,0,1-.17-.47v-1.6a1.43,1.43,0,0,1,.17-.68,1.2,1.2,0,0,1,.43-.48l.6-.34a.38.38,0,0,1,.43,0,.55.55,0,0,1,.17.47v1.61a1.42,1.42,0,0,1-.17.67A1.2,1.2,0,0,1,87.59,274.76Zm-.6-.05.6-.35a.43.43,0,0,0,.14-.13l-1-1.32v1.57a.26.26,0,0,0,.09.23Q86.85,274.78,87,274.71Zm.6-2.76-.6.35a.44.44,0,0,0-.15.13l1,1.32v-1.57a.28.28,0,0,0-.09-.24A.18.18,0,0,0,87.59,272Z" style="fill:#fff"></path><path d="M90,273.37l-.6.35a.38.38,0,0,1-.43,0,.58.58,0,0,1-.17-.47v-1.61A1.55,1.55,0,0,1,89,271a1.2,1.2,0,0,1,.43-.48l.6-.35a.38.38,0,0,1,.43,0,.56.56,0,0,1,.18.47v1.61a1.43,1.43,0,0,1-.18.67A1.2,1.2,0,0,1,90,273.37Zm-.6-.05L90,273a.64.64,0,0,0,.15-.14l-1.05-1.32v1.58a.26.26,0,0,0,.09.23A.2.2,0,0,0,89.4,273.32Zm.6-2.77-.6.35a.47.47,0,0,0-.14.14l1,1.32v-1.58a.29.29,0,0,0-.08-.23A.21.21,0,0,0,90,270.55Z" style="fill:#fff"></path><path d="M93.57,271.25a.29.29,0,0,1-.1.12.11.11,0,0,1-.11,0s0-.06,0-.12v-.9a.08.08,0,0,0,0-.06.06.06,0,0,0-.06,0l-1,.61-.06.06a.29.29,0,0,0,0,.09v.9a.35.35,0,0,1,0,.17.43.43,0,0,1-.11.12.09.09,0,0,1-.1,0,.14.14,0,0,1,0-.12v-2.21a1.43,1.43,0,0,1,.18-.67,1.26,1.26,0,0,1,.42-.48l.61-.35a.36.36,0,0,1,.42,0,.56.56,0,0,1,.18.47v2.21A.37.37,0,0,1,93.57,271.25ZM93.32,269a.26.26,0,0,0-.09-.23.18.18,0,0,0-.21,0l-.61.35a.63.63,0,0,0-.21.24.75.75,0,0,0-.09.34v.7a.08.08,0,0,0,0,.06h.06l1-.61a.17.17,0,0,0,.06-.06.31.31,0,0,0,0-.08Z" style="fill:#fff"></path><path d="M96,269.85a.26.26,0,0,1-.11.12.09.09,0,0,1-.11,0s0-.06,0-.12v-2.19l-.47,1.16a.4.4,0,0,1-.13.17.09.09,0,0,1-.13,0l-.48-.61v2.19a.38.38,0,0,1,0,.17.23.23,0,0,1-.11.11.08.08,0,0,1-.1,0,.14.14,0,0,1,0-.12v-2.81a.37.37,0,0,1,0-.17.25.25,0,0,1,.1-.12.11.11,0,0,1,.07,0h0l0,0,.63.8.62-1.52a.15.15,0,0,1,0-.07l0-.05a.19.19,0,0,1,.07-.06.11.11,0,0,1,.11,0,.12.12,0,0,1,0,.11v2.82A.32.32,0,0,1,96,269.85Z" style="fill:#fff"></path></g><path d="M99.39,265.76a.62.62,0,0,0,.62-.06,1.94,1.94,0,0,0,.86-1.5.63.63,0,0,0-.25-.56l-.6-.34a.6.6,0,0,0-.61.06,2,2,0,0,0-.87,1.5.61.61,0,0,0,.26.56Z" style="fill:#BA68C8"></path><path d="M99.39,265.76a.62.62,0,0,0,.62-.06,1.94,1.94,0,0,0,.86-1.5.63.63,0,0,0-.25-.56l-.6-.34a.6.6,0,0,0-.61.06,2,2,0,0,0-.87,1.5.61.61,0,0,0,.26.56Z" style="fill:#fff;opacity:0.5"></path><path d="M100.87,264.2a.63.63,0,0,0-.25-.56.6.6,0,0,0-.61.07,1.89,1.89,0,0,0-.87,1.49.53.53,0,0,0,.87.5A1.94,1.94,0,0,0,100.87,264.2Z" style="fill:#BA68C8"></path><path d="M100.87,264.2a.63.63,0,0,0-.25-.56.6.6,0,0,0-.61.07,1.89,1.89,0,0,0-.87,1.49.53.53,0,0,0,.87.5A1.94,1.94,0,0,0,100.87,264.2Z" style="fill:#fff;opacity:0.30000000000000004"></path><path d="M80.64,268.57a1,1,0,0,0-.6-.83,3.14,3.14,0,0,0-2.86,0,1,1,0,0,0-.59.83v1.14a1,1,0,0,0,.59.83,3.2,3.2,0,0,0,2.86,0,1,1,0,0,0,.6-.83Z" style="fill:#BA68C8"></path><path d="M77.18,267.74a.88.88,0,0,0,0,1.66,3.2,3.2,0,0,0,2.86,0,.87.87,0,0,0,0-1.66A3.14,3.14,0,0,0,77.18,267.74Z" style="fill:#BA68C8"></path><path d="M77.18,267.74a.88.88,0,0,0,0,1.66,3.2,3.2,0,0,0,2.86,0,.87.87,0,0,0,0-1.66A3.14,3.14,0,0,0,77.18,267.74Z" style="fill:#fff;opacity:0.15"></path><path d="M99.39,270a.62.62,0,0,0,.62-.07,1.91,1.91,0,0,0,.86-1.49.62.62,0,0,0-.25-.56l-.6-.35a.61.61,0,0,0-.61.07,1.92,1.92,0,0,0-.87,1.49.6.6,0,0,0,.26.56Z" style="fill:#BA68C8"></path><path d="M99.39,270a.62.62,0,0,0,.62-.07,1.91,1.91,0,0,0,.86-1.49.62.62,0,0,0-.25-.56l-.6-.35a.61.61,0,0,0-.61.07,1.92,1.92,0,0,0-.87,1.49.6.6,0,0,0,.26.56Z" style="fill:#fff;opacity:0.5"></path><path d="M100.87,268.4a.62.62,0,0,0-.25-.56.6.6,0,0,0-.61.06,1.92,1.92,0,0,0-.87,1.5.64.64,0,0,0,.25.56.62.62,0,0,0,.62-.07A1.91,1.91,0,0,0,100.87,268.4Z" style="fill:#BA68C8"></path><path d="M100.87,268.4a.62.62,0,0,0-.25-.56.6.6,0,0,0-.61.06,1.92,1.92,0,0,0-.87,1.5.64.64,0,0,0,.25.56.62.62,0,0,0,.62-.07A1.91,1.91,0,0,0,100.87,268.4Z" style="fill:#fff;opacity:0.30000000000000004"></path><path d="M79,283.16c-.51-.28-8.55-4.93-8.77-5.06a1.12,1.12,0,0,1-.45-1v-7.31a3.12,3.12,0,0,1,.27-1.19l8.8,5.07a3.07,3.07,0,0,0-.27,1.2v7.31A1.11,1.11,0,0,0,79,283.16Z" style="fill:#BA68C8"></path><path d="M79,283.16c-.51-.28-8.55-4.93-8.77-5.06a1.12,1.12,0,0,1-.45-1v-7.31a3.12,3.12,0,0,1,.27-1.19l8.8,5.07a3.07,3.07,0,0,0-.27,1.2v7.31A1.11,1.11,0,0,0,79,283.16Z" style="opacity:0.5"></path></g></g><g id="freepik--Lamp--inject-11"><path d="M56.39,271.49a3.29,3.29,0,0,0-.08-.83,12.43,12.43,0,0,0-5.05-7.54H40.7a12.41,12.41,0,0,0-5.06,7.53,4,4,0,0,0-.08.84s0,.14,0,.14c.1,1.46,1.11,2.9,3,4a16.27,16.27,0,0,0,14.73,0c1.94-1.12,2.94-2.56,3-4C56.38,271.63,56.39,271.53,56.39,271.49Z" style="fill:#263238"></path><path d="M41,263c-2.77,1.6-2.77,4.19,0,5.78a11,11,0,0,0,10,0c2.77-1.59,2.77-4.18,0-5.78A11.1,11.1,0,0,0,41,263Z" style="fill:#37474f"></path><path d="M47.42,227.71H44.54v37h0a.67.67,0,0,0,.41.66,2.27,2.27,0,0,0,2,0,.66.66,0,0,0,.41-.66h0Z" style="fill:#263238"></path><path d="M66.52,226.47h0l-9.68-24.68H35.1l-9.68,24.68h0c-1.38,3.86.52,8,5.7,11,8.2,4.74,21.49,4.74,29.69,0C66,234.5,67.9,230.33,66.52,226.47Z" style="fill:#BA68C8"></path><path d="M66.52,226.47h0l-9.68-24.68H35.1l-9.68,24.68h0c-1.38,3.86.52,8,5.7,11,8.2,4.74,21.49,4.74,29.69,0C66,234.5,67.9,230.33,66.52,226.47Z" style="fill:#fff;opacity:0.4"></path><path d="M38.1,207.7a17.41,17.41,0,0,0,15.75,0c4.34-2.51,4.34-6.58,0-9.09a17.41,17.41,0,0,0-15.75,0C33.76,201.12,33.76,205.19,38.1,207.7Z" style="fill:#BA68C8"></path><path d="M38.1,207.7a17.41,17.41,0,0,0,15.75,0c4.34-2.51,4.34-6.58,0-9.09a17.41,17.41,0,0,0-15.75,0C33.76,201.12,33.76,205.19,38.1,207.7Z" style="fill:#fff;opacity:0.7000000000000001"></path><path d="M46,208a13.87,13.87,0,0,1-6.82-1.62c-1.6-.92-2.47-2.06-2.47-3.23s.87-2.32,2.47-3.23A13.87,13.87,0,0,1,46,198.31a13.85,13.85,0,0,1,6.81,1.62c1.6.91,2.47,2.06,2.47,3.23s-.87,2.31-2.47,3.23A13.85,13.85,0,0,1,46,208Z" style="fill:#BA68C8"></path></g></g></g><g id="freepik--Sheeps--inject-11"><g id="freepik--Sheep--inject-11"><path d="M116.23,108c2.85-2.09,5.34-3.31,7-3.11a17.73,17.73,0,0,1,7.47,3c1.66,1.27-.12,5.49-1.59,4.28s-4.58-3.68-5.68-3.86c-2.18-.36-5.17,1.79-6,2.1S115.3,108.7,116.23,108Z"></path><path d="M92.87,122.32c2.13,4.16.35,9.12-1.29,11.68-1.42,2.21,1.9,4.81,4,2.46,3.13-3.55,2.52-10.64,0-13.66Z"></path><path d="M95.54,127.53c-2.36,2.12-6.67,1-7.09-1.55-3,.16-5.1-1.89-5.8-5-.6-2.73.23-5.74,2.94-7-1.37-2.38-1.07-5.59,2.31-8.76s7.11-4.24,9-3.33c1.89-3,8.49-4.58,11-.08a7.62,7.62,0,0,1,9.69,2.37,6.88,6.88,0,0,1-.1,8c2.34,2.78.5,8.48-5.16,9,1,2.64-3.55,4.73-5.33,3.61C106.13,128.47,97.32,130.81,95.54,127.53Z" style="fill:#f0f0f0"></path><path d="M87.77,124.39c0,4.67-3.78,8.31-6.39,9.87-2.25,1.34-.45,5.15,2.46,4,4.38-1.78,7-8.38,6.09-12.23C89.36,124.05,87.74,123.49,87.77,124.39Z"></path><path d="M113.39,114.72c3.41-.94,6.17-1.19,7.62-.43,2.26,1.19,4.06,4.31,5.17,6.1s-2.18,5.58-3.12,3.92-2.48-5.93-3.44-6.49c-1.91-1.11-5.1-.46-6-.49S112.28,115,113.39,114.72Z"></path><path d="M105.17,95.46c-1.28,2.47,1.22,7.23,5.11,10.21,3.11,2.38,7.71.75,7.73-4.13,0-4.47-1.55-9.7-4.21-10.17C111.36,90.94,106.13,93.59,105.17,95.46Z"></path><path d="M105,95.87c-.85.87-.42,2.24-1.25,3.81a5.64,5.64,0,0,1-3.67,2.54c-1.53.39-1.23,3.71.87,3.46a6.2,6.2,0,0,0,5.13-4.45,8.92,8.92,0,0,0-.06-4Z"></path><path d="M114.12,91.45c1.21-.06,2,1.16,3.69,1.57a5.61,5.61,0,0,0,4.33-1.1c1.3-.89,3.6,1.52,2,2.94a6.18,6.18,0,0,1-6.72.93,8.89,8.89,0,0,1-3-2.68Z"></path><path d="M103.18,95.67a1.68,1.68,0,0,0,2.18,1.38,2.11,2.11,0,0,0,2.39,1.22,2.57,2.57,0,0,0,2.31-2.22,2.78,2.78,0,0,0,3,0c1.28-.78,1.23-1.65.86-2.2a2.33,2.33,0,0,0,2.49-.72,1.87,1.87,0,0,0-.51-2.41,2.87,2.87,0,0,0-2.38-.31A2.73,2.73,0,0,0,110.44,89c-1.27.23-2.21.81-2.41,1.89a2.16,2.16,0,0,0-2.48.36,1.7,1.7,0,0,0-.62,2.22A1.85,1.85,0,0,0,103.18,95.67Z" style="fill:#f0f0f0"></path></g><g id="freepik--sheep--inject-11"><path d="M184.56,67.21c3.25-1.38,5.95-2,7.49-1.44a17.93,17.93,0,0,1,6.6,4.59c1.33,1.61-1.37,5.31-2.53,3.79s-3.62-4.62-4.65-5c-2-.85-5.44.57-6.36.67S183.5,67.67,184.56,67.21Z"></path><path d="M157.67,77.27c3.38,3.22,3.34,8.49,2.64,11.45-.6,2.55,3.4,3.91,4.58,1,1.77-4.38-1.14-10.87-4.55-12.88Z"></path><path d="M159.41,80.53c-2.83,1.43-6.7-.76-6.44-3.34-3-.64-4.44-3.15-4.29-6.36.12-2.8,1.71-5.48,4.66-6-.7-2.66.42-5.68,4.51-7.86s8-2.25,9.59-.87c2.62-2.44,9.4-2.22,10.66,2.78a7.62,7.62,0,0,1,8.75,4.81,6.87,6.87,0,0,1-2.19,7.75c1.54,3.29-1.72,8.31-7.31,7.3.25,2.81-4.65,3.65-6.08,2.1C169.4,84.19,160.28,84.15,159.41,80.53Z" style="fill:#f0f0f0"></path><path d="M152.73,75.47c-1.18,4.52-5.81,7-8.74,7.87-2.52.71-1.77,4.86,1.35,4.48,4.69-.57,8.95-6.27,9.06-10.22C154.35,75.56,152.93,74.59,152.73,75.47Z"></path><path d="M178.69,71.05c3.12,1.68,5.29,3.4,5.81,4.94.82,2.43,0,5.92-.45,8s-5.43,2.54-5,.69,2.3-6,2-7.07c-.62-2.12-3.38-3.85-4-4.51S177.67,70.51,178.69,71.05Z"></path><path d="M177,52.05c-1.87,2.06-.69,7.31,2.29,11.19,2.38,3.11,7.25,2.73,8.53-2,1.18-4.31,1-9.77-1.42-10.91C184.2,49.3,178.45,50.5,177,52.05Z"></path><path d="M176.77,52.41c-1,.62-1,2.05-2.2,3.36a5.63,5.63,0,0,1-4.2,1.49c-1.58,0-2.15,3.27-.05,3.57a6.2,6.2,0,0,0,6.1-3,8.77,8.77,0,0,0,1-3.9Z"></path><path d="M186.73,50.51c1.18.26,1.6,1.63,3.16,2.48a5.61,5.61,0,0,0,4.46.06c1.49-.53,3.08,2.4,1.2,3.36a6.22,6.22,0,0,1-6.74-.84,8.94,8.94,0,0,1-2.19-3.38Z"></path><path d="M175.07,51.74a1.68,1.68,0,0,0,1.75,1.9,2.1,2.1,0,0,0,2,1.8,2.59,2.59,0,0,0,2.81-1.54,2.76,2.76,0,0,0,2.89.75c1.44-.43,1.63-1.28,1.41-1.9a2.35,2.35,0,0,0,2.59,0,1.85,1.85,0,0,0,.13-2.46,2.84,2.84,0,0,0-2.21-.92,2.76,2.76,0,0,0-2.63-2.11c-1.28-.1-2.34.21-2.81,1.21a2.16,2.16,0,0,0-2.49-.3,1.71,1.71,0,0,0-1.18,2A1.84,1.84,0,0,0,175.07,51.74Z" style="fill:#f0f0f0"></path></g><g id="freepik--sheep--inject-11"><path d="M259.89,80.94c3.53.18,6.23.81,7.36,2a17.73,17.73,0,0,1,3.93,7c.49,2-3.56,4.18-3.93,2.31s-1.24-5.74-2-6.57c-1.47-1.65-5.14-1.87-6-2.18S258.74,80.88,259.89,80.94Z"></path><path d="M232.75,77.3c-1,4.57-5.49,7.29-8.38,8.25-2.49.82-1.56,4.93,1.54,4.42,4.66-.78,8.67-6.66,8.6-10.62Z"></path><path d="M231.52,83c-3.17.15-5.81-3.43-4.51-5.68-2.47-1.8-2.77-4.68-1.34-7.55,1.26-2.51,3.8-4.31,6.73-3.62.45-2.71,2.69-5,7.32-5.34s8.19,1.2,9.11,3.12c3.39-1.16,9.49,1.81,8.6,6.89a7.62,7.62,0,0,1,6,8A6.88,6.88,0,0,1,258.3,85c.06,3.63-5,6.89-9.65,3.68-.91,2.67-5.73,1.44-6.41-.56C239.15,90.44,230.84,86.69,231.52,83Z" style="fill:#f0f0f0"></path><path d="M227.48,75.68c-2.92,3.65-8.17,4.07-11.18,3.63-2.6-.38-3.6,3.72-.6,4.64,4.52,1.39,10.73-2.07,12.44-5.64C228.93,76.42,228,75,227.48,75.68Z"></path><path d="M253.46,84.35c3.24,1.42,5.54,3,6.18,4.47,1,2.36.43,5.9.16,8s-5.21,3-4.89,1.07,1.82-6.17,1.43-7.2c-.78-2.07-3.67-3.58-4.37-4.19S252.41,83.88,253.46,84.35Z"></path><path d="M259.23,64.21c-2.55,1.12-3.61,6.39-2.47,11.16.91,3.8,5.51,5.44,8.6,1.67,2.84-3.46,4.92-8.5,3.15-10.55C266.89,64.62,261.16,63.37,259.23,64.21Z"></path><path d="M258.84,64.43c-1.2.14-1.74,1.47-3.37,2.17a5.65,5.65,0,0,1-4.45-.35c-1.44-.66-3.29,2.11-1.5,3.24a6.19,6.19,0,0,0,6.78-.22,8.81,8.81,0,0,0,2.49-3.16Z"></path><path d="M268.7,66.76c1,.71.8,2.14,1.88,3.55a5.63,5.63,0,0,0,4.05,1.87c1.58.13,1.84,3.45-.28,3.56a6.19,6.19,0,0,1-5.8-3.52,8.85,8.85,0,0,1-.63-4Z"></path><path d="M257.56,63.12a1.68,1.68,0,0,0,.82,2.45A2.1,2.1,0,0,0,259.47,68a2.57,2.57,0,0,0,3.19-.27A2.74,2.74,0,0,0,265,69.63c1.49.2,2-.5,2.06-1.16a2.33,2.33,0,0,0,2.38,1,1.85,1.85,0,0,0,1.12-2.19,2.82,2.82,0,0,0-1.64-1.74,2.75,2.75,0,0,0-1.54-3c-1.13-.62-2.23-.76-3.06,0a2.16,2.16,0,0,0-2.16-1.29,1.7,1.7,0,0,0-1.88,1.33A1.84,1.84,0,0,0,257.56,63.12Z" style="fill:#f0f0f0"></path></g></g></svg>