<svg xmlns="http://www.w3.org/2000/svg" viewBox="0 0 500 500"><g id="freepik--background-complete--inject-359"><rect x="15.3259" y="20.5166" width="468.37539" height="189.8267" style="fill:#f5f5f5;"></rect><g><rect x="98.3206" y="147.2589" width="310.79309" height="14.7863" style="fill:#ebebeb;"></rect><rect x="117.6547" y="147.2589" width="12.717" height="61.704" style="fill:#ebebeb;"></rect><rect x="248.11239" y="151.7436" width="12.7169" height="57.2193" style="fill:#ebebeb;"></rect><rect x="378.57" y="154.6521" width="12.71689" height="54.3108" style="fill:#ebebeb;"></rect><rect x="117.6547" y="162.0452" width="12.717" height="5.0468" style="fill:#e0e0e0;"></rect><rect x="248.11239" y="162.0452" width="12.7169" height="5.0468" style="fill:#e0e0e0;"></rect><rect x="378.57" y="162.0452" width="12.71689" height="5.0468" style="fill:#e0e0e0;"></rect></g><g><g><rect x="101.3124" y="226.5585" width="16.9404" height="17.1448" style="fill:#e6e6e6;"></rect><rect x="15.2349" y="226.7511" width="16.9403" height="17.1447" style="fill:#ebebeb;"></rect><rect x="36.506" y="226.7511" width="16.9403" height="17.1447" style="fill:#ebebeb;"></rect><rect x="57.9675" y="226.5585" width="16.9403" height="17.1448" style="fill:#e6e6e6;"></rect><rect x="79.4497" y="226.7511" width="16.9403" height="17.1447" style="fill:#ebebeb;"></rect><rect x="122.7946" y="226.7511" width="16.9404" height="17.1447" style="fill:#ebebeb;"></rect><rect x="144.6574" y="226.5585" width="16.9403" height="17.1448" style="fill:#e6e6e6;"></rect><rect x="166.8369" y="226.0454" width="16.9403" height="17.1448" style="fill:#ebebeb;"></rect><rect x="188.6997" y="225.8528" width="16.9403" height="17.1448" style="fill:#e6e6e6;"></rect><rect x="210.18189" y="225.7441" width="16.9403" height="17.1448" style="fill:#f5f5f5;"></rect><rect x="231.85439" y="226.0454" width="16.9403" height="17.1448" style="fill:#ebebeb;"></rect><rect x="253.71709" y="225.8528" width="16.9404" height="17.1448" style="fill:#e6e6e6;"></rect><rect x="275.02849" y="226.2182" width="16.9403" height="17.1448" style="fill:#ebebeb;"></rect><rect x="296.701" y="226.2182" width="16.94029" height="17.1448" style="fill:#ebebeb;"></rect><rect x="319.075" y="225.5083" width="16.94029" height="17.1447" style="fill:#e6e6e6;"></rect><rect x="340.74749" y="225.5083" width="16.9403" height="17.1447" style="fill:#ebebeb;"></rect><rect x="362.42" y="225.4454" width="16.94029" height="17.1448" style="fill:#f5f5f5;"></rect><rect x="384.09249" y="225.5083" width="16.9403" height="17.1447" style="fill:#ebebeb;"></rect><rect x="405.765" y="225.5083" width="16.94029" height="17.1447" style="fill:#e6e6e6;"></rect><rect x="427.43749" y="225.5083" width="16.9403" height="17.1447" style="fill:#ebebeb;"></rect><rect x="449.11" y="225.5083" width="16.94029" height="17.1447" style="fill:#e6e6e6;"></rect><rect x="470.78249" y="225.5083" width="16.9403" height="17.1447" style="fill:#e6e6e6;"></rect><rect x="15.2349" y="248.4421" width="16.9403" height="17.1448" style="fill:#ebebeb;"></rect><rect x="36.6963" y="248.2495" width="16.9403" height="17.1448" style="fill:#f5f5f5;"></rect><rect x="57.7772" y="248.4421" width="16.9403" height="17.1448" style="fill:#ebebeb;"></rect><rect x="79.4497" y="248.4421" width="16.9403" height="17.1448" style="fill:#ebebeb;"></rect><rect x="101.3124" y="247.9482" width="16.9404" height="17.1448" style="fill:#f5f5f5;"></rect><rect x="122.7946" y="248.4421" width="16.9404" height="17.1448" style="fill:#ebebeb;"></rect><rect x="145.1644" y="247.4351" width="16.9403" height="17.1448" style="fill:#f5f5f5;"></rect><rect x="167.0272" y="247.5438" width="16.9403" height="17.1448" style="fill:#e6e6e6;"></rect><rect x="188.5094" y="247.7364" width="16.9403" height="17.1448" style="fill:#ebebeb;"></rect><rect x="210.18189" y="247.7364" width="16.9403" height="17.1448" style="fill:#ebebeb;"></rect><rect x="232.04469" y="247.5438" width="16.94031" height="17.1448" style="fill:#e6e6e6;"></rect><rect x="253.52689" y="247.7364" width="16.9403" height="17.1448" style="fill:#ebebeb;"></rect><rect x="275.02849" y="247.9093" width="16.9403" height="17.1447" style="fill:#e6e6e6;"></rect><rect x="297.40249" y="246.898" width="16.9404" height="17.1448" style="fill:#f5f5f5;"></rect><rect x="319.075" y="247.1993" width="16.94029" height="17.1448" style="fill:#ebebeb;"></rect><rect x="340.74749" y="247.1993" width="16.9403" height="17.1448" style="fill:#e6e6e6;"></rect><rect x="362.42" y="247.1993" width="16.94029" height="17.1448" style="fill:#ebebeb;"></rect><rect x="384.09249" y="247.1993" width="16.9403" height="17.1448" style="fill:#e6e6e6;"></rect><rect x="405.765" y="247.1993" width="16.94029" height="17.1448" style="fill:#ebebeb;"></rect><rect x="427.43749" y="247.1993" width="16.9403" height="17.1448" style="fill:#e6e6e6;"></rect><rect x="449.11" y="247.1364" width="16.94029" height="17.1448" style="fill:#f5f5f5;"></rect><rect x="470.78249" y="247.1993" width="16.9403" height="17.1448" style="fill:#ebebeb;"></rect></g><g><rect x="469.55449" y="290.6926" width="16.9403" height="17.1448" transform="translate(956.04928 598.53) rotate(180)" style="fill:#ebebeb;"></rect><rect x="448.28329" y="290.6926" width="16.9403" height="17.1448" transform="translate(913.50688 598.53) rotate(180)" style="fill:#ebebeb;"></rect><rect x="426.82189" y="290.8852" width="16.9403" height="17.1448" transform="translate(870.58408 598.9152) rotate(180)" style="fill:#e6e6e6;"></rect><rect x="405.33969" y="290.6926" width="16.94031" height="17.1448" transform="translate(827.61969 598.53) rotate(180)" style="fill:#ebebeb;"></rect><rect x="383.47689" y="290.8852" width="16.9403" height="17.1448" transform="translate(783.89408 598.9152) rotate(180)" style="fill:#e6e6e6;"></rect><rect x="361.99469" y="290.6926" width="16.94031" height="17.1448" transform="translate(740.92969 598.53) rotate(180)" style="fill:#ebebeb;"></rect><rect x="340.13189" y="290.8852" width="16.9403" height="17.1448" transform="translate(697.20408 598.9152) rotate(180)" style="fill:#e6e6e6;"></rect><rect x="318.64969" y="290.6926" width="16.94031" height="17.1448" transform="translate(654.23969 598.53) rotate(180)" style="fill:#ebebeb;"></rect><rect x="296.787" y="290.8852" width="16.94029" height="17.1448" transform="translate(610.51429 598.9152) rotate(180)" style="fill:#e6e6e6;"></rect><rect x="275.30479" y="290.9939" width="16.9403" height="17.1448" transform="translate(567.54989 599.1326) rotate(180)" style="fill:#f5f5f5;"></rect><rect x="253.63229" y="290.6926" width="16.9403" height="17.1448" transform="translate(524.20489 598.53) rotate(180)" style="fill:#ebebeb;"></rect><rect x="231.76949" y="290.8852" width="16.9403" height="17.1448" transform="translate(480.47929 598.9152) rotate(180)" style="fill:#e6e6e6;"></rect><rect x="210.28729" y="290.6926" width="16.9403" height="17.1448" transform="translate(437.51489 598.53) rotate(180)" style="fill:#ebebeb;"></rect><rect x="188.6148" y="290.6926" width="16.9403" height="17.1448" transform="translate(394.16989 598.53) rotate(180)" style="fill:#ebebeb;"></rect><rect x="166.9423" y="290.6926" width="16.9403" height="17.1448" transform="translate(350.82489 598.53) rotate(180)" style="fill:#e6e6e6;"></rect><rect x="145.2698" y="290.6926" width="16.9403" height="17.1448" transform="translate(307.47989 598.53) rotate(180)" style="fill:#ebebeb;"></rect><rect x="123.5973" y="290.7555" width="16.9403" height="17.1448" transform="translate(264.13489 598.6558) rotate(180)" style="fill:#f5f5f5;"></rect><rect x="101.9248" y="290.6926" width="16.9404" height="17.1448" transform="translate(220.78999 598.53) rotate(180)" style="fill:#ebebeb;"></rect><rect x="80.2524" y="290.6926" width="16.9403" height="17.1448" transform="translate(177.4451 598.53) rotate(180)" style="fill:#e6e6e6;"></rect><rect x="58.5799" y="290.6926" width="16.9403" height="17.1448" transform="translate(134.1001 598.53) rotate(180)" style="fill:#ebebeb;"></rect><rect x="36.9074" y="290.6926" width="16.9403" height="17.1448" transform="translate(90.7551 598.53) rotate(180)" style="fill:#e6e6e6;"></rect><rect x="15.2349" y="290.6926" width="16.9403" height="17.1448" transform="translate(47.4101 598.53) rotate(180)" style="fill:#e6e6e6;"></rect><rect x="469.55449" y="269.0016" width="16.9403" height="17.1448" transform="translate(956.04928 555.148) rotate(180)" style="fill:#ebebeb;"></rect><rect x="448.093" y="269.1942" width="16.94029" height="17.1448" transform="translate(913.12629 555.5332) rotate(180)" style="fill:#f5f5f5;"></rect><rect x="427.01219" y="269.0016" width="16.9403" height="17.1448" transform="translate(870.96468 555.148) rotate(180)" style="fill:#ebebeb;"></rect><rect x="405.33969" y="269.0016" width="16.94031" height="17.1448" transform="translate(827.61969 555.148) rotate(180)" style="fill:#ebebeb;"></rect><rect x="383.47689" y="269.4955" width="16.9403" height="17.1448" transform="translate(783.89408 556.1358) rotate(180)" style="fill:#f5f5f5;"></rect><rect x="361.99469" y="269.0016" width="16.94031" height="17.1448" transform="translate(740.92969 555.148) rotate(180)" style="fill:#ebebeb;"></rect><rect x="340.32219" y="269.3029" width="16.9403" height="17.1448" transform="translate(697.58468 555.7506) rotate(180)" style="fill:#f5f5f5;"></rect><rect x="318.45939" y="269.1942" width="16.9404" height="17.1448" transform="translate(653.85918 555.5332) rotate(180)" style="fill:#e6e6e6;"></rect><rect x="296.97719" y="269.0016" width="16.9404" height="17.1448" transform="translate(610.89478 555.148) rotate(180)" style="fill:#ebebeb;"></rect><rect x="275.30479" y="269.0016" width="16.9403" height="17.1448" transform="translate(567.54989 555.148) rotate(180)" style="fill:#ebebeb;"></rect><rect x="253.442" y="269.1942" width="16.94029" height="17.1448" transform="translate(523.82429 555.5332) rotate(180)" style="fill:#e6e6e6;"></rect><rect x="231.95979" y="269.0016" width="16.9403" height="17.1448" transform="translate(480.85989 555.148) rotate(180)" style="fill:#ebebeb;"></rect><rect x="210.28729" y="269.0016" width="16.9403" height="17.1448" transform="translate(437.51489 555.148) rotate(180)" style="fill:#e6e6e6;"></rect><rect x="188.6148" y="269.3029" width="16.9403" height="17.1448" transform="translate(394.16989 555.7506) rotate(180)" style="fill:#f5f5f5;"></rect><rect x="166.9423" y="269.0016" width="16.9403" height="17.1448" transform="translate(350.82489 555.148) rotate(180)" style="fill:#ebebeb;"></rect><rect x="145.2698" y="269.0016" width="16.9403" height="17.1448" transform="translate(307.47989 555.148) rotate(180)" style="fill:#e6e6e6;"></rect><rect x="123.5973" y="269.0016" width="16.9403" height="17.1448" transform="translate(264.13489 555.148) rotate(180)" style="fill:#ebebeb;"></rect><rect x="101.9248" y="269.0016" width="16.9404" height="17.1448" transform="translate(220.78999 555.148) rotate(180)" style="fill:#e6e6e6;"></rect><rect x="80.2524" y="269.0016" width="16.9403" height="17.1448" transform="translate(177.4451 555.148) rotate(180)" style="fill:#ebebeb;"></rect><rect x="58.5799" y="269.0016" width="16.9403" height="17.1448" transform="translate(134.1001 555.148) rotate(180)" style="fill:#e6e6e6;"></rect><rect x="36.9074" y="269.0645" width="16.9403" height="17.1447" transform="translate(90.7551 555.2737) rotate(180)" style="fill:#f5f5f5;"></rect><rect x="15.2349" y="269.0016" width="16.9403" height="17.1448" transform="translate(47.4101 555.148) rotate(180)" style="fill:#ebebeb;"></rect></g><g><rect x="469.55449" y="376.8007" width="16.9403" height="17.1447" transform="translate(956.04928 770.7461) rotate(180)" style="fill:#ebebeb;"></rect><rect x="448.28329" y="376.8007" width="16.9403" height="17.1447" transform="translate(913.50688 770.7461) rotate(180)" style="fill:#ebebeb;"></rect><rect x="426.82189" y="376.9933" width="16.9403" height="17.1447" transform="translate(870.58408 771.1313) rotate(180)" style="fill:#e6e6e6;"></rect><rect x="405.33969" y="376.8007" width="16.94031" height="17.1447" transform="translate(827.61969 770.7461) rotate(180)" style="fill:#ebebeb;"></rect><rect x="383.47689" y="376.9933" width="16.9403" height="17.1447" transform="translate(783.89408 771.1313) rotate(180)" style="fill:#e6e6e6;"></rect><rect x="361.99469" y="376.8007" width="16.94031" height="17.1447" transform="translate(740.92969 770.7461) rotate(180)" style="fill:#ebebeb;"></rect><rect x="340.13189" y="376.9933" width="16.9403" height="17.1447" transform="translate(697.20408 771.1313) rotate(180)" style="fill:#e6e6e6;"></rect><rect x="318.64969" y="376.8007" width="16.94031" height="17.1447" transform="translate(654.23969 770.7461) rotate(180)" style="fill:#ebebeb;"></rect><rect x="296.787" y="376.9933" width="16.94029" height="17.1447" transform="translate(610.51429 771.1313) rotate(180)" style="fill:#e6e6e6;"></rect><rect x="275.30479" y="377.102" width="16.9403" height="17.1447" transform="translate(567.54989 771.3487) rotate(180)" style="fill:#f5f5f5;"></rect><rect x="253.63229" y="376.8007" width="16.9403" height="17.1447" transform="translate(524.20489 770.7461) rotate(180)" style="fill:#ebebeb;"></rect><rect x="231.76949" y="376.9933" width="16.9403" height="17.1447" transform="translate(480.47929 771.1313) rotate(180)" style="fill:#e6e6e6;"></rect><rect x="210.28729" y="376.8007" width="16.9403" height="17.1447" transform="translate(437.51489 770.7461) rotate(180)" style="fill:#ebebeb;"></rect><rect x="188.6148" y="376.8007" width="16.9403" height="17.1447" transform="translate(394.16989 770.7461) rotate(180)" style="fill:#ebebeb;"></rect><rect x="166.9423" y="376.8007" width="16.9403" height="17.1447" transform="translate(350.82489 770.7461) rotate(180)" style="fill:#e6e6e6;"></rect><rect x="145.2698" y="376.8007" width="16.9403" height="17.1447" transform="translate(307.47989 770.7461) rotate(180)" style="fill:#ebebeb;"></rect><rect x="123.5973" y="376.8635" width="16.9403" height="17.1448" transform="translate(264.13489 770.8718) rotate(180)" style="fill:#f5f5f5;"></rect><rect x="101.9248" y="376.8007" width="16.9404" height="17.1447" transform="translate(220.78999 770.7461) rotate(180)" style="fill:#ebebeb;"></rect><rect x="80.2524" y="376.8007" width="16.9403" height="17.1447" transform="translate(177.4451 770.7461) rotate(180)" style="fill:#e6e6e6;"></rect><rect x="58.5799" y="376.8007" width="16.9403" height="17.1447" transform="translate(134.1001 770.7461) rotate(180)" style="fill:#ebebeb;"></rect><rect x="36.9074" y="376.8007" width="16.9403" height="17.1447" transform="translate(90.7551 770.7461) rotate(180)" style="fill:#e6e6e6;"></rect><rect x="15.2349" y="376.8007" width="16.9403" height="17.1447" transform="translate(47.4101 770.7461) rotate(180)" style="fill:#e6e6e6;"></rect><rect x="469.55449" y="355.1096" width="16.9403" height="17.1448" transform="translate(956.04928 727.364) rotate(180)" style="fill:#ebebeb;"></rect><rect x="448.093" y="355.3022" width="16.94029" height="17.1448" transform="translate(913.12629 727.7492) rotate(180)" style="fill:#f5f5f5;"></rect><rect x="427.01219" y="355.1096" width="16.9403" height="17.1448" transform="translate(870.96468 727.364) rotate(180)" style="fill:#ebebeb;"></rect><rect x="405.33969" y="355.1096" width="16.94031" height="17.1448" transform="translate(827.61969 727.364) rotate(180)" style="fill:#ebebeb;"></rect><rect x="383.47689" y="355.6035" width="16.9403" height="17.1448" transform="translate(783.89408 728.3518) rotate(180)" style="fill:#f5f5f5;"></rect><rect x="361.99469" y="355.1096" width="16.94031" height="17.1448" transform="translate(740.92969 727.364) rotate(180)" style="fill:#ebebeb;"></rect><rect x="340.32219" y="355.4109" width="16.9403" height="17.1448" transform="translate(697.58468 727.9666) rotate(180)" style="fill:#f5f5f5;"></rect><rect x="318.45939" y="355.3022" width="16.9404" height="17.1448" transform="translate(653.85918 727.7492) rotate(180)" style="fill:#e6e6e6;"></rect><rect x="296.97719" y="355.1096" width="16.9404" height="17.1448" transform="translate(610.89478 727.364) rotate(180)" style="fill:#ebebeb;"></rect><rect x="275.30479" y="355.1096" width="16.9403" height="17.1448" transform="translate(567.54989 727.364) rotate(180)" style="fill:#ebebeb;"></rect><rect x="253.442" y="355.3022" width="16.94029" height="17.1448" transform="translate(523.82429 727.7492) rotate(180)" style="fill:#e6e6e6;"></rect><rect x="231.95979" y="355.1096" width="16.9403" height="17.1448" transform="translate(480.85989 727.364) rotate(180)" style="fill:#ebebeb;"></rect><rect x="210.28729" y="355.1096" width="16.9403" height="17.1448" transform="translate(437.51489 727.364) rotate(180)" style="fill:#e6e6e6;"></rect><rect x="188.6148" y="355.4109" width="16.9403" height="17.1448" transform="translate(394.16989 727.9666) rotate(180)" style="fill:#f5f5f5;"></rect><rect x="166.9423" y="355.1096" width="16.9403" height="17.1448" transform="translate(350.82489 727.364) rotate(180)" style="fill:#ebebeb;"></rect><rect x="145.2698" y="355.1096" width="16.9403" height="17.1448" transform="translate(307.47989 727.364) rotate(180)" style="fill:#e6e6e6;"></rect><rect x="123.5973" y="355.1096" width="16.9403" height="17.1448" transform="translate(264.13489 727.364) rotate(180)" style="fill:#ebebeb;"></rect><rect x="101.9248" y="355.1096" width="16.9404" height="17.1448" transform="translate(220.78999 727.364) rotate(180)" style="fill:#e6e6e6;"></rect><rect x="80.2524" y="355.1096" width="16.9403" height="17.1448" transform="translate(177.4451 727.364) rotate(180)" style="fill:#ebebeb;"></rect><rect x="58.5799" y="355.1096" width="16.9403" height="17.1448" transform="translate(134.1001 727.364) rotate(180)" style="fill:#e6e6e6;"></rect><rect x="36.9074" y="355.1725" width="16.9403" height="17.1448" transform="translate(90.7551 727.4898) rotate(180)" style="fill:#f5f5f5;"></rect><rect x="15.2349" y="355.1096" width="16.9403" height="17.1448" transform="translate(47.4101 727.364) rotate(180)" style="fill:#ebebeb;"></rect></g><g><rect x="15.2349" y="398.0588" width="16.9403" height="17.14475" style="fill:#ebebeb;"></rect><rect x="36.506" y="398.0588" width="16.9403" height="17.1447" style="fill:#ebebeb;"></rect><rect x="57.9675" y="397.8662" width="16.9403" height="17.14475" style="fill:#e6e6e6;"></rect><rect x="79.4497" y="398.0588" width="16.9403" height="17.1447" style="fill:#ebebeb;"></rect><rect x="101.3124" y="397.8662" width="16.9404" height="17.1447" style="fill:#e6e6e6;"></rect><rect x="122.7946" y="398.0587" width="16.9404" height="17.1448" style="fill:#ebebeb;"></rect><rect x="144.6574" y="397.8661" width="16.9403" height="17.1448" style="fill:#e6e6e6;"></rect><rect x="166.1396" y="398.0587" width="16.9403" height="17.1448" style="fill:#ebebeb;"></rect><rect x="188.0024" y="397.8661" width="16.9403" height="17.1448" style="fill:#e6e6e6;"></rect><rect x="209.48459" y="397.7574" width="16.9403" height="17.1448" style="fill:#f5f5f5;"></rect><rect x="231.15709" y="398.0587" width="16.9403" height="17.1448" style="fill:#ebebeb;"></rect><rect x="253.01989" y="397.8661" width="16.9403" height="17.1448" style="fill:#e6e6e6;"></rect><rect x="274.50209" y="398.0587" width="16.9403" height="17.1448" style="fill:#ebebeb;"></rect><rect x="296.17459" y="398.0587" width="16.9403" height="17.14475" style="fill:#ebebeb;"></rect><rect x="317.847" y="398.0587" width="16.94039" height="17.1447" style="fill:#e6e6e6;"></rect><rect x="339.51949" y="398.0587" width="16.9403" height="17.1447" style="fill:#ebebeb;"></rect><rect x="361.192" y="397.9958" width="16.94029" height="17.1448" style="fill:#f5f5f5;"></rect><rect x="382.86449" y="398.05865" width="16.9403" height="17.14475" style="fill:#ebebeb;"></rect><rect x="404.537" y="398.0586" width="16.94029" height="17.1448" style="fill:#e6e6e6;"></rect><rect x="426.20949" y="398.0586" width="16.9403" height="17.1448" style="fill:#ebebeb;"></rect><rect x="447.882" y="398.0586" width="16.94029" height="17.1448" style="fill:#e6e6e6;"></rect><rect x="469.55449" y="398.0586" width="16.9403" height="17.1448" style="fill:#e6e6e6;"></rect><rect x="15.2349" y="419.7498" width="16.9403" height="17.1448" style="fill:#ebebeb;"></rect><rect x="36.6963" y="419.5572" width="16.9403" height="17.1448" style="fill:#f5f5f5;"></rect><rect x="57.7772" y="419.7498" width="16.9403" height="17.1448" style="fill:#ebebeb;"></rect><rect x="79.4497" y="419.7498" width="16.9403" height="17.14475" style="fill:#ebebeb;"></rect><rect x="101.31245" y="419.2559" width="16.94035" height="17.1448" style="fill:#f5f5f5;"></rect><rect x="122.79465" y="419.7498" width="16.94035" height="17.1447" style="fill:#ebebeb;"></rect><rect x="144.4671" y="419.4485" width="16.94035" height="17.1447" style="fill:#f5f5f5;"></rect><rect x="166.3299" y="419.5572" width="16.9403" height="17.1447" style="fill:#e6e6e6;"></rect><rect x="187.8121" y="419.7497" width="16.9403" height="17.1448" style="fill:#ebebeb;"></rect><rect x="209.48459" y="419.7497" width="16.9403" height="17.1448" style="fill:#ebebeb;"></rect><rect x="231.34739" y="419.5571" width="16.9403" height="17.1448" style="fill:#e6e6e6;"></rect><rect x="252.82959" y="419.7497" width="16.9403" height="17.1448" style="fill:#ebebeb;"></rect><rect x="274.50209" y="419.7497" width="16.9403" height="17.1448" style="fill:#e6e6e6;"></rect><rect x="296.17459" y="419.4484" width="16.9403" height="17.1448" style="fill:#f5f5f5;"></rect><rect x="317.84705" y="419.7497" width="16.94035" height="17.1448" style="fill:#ebebeb;"></rect><rect x="339.51949" y="419.7497" width="16.94035" height="17.1448" style="fill:#e6e6e6;"></rect><rect x="361.192" y="419.7497" width="16.94029" height="17.14475" style="fill:#ebebeb;"></rect><rect x="382.86449" y="419.7497" width="16.9403" height="17.1447" style="fill:#e6e6e6;"></rect><rect x="404.537" y="419.7497" width="16.94029" height="17.1447" style="fill:#ebebeb;"></rect><rect x="426.20949" y="419.7497" width="16.9403" height="17.1447" style="fill:#e6e6e6;"></rect><rect x="447.882" y="419.6868" width="16.94029" height="17.1448" style="fill:#f5f5f5;"></rect><rect x="469.55449" y="419.7496" width="16.9403" height="17.1448" style="fill:#ebebeb;"></rect></g><g><rect x="15.2349" y="441.59305" width="16.9403" height="17.14475" style="fill:#ebebeb;"></rect><rect x="36.506" y="441.593" width="16.9403" height="17.1448" style="fill:#ebebeb;"></rect><rect x="57.9675" y="441.4004" width="16.9403" height="17.1448" style="fill:#e6e6e6;"></rect><rect x="79.4497" y="441.593" width="16.9403" height="17.1448" style="fill:#ebebeb;"></rect><rect x="101.3124" y="441.4004" width="16.9404" height="17.1448" style="fill:#e6e6e6;"></rect><rect x="122.7946" y="441.593" width="16.9404" height="17.1448" style="fill:#ebebeb;"></rect><rect x="144.6574" y="441.4004" width="16.9403" height="17.1448" style="fill:#e6e6e6;"></rect><rect x="166.1396" y="441.593" width="16.9403" height="17.1448" style="fill:#ebebeb;"></rect><rect x="188.0024" y="441.4004" width="16.9403" height="17.1448" style="fill:#e6e6e6;"></rect><rect x="209.48459" y="441.2917" width="16.9403" height="17.1448" style="fill:#f5f5f5;"></rect><rect x="231.15709" y="441.593" width="16.9403" height="17.1447" style="fill:#ebebeb;"></rect><rect x="253.01989" y="441.4004" width="16.9403" height="17.14475" style="fill:#e6e6e6;"></rect><rect x="274.50209" y="441.593" width="16.9403" height="17.1447" style="fill:#ebebeb;"></rect><rect x="296.17459" y="441.59295" width="16.9403" height="17.14475" style="fill:#ebebeb;"></rect><rect x="317.847" y="441.5929" width="16.94039" height="17.1448" style="fill:#e6e6e6;"></rect><rect x="339.51949" y="441.5929" width="16.9403" height="17.1448" style="fill:#ebebeb;"></rect><rect x="361.192" y="441.5301" width="16.94029" height="17.1447" style="fill:#f5f5f5;"></rect><rect x="382.86449" y="441.5929" width="16.9403" height="17.1448" style="fill:#ebebeb;"></rect><rect x="404.537" y="441.5929" width="16.94029" height="17.1448" style="fill:#e6e6e6;"></rect><rect x="426.20949" y="441.5929" width="16.9403" height="17.1448" style="fill:#ebebeb;"></rect><rect x="447.882" y="441.5929" width="16.94029" height="17.1448" style="fill:#e6e6e6;"></rect><rect x="469.55449" y="441.5929" width="16.9403" height="17.1448" style="fill:#e6e6e6;"></rect></g><g><rect x="15.2349" y="312.357" width="16.9403" height="17.1447" style="fill:#ebebeb;"></rect><rect x="36.506" y="312.35695" width="16.94035" height="17.14475" style="fill:#ebebeb;"></rect><rect x="57.9675" y="312.1644" width="16.9403" height="17.1447" style="fill:#e6e6e6;"></rect><rect x="79.4497" y="312.3569" width="16.9403" height="17.1448" style="fill:#ebebeb;"></rect><rect x="101.31245" y="312.1643" width="16.94035" height="17.1448" style="fill:#e6e6e6;"></rect><rect x="122.79465" y="312.3569" width="16.94035" height="17.1448" style="fill:#ebebeb;"></rect><rect x="144.6574" y="312.1643" width="16.9403" height="17.1448" style="fill:#e6e6e6;"></rect><rect x="166.1396" y="312.3569" width="16.9403" height="17.1448" style="fill:#ebebeb;"></rect><rect x="188.0024" y="312.1643" width="16.9403" height="17.1448" style="fill:#e6e6e6;"></rect><rect x="209.48459" y="312.0556" width="16.9403" height="17.1448" style="fill:#f5f5f5;"></rect><rect x="231.15709" y="312.3569" width="16.9403" height="17.14475" style="fill:#ebebeb;"></rect><rect x="253.01989" y="312.1643" width="16.9403" height="17.1448" style="fill:#e6e6e6;"></rect><rect x="274.50209" y="312.3569" width="16.9403" height="17.1447" style="fill:#ebebeb;"></rect><rect x="296.17459" y="312.3569" width="16.9403" height="17.1447" style="fill:#ebebeb;"></rect><rect x="317.84705" y="312.35685" width="16.94035" height="17.14475" style="fill:#e6e6e6;"></rect><rect x="339.51949" y="312.3568" width="16.94035" height="17.1448" style="fill:#ebebeb;"></rect><rect x="361.192" y="312.294" width="16.94029" height="17.1447" style="fill:#f5f5f5;"></rect><rect x="382.86449" y="312.3568" width="16.9403" height="17.1448" style="fill:#ebebeb;"></rect><rect x="404.537" y="312.3568" width="16.94029" height="17.1448" style="fill:#e6e6e6;"></rect><rect x="426.20949" y="312.3568" width="16.9403" height="17.1448" style="fill:#ebebeb;"></rect><rect x="447.882" y="312.3568" width="16.94029" height="17.1448" style="fill:#e6e6e6;"></rect><rect x="469.55449" y="312.3568" width="16.9403" height="17.1448" style="fill:#e6e6e6;"></rect><rect x="15.2349" y="334.048" width="16.9403" height="17.14475" style="fill:#ebebeb;"></rect><rect x="36.6963" y="333.8554" width="16.9403" height="17.1448" style="fill:#f5f5f5;"></rect><rect x="57.7772" y="334.048" width="16.9403" height="17.1447" style="fill:#ebebeb;"></rect><rect x="79.4497" y="334.048" width="16.9403" height="17.1447" style="fill:#ebebeb;"></rect><rect x="101.3125" y="333.5541" width="16.9403" height="17.1447" style="fill:#f5f5f5;"></rect><rect x="122.7947" y="334.0479" width="16.9403" height="17.1448" style="fill:#ebebeb;"></rect><rect x="144.4671" y="333.7466" width="16.9404" height="17.1448" style="fill:#f5f5f5;"></rect><rect x="166.3299" y="333.8553" width="16.9403" height="17.1448" style="fill:#e6e6e6;"></rect><rect x="187.8121" y="334.0479" width="16.9403" height="17.1448" style="fill:#ebebeb;"></rect><rect x="209.48459" y="334.0479" width="16.9403" height="17.1448" style="fill:#ebebeb;"></rect><rect x="231.34739" y="333.8553" width="16.9403" height="17.1448" style="fill:#e6e6e6;"></rect><rect x="252.82959" y="334.0479" width="16.9403" height="17.1448" style="fill:#ebebeb;"></rect><rect x="274.50209" y="334.0479" width="16.9403" height="17.1448" style="fill:#e6e6e6;"></rect><rect x="296.17459" y="333.7466" width="16.9403" height="17.1448" style="fill:#f5f5f5;"></rect><rect x="317.84709" y="334.0479" width="16.9403" height="17.1447" style="fill:#ebebeb;"></rect><rect x="339.51949" y="334.0479" width="16.9404" height="17.1447" style="fill:#e6e6e6;"></rect><rect x="361.192" y="334.0479" width="16.94029" height="17.1447" style="fill:#ebebeb;"></rect><rect x="382.86449" y="334.04785" width="16.9403" height="17.14475" style="fill:#e6e6e6;"></rect><rect x="404.537" y="334.0478" width="16.94029" height="17.1448" style="fill:#ebebeb;"></rect><rect x="426.20949" y="334.0478" width="16.9403" height="17.1448" style="fill:#e6e6e6;"></rect><rect x="447.882" y="333.985" width="16.94029" height="17.1447" style="fill:#f5f5f5;"></rect><rect x="469.55449" y="334.0478" width="16.9403" height="17.1448" style="fill:#ebebeb;"></rect></g><rect x="15.0861" y="208.9629" width="477.18759" height="13.4543" style="fill:#e0e0e0;"></rect></g><g><g><g><path d="M443.92039,330.1975h-180.7461c-3.2324,0-5.86229-2.6298-5.86229-5.8623V61.0618c0-3.2324,2.62989-5.8618,5.86229-5.8618h180.7461c3.2324,0,5.8623,2.6294,5.8623,5.8618V324.3352c0,3.2325-2.6299,5.8623-5.8623,5.8623ZM263.17429,55.45c-3.0947,0-5.61229,2.5176-5.61229,5.6118V324.3352c0,3.0948,2.51759,5.6123,5.61229,5.6123h180.7461c3.0947,0,5.6123-2.5175,5.6123-5.6123V61.0618c0-3.0942-2.5176-5.6118-5.6123-5.6118h-180.7461Z" style="fill:#e0e0e0;"></path><path d="M235.49269,330.1975H54.7461c-3.2324,0-5.8618-2.6298-5.8618-5.8623V61.0618c0-3.2324,2.6294-5.8618,5.8618-5.8618H235.49269c3.2324,0,5.86231,2.6294,5.86231,5.8618V324.3352c0,3.2325-2.62991,5.8623-5.86231,5.8623ZM54.7461,55.45c-3.0942,0-5.6118,2.5176-5.6118,5.6118V324.3352c0,3.0948,2.5176,5.6123,5.6118,5.6123H235.49269c3.0947,0,5.61231-2.5175,5.61231-5.6123V61.0618c0-3.0942-2.51761-5.6118-5.61231-5.6118H54.7461Z" style="fill:#e0e0e0;"></path></g><rect x="0" y="391.2669" width="500" height=".25" style="fill:#e0e0e0;"></rect></g><rect x="51.6724" y="405.5314" width="16.06" height=".25" style="fill:#e0e0e0;"></rect><rect x="170.3524" y="402.8214" width="53.53" height=".25" style="fill:#e0e0e0;"></rect><rect x="68.7324" y="414.8214" width="36.25" height=".25" style="fill:#e0e0e0;"></rect><rect x="378.35239" y="402.6914" width="43.19" height=".25" style="fill:#e0e0e0;"></rect><rect x="430.45239" y="402.6914" width="6.33" height=".25" style="fill:#e0e0e0;"></rect><rect x="316.21239" y="408.9214" width="53.89" height=".25" style="fill:#e0e0e0;"></rect></g></g><g id="freepik--Shadow--inject-359"><path d="M460.77219,469.7985c0,3.3867-93.5165,6.1322-208.87499,6.1322s-208.87499-2.7455-208.87499-6.1322,93.5165-6.1323,208.87499-6.1323,208.87499,2.7455,208.87499,6.1323Z" style="fill:#f5f5f5;"></path></g><g id="freepik--Water_splash--inject-359"><g><g style="opacity:.5;"><path d="M148.6713,243.9256c-9.1952-7.4136-27.122-15.8353-38.5594-18.7842-2.6407-.6808-5.4069-1.1656-8.087-.6615-2.68,.5041-5.2757,2.1663-6.2552,4.7113-.9796,2.5451,.1554,5.8997,2.725,6.8131-3.2587-.8913-6.5884-1.7906-9.961-1.5924-3.3725,.1982-6.8565,1.6926-8.5791,4.5988-1.7225,2.9063-1.005,7.2744,1.9957,8.8266-1.9917-1.7152-5.2067-1.7909-7.2769-.1713s-2.7704,4.7583-1.5848,7.1042c-2.2258-1.5079-4.4968-3.0586-6.09-5.224-1.5933-2.1653-2.4053-5.1021-1.3865-7.59,1.0189-2.4878,4.2589-4.0458,6.588-2.7031-3.347-3.0201-6.7583-6.1204-8.9135-10.08-2.1551-3.9596-2.8524-9.0119-.6268-12.9323,2.6467-4.6623,8.7544-6.4555,14.0355-5.5327s9.9039,4.0112,14.2125,7.2014c-2.0916-2.0977-1.9445-5.7473-.2572-8.1821,1.6874-2.4347,4.5461-3.8134,7.4216-4.5251,8.9323-2.2105,18.5084,1.2156,25.7669,6.8713,7.2586,5.6557,19.5805,24.2959,24.8322,31.852" style="fill:#407BFF;"></path></g><g style="opacity:.5;"><path d="M73.6353,189.4419c-1.0174-.5985-2.2745-1.1258-3.3391-.6158-.874,.4186-1.3251,1.4529-1.3021,2.4218,.0231,.9689,.437,1.8842,.9055,2.7326,2.5656,4.6452,10.4441,10.8065,14.4585,9.7805-1.4936-5.937-5.4461-11.2151-10.7228-14.3191Z" style="fill:#407BFF;"></path></g><g style="opacity:.5;"><path d="M97.8558,190.4578c-.4446-.2615-.994-.492-1.4592-.2691-.382,.183-.5792,.635-.5691,1.0584,.0101,.4235,.191,.8235,.3957,1.1943,1.1213,2.0301,4.5645,4.7228,6.3189,4.2744-.6528-2.5947-2.3802-4.9014-4.6863-6.258Z" style="fill:#407BFF;"></path></g></g></g><g id="freepik--Character--inject-359"><g><path d="M231.92089,320.5703c-7.7046,6.6125-121.0287,23.6712-144.62129,14.0726-23.3297-9.4915,2.9527-23.3845,13.7713-26.9142,10.8186-3.5298,29.1618-6.4472,50.2206-22.9265,15.5173-12.143,34.47-15.4134,42.2575-15.3925,8.57719,.023,20.00029,2.699,20.00029,2.699,8.67871,13.9923,23.2322,44.6231,23.2322,44.6231l-4.8606,3.8385Z" style="fill:#ffb5af;"></path><path d="M441.02919,275.793c.277,.2823,4.4159,2.3393,6.022,2.9427,1.6063,.6034,14.3423,.7097,13.6337-.858-.7085-1.5678-1.2724-1.8608-4.0366-2.2347-2.7641-.3739-5.3468-.469-4.6505-1.1689s8.8773-1.7588,11.1465-.9495c2.269,.809,6.3289,2.4096,7.43471,.9992,1.10549-1.4102-.57951-2.47-.57951-2.47,0,0,2.3023-.0965,1.4882-1.3962-.8142-1.2997-6.6606-6.4124-9.4145-7.0579-2.75419-.6456-18.3677,2.0275-21.2963,2.217-.88,.0571-6.3631,1.3669-6.3631,1.3669l-3.8103,9.5338,10.4257-.9244Z" style="fill:#ffb5af;"></path><path d="M305.56449,282.5374l.6072-29.4077c5.4309,.5949,11.0414,.9396,16.6487,1.3579l16.8999,1.0739c11.31571,.7674,22.6059,1.4782,34.1274,2.9745l2.1611,.3002,2.1867,.3568,2.2007,.3573,2.2237,.4692c.73711,.1439,1.5145,.3265,2.1413,.4285,.6723,.1041,1.3514,.1346,2.0303,.0913,1.3611-.1775,2.7277-.2271,4.0894-.1482,2.6742,.434,5.355,1.0344,8.0589,1.4328,1.3919,.2472,2.7171,.4175,4.0834,.6082,1.3664,.1906,2.7179,.399,4.0843,.5897,10.935,1.433,22.1049,2.323,33.1711,3.0238l.36,9.4648c-2.8368,.6844-5.6695,1.2767-8.498,1.777l-4.241,.7135c-1.41259,.2132-2.8252,.4265-4.2362,.603-5.647,.7794-11.4242,1.3315-17.1749,1.6081-2.81349,.1687-5.763,.239-8.6523,.2197-1.40019-.0629-2.891,.0176-4.34719-.0479l-2.17021-.0976c-.7281-.0328-1.4002-.063-2.1843-.0983-1.4513-.2675-2.8778-.7085-4.2619-1.3174-.7059-.2513-1.423-.4499-2.1479-.5948-.7651-.1452-1.3952-.1735-2.0245-.2203l-1.9421-.1796-4.0044-.1801-2.0303-.0913c-5.4392-.0971-10.975,.0784-16.5165,.3827l-29.4851,2.3646h0l-4.031,.4093-17.1263,1.7764Z" style="fill:#ffb5af;"></path><path d="M329.64119,254.921s-5.4096,25.6836-5.4186,25.6845-2.9617,.4316-2.9617,.4316l2.1158-26.5122,6.2645,.3961Z" style="opacity:.2;"></path><path d="M103.0076,307.1255s14.4963,13.7016,40.7339,13.4621c26.2376-.2395,30.4331-6.9009,30.4331-6.9009l-62.4559-9.7446-8.7111,3.1834Z" style="opacity:.2;"></path><path d="M227.27929,314.7509c-10.03,4.5769-122.6132-4.3151-144.40369-21.9733-21.5477-17.4615-2.7917-34.358,9.5716-34.6772,12.3632-.3191,39.6621,5.8471,66.6-4.9707,19.8495-7.9712,35.2849-7.3119,43.4184-4.8232,8.95841,2.741,20.0983,9.1987,20.0983,9.1987,4.8884,17.5973,10.9434,54.7118,10.9434,54.7118l-6.228,2.5339Z" style="fill:#ffb5af;"></path><path d="M333.437,255.1622c.191,.0121,3.50779,5.8103,13.10939,5.8759,8.5507,.0583,11.90061-4.1185,11.90061-4.1185l-25.01-1.7574Z" style="opacity:.2;"></path><g><path d="M222.74209,258.1304l6.28791,63.3355s21.03529-5.5244,47.68249-13.1342c16.5007-4.7122,39.6484-5.7474,45.3329-30.8343l1.5097-17.702c-1.3189-9.1723-2.7816-11.3132-4.7246-15.6998-2.1382-4.8275-9.3121-13.9454-14.5849-13.6744-8.7477,.4496-23.0993,7.3546-46.8455,21.7614-10.176,6.1738-25.8814,5.3923-34.658,5.9478Z" style="fill:#407BFF;"></path><path d="M200.69349,247.8239s.7813,46.67-26.5189,65.8628c13.8204,6.0075,29.3453,9.6529,45.9465,11.8069l21.681-7.584s1.4561-59.3191,0-59.3679c-1.456-.0487-29.7606-9.9613-41.1086-10.7178Z" style="fill:#407BFF;"></path><path d="M201.56191,253.777c9.37992,2.54393,18.78588,5.00611,28.22809,7.30837,5.44972,1.32878,10.87296,3.10961,16.51547,2.05438,5.88383-1.10035,11.41869-3.94672,16.46955-7.06591,3.17463-1.96052,6.2939-4.0979,9.16294-6.49048,.37107-.30944-.16195-.83753-.53033-.53033-2.3367,1.94864-4.85661,3.70406-7.40691,5.35765-4.90661,3.1814-10.20965,6.07385-15.89968,7.55718-2.746,.71585-5.66786,1.10768-8.48784,.61302-2.81456-.49371-5.60543-1.24672-8.38176-1.91727-6.17436-1.49126-12.32685-3.07334-18.47104-4.6839-3.66984-.96196-7.33754-1.93287-10.99911-2.92593-.46642-.1265-.66543,.59681-.19938,.72321h0Z" style="fill:#fff;"></path><path d="M201.43211,250.638c9.3799,2.54393,18.78585,5.00611,28.22804,7.30837,5.44972,1.32879,10.87295,3.1096,16.51546,2.05438,5.88385-1.10035,11.41873-3.94672,16.4696-7.06591,3.17463-1.96051,6.29391-4.0979,9.16296-6.49048,.37107-.30944-.16195-.83753-.53033-.53033-2.3367,1.94864-4.85662,3.70406-7.40692,5.35765-4.90662,3.1814-10.20968,6.07385-15.89972,7.55718-2.74601,.71585-5.66789,1.10768-8.48789,.61302-2.81455-.4937-5.60541-1.24672-8.38172-1.91727-6.17435-1.49126-12.32682-3.07334-18.47099-4.6839-3.66984-.96196-7.33753-1.93287-10.9991-2.92593-.46642-.1265-.66543,.59681-.19938,.72321h0Z" style="fill:#fff;"></path><g><path d="M279.48289,266.0246c-3.4254-1.6443-39.8796,8.2475-42.7014,11.9782-2.299,3.0396,4.53351,22.6981,7.218,30.0995,.581,1.6019,2.2723,2.5067,3.9276,2.1025,9.6648-2.3598,40.26791-9.8738,41.4211-10.681,1.3702-.959-6.4398-31.855-9.8653-33.4992Z" style="fill:#fff; opacity:.6;"></path><path d="M279.48289,266.0245c-1.078-.5174-5.98289,.3127-12.2853,1.8089l-.0001,.0001,9.4271,35.2113,.0015-.0003c6.9864-1.7899,12.2824-3.2129,12.7221-3.5207,1.3702-.959-6.4398-31.855-9.8653-33.4993Z" style="fill:#263238;"></path><g><path d="M261.08679,279.9795l-11.7437,3.4893-.80709-2.7178,9.56249-2.8418-.6983-2.3496,2.1812-.6475,1.5054,5.0674Z" style="fill:#263238;"></path><path d="M254.77229,293.6309l-2.2139,.6582-2.6372-8.875,1.76181-.5235,5.62349,3.2588c1.2998,.7451,1.958,.751,2.5288,.582,.9224-.2744,1.27-1.0703,.9009-2.3134-.2988-1.0059-.939-1.7471-1.8975-2.083l.6875-2.3584c1.5943,.5127,2.9385,1.9013,3.5664,4.0146,.7779,2.6182-.0464,4.7617-2.1767,5.3945-1.1407,.3389-2.2764,.3291-4.291-.8613l-3.3526-1.9424,1.5,5.0489Z" style="fill:#263238;"></path><path d="M259.05939,303.0195c-1.9795,.5889-4.2451-.4004-5.2373-3.7392-.4883-1.6436-.539-3.4727-.0727-4.8535l2.3945,.4384c-.4072,1.0889-.4233,2.4453-.0596,3.6709,.4038,1.3584,1.2061,2.0332,2.1626,1.7481,.8887-.2637,1.24811-1.0821,.7896-2.625l-.3692-1.2422,1.795-.5342,3.4526,1.6035-1.4854-5,2.1812-.6474,2.4429,8.2216-1.7618,.5235-3.8076-1.7549c.2925,2.2148-.69719,3.6777-2.4248,4.1904Z" style="fill:#263238;"></path></g><path d="M285.86949,267.4492c.5989,.4793,6.5201,26.2777,8.1129,27.9175,1.5928,1.6397,3.9874-.1189,3.9874-.1189,0,0-7.1876-29.5767-8.306-29.2365-1.1184,.3401-3.7943,1.4379-3.7943,1.4379Z" style="fill:#fff; opacity:.6;"></path></g></g><g><g><g><g><path d="M323.427,260.2203c.71879-4.6832,.84149-5.4952,4.06859-7.5597,1.8116-1.1902,3.972-2.0977,6.1729-2.866l-.9119-4.6345,1.128-20.4739c-5.5187,7.2133-10.3872,14.771-19.4013,12.6714,0,0-4.1214,24.1828,8.94371,22.8627Z" style="fill:#ffb5af;"></path><path d="M326.80159,253.1297c-.9138-4.5246-.8021-10.4961,3.01241-13.2401,1.61449-1.1459,3.28089-2.0808,4.48279-2.532l-2.5126,13.1389c-1.7201,.6628-2.7261,1.246-4.9826,2.6332Z" style="opacity:.2;"></path><path d="M343.94349,211.7375c-10.0902,10.9516-14.5799,15.3629-15.2168,26.2539-.9584,16.382,13.8348,26.8809,26.7836,19.2862,11.65471-6.8356,26.1975-23.5965,21.05871-38.5756-5.06261-14.7576-22.53521-17.916-32.62551-6.9645Z" style="fill:#ffb5af;"></path><path d="M353.49059,229.0867c-1.1152,1.1063-1.5011,2.6003-.8619,3.3376,.6387,.7368,2.0604,.4374,3.1755-.6687,1.1152-1.1061,1.5012-2.6003,.8621-3.3374-.6389-.7369-2.0605-.4375-3.1757,.6685Z" style="fill:#263238;"></path><path d="M363.32969,239.9061c-1.0784,1.0743-1.4364,2.5408-.7996,3.2759,.6371,.7345,2.0277,.4596,3.1061-.6148,1.0783-1.0741,1.4363-2.5408,.7995-3.2758s-2.0273-.4596-3.106,.6147Z" style="fill:#263238;"></path><path d="M355.46969,223.1266c.1111,.1545,.2804,.2599,.4791,.2777,3.1011,.2764,4.2753,2.6826,4.2886,2.7107,.1732,.3573,.592,.4987,.9391,.3028,.346-.1967,.4867-.6499,.31451-1.0147-.06071-.1265-1.53161-3.1489-5.38051-3.4909-.3836-.0339-.7314,.2725-.77649,.6845-.02071,.1983,.03169,.3856,.13569,.5299Z" style="fill:#263238;"></path><path d="M372.14839,238.5649c.1374,.077,.3034,.095,.4678,.0345,.33981-.1251,.5454-.5337,.46-.9117-.8596-3.7921-3.6186-4.6848-3.7373-4.7204-.3316-.1023-.6921,.1266-.8055,.5122-.1136,.3846,.06261,.7789,.39261,.8828,.10859,.0332,2.23679,.7613,2.91949,3.777,.0444,.1949,.1576,.3441,.3029,.4256Z" style="fill:#263238;"></path><path d="M361.19829,236.47s-2.56229,5.4432-3.3742,9.705c-.1418,.7449-.9865,1.1269-1.658,.7747-1.7279-.9065-2.7124-2.9052-2.7124-2.9052l7.7446-7.5745Z" style="fill:#ff726e;"></path></g><path d="M356.24369,228.0474l2.8787,1.9857s-3.1307,.3212-2.8787-1.9857Z" style="fill:#263238;"></path><path d="M366.175,239.0553l2.87889,1.9856s-3.1312,.3214-2.87889-1.9856Z" style="fill:#263238;"></path><path d="M340.49619,222.4134s14.3432-4.9718,16.4786-10.3279c2.1353-5.3561-11.3303-3.2476-11.7514-3.1423-.4212,.1053-5.7911,5.2646-5.7911,5.2646l1.0639,7.7018" style="fill:#263238;"></path><path d="M340.49619,222.4134s14.3432-4.9718,16.4786-10.3279c2.1353-5.3561-11.3303-3.2476-11.7514-3.1423-.4212,.1053-5.7911,5.2646-5.7911,5.2646l1.0639,7.7018" style="fill:#263238;"></path><path d="M332.21779,216.3763c-1.08179,3.3388-.5901,6.7308,.6745,9.1058,1.9018,3.5719,7.9428,.8438,9.9618-2.787,1.8174-3.269,.9695-7.7015-2.1647-10.018-3.0879-2.2819-7.2348-.1184-8.4716,3.6992Z" style="fill:#ffb5af;"></path></g><path d="M348.63929,239.9347c-.0967-.0948-.2204-.1633-.3619-.1914-.38139-.076-.7461,.1716-.8132,.5539-.6739,3.835,1.6772,6.1141,1.7697,6.2299,.2836,.272,.7276,.2673,.99211-.011,.26369-.2777,.24979-.7213-.02891-.9944-.1017-.0911-1.8909-1.87-1.35-4.9481,.0425-.2409-.0433-.4778-.2078-.6389Z" style="fill:#263238;"></path><path d="M338.80566,223.32324c-.05664,0-.1123-.01855-.15918-.05713-.10645-.08789-.12109-.24561-.0332-.35205,.80957-.98145,1.34668-2.17236,1.55176-3.44531,.13477-.83154,.16895-2.04053-.43262-3.0791-.54688-.94141-1.61035-1.51611-2.51758-1.37646-.14062,.02002-.26465-.07227-.28613-.20801-.02148-.13672,.07129-.26465,.20801-.28613,1.12793-.1748,2.37109,.48779,3.02734,1.61963,.67676,1.16602,.64258,2.49805,.49512,3.41016-.2207,1.35986-.79395,2.63379-1.66113,3.68359-.04883,.06006-.12012,.09082-.19238,.09082Z" style="opacity:.2;"></path></g><path d="M375.85029,209.4874c-14.825-20.259-49.52329-17.0785-48.6589,23.4555,0,0,9.9848-12.1152,16.5094-15.3481,0,0,15.035-4.035,24.7981,.6472,12.45211,5.9717,4.6112,19.5074,4.6112,19.5074-.7332,3.2597-2.56909,5.6273-4.3879,8.3365,0,0,22.74681-15.255,7.1281-36.5985Z" style="fill:#407BFF;"></path><path d="M358.447,233.9907s2.135-.0571,3.22929,1.1115c1.0944,1.1687,.2704,3.5734,.2803,3.5334,.01-.0401,2.5263-2.6213,2.5263-2.6213l-4.1511-5.2527s-.9987,2.466-1.88479,3.2291Z" style="fill:#407BFF;"></path><path d="M360.75119,230.9442c-.0428-.576-.3403-1.0989-.6466-1.5888-1.7937-2.8694-4.142-5.3907-6.8769-7.3834-.54969-.4005-1.1528-.7933-1.8322-.8292-.6792-.0359-1.7247,.6306-2.337,1.412-1.257,2.0584-1.6666,4.6448-.983,6.9578,.6836,2.3131,2.4864,4.295,4.768,5.0769,2.2817,.7819,4.9839,.2894,6.7636-1.3386,.6557-.5999,1.2096-1.4204,1.1441-2.3067Z" style="fill:#263238;"></path><path d="M372.98819,241.9103c-.1487-.5438-.5199-.9855-.8928-1.3939-2.1838-2.392-3.8217-3.4962-6.69739-4.8592-.578-.274-1.20331-.5298-1.83011-.4283-.6267,.1017-1.45389,.9499-1.8638,1.8217-.7549,2.2252-.7065,4.8286,.42891,6.8677,1.14359,2.054,2.77609,3.0133,5.00739,3.3062,2.2313,.2928,3.9294-.9566,5.2434-2.8737,.484-.7064,.8331-1.6039,.6044-2.4405Z" style="fill:#263238;"></path><polygon points="349.05849 222.5548 337.17619 203.3362 339.43229 201.5203 351.39549 221.1428 349.05849 222.5548" style="fill:#407BFF;"></polygon><polygon points="349.05849 222.5548 337.17619 203.3362 339.43229 201.5203 351.39549 221.1428 349.05849 222.5548" style="fill:#fff; opacity:.4;"></polygon><g style="opacity:.4;"><path d="M365.72809,208.7763c-2.794,.0432-5.597,.086-8.374-.2252-.6546-.0734-1.32109-.1706-1.9082-.4692-.5872-.2985-1.0903-.835-1.1847-1.4869s.3287-1.3847,.9789-1.4899c-1.6005-.1271-3.20109-.2542-4.8017-.3813-.6637-.0527-1.3392-.108-1.9575-.3549-.6184-.2469-1.1823-.7192-1.3721-1.3574-.1897-.6382,.1-1.4311,.7239-1.6635,0,0-3.3618,1.1081-.7814,3.1677s6.4024,1.3592,6.4024,1.3592c0,0-1.9596,3.4466,2.4489,3.9043,4.4085,.4576,9.8255-1.0029,9.8255-1.0029Z" style="fill:#fff;"></path></g><g style="opacity:.2;"><path d="M357.63729,228.1745c-1.1335-1.7624-2.4751-3.5709-4.4505-4.2706-2.2299-.2943-3.3502,1.2937-3.8292,2.9226-.4789,1.6288,.03541,3.4729,1.1769,4.7296,1.1416,1.2567,2.8463,1.9373,4.5436,1.9774,.7181,.0168,1.4518-.0776,2.0994-.3885,.6474-.311,1.202-.8577,1.4171-1.5431,.3673-1.1709-.2935-2.3952-.9573-3.4274Z" style="fill:#fff;"></path></g><g style="opacity:.2;"><path d="M370.02949,239.8754c-1.4332-1.3986-3.0693-2.7952-5.0539-3.0219-2.1332,.2058-2.8295,1.927-2.9218,3.5483-.0923,1.6211,.7837,3.2291,2.1149,4.1545,1.3311,.9254,3.0604,1.1927,4.64431,.8646,.67019-.1389,1.33059-.3849,1.86439-.8141,.53361-.4292,.9302-1.0582,.9815-1.7433,.0877-1.1704-.7902-2.1691-1.6294-2.9881Z" style="fill:#fff;"></path></g><path d="M326.3127,216.57629c.91645-3.98367,2.35982-7.84954,4.69082-11.23149,2.47198-3.58647,5.85335-6.36366,9.68195-8.4007,.42627-.2268,.0478-.87444-.37854-.6476-3.8663,2.05711-7.26304,4.85925-9.79718,8.44921-2.45447,3.47712-3.97105,7.50514-4.92026,11.6312-.10807,.46977,.61487,.67032,.72321,.19938h0Z" style="fill:#407BFF;"></path></g><g><g><path d="M305.95379,231.9581s-24.7273-55.5241-45.709-50.3627c-20.98179,5.1614-49.7052,33.4051-49.7052,33.4051l6.1803,7.6807s34.2885-19.3453,40.9209-19.7701,19.9656,38.8649,19.9656,38.8649l28.3474-9.8179Z" style="fill:#ffb5af;"></path><path d="M267.666,246.086s2.07819,4.8339,19.76819,1.9434c17.69-2.8905,24.06981-13.9052,23.9125-14.0185-.1573-.1133-3.7568-6.8568-9.1506-9.8029-7.1099-3.8835-34.53009,21.878-34.53009,21.878Z" style="fill:#ffb5af;"></path><path d="M216.71989,222.6812c-.0721,.3888-2.3563,4.4069-3.3515,5.8045-.9952,1.3977-11.5,8.5997-11.7879,6.9035-.288-1.6962,.0161-2.2542,2.1-4.1083,2.0839-1.854,4.173-3.3755,3.2046-3.5671-.9685-.1916-8.3458,3.4997-9.77609,5.4384-1.4301,1.9384-3.9037,5.5337-5.6086,4.9815-1.7047-.5522-.899-2.3725-.899-2.3725,0,0-1.9636,1.206-2.0142-.3268-.0507-1.5329,1.943-9.0392,3.8667-11.1129,1.9239-2.0738,16.3678-8.5777,18.9029-10.0562,.7618-.4442,6.0415-2.4204,6.0415-2.4204l8.4856,5.7797-9.164,5.0566Z" style="fill:#ffb5af;"></path><path d="M258.24669,202.9782l.6437-8.654s3.9378,4.5558,2.1775,10.8833c0,0-2.2153-2.1622-2.8212-2.2293Z" style="opacity:.2;"></path></g><path d="M276.656,238.1907s9.78879,3.0391,11.06989,3.5853c0,0-.2846,1.0599-15.6958,.3731l4.62591-3.9584Z" style="opacity:.2;"></path><g style="opacity:.5;"><path d="M278.59669,206.7754c.3977-.3995,.4635-1.0123,.5069-1.5743,.2165-2.8006,.4329-5.6013,.64941-8.402,1.72379,.4606,2.27219,3.0135,4.02469,3.3483,.9778,.1868,1.9766-.471,2.4321-1.3561,.0709-.1379,.1127-.2856,.1629-.4306-7.9856-10.5212-17.3815-18.9169-26.1279-16.7653-6.3605,1.5646-13.4304,5.2552-20.1979,9.6323,.0623,2.122,.6575,4.5589,2.6232,5.2901,1.1037,.4105,2.3666,.1278,3.3907-.4533,1.0241-.5812,1.8621-1.4331,2.714-2.246,1.5803-1.508,3.2548-2.9171,5.0107-4.2163,1.288-.953,2.8927-1.8896,4.404-1.3576,1.1166,.393,1.8202,1.4832,2.3444,2.5446s.9888,2.2117,1.9055,2.9608c.91661,.749,2.4724,.8821,3.1684-.0754,.3694-.5083,.4581-1.2496,1.0013-1.5652,.4841-.2812,1.1326-.0649,1.5188,.3404,.38611,.4053,.5743,.9543,.7624,1.4816,1.5012,4.2076,3.6845,8.171,6.4388,11.6884,.4052,.5174,.8412,1.0405,1.4303,1.3319,.5892,.2913,1.37361,.2894,1.8373-.1763Z" style="fill:#407BFF;"></path></g></g></g></g><g id="freepik--Water--inject-359"><g><g><g style="opacity:.5;"><path d="M360.64359,275.2505c-28.3982-.3691-56.2583-8.6497-84.6518-9.3012-29.95479-.6874-59.6004,7.1319-89.562,6.9114-28.4843-.2096-56.3749-7.6609-84.4774-12.4443-28.1025-4.7836-58.7567-1.3847-86.7175,4.2082v193.9206l473.01199,1.4079,2.0282-182.6836c-15.40809-44.147-84.9824-1.4387-129.6315-2.019Z" style="fill:#407BFF;"></path></g><g style="opacity:.3;"><path d="M362.42,275.251c-28.446,.5597-52.09551-7.9915-80.489-8.643-29.95491-.6875-58.997,3.2024-88.8712,5.4984-29.7871,2.2893-59.5531-6.1621-87.5814-11.3628-30.5706-5.6724-62.2827-1.7119-90.2435,3.881v4.9359c33.0326-8.4273,77.6983-7.4811,107.7317,8.9075,12.0155,6.5566,24.8447,15.245,38.0692,11.9688,6.9217-1.7148,12.9239-6.6185,19.9893-7.521,11.3833-1.4541,21.5511,7.7181,32.957,8.9731,21.1035,2.3223,38.4151-22.3807,59.4901-19.7995,13.5856,1.6638,24.192,14.4562,37.83981,15.4451,13.13359,.9515,24.838-9.3081,37.988-9.9783,8.61739-.4393,16.85939,3.2777,25.33059,4.9607,8.4711,1.683,18.676,.5855,23.498-6.7704,20.2333-.0665,40.59841-10.9426,59.4515-18.4905-31.5094,.6387-64.5966,17.3936-95.16009,17.995Z" style="fill:#fff;"></path></g></g><path d="M16.3224,367.7115s74.8376,39.7236,117.1185,35.3599c42.2808-4.3637,161.211-65.571,225.10979-73.5698,63.8987-7.9988,131.7244,21.1972,131.7244,21.1972v40.5681s-83.5115-61.2382-129.7239-48.6466c-46.2124,12.5917-151.7531,88.588-236.48579,93.7804-84.7326,5.1923-107.743-12.683-107.743-12.683v-56.0062" style="fill:#fff; opacity:.2;"></path><path d="M351.86889,287.1356c0,2.2177-3.8015,4.0156-8.4908,4.0156s-8.4909-1.7979-8.4909-4.0156,3.8015-4.0157,8.4909-4.0157,8.4908,1.7979,8.4908,4.0157Z" style="fill:#fff; opacity:.3;"></path><path d="M154.9678,349.4932c17.00496,.59699,34.05433-.55361,50.82651-3.42154,16.96518-2.90094,33.63225-7.55224,49.63737-13.88413,15.80193-6.2515,30.64551-14.52059,46.02011-21.70193,7.87132-3.67662,15.90847-7.03678,24.22566-9.57346,8.37228-2.55348,16.97548-4.30062,25.64731-5.45802,17.56957-2.34494,35.34936-2.32599,53.03907-2.04738,2.16407,.03408,4.32808,.07245,6.49207,.11125,.48281,.00866,.48286-.74134,0-.75-17.56132-.31489-35.18227-.60851-52.68463,1.14033-8.59597,.85891-17.15298,2.21261-25.53932,4.30227-8.26735,2.06001-16.28584,4.91723-24.109,8.27902-15.69398,6.74405-30.54743,15.26834-46.22421,22.05023-15.83806,6.85165-32.40724,12.0145-49.32057,15.43179-16.99161,3.4331-34.34027,5.09388-51.67506,4.91779-2.11237-.02146-4.22414-.07211-6.3353-.14623-.48272-.01695-.48206,.73308,0,.75h0Z" style="fill:#407BFF; opacity:.3;"></path><path d="M221.58169,353.0945c13.55791-1.18106,26.80725-4.82021,39.06567-10.7316,.43462-.20959,.05469-.85652-.37854-.6476-12.13261,5.85072-25.26823,9.46025-38.68713,10.6292-.47716,.04157-.48155,.79195,0,.75h0Z" style="fill:#407BFF; opacity:.3;"></path><path d="M266.91549,339.2499c1.56061-.06185,3.06097-.71498,4.16126-1.82543,.34009-.34323-.18996-.87384-.53033-.53033-.95983,.96869-2.26691,1.55171-3.63093,1.60577-.48101,.01906-.48346,.76916,0,.75h0Z" style="fill:#407BFF; opacity:.3;"></path></g></g></svg>
