<svg xmlns="http://www.w3.org/2000/svg" viewBox="0 0 500 500"><g id="freepik--background-complete--inject-524"><polygon points="135.81 428.13 30.17 426.98 40.85 417.47 143.9 419.01 135.81 428.13" style="fill:#f5f5f5"></polygon><polygon points="294.43 428.13 188.79 426.98 199.47 417.47 302.51 419.01 294.43 428.13" style="fill:#f5f5f5"></polygon><polygon points="453.04 428.13 347.4 426.98 358.08 417.47 461.13 419.01 453.04 428.13" style="fill:#f5f5f5"></polygon><rect x="56.66" y="368.41" width="16.06" height="0.25" style="fill:#e0e0e0"></rect><rect x="175.34" y="365.7" width="53.53" height="0.25" style="fill:#e0e0e0"></rect><rect x="73.72" y="377.7" width="36.25" height="0.25" style="fill:#e0e0e0"></rect><rect x="383.34" y="365.57" width="43.19" height="0.25" style="fill:#e0e0e0"></rect><rect x="435.44" y="365.57" width="6.33" height="0.25" style="fill:#e0e0e0"></rect><rect x="321.2" y="371.8" width="53.89" height="0.25" style="fill:#e0e0e0"></rect><path d="M443.92,330.2H263.17a5.87,5.87,0,0,1-5.86-5.86V61.06a5.87,5.87,0,0,1,5.86-5.86H443.92a5.87,5.87,0,0,1,5.86,5.86V324.34A5.87,5.87,0,0,1,443.92,330.2ZM263.17,55.45a5.62,5.62,0,0,0-5.61,5.61V324.34a5.62,5.62,0,0,0,5.61,5.61H443.92a5.61,5.61,0,0,0,5.61-5.61V61.06a5.61,5.61,0,0,0-5.61-5.61Z" style="fill:#e0e0e0"></path><path d="M235.49,330.2H54.75a5.87,5.87,0,0,1-5.87-5.86V61.06a5.87,5.87,0,0,1,5.87-5.86H235.49a5.86,5.86,0,0,1,5.86,5.86V324.34A5.86,5.86,0,0,1,235.49,330.2ZM54.75,55.45a5.62,5.62,0,0,0-5.62,5.61V324.34A5.62,5.62,0,0,0,54.75,330H235.49a5.61,5.61,0,0,0,5.61-5.61V61.06a5.61,5.61,0,0,0-5.61-5.61Z" style="fill:#e0e0e0"></path><rect y="351.19" width="500" height="0.25" style="fill:#e0e0e0"></rect><path d="M265.84,85.58A5.63,5.63,0,0,1,271.47,80h0a5.51,5.51,0,0,1,1.61.24,12.58,12.58,0,0,1-.12-1.73,11.92,11.92,0,0,1,11.92-11.92,12.39,12.39,0,0,1,2.19.2A10.42,10.42,0,0,1,306.39,72h.18a9.61,9.61,0,0,1,0,19.21H271.31A5.62,5.62,0,0,1,265.84,85.58Z" style="fill:#f0f0f0"></path><path d="M152,130.23a3.72,3.72,0,0,1,3.72-3.71h0a3.49,3.49,0,0,1,1.06.16,7.28,7.28,0,0,1-.08-1.14,7.86,7.86,0,0,1,7.86-7.86,8.76,8.76,0,0,1,1.44.13,6.87,6.87,0,0,1,12.74,3.48h.12a6.33,6.33,0,0,1,0,12.66H155.62A3.71,3.71,0,0,1,152,130.23Z" style="fill:#e0e0e0"></path><path d="M403.06,44.78a3.13,3.13,0,0,1,3.14-3.14h0a3,3,0,0,1,.89.13,7.73,7.73,0,0,1-.06-1,6.64,6.64,0,0,1,6.65-6.65,7.19,7.19,0,0,1,1.22.11,5.81,5.81,0,0,1,10.77,2.94h.1a5.36,5.36,0,0,1,0,10.71H406.11A3.12,3.12,0,0,1,403.06,44.78Z" style="fill:#f0f0f0"></path><path d="M62.49,58.27A5.47,5.47,0,0,1,68,52.8h0a4.94,4.94,0,0,1,1.57.23,11.87,11.87,0,0,1-.12-1.68A11.59,11.59,0,0,1,81,39.76a11.72,11.72,0,0,1,2.13.19,10.13,10.13,0,0,1,18.78,5.13h.18a9.34,9.34,0,0,1,0,18.67H67.81A5.46,5.46,0,0,1,62.49,58.27Z" style="fill:#f0f0f0"></path><path d="M405.62,135.28a3.71,3.71,0,0,1,3.71-3.71h0a3.45,3.45,0,0,1,1.06.16,8.74,8.74,0,0,1-.08-1.14,7.86,7.86,0,0,1,7.86-7.86,7.71,7.71,0,0,1,1.44.13,6.87,6.87,0,0,1,12.74,3.48h.12a6.33,6.33,0,0,1,0,12.66H409.22A3.69,3.69,0,0,1,405.62,135.28Z" style="fill:#e0e0e0"></path><g id="freepik--freepik--background-complete--inject-481--inject-524"><polygon points="432.76 233.21 432.76 188.66 405.18 188.66 405.18 198.82 386.79 198.82 386.79 87.53 351.44 87.53 351.44 131.33 340.83 131.33 340.83 109.46 313.24 109.46 313.24 216.13 274.34 216.13 274.34 178.44 249.96 178.44 249.96 96.73 219.85 96.73 219.85 151.21 191.56 151.21 191.56 268.57 169.65 268.57 169.65 211.42 147.01 211.42 147.01 174.64 122.97 174.64 122.97 146.41 96.14 160.56 96.14 236.1 67.85 236.1 67.85 220.52 30.06 220.52 30.06 330 469.94 330.21 469.94 233.21 432.76 233.21" style="fill:#ebebeb"></polygon><path d="M148.86,330.06V167.17H118.8v163C128.31,330,148.86,330.06,148.86,330.06Z" style="fill:#e6e6e6"></path><path d="M121.48,330.21V240.62H59.63V330Z" style="fill:#fafafa"></path><path d="M196.64,330.08V198.56h-35v131.5Z" style="fill:#e0e0e0"></path><rect x="164.26" y="203.72" width="4.25" height="8.76" style="fill:#fafafa"></rect><rect x="172.75" y="203.72" width="4.25" height="8.76" style="fill:#fafafa"></rect><rect x="181.25" y="203.72" width="4.25" height="8.76" style="fill:#fafafa"></rect><rect x="189.74" y="203.72" width="4.25" height="8.76" style="fill:#fafafa"></rect><rect x="164.26" y="218.41" width="4.25" height="8.76" style="fill:#fafafa"></rect><rect x="172.75" y="218.41" width="4.25" height="8.76" style="fill:#fafafa"></rect><rect x="181.25" y="218.41" width="4.25" height="8.76" style="fill:#fafafa"></rect><rect x="189.74" y="218.41" width="4.25" height="8.76" style="fill:#fafafa"></rect><rect x="164.26" y="233.1" width="4.25" height="8.76" style="fill:#fafafa"></rect><rect x="172.75" y="233.1" width="4.25" height="8.76" style="fill:#fafafa"></rect><rect x="181.25" y="233.1" width="4.25" height="8.76" style="fill:#fafafa"></rect><rect x="189.74" y="233.1" width="4.25" height="8.76" style="fill:#fafafa"></rect><rect x="164.26" y="247.79" width="4.25" height="8.76" style="fill:#fafafa"></rect><rect x="172.75" y="247.79" width="4.25" height="8.76" style="fill:#fafafa"></rect><rect x="181.25" y="247.79" width="4.25" height="8.76" style="fill:#fafafa"></rect><rect x="189.74" y="247.79" width="4.25" height="8.76" style="fill:#fafafa"></rect><rect x="164.26" y="262.48" width="4.25" height="8.76" style="fill:#fafafa"></rect><rect x="172.75" y="262.48" width="4.25" height="8.76" style="fill:#fafafa"></rect><rect x="181.25" y="262.48" width="4.25" height="8.76" style="fill:#fafafa"></rect><rect x="189.74" y="262.48" width="4.25" height="8.76" style="fill:#fafafa"></rect><rect x="164.26" y="277.16" width="4.25" height="8.76" style="fill:#fafafa"></rect><rect x="172.75" y="277.16" width="4.25" height="8.76" style="fill:#fafafa"></rect><rect x="181.25" y="277.16" width="4.25" height="8.76" style="fill:#fafafa"></rect><rect x="189.74" y="277.16" width="4.25" height="8.76" style="fill:#fafafa"></rect><rect x="164.26" y="291.85" width="4.25" height="8.76" style="fill:#fafafa"></rect><rect x="172.75" y="291.85" width="4.25" height="8.76" style="fill:#fafafa"></rect><rect x="181.25" y="291.85" width="4.25" height="8.76" style="fill:#fafafa"></rect><rect x="189.74" y="291.85" width="4.25" height="8.76" style="fill:#fafafa"></rect><rect x="164.26" y="306.55" width="4.25" height="8.76" style="fill:#fafafa"></rect><rect x="172.75" y="306.55" width="4.25" height="8.76" style="fill:#fafafa"></rect><rect x="181.25" y="306.55" width="4.25" height="8.76" style="fill:#fafafa"></rect><rect x="189.74" y="306.55" width="4.25" height="8.76" style="fill:#fafafa"></rect><path d="M318.41,330.14V179.83H245.75V330.19S317.85,330.21,318.41,330.14Z" style="fill:#f5f5f5"></path><rect x="251.21" y="185.82" width="8.81" height="10.09" style="fill:#e6e6e6"></rect><rect x="268.83" y="185.82" width="8.81" height="10.09" style="fill:#e6e6e6"></rect><rect x="286.45" y="185.82" width="8.81" height="10.09" style="fill:#e6e6e6"></rect><rect x="304.08" y="185.82" width="8.81" height="10.09" style="fill:#e6e6e6"></rect><rect x="251.21" y="202.76" width="8.81" height="10.09" style="fill:#e6e6e6"></rect><rect x="268.83" y="202.76" width="8.81" height="10.09" style="fill:#e6e6e6"></rect><rect x="286.45" y="202.76" width="8.81" height="10.09" style="fill:#e6e6e6"></rect><rect x="304.08" y="202.76" width="8.81" height="10.09" style="fill:#e6e6e6"></rect><rect x="251.21" y="219.68" width="8.81" height="10.09" style="fill:#e6e6e6"></rect><rect x="268.83" y="219.68" width="8.81" height="10.09" style="fill:#e6e6e6"></rect><rect x="286.45" y="219.68" width="8.81" height="10.09" style="fill:#e6e6e6"></rect><rect x="304.08" y="219.68" width="8.81" height="10.09" style="fill:#e6e6e6"></rect><rect x="251.21" y="236.6" width="8.81" height="10.09" style="fill:#e6e6e6"></rect><rect x="268.83" y="236.6" width="8.81" height="10.09" style="fill:#e6e6e6"></rect><rect x="286.45" y="236.6" width="8.81" height="10.09" style="fill:#e6e6e6"></rect><rect x="304.08" y="236.6" width="8.81" height="10.09" style="fill:#e6e6e6"></rect><rect x="251.21" y="253.53" width="8.81" height="10.09" style="fill:#e6e6e6"></rect><rect x="268.83" y="253.53" width="8.81" height="10.09" style="fill:#e6e6e6"></rect><rect x="286.45" y="253.53" width="8.81" height="10.09" style="fill:#e6e6e6"></rect><rect x="304.08" y="253.53" width="8.81" height="10.09" style="fill:#e6e6e6"></rect><rect x="251.21" y="270.46" width="8.81" height="10.09" style="fill:#e6e6e6"></rect><rect x="268.83" y="270.46" width="8.81" height="10.09" style="fill:#e6e6e6"></rect><rect x="286.45" y="270.46" width="8.81" height="10.09" style="fill:#e6e6e6"></rect><rect x="304.08" y="270.46" width="8.81" height="10.09" style="fill:#e6e6e6"></rect><rect x="251.21" y="287.39" width="8.81" height="10.09" style="fill:#e6e6e6"></rect><rect x="268.83" y="287.39" width="8.81" height="10.09" style="fill:#e6e6e6"></rect><rect x="286.45" y="287.39" width="8.81" height="10.09" style="fill:#e6e6e6"></rect><rect x="304.08" y="287.39" width="8.81" height="10.09" style="fill:#e6e6e6"></rect><rect x="251.21" y="304.31" width="8.81" height="10.09" style="fill:#e6e6e6"></rect><rect x="268.83" y="304.31" width="8.81" height="10.09" style="fill:#e6e6e6"></rect><rect x="286.45" y="304.31" width="8.81" height="10.09" style="fill:#e6e6e6"></rect><rect x="304.08" y="304.31" width="8.81" height="10.09" style="fill:#e6e6e6"></rect><rect x="124.34" y="178.24" width="8.12" height="9.3" style="fill:#fafafa"></rect><rect x="124.34" y="193.83" width="8.12" height="9.3" style="fill:#fafafa"></rect><rect x="124.34" y="209.44" width="8.12" height="9.3" style="fill:#fafafa"></rect><rect x="124.34" y="225.03" width="8.12" height="9.3" style="fill:#fafafa"></rect><rect x="124.34" y="240.63" width="8.12" height="9.3" style="fill:#fafafa"></rect><rect x="124.34" y="256.23" width="8.12" height="9.3" style="fill:#fafafa"></rect><rect x="124.34" y="271.82" width="8.12" height="9.3" style="fill:#fafafa"></rect><rect x="124.34" y="287.43" width="8.12" height="9.3" style="fill:#fafafa"></rect><rect x="135.2" y="178.24" width="8.12" height="9.3" style="fill:#fafafa"></rect><rect x="135.2" y="193.83" width="8.12" height="9.3" style="fill:#fafafa"></rect><rect x="135.2" y="209.44" width="8.12" height="9.3" style="fill:#fafafa"></rect><rect x="135.2" y="225.03" width="8.12" height="9.3" style="fill:#fafafa"></rect><rect x="135.2" y="240.63" width="8.12" height="9.3" style="fill:#fafafa"></rect><rect x="135.2" y="256.23" width="8.12" height="9.3" style="fill:#fafafa"></rect><rect x="135.2" y="271.82" width="8.12" height="9.3" style="fill:#fafafa"></rect><rect x="135.2" y="287.43" width="8.12" height="9.3" style="fill:#fafafa"></rect><rect x="226.74" y="107.54" width="8.81" height="10.09" style="fill:#fafafa"></rect><rect x="226.74" y="124.46" width="8.81" height="10.09" style="fill:#fafafa"></rect><rect x="226.74" y="140.23" width="8.81" height="10.09" style="fill:#fafafa"></rect><rect x="226.74" y="157.15" width="8.81" height="10.09" style="fill:#fafafa"></rect><rect x="226.74" y="174.07" width="8.81" height="10.09" style="fill:#fafafa"></rect><rect x="226.74" y="191.01" width="8.81" height="10.09" style="fill:#fafafa"></rect><rect x="226.74" y="207.93" width="8.81" height="10.09" style="fill:#fafafa"></rect><rect x="226.74" y="224.86" width="8.81" height="10.09" style="fill:#fafafa"></rect><rect x="359.05" y="92.86" width="8.81" height="10.09" style="fill:#fafafa"></rect><rect x="359.05" y="109.78" width="8.81" height="10.09" style="fill:#fafafa"></rect><rect x="359.05" y="126.72" width="8.81" height="10.09" style="fill:#fafafa"></rect><rect x="359.05" y="143.64" width="8.81" height="10.09" style="fill:#fafafa"></rect><rect x="359.05" y="160.57" width="8.81" height="10.09" style="fill:#fafafa"></rect><rect x="359.05" y="177.49" width="8.81" height="10.09" style="fill:#fafafa"></rect><rect x="359.05" y="194.43" width="8.81" height="10.09" style="fill:#fafafa"></rect><rect x="359.05" y="211.35" width="8.81" height="10.09" style="fill:#fafafa"></rect><rect x="377.91" y="170.62" width="53.05" height="159.59" style="fill:#e6e6e6"></rect><rect x="385.76" y="178.49" width="15.55" height="10.09" style="fill:#fafafa"></rect><rect x="385.76" y="195.42" width="15.55" height="10.09" style="fill:#fafafa"></rect><rect x="385.76" y="212.35" width="15.55" height="10.09" style="fill:#fafafa"></rect><rect x="385.76" y="229.28" width="15.55" height="10.09" style="fill:#fafafa"></rect><rect x="385.76" y="246.2" width="15.55" height="10.09" style="fill:#fafafa"></rect><rect x="385.76" y="263.12" width="15.55" height="10.09" style="fill:#fafafa"></rect><rect x="385.76" y="280.06" width="15.55" height="10.09" style="fill:#fafafa"></rect><rect x="385.76" y="296.98" width="15.55" height="10.09" style="fill:#fafafa"></rect><rect x="406.56" y="178.49" width="15.55" height="10.09" style="fill:#fafafa"></rect><rect x="406.56" y="195.42" width="15.55" height="10.09" style="fill:#fafafa"></rect><rect x="406.56" y="212.35" width="15.55" height="10.09" style="fill:#fafafa"></rect><rect x="406.56" y="229.28" width="15.55" height="10.09" style="fill:#fafafa"></rect><rect x="406.56" y="246.2" width="15.55" height="10.09" style="fill:#fafafa"></rect><rect x="406.56" y="263.12" width="15.55" height="10.09" style="fill:#fafafa"></rect><rect x="406.56" y="280.06" width="15.55" height="10.09" style="fill:#fafafa"></rect><rect x="406.56" y="296.98" width="15.55" height="10.09" style="fill:#fafafa"></rect><path d="M349,330.15V219.68H325.85V330.14Z" style="fill:#e0e0e0"></path><rect x="327.6" y="224.15" width="2.81" height="7.52" style="fill:#fafafa"></rect><rect x="333.22" y="224.15" width="2.81" height="7.52" style="fill:#fafafa"></rect><rect x="338.82" y="224.15" width="2.81" height="7.52" style="fill:#fafafa"></rect><rect x="344.43" y="224.15" width="2.81" height="7.52" style="fill:#fafafa"></rect><rect x="327.6" y="236.77" width="2.81" height="7.52" style="fill:#fafafa"></rect><rect x="333.22" y="236.77" width="2.81" height="7.52" style="fill:#fafafa"></rect><rect x="338.82" y="236.77" width="2.81" height="7.52" style="fill:#fafafa"></rect><rect x="344.43" y="236.77" width="2.81" height="7.52" style="fill:#fafafa"></rect><rect x="327.6" y="249.39" width="2.81" height="7.52" style="fill:#fafafa"></rect><rect x="333.22" y="249.39" width="2.81" height="7.52" style="fill:#fafafa"></rect><rect x="338.82" y="249.39" width="2.81" height="7.52" style="fill:#fafafa"></rect><rect x="344.43" y="249.39" width="2.81" height="7.52" style="fill:#fafafa"></rect><rect x="327.6" y="262.01" width="2.81" height="7.52" style="fill:#fafafa"></rect><rect x="333.22" y="262.01" width="2.81" height="7.52" style="fill:#fafafa"></rect><rect x="338.82" y="262.01" width="2.81" height="7.52" style="fill:#fafafa"></rect><rect x="344.43" y="262.01" width="2.81" height="7.52" style="fill:#fafafa"></rect><rect x="327.6" y="274.64" width="2.81" height="7.52" style="fill:#fafafa"></rect><rect x="333.22" y="274.64" width="2.81" height="7.52" style="fill:#fafafa"></rect><rect x="338.82" y="274.64" width="2.81" height="7.52" style="fill:#fafafa"></rect><rect x="344.43" y="274.64" width="2.81" height="7.52" style="fill:#fafafa"></rect><rect x="327.6" y="287.26" width="2.81" height="7.52" style="fill:#fafafa"></rect><rect x="333.22" y="287.26" width="2.81" height="7.52" style="fill:#fafafa"></rect><rect x="338.82" y="287.26" width="2.81" height="7.52" style="fill:#fafafa"></rect><rect x="344.43" y="287.26" width="2.81" height="7.52" style="fill:#fafafa"></rect><rect x="327.6" y="299.88" width="2.81" height="7.52" style="fill:#fafafa"></rect><rect x="333.22" y="299.88" width="2.81" height="7.52" style="fill:#fafafa"></rect><rect x="338.82" y="299.88" width="2.81" height="7.52" style="fill:#fafafa"></rect><rect x="344.43" y="299.88" width="2.81" height="7.52" style="fill:#fafafa"></rect><rect x="327.6" y="312.5" width="2.81" height="7.52" style="fill:#fafafa"></rect><rect x="333.22" y="312.5" width="2.81" height="7.52" style="fill:#fafafa"></rect><rect x="338.82" y="312.5" width="2.81" height="7.52" style="fill:#fafafa"></rect><rect x="344.43" y="312.5" width="2.81" height="7.52" style="fill:#fafafa"></rect><rect x="64.31" y="244.37" width="7.5" height="6.32" style="fill:#e6e6e6"></rect><rect x="79.31" y="244.37" width="7.5" height="6.32" style="fill:#e6e6e6"></rect><rect x="94.3" y="244.37" width="7.5" height="6.32" style="fill:#e6e6e6"></rect><rect x="109.3" y="244.37" width="7.5" height="6.32" style="fill:#e6e6e6"></rect><rect x="64.31" y="254.95" width="7.5" height="6.32" style="fill:#e6e6e6"></rect><rect x="79.31" y="254.95" width="7.5" height="6.32" style="fill:#e6e6e6"></rect><rect x="94.3" y="254.95" width="7.5" height="6.32" style="fill:#e6e6e6"></rect><rect x="109.3" y="254.95" width="7.5" height="6.32" style="fill:#e6e6e6"></rect><rect x="64.31" y="265.54" width="7.5" height="6.32" style="fill:#e6e6e6"></rect><rect x="79.31" y="265.54" width="7.5" height="6.32" style="fill:#e6e6e6"></rect><rect x="94.3" y="265.54" width="7.5" height="6.32" style="fill:#e6e6e6"></rect><rect x="109.3" y="265.54" width="7.5" height="6.32" style="fill:#e6e6e6"></rect><rect x="64.31" y="276.12" width="7.5" height="6.32" style="fill:#e6e6e6"></rect><rect x="79.31" y="276.12" width="7.5" height="6.32" style="fill:#e6e6e6"></rect><rect x="94.3" y="276.12" width="7.5" height="6.32" style="fill:#e6e6e6"></rect><rect x="109.3" y="276.12" width="7.5" height="6.32" style="fill:#e6e6e6"></rect><rect x="64.31" y="286.7" width="7.5" height="6.32" style="fill:#e6e6e6"></rect><rect x="79.31" y="286.7" width="7.5" height="6.32" style="fill:#e6e6e6"></rect><rect x="94.3" y="286.7" width="7.5" height="6.32" style="fill:#e6e6e6"></rect><rect x="109.3" y="286.7" width="7.5" height="6.32" style="fill:#e6e6e6"></rect><rect x="64.31" y="297.28" width="7.5" height="6.32" style="fill:#e6e6e6"></rect><rect x="79.31" y="297.28" width="7.5" height="6.32" style="fill:#e6e6e6"></rect><rect x="94.3" y="297.28" width="7.5" height="6.32" style="fill:#e6e6e6"></rect><rect x="109.3" y="297.28" width="7.5" height="6.32" style="fill:#e6e6e6"></rect><rect x="64.31" y="307.87" width="7.5" height="6.32" style="fill:#e6e6e6"></rect><rect x="79.31" y="307.87" width="7.5" height="6.32" style="fill:#e6e6e6"></rect><rect x="94.3" y="307.87" width="7.5" height="6.32" style="fill:#e6e6e6"></rect><rect x="109.3" y="307.87" width="7.5" height="6.32" style="fill:#e6e6e6"></rect></g></g><g id="freepik--Shadow--inject-524"><path d="M458.88,467.44c0,3.39-93.52,6.13-208.88,6.13s-208.88-2.74-208.88-6.13,93.52-6.13,208.88-6.13S458.88,464.06,458.88,467.44Z" style="fill:#f5f5f5"></path></g><g id="freepik--Streetlight--inject-524"><g id="freepik--Lamppost--inject-524"><g id="freepik--freepik--Streetlight--inject-81--inject-524"><path d="M97.65,351.19h-7V101.39a22.75,22.75,0,0,1,22.73-22.73h6.18v7h-6.18a15.75,15.75,0,0,0-15.73,15.73Z" style="fill:#407BFF"></path><g style="opacity:0.8"></g><path d="M164.37,87.23H114l1.15-7.6a5.88,5.88,0,0,1,4.94-4.93c3.32-.49,7.67-1.08,9.71-1.12,5.95-.13,20.66,1.41,27.84,2.22a5.83,5.83,0,0,1,5,4.43Z" style="fill:#407BFF"></path><path d="M159,92.55H119.3A5.32,5.32,0,0,1,114,87.23h50.39A5.33,5.33,0,0,1,159,92.55Z" style="fill:#407BFF"></path><line x1="131.04" y1="103.61" x2="121.59" y2="125.9" style="fill:#fff"></line><path d="M121.59,126.15a.15.15,0,0,1-.09,0,.25.25,0,0,1-.14-.33l9.45-22.29a.25.25,0,0,1,.33-.13.24.24,0,0,1,.13.33L121.82,126A.25.25,0,0,1,121.59,126.15Z" style="fill:#407BFF"></path><path d="M141.09,140.31a.25.25,0,0,1-.25-.25c0-6.44-.2-12.43-.39-18.22s-.4-11.79-.4-18.23a.25.25,0,0,1,.25-.25.25.25,0,0,1,.25.25c0,6.43.2,12.42.4,18.21s.39,11.8.39,18.24A.25.25,0,0,1,141.09,140.31Z" style="fill:#407BFF"></path><path d="M162,121a.26.26,0,0,1-.2-.1L148,102.77a.24.24,0,0,1,0-.35.25.25,0,0,1,.35,0l13.79,18.13a.24.24,0,0,1,0,.35A.3.3,0,0,1,162,121Z" style="fill:#407BFF"></path></g></g></g><g id="freepik--Fence--inject-524"><rect x="41.24" y="303.93" width="8.83" height="47.3" style="fill:#263238"></rect><rect x="41.24" y="303.93" width="8.83" height="47.3" style="fill:#fff;opacity:0.4"></rect><polygon points="41.24 308.44 41.24 310.78 50.07 310.74 50.07 308.44 41.24 308.44" style="opacity:0.30000000000000004"></polygon><rect x="99.55" y="303.93" width="8.83" height="47.3" style="fill:#263238"></rect><rect x="99.55" y="303.93" width="8.83" height="47.3" style="fill:#fff;opacity:0.4"></rect><polygon points="99.55 308.44 99.55 310.78 108.38 310.74 108.38 308.44 99.55 308.44" style="opacity:0.30000000000000004"></polygon><rect x="157.86" y="303.93" width="8.83" height="47.3" style="fill:#263238"></rect><rect x="157.86" y="303.93" width="8.83" height="47.3" style="fill:#fff;opacity:0.4"></rect><polygon points="157.86 308.44 157.86 310.78 166.69 310.74 166.69 308.44 157.86 308.44" style="opacity:0.30000000000000004"></polygon><rect x="216.17" y="303.93" width="8.83" height="47.3" style="fill:#263238"></rect><rect x="216.17" y="303.93" width="8.83" height="47.3" style="fill:#fff;opacity:0.4"></rect><polygon points="216.17 308.44 216.17 310.78 225 310.74 225 308.44 216.17 308.44" style="opacity:0.30000000000000004"></polygon><rect x="274.48" y="303.93" width="8.83" height="47.3" style="fill:#263238"></rect><rect x="274.48" y="303.93" width="8.83" height="47.3" style="fill:#fff;opacity:0.4"></rect><polygon points="274.49 308.44 274.49 310.78 283.31 310.74 283.31 308.44 274.49 308.44" style="opacity:0.30000000000000004"></polygon><rect x="332.8" y="303.93" width="8.83" height="47.3" style="fill:#263238"></rect><rect x="332.8" y="303.93" width="8.83" height="47.3" style="fill:#fff;opacity:0.4"></rect><polygon points="332.8 308.44 332.8 310.78 341.63 310.74 341.63 308.44 332.8 308.44" style="opacity:0.30000000000000004"></polygon><rect x="391.11" y="303.93" width="8.83" height="47.3" style="fill:#263238"></rect><rect x="391.11" y="303.93" width="8.83" height="47.3" style="fill:#fff;opacity:0.4"></rect><polygon points="391.11 308.44 391.11 310.78 399.94 310.74 399.94 308.44 391.11 308.44" style="opacity:0.30000000000000004"></polygon><rect x="449.42" y="303.93" width="8.83" height="47.3" style="fill:#263238"></rect><rect x="449.42" y="303.93" width="8.83" height="47.3" style="fill:#fff;opacity:0.4"></rect><polygon points="449.42 308.44 449.42 310.78 458.25 310.74 458.25 308.44 449.42 308.44" style="opacity:0.30000000000000004"></polygon><rect x="26.25" y="299.42" width="447.02" height="9.02" style="fill:#263238"></rect><rect x="26.25" y="299.42" width="447.02" height="9.02" style="fill:#fff;opacity:0.4"></rect></g><g id="freepik--Plants--inject-524"><path d="M442,341.39c-.74-2.19-6.79,1.53-6.79,1.53s9.7-10,6.31-11.83-9,8.15-9,8.15,9.63-20.66,4.35-21.43-8.38,20.58-8.38,20.58,1.07-15.79-2.46-14.46-2,15.85-2,15.85-3.46-6.24-4.42-3.62,7.1,15.11,7.1,15.11C432.72,348.88,442.69,343.58,442,341.39Z" style="fill:#407BFF"></path><path d="M426.69,351.65h-.07a.25.25,0,0,1-.17-.31c0-.1,2.81-9.62,4.87-15.94a.25.25,0,0,1,.31-.16.24.24,0,0,1,.16.32c-2.05,6.31-4.83,15.82-4.86,15.92A.25.25,0,0,1,426.69,351.65Z" style="opacity:0.30000000000000004"></path><path d="M428.53,345.35a.25.25,0,0,1-.24-.21l-1.18-6.22a.25.25,0,0,1,.2-.29.25.25,0,0,1,.29.2l1.18,6.22a.26.26,0,0,1-.2.29Z" style="opacity:0.30000000000000004"></path><path d="M52.72,333.92c-1.86-1.38-4.69,5.14-4.69,5.14s2.24-13.73-1.6-13.31-2.67,11.8-2.67,11.8-3.94-22.44-8.71-20.06S40,339.17,40,339.17s-8.17-13.56-10.3-10.45,7.45,14.13,7.45,14.13-6.41-3.13-5.7-.44,14.48,8.32,14.48,8.32C49.44,345.34,54.58,335.29,52.72,333.92Z" style="fill:#407BFF"></path><path d="M45.94,351.11a.23.23,0,0,1-.23-.17c0-.09-3.21-9.49-5.14-15.85a.25.25,0,0,1,.48-.15c1.93,6.36,5.1,15.75,5.13,15.84a.25.25,0,0,1-.16.32Z" style="opacity:0.30000000000000004"></path><path d="M43.84,344.89a.23.23,0,0,1-.17-.07l-4.53-4.42a.25.25,0,0,1,0-.36.25.25,0,0,1,.35,0L44,344.46a.24.24,0,0,1,0,.35A.25.25,0,0,1,43.84,344.89Z" style="opacity:0.30000000000000004"></path></g><g id="freepik--Lines--inject-524"><path d="M417.55,274.48H361.41a.25.25,0,0,1-.25-.25.25.25,0,0,1,.25-.25h56.14a.25.25,0,0,1,.25.25A.25.25,0,0,1,417.55,274.48Z" style="fill:#263238"></path><path d="M389.62,281.18H355.54a.25.25,0,0,1,0-.5h34.08a.25.25,0,0,1,0,.5Z" style="fill:#263238"></path><path d="M186.35,241.86H130.21a.25.25,0,0,1,0-.5h56.14a.25.25,0,1,1,0,.5Z" style="fill:#263238"></path><path d="M158.42,248.73H124.34a.25.25,0,0,1,0-.5h34.08a.25.25,0,0,1,0,.5Z" style="fill:#263238"></path></g><g id="freepik--Character--inject-524"><path d="M231.11,209.16s-4.21-4.54-7.35-15.33c0,0-.62.08-.63.07-.44-1.5-.8-2.92-1.08-4.17a.12.12,0,0,0,0,0l-7.57,15.6c2.14,2.73,4.66,9,5.55,11.79,0,0,1.15,5.31,7,1.86C231.28,216.42,231.11,209.16,231.11,209.16Z" style="fill:#cd7a63"></path><path d="M216.84,209.51l6.15-6.16c.76,2.64.46,6.54-4.39,9.92A25.84,25.84,0,0,0,216.84,209.51Z" style="opacity:0.2"></path><path d="M192.19,189.22c.36,3.81,3.86,10.48,7.62,6.25S191.57,182.67,192.19,189.22Z" style="fill:#263238"></path><path d="M218.29,183.57c4.17,8.43,6.69,13.1,5,19.61-2.63,9.78-14.55,11.78-21.18,4.75-6-6.34-11.78-19.06-5.6-26.81A13,13,0,0,1,218.29,183.57Z" style="fill:#cd7a63"></path><path d="M214.11,173.22c-3.69-3.85-15.37,2.52-17.2,6.61-.27.61,8.31.14,7.82.22l3.76-.71c.42-.38,1.69-.36,3,.86,0,0,3.74,9.31,9.36,10.89,2.6-3.66,2.74-5.66,1.95-9.12C221.66,176.81,217.37,174.65,214.11,173.22Z" style="fill:#263238"></path><path d="M208,192.6c.48.84.42,1.76-.13,2.07s-1.38-.12-1.86-.95-.42-1.76.13-2.07S207.5,191.77,208,192.6Z" style="fill:#263238"></path><path d="M199.9,197.45c.48.84.42,1.76-.13,2.07s-1.38-.12-1.86-1-.42-1.76.13-2.07S199.42,196.62,199.9,197.45Z" style="fill:#263238"></path><path d="M202.29,195.47s-.26,5.65-.14,7.82c1.76.39,3.48-1.24,3.48-1.24Z" style="fill:#ad6359"></path><path d="M207.76,187.51a.46.46,0,0,1-.42.17,3.62,3.62,0,0,0-3.12.95.45.45,0,0,1-.68-.59,4.52,4.52,0,0,1,3.93-1.25.44.44,0,0,1,.38.51A.4.4,0,0,1,207.76,187.51Z" style="fill:#263238"></path><path d="M213.45,197.24,208.11,204a11.47,11.47,0,0,0,2.78,1.22,3.52,3.52,0,0,0,2.76-.51,3.65,3.65,0,0,0,1.72-3.63A8.35,8.35,0,0,0,213.45,197.24Z"></path><path d="M208.54,203.47s1,.55,1.53.4,4.27-5.4,4.27-5.4l-.89-1.23Z" style="fill:#fff"></path><path d="M212.7,205.16a3.56,3.56,0,0,1,.6-2.91,3.73,3.73,0,0,1,2-1.66,3.76,3.76,0,0,1-.5,3.06A3.49,3.49,0,0,1,212.7,205.16Z" style="fill:#de5753"></path><path d="M194.27,196a.57.57,0,0,1-.26,0,.45.45,0,0,1-.31-.56,4.45,4.45,0,0,1,2.73-3,.45.45,0,0,1,.56.3.44.44,0,0,1-.29.56,3.43,3.43,0,0,0-2.13,2.43A.47.47,0,0,1,194.27,196Z" style="fill:#263238"></path><path d="M186.4,198.29a12.65,12.65,0,0,0,6.11-.13c1.08-.38,5.09-4,5.09-4s11.21-10.81,13.18-10.63,6.21,7,6.21,7l.37-.12,6.95-1.27s-.28-3.63-.61-6.24-1.22-8.64-1.22-8.64l-16.62,6.49Z" style="fill:#263238"></path><path d="M186.4,198.29a.87.87,0,0,0-.23-1c-2.72-2.67-.86-17.45,10.19-24.65,13.21-8.61,23.11-1.45,25.1,0l1,1.47s-13.21,5.57-14.64,6.57c-4.3,3-13.91,13-17.54,15.75C187.27,198.83,186.4,198.29,186.4,198.29Z" style="fill:#407BFF"></path><path d="M225.4,188.51a8.82,8.82,0,0,1-1.26,6.69c-1.73,2.6-4.66,1.54-5.9-1.16-1.12-2.42-1.56-6.7,1-8.36S224.77,185.69,225.4,188.51Z" style="fill:#cd7a63"></path><path d="M219.93,192.15a.25.25,0,0,1-.23-.15,4.92,4.92,0,0,1-.37-2.51,3.17,3.17,0,0,1,.88-2,2,2,0,0,1,2.15-.42.26.26,0,0,1,.11.34.25.25,0,0,1-.33.11,1.49,1.49,0,0,0-1.59.33,2.76,2.76,0,0,0-.73,1.67,4.36,4.36,0,0,0,.34,2.25.26.26,0,0,1-.13.33Z" style="opacity:0.2"></path><path d="M216.31,172.41c-3-.3-6.17,1-9.06,2.46-6.54,3.25-13,7.54-16.82,13.59-.3.47-2.84,4.2-2.43,4.68s2.8-2.79,3.12-3.16a65.27,65.27,0,0,1,17.63-14.06c1.22-.67,2.47-1.3,3.73-1.89C213.32,173.64,215.44,172.32,216.31,172.41Z" style="fill:#263238"></path><path d="M193.36,181a33.17,33.17,0,0,0,2.29-2.46c.07-.09.14-.2.1-.3s-.17-.16-.29-.18a3,3,0,0,0-2,.6,6.91,6.91,0,0,0-2.86,3.73,4,4,0,0,0-.24,1.7c.29.86,1-.17,1.29-.58C192.26,182.72,192.75,181.66,193.36,181Z" style="fill:#263238"></path><path d="M205.78,171.44a4.07,4.07,0,0,0-1.5.24,13.27,13.27,0,0,0-2.81,1.09,14.31,14.31,0,0,0-3.2,2c-.27.23-.47.92-.19,1.15a.65.65,0,0,0,.62,0,54.8,54.8,0,0,0,7.18-3.41c.28-.15.6-.42.5-.72S206,171.46,205.78,171.44Z" style="fill:#263238"></path><path d="M215.34,188s6.12,14.82,5.65,16.12c-2,5.4-5.28,7.29-5.28,7.29s.57.32,2.4-1.13,3.89-3.18,4.38-5.06-2.72-9.88-3.18-12.09a62.47,62.47,0,0,0-1.88-6.21Z" style="fill:#263238"></path><polygon points="221.7 201.94 224.67 196.71 224.14 195.2 221.29 199.87 221.7 201.94" style="fill:#263238"></polygon><path d="M183.42,190.54h0a.26.26,0,0,1-.21-.29,26.8,26.8,0,0,1,6.71-14.44.25.25,0,0,1,.35,0,.26.26,0,0,1,0,.36,26.29,26.29,0,0,0-6.59,14.17A.24.24,0,0,1,183.42,190.54Z" style="fill:#407BFF"></path><polygon points="285.22 444.32 281.36 447.6 274.02 444.6 270.25 428.8 284.32 425.75 285.22 444.32" style="fill:#cd7a63"></polygon><path d="M272.3,442.84l3.67-.16a2.62,2.62,0,0,1,2.14,1c2.24,2.8,3.79,1.64,6-1.18,1.46-.24,1.92,1.43,2.06,1.87l3.19,9.87a1.56,1.56,0,0,1-1,2,1.8,1.8,0,0,1-.45.09l-12.12.53-17,.75c-4.62.21-5.79-4.41-3.9-4.93,8.48-2.27,14.44-5.06,17-7.67C272.34,444.52,271.82,444.21,272.3,442.84Z" style="fill:#407BFF"></path><path d="M273.08,447.91a.23.23,0,0,1-.2-.11,4.21,4.21,0,0,0-3-1.77.25.25,0,0,1-.23-.27.24.24,0,0,1,.28-.22,4.7,4.7,0,0,1,3.39,2,.26.26,0,0,1-.07.35A.24.24,0,0,1,273.08,447.91Z" style="fill:#263238"></path><path d="M270.87,449.72a.23.23,0,0,1-.2-.1,4.18,4.18,0,0,0-3-1.77.25.25,0,0,1-.22-.27.23.23,0,0,1,.27-.22,4.68,4.68,0,0,1,3.39,2,.25.25,0,0,1-.06.35A.28.28,0,0,1,270.87,449.72Z" style="fill:#263238"></path><path d="M268.1,451.29a.25.25,0,0,1-.21-.1,4.17,4.17,0,0,0-3-1.77.25.25,0,0,1-.23-.27.23.23,0,0,1,.27-.22,4.68,4.68,0,0,1,3.39,2,.25.25,0,0,1-.06.35A.23.23,0,0,1,268.1,451.29Z" style="fill:#263238"></path><path d="M275,282.14c-1.07,1.28-8.58,73.8-8.58,73.8s-.53,80.44.85,79.5l20.4-.95,6.2-79.23,17.15-71.38s13-19.12,4.19-30.9l-43,10Z" style="fill:#263238"></path><path d="M275,282.14c-1.07,1.28-8.58,73.8-8.58,73.8s-.53,80.44.85,79.5l20.4-.95,6.2-79.23,17.15-71.38s13-19.12,4.19-30.9l-43,10Z" style="opacity:0.30000000000000004"></path><path d="M272.44,301c.8-.93,39.43-15.31,38.05-14.8S308,296.45,308,296.45l-36.24,9.33Z"></path><g id="freepik--freepik--Character--inject-280--inject-524"><path d="M351.78,340.42a59.26,59.26,0,1,1-59.26,59.26,59.32,59.32,0,0,1,59.26-59.26m0-8.5h0A67.77,67.77,0,0,0,284,399.68h0a67.77,67.77,0,1,0,67.76-67.77Z" style="fill:#263238"></path><path d="M351.78,343a56.78,56.78,0,0,1,56.71,56.73h0A56.73,56.73,0,1,1,351.78,343m-64.86,56.73a64.86,64.86,0,1,0,64.86-64.86A64.86,64.86,0,0,0,286.92,399.68Z" style="fill:#407BFF"></path><path d="M148.21,340.42a59.33,59.33,0,0,1,59.26,59.26h0a59.26,59.26,0,1,1-59.25-59.27m0-8.5A67.76,67.76,0,1,0,216,399.68a67.76,67.76,0,0,0-67.77-67.76Z" style="fill:#263238"></path><path d="M148.22,343a56.79,56.79,0,0,1,56.72,56.73h0A56.73,56.73,0,1,1,148.22,343M83.37,399.68a64.86,64.86,0,1,0,64.85-64.86A64.85,64.85,0,0,0,83.37,399.68Z" style="fill:#407BFF"></path><circle cx="351.78" cy="399.68" r="10.45" transform="matrix(0.16, -0.99, 0.99, 0.16, -99.24, 682.65)" style="fill:#263238"></circle><circle cx="148.22" cy="399.68" r="10.45" transform="translate(-239.2 221.87) rotate(-45)" style="fill:#263238"></circle><path d="M351.8,392.38a7.27,7.27,0,0,1,1.94,14.26h-.11l-89.44,28.71a12.4,12.4,0,0,1-3,.37A12.59,12.59,0,0,1,258,411l91.63-18.27h.23a7.26,7.26,0,0,1,2-.27h0m0-3.24a10.33,10.33,0,0,0-2.82.4L257.26,407.9A15.78,15.78,0,0,0,261.14,439a16.19,16.19,0,0,0,3.92-.49l89.52-28.71a10.46,10.46,0,0,0-2.78-20.58Z" style="fill:#263238"></path><path d="M258.65,425.21,168.16,314.42a3.19,3.19,0,0,1,4.93-4l87.19,106.68L315,287.47a3.19,3.19,0,0,1,5.88,2.48L264.1,424.46a3.21,3.21,0,0,1-2.49,1.92h-.46A3.21,3.21,0,0,1,258.65,425.21Z" style="fill:#407BFF"></path><path d="M349.85,400.58,307.19,310.5l-.09-.2a2.12,2.12,0,1,1,3.93-1.61l42.67,90.08a2.06,2.06,0,0,1,.21.91,2.13,2.13,0,0,1-4.06.9Z" style="fill:#407BFF"></path><path d="M147.43,402.73a3.18,3.18,0,0,1-2.3-3.88L171.41,296.6a3.2,3.2,0,0,1,3.39-2.39l134.6,12.18a3.2,3.2,0,1,1-.57,6.38L176.92,300.84l-25.6,99.63a3.2,3.2,0,0,1-3.1,2.4A3,3,0,0,1,147.43,402.73Z" style="fill:#407BFF"></path><path d="M174,300.57h0a3.18,3.18,0,0,1-2.7-3.61l3.86-26.34a3.19,3.19,0,1,1,6.31.93l-3.79,26.32a3.18,3.18,0,0,1-3.19,2.73A2,2,0,0,1,174,300.57Z" style="fill:#407BFF"></path><path d="M268.51,457.62l-18.8-67.76a2.13,2.13,0,0,1,4.1-1.14l18.79,67.8a1.87,1.87,0,0,1,.08.57,2.12,2.12,0,0,1-4.17.53Z" style="fill:#263238"></path><path d="M244.35,389.29a2.13,2.13,0,0,1,2.13-2.12h18.79a2.13,2.13,0,1,1,0,4.25H246.48A2.13,2.13,0,0,1,244.35,389.29Z" style="fill:#263238"></path><path d="M261.83,458.77a2.13,2.13,0,0,1,2.13-2.13h18.78a2.13,2.13,0,1,1,0,4.25H264A2.12,2.12,0,0,1,261.83,458.77Z" style="fill:#263238"></path><g style="opacity:0.30000000000000004"><path d="M258.65,425.21,168.16,314.42a3.19,3.19,0,0,1,4.93-4l87.19,106.68L315,287.47a3.19,3.19,0,0,1,5.88,2.48L264.1,424.46a3.21,3.21,0,0,1-2.49,1.92h-.46A3.21,3.21,0,0,1,258.65,425.21Z"></path><path d="M349.85,400.58,307.19,310.5l-.09-.2a2.12,2.12,0,1,1,3.93-1.61l42.67,90.08a2.06,2.06,0,0,1,.21.91,2.13,2.13,0,0,1-4.06.9Z"></path><path d="M147.43,402.73a3.18,3.18,0,0,1-2.3-3.88L171.41,296.6a3.2,3.2,0,0,1,3.39-2.39l134.6,12.18a3.2,3.2,0,1,1-.57,6.38L176.92,300.84l-25.6,99.63a3.2,3.2,0,0,1-3.1,2.4A3,3,0,0,1,147.43,402.73Z"></path><path d="M174,300.57h0a3.18,3.18,0,0,1-2.7-3.61l3.86-26.34a3.19,3.19,0,1,1,6.31.93l-3.79,26.32a3.18,3.18,0,0,1-3.19,2.73A2,2,0,0,1,174,300.57Z"></path></g><path d="M326,276.51c-5,1.95-40.68-.23-43.12,5.32s13.83.83,21,3.19,30.67,10.27,36.23,3.19C349.55,276,336.48,272.38,326,276.51Z" style="fill:#407BFF"></path><path d="M98.64,406.54a.38.38,0,0,1-.37-.32,48,48,0,0,1,23.11-49,.37.37,0,1,1,.37.65A47.24,47.24,0,0,0,99,406.1a.36.36,0,0,1-.31.43Z" style="fill:#263238"></path><path d="M183,424.8a.4.4,0,0,1-.27-.11.38.38,0,0,1,0-.53,24.49,24.49,0,0,0,5.55-9.22,27,27,0,0,0,1.84-10.72.38.38,0,0,1,.75-.07A27.82,27.82,0,0,1,189,415.2a25.33,25.33,0,0,1-5.72,9.48A.39.39,0,0,1,183,424.8Z" style="fill:#263238"></path><path d="M193.67,310.29a1.72,1.72,0,0,1-.39,0l-31.16-5.85a7,7,0,0,1-6.7-8L158.13,277c0-.23.05-.53.07-.87.15-2,.5-6.81,4.69-7.19,2.25-.21,5.1-.43,7.74-.64,3.25-.26,6.94-.55,7.52-.66a2.16,2.16,0,0,1,2.49,1.66,2.11,2.11,0,0,1-1.6,2.5c-.62.14-2.71.31-8.07.74-2.63.21-5.46.43-7.7.64-.39,0-.67,1.13-.83,3.26,0,.44-.06.84-.1,1.15L159.63,297a2.78,2.78,0,0,0,2.73,3.16,2.31,2.31,0,0,1,.37,0l31.33,5.89a2.13,2.13,0,0,1-.39,4.22Z" style="fill:#407BFF"></path><path d="M392.7,369.44a.38.38,0,0,1-.31-.16,47.23,47.23,0,0,0-49.74-19.11.37.37,0,0,1-.17-.73A48,48,0,0,1,393,368.85a.38.38,0,0,1-.1.52A.33.33,0,0,1,392.7,369.44Z" style="fill:#263238"></path><path d="M348.7,441.81a32.18,32.18,0,0,1-8.44-1.26,25.29,25.29,0,0,1-9.89-5,.38.38,0,0,1,.49-.57,24.49,24.49,0,0,0,9.6,4.85,27,27,0,0,0,10.82,1,.38.38,0,0,1,.44.3.39.39,0,0,1-.31.44A16.09,16.09,0,0,1,348.7,441.81Z" style="fill:#263238"></path><path d="M88.37,358a.33.33,0,0,1-.13,0,.24.24,0,0,1-.08-.34c7.11-11.9,19.49-21.33,34.85-26.54a.25.25,0,0,1,.16.48c-15.25,5.17-27.53,14.51-34.59,26.31A.23.23,0,0,1,88.37,358Z"></path></g><path d="M261.13,407.41a15.78,15.78,0,0,0-15.76,15.78h0a15.78,15.78,0,1,0,15.78-15.78Z" style="fill:#263238"></path><path d="M178.51,275.87l-10,5.08-3.15-4.81s-6.33-1.28-7.83-.3-3.29,4.47-3.29,4.47-2,2.79.69,4.67c0,0-2.11,2.45.9,4.68,0,0-2.52,1.07.73,2.85a10.67,10.67,0,0,0,8.21.76c2.17-.52,6.11-1.8,6.11-1.8l10.45-4.79Z" style="fill:#cd7a63"></path><path d="M231.51,244.42c-.46,1.73-16.62,25.43-19.07,27.5-3.24,2.75-36.71,17.18-36.71,17.18L170.46,281l29.48-18.64,17.89-24Z" style="fill:#cd7a63"></path><path d="M219.9,218.66c1-.89,8-14,8-14s4.27-4.05,30.21,6.38c24.81,10,54.71,36.64,54.71,36.64-.32.66-42,16.68-42,16.68l-45.17-24.7Z" style="fill:#407BFF"></path><path d="M219.9,218.66c1-.89,8-14,8-14s4.27-4.05,30.21,6.38c24.81,10,54.71,36.64,54.71,36.64-.32.66-42,16.68-42,16.68l-45.17-24.7Z" style="fill:#fff;opacity:0.4"></path><path d="M218.29,222.8c-4.74,9.15-11.3,25-11.3,25l16.81,12.71c17.06-28.13,16.2-40.7,9.81-44.74C233.61,215.79,226.53,209.6,218.29,222.8Z" style="fill:#407BFF"></path><path d="M218.29,222.8c-4.74,9.15-11.3,25-11.3,25l16.81,12.71c17.06-28.13,16.2-40.7,9.81-44.74C233.61,215.79,226.53,209.6,218.29,222.8Z" style="fill:#fff;opacity:0.4"></path><path d="M299.61,252.57c-.49-.35-49.6-34.64-54.29-37.82-4.21-2.85-7.67-2.76-9.83-2.18a7.82,7.82,0,0,0-5.05,3.89c-1.27,2.62-5.88,12.55-9.95,21.31-4.69,10.1-6.76,14.55-6.9,14.78l-.85-.53.43.26-.43-.25c.2-.36,3.43-7.32,6.85-14.68,4.07-8.77,8.68-18.7,9.95-21.33a8.81,8.81,0,0,1,5.69-4.42c3.34-.9,7.12-.07,10.65,2.32,4.69,3.18,53.81,37.48,54.3,37.83Z" style="fill:#fff"></path><path d="M232.85,243.55l5-13.41s-.37,6.43-1,11.45c-.24,1.86-.33,4-.33,4Z" style="opacity:0.30000000000000004"></path><polygon points="273.83 376 269.96 379.28 262.63 376.28 253.69 362.15 266.46 355.94 273.83 376" style="fill:#cd7a63"></polygon><path d="M260.9,374.51l3.67-.16a2.62,2.62,0,0,1,2.14,1c2.25,2.8,3.79,1.63,6-1.19,1.46-.23,1.93,1.43,2.07,1.88l3.19,9.86a1.58,1.58,0,0,1-1,2,1.44,1.44,0,0,1-.46.08l-12.12.54-17,.75c-4.63.2-5.79-4.42-3.91-4.93,8.49-2.28,14.45-5.07,17-7.68C261,376.19,260.43,375.89,260.9,374.51Z" style="fill:#407BFF"></path><path d="M261.69,379.58a.26.26,0,0,1-.21-.11,4.19,4.19,0,0,0-3-1.76.25.25,0,0,1-.23-.27.24.24,0,0,1,.27-.23,4.73,4.73,0,0,1,3.39,2,.25.25,0,0,1-.06.35A.23.23,0,0,1,261.69,379.58Z" style="fill:#263238"></path><path d="M259.48,381.4a.23.23,0,0,1-.2-.11,4.2,4.2,0,0,0-3-1.76.25.25,0,0,1-.23-.27.25.25,0,0,1,.28-.23,4.71,4.71,0,0,1,3.39,2,.26.26,0,0,1-.07.35A.23.23,0,0,1,259.48,381.4Z" style="fill:#263238"></path><path d="M256.71,383a.26.26,0,0,1-.21-.11,4.19,4.19,0,0,0-3-1.76.25.25,0,0,1-.23-.27.24.24,0,0,1,.27-.23,4.66,4.66,0,0,1,3.39,2,.25.25,0,0,1-.06.35A.27.27,0,0,1,256.71,383Z" style="fill:#263238"></path><path d="M274.65,262.64c-2.37.55-45.92,21.93-55.95,34.22-7.09,8.67-1.89,14.69,3.38,23.65s38,53.63,38,53.63l12.6-5.23-25-59.33,64-23.82a21.53,21.53,0,0,0,8-15.34c.83-10.32-7-22.79-7-22.79Z" style="fill:#263238"></path><path d="M267.1,371.28c-13.52-25.12-36.19-67.41-36.09-68.41.39-4,57.28-30.21,68.68-35.43.08,0,6.31-2.64,5.62-7.74a58.61,58.61,0,0,0-1.31-7.4l1-.28a56.85,56.85,0,0,1,1.34,7.54c.79,5.88-6.14,8.77-6.21,8.79-25.7,11.78-66.7,31.48-68.06,34.57,1.05,2.85,26.23,49.82,36,67.89ZM232,302.83Z" style="fill:#407BFF"></path></g></svg>
