<svg xmlns="http://www.w3.org/2000/svg" viewBox="0 0 500 500"><g id="freepik--Floor--inject-457"><g id="freepik--floor--inject-457"><g id="freepik--Shrubbery--inject-457"><path d="M10.46,327.88a3.73,3.73,0,0,0-.43.3.88.88,0,0,1,.17-.12Z" style="fill:#BA68C8"></path><path d="M493.8,314.92a9,9,0,0,1-2.87,4l-.38.29a8.7,8.7,0,0,1-.89.53l-.34.17-.54.24c4.19,3.74,4.17,11.31-.95,13.51H12.77c-2.5-1.56-3.16-3.63-1.95-6a11.57,11.57,0,0,1-1.34-.3l-.64-.2a6.56,6.56,0,0,1-1.5-.75l-.07-.05L7,326.2l-.25-.2-.08-.07-.28-.27-.09-.1a4.8,4.8,0,0,1-.55-.75l-.12-.21c-.06-.11-.11-.22-.16-.33l0,0a4.44,4.44,0,0,1-.22-.61,1.82,1.82,0,0,1-.07-.25A6.94,6.94,0,0,1,5,322.09c0-.12,0-.24,0-.37s0-.39,0-.58H5a6.3,6.3,0,0,1,0-.75,5,5,0,0,1,.08-.54,2.7,2.7,0,0,1,.08-.39,5.12,5.12,0,0,1,.15-.56c.07-.23.15-.46.24-.68h0c.09-.21.19-.42.3-.62A3.57,3.57,0,0,1,6.2,317a2.73,2.73,0,0,1,.21-.3c.13-.19.28-.38.43-.56s.3-.32.46-.47.23-.21.35-.31l.27-.21,1.36-.83.4-.17.42-.16c.21-.08.42-.14.64-.2a3.88,3.88,0,0,1-.45-.24A6.87,6.87,0,0,1,9,312.72l-.39-.35a7.24,7.24,0,0,1-1.44-1.88,6.53,6.53,0,0,1-.39-.85c-.05-.14-.1-.27-.14-.4s-.12-.39-.17-.59,0-.24-.07-.36a.64.64,0,0,0,0-.07l-.06-.43c0-.14,0-.28,0-.42s0-.36,0-.54a6.45,6.45,0,0,1,0-.76.25.25,0,0,1,0-.08,5.93,5.93,0,0,1,.1-.72s0,0,0-.07c0-.19.08-.39.13-.58l.06-.21a0,0,0,0,0,0,0s0-.05,0-.07c.07-.23.15-.45.24-.68s.2-.47.31-.69.19-.35.28-.51a7.81,7.81,0,0,1,.5-.73c.11-.14.21-.27.33-.4a3.59,3.59,0,0,1,.39-.39,4.17,4.17,0,0,1,.38-.34l.07-.05a4.91,4.91,0,0,1,.44-.31A2.65,2.65,0,0,1,10,300l.51-.26.32-.13a1.75,1.75,0,0,1,.32-.12l1.44-.36a3.89,3.89,0,0,1-.22-.79,4.19,4.19,0,0,1,0-1.58c0-.13.06-.26.1-.39a3,3,0,0,1,.13-.39,1.73,1.73,0,0,1,.16-.37c0-.1.1-.2.16-.3a2.39,2.39,0,0,1,.21-.34,2.94,2.94,0,0,1,.31-.41.7.7,0,0,1,.14-.16,1.93,1.93,0,0,1,.27-.3l.16-.16a5.49,5.49,0,0,1,.52-.44,5,5,0,0,1,.47-.33,5.3,5.3,0,0,1,.57-.33,5.38,5.38,0,0,1,.6-.28,6.79,6.79,0,0,1,.67-.24l.38-.12.29-.07.72-.15a7.54,7.54,0,0,1,.94-.06h.06a6.06,6.06,0,0,1,1.72.24h0l0,0a6.37,6.37,0,0,1,1.54.67h0a2.61,2.61,0,0,1,.28.17,2.26,2.26,0,0,1,.26.16l-.34-.28-.11-.09a3.65,3.65,0,0,1-.3-.27.93.93,0,0,1-.14-.14l-.26-.26-.17-.18-.11-.13a3.88,3.88,0,0,1-.26-.31l0,0a2.35,2.35,0,0,1-.19-.25l-.18-.25-.16-.24c-.06-.09-.12-.18-.17-.27l0,0-.15-.27c-.06-.12-.12-.23-.17-.35a.54.54,0,0,1,0-.11c0-.09-.07-.19-.11-.28l-.09-.26a2.68,2.68,0,0,0-.07-.27v0a2.21,2.21,0,0,1,0-.25,2.35,2.35,0,0,1-.05-.37c0-.06,0-.12,0-.17s0-.16,0-.24a1,1,0,0,0,0-.17.58.58,0,0,1,0-.19,1.36,1.36,0,0,1,.06-.29.84.84,0,0,1,.05-.17.51.51,0,0,1,.07-.17,2.07,2.07,0,0,1,.15-.34,2.1,2.1,0,0,1,.22-.33l.11-.15a3.57,3.57,0,0,1,.42-.46c-2.54.12-5.33-.29-7-2.15-.12-.13-.23-.27-.34-.41a5.5,5.5,0,0,1-.58-.94,4.47,4.47,0,0,1-.46-2,4.07,4.07,0,0,1,0-.5,3.43,3.43,0,0,1,.08-.48,5.61,5.61,0,0,1,.41-1.2,2.36,2.36,0,0,1-.46-.17,2.91,2.91,0,0,1-.42-.23l-.23-.16a4,4,0,0,1-.67-.58,6.07,6.07,0,0,1-.8-1l0,0c-.12-.18-.23-.38-.34-.58s-.19-.39-.28-.6l0-.05a6.31,6.31,0,0,1-.42-1.85,10.94,10.94,0,0,1,0-1.81,9.38,9.38,0,0,1,.31-1.92,5.58,5.58,0,0,1,.18-.58c.06-.17.12-.34.19-.51l0-.08q.11-.25.24-.51c.08-.16.17-.32.26-.47l0-.07c.08-.14.18-.28.27-.41l.08-.1a4.94,4.94,0,0,1,.36-.44,3,3,0,0,1,.3-.32,3.07,3.07,0,0,1,.26-.25c.11-.1.22-.2.34-.29l0,0,.4-.28.12-.08c.15-.1.31-.19.47-.28l.84-.41c-.31-.27-.6-.55-.88-.84l-.39-.43-.33-.39c-.13-.17-.26-.33-.37-.5a7.33,7.33,0,0,1-.58-.95,4.44,4.44,0,0,1-.24-.49l-.15-.36a6.19,6.19,0,0,1-.32-1.06c-.06-.26-.1-.53-.14-.8s0-.27,0-.41,0-.32,0-.48a9.07,9.07,0,0,1,.11-1.44,7.09,7.09,0,0,1,.28-1.19c0-.16.1-.31.16-.46s.17-.43.27-.65l0-.06.19-.39a11.47,11.47,0,0,1,.91-1.43l.34-.44.36-.42a10.33,10.33,0,0,1,.74-.74l0-.05,1-.77a7.47,7.47,0,0,1,1.26-.75,5,5,0,0,1,.48-.21l.37-.14q.3-.1.6-.18a5.58,5.58,0,0,1-1.09-1.6c0-.11-.09-.22-.13-.34a3.62,3.62,0,0,1-.13-.35l0-.12a3.17,3.17,0,0,1-.12-.44,2.88,2.88,0,0,1-.09-.4s0,0,0,0c0-.19-.07-.37-.09-.55,0,0,0-.06,0-.08a4.93,4.93,0,0,1-.05-.54c0-.21,0-.41,0-.61s0-.58,0-.87v0c0-.23,0-.45.07-.67l0-.21a.5.5,0,0,1,0-.12,13.08,13.08,0,0,1,.3-1.49v0q.09-.37.21-.72c.07-.21.14-.42.21-.61a8.51,8.51,0,0,1,.55-1.16c2.22-3.73,5.53-6.09,9.85-5.72h0a8.16,8.16,0,0,1-.6-1.59c0-.13-.07-.25-.1-.38l-.09-.44,0-.19a7.3,7.3,0,0,1-.1-.94c0-.23,0-.45,0-.67s0-.4,0-.6,0-.34,0-.52,0-.2,0-.3a9.43,9.43,0,0,1,.36-1.64,9.17,9.17,0,0,1,1.93-3.47,5.9,5.9,0,0,1,.49-.51h0c.2-.19.41-.37.62-.55s.44-.36.67-.52l.05,0,0,0a11.89,11.89,0,0,1,9-2.32c-.82-5.54,4-9.48,6.07-10.68,2.62-1.49,7.51-3.45,12.83-.18,1-3.47,4-6.37,12.78-6.35s10.85,6.34,10.85,6.5c2.7-.89,6.18-1.93,8.73-.07,2.33,1.71,2.63,5,2.71,7.91a6,6,0,0,1,10.78,1.2,6.76,6.76,0,0,1,10-6.83A7.25,7.25,0,0,1,126,200.31c-.07-.05,0-.27,0-.32a1.93,1.93,0,0,0,.13-.47,5.76,5.76,0,0,1,.33-1.07,6,6,0,0,1,1.12-2,5.19,5.19,0,0,1,2.84-1.51,9.58,9.58,0,0,1,1.85-.17l.92,0,.46,0a12.08,12.08,0,0,1,1.29.29,6.48,6.48,0,0,1,11.5-.93,23.72,23.72,0,0,1,2.25-2.55,8.73,8.73,0,0,1,9.94-.83l.33.21a9.73,9.73,0,0,1,3.55,4.2,10.62,10.62,0,0,1,.81,2.68,7.5,7.5,0,0,1,.13,1.42,1.48,1.48,0,0,1-.13.5c-.11.27-.15.89-.37,1a12,12,0,0,1,6.59-2.1c2.34.12,4.74,1.76,5,4.09.31-1.61.95-3.33,2.38-4.12a4.52,4.52,0,0,1,3.69-.1,12.8,12.8,0,0,1,3.24,2,10.57,10.57,0,0,1,1.18-4.68,5.07,5.07,0,0,1,3.23-2.26,8.89,8.89,0,0,1,1.42-.42,8,8,0,0,1,3.11.31,6.38,6.38,0,0,1,2.07,1,4.66,4.66,0,0,1,.84.76,3.48,3.48,0,0,1,.54.72,6.47,6.47,0,0,1,6.89-2.51c3.52,1.07,4.44,4.05,3.63,7.26.08-.32.78-.77,1-1a5.64,5.64,0,0,1,1.33-.7,5.37,5.37,0,0,1,3.05-.13c.47.11.82.36,1.28.21a5.12,5.12,0,0,1,.56-.15,6.25,6.25,0,0,1,2.2-.05,7,7,0,0,1,3.91,2,6,6,0,0,1,1.59,2.82,5.83,5.83,0,0,1,5.84-4.43,7.58,7.58,0,0,1,6.3,4.25,3.09,3.09,0,0,1,5.44-1.84,13.09,13.09,0,0,1,4.08-10.78A12.46,12.46,0,0,1,254.52,188a11.91,11.91,0,0,1,8.42,7.74c.33-1.58,1.75-2.66,3.13-3.48a6,6,0,0,1,3.56-1.1c2.33.25,3.67,2.76,4.34,5a3.47,3.47,0,0,1,3.58-2.3,5,5,0,0,1,3.7,2.47,10,10,0,0,1,11.84-7.16,5.15,5.15,0,0,1,2.47,1.79,8.78,8.78,0,0,1,1.43,3.85,3.19,3.19,0,0,1,4.28-2c1.41.44,1.8,1.27,2.29,2.62.86-2.14,3.85-3.59,5.94-3.38,1.59.15,2.63,1.82,3.08,3.3s-.05,2.64-.21,4a4.92,4.92,0,0,1,6.08-1c2.09-7.61,13.15-6.8,14.88-.62a4.53,4.53,0,0,1,6.56.75c.89-3.77,6.71-2.52,8.61-.24-2.52-4-3.14-8.9,1.47-11.67,3.32-2,7.38-2.26,9.45,1.49-.62-7.19,8.69-8.48,11.3-2.35,5.6-5.3,16.14,2.46,10.94,9.13,5.5-.35,9.67,8.51,3.72,10.93a3.47,3.47,0,0,1,2.9,4.52,6.46,6.46,0,0,1,8.81-1.92,4.47,4.47,0,0,1,3.33-8c-2.52-11.73,16.28-17,21.76-8,3.1-7.66,17.41-1.9,14.35,5.32a6.6,6.6,0,0,1,3.62-.19l.35.08.35.09a8.8,8.8,0,0,1,1.45.55,4.8,4.8,0,0,1,.6.3l0,0a8.18,8.18,0,0,1,.92.57,9.52,9.52,0,0,1,.88.69l.28.24a10.73,10.73,0,0,1,1.23,1.4,2.51,2.51,0,0,1,.2.29c.07.09.13.2.2.31a8.41,8.41,0,0,1,.6,1.29,2,2,0,0,1,.09.26c0,.08.05.15.07.23l.09.39a6.21,6.21,0,0,1-.94,4.66c6.09-.08,8.82,8.74,3.72,12.6,3.75.92,5,7.77.59,11.19,2.53,0,6.48,4.89,6.36,7.51,2.17-4.78,11.8-4.39,12.06,2.41,6-2.31,12,2.16,9.82,8.61,6.76,1.33,7.8,8.54,5.69,13.8,8.62.8,10.41,13.62,4.47,19.58.23.07.45.15.67.24l.41.17.3.15.4.2a8,8,0,0,1,1.63,1.16,4.27,4.27,0,0,1,.38.36,5.76,5.76,0,0,1,.41.44,10.65,10.65,0,0,1,1,1.47,10.25,10.25,0,0,1,.76,1.65,11.29,11.29,0,0,1,.35,1.17c1.16,4.63-.47,10.18-4.47,13C494.05,306.1,495.25,310.9,493.8,314.92Z" style="fill:#e6e6e6"></path><g style="opacity:0.1"><path d="M427.82,213a6.84,6.84,0,0,0-11,1,6.89,6.89,0,0,0-11.17,3.95,8.21,8.21,0,0,1,13.65,1.63,5.9,5.9,0,0,0,0-1.18,7,7,0,0,0-.93-2.66,7.11,7.11,0,0,1,.71-.75,8.2,8.2,0,0,1,9.49-1A5.66,5.66,0,0,0,427.82,213Z"></path><path d="M356.06,201.08a5.31,5.31,0,0,1,7.51-.44,5,5,0,0,1,1,1.18,5.32,5.32,0,0,1,8.62,3.05,6.34,6.34,0,0,0-10.53,1.26,4.64,4.64,0,0,1,0-.91,5.33,5.33,0,0,1,.72-2.06,5.9,5.9,0,0,0-.55-.57,6.3,6.3,0,0,0-7.32-.77A4.65,4.65,0,0,1,356.06,201.08Z"></path><path d="M437.45,239.74c2.25-1,5.92-1.21,8,2.34a5.74,5.74,0,0,1,.33,4.59,11.35,11.35,0,0,1-.78,1.56,1.32,1.32,0,0,0-.18.44c0,.63.92.72,1.38,1a7,7,0,0,1,3,2.81,7.09,7.09,0,0,1,.2,6.52A8.34,8.34,0,0,1,463,266.64c2.62-2.9,7.33-3.15,10.8-1.36a7.85,7.85,0,0,1,3.5,3.29,6.05,6.05,0,0,1-4.09,8.26,10.55,10.55,0,0,1,8.21,5.63c1.47,3.13.75,7.3-2,9.39-2.93,2.24-7.08,1.73-10.63.75a3.93,3.93,0,0,1-.45,4.95,6.66,6.66,0,0,1-4.95,1.84c2.51-.36,5.21-.34,7.41.91s3.11,3.59,3.1,6.09a3.47,3.47,0,0,1-1.4,2.45c-1.06,1-2.23,2-3.21,3.05,2.82,1.87,5.64,3.09,6.61,6.81,1.19,4.57-2.55,6.65-5.45,9.15,6.28.45,9.41,7.48,7.85,12.92h6.94a6.43,6.43,0,0,0,.19-6.52c7.41-.64,8.08-9.84,3.31-14.09.18-.07.37-.15.55-.24l.34-.17a7.9,7.9,0,0,0,.88-.53l.38-.28a8.61,8.61,0,0,0,2.87-4c1.46-4,.25-8.82-2.64-10.2,4-2.85,5.63-8.4,4.49-13a7.2,7.2,0,0,0-.36-1.2,9.77,9.77,0,0,0-.76-1.64,8,8,0,0,0-1-1.48c-.14-.15-.27-.3-.42-.44a4.35,4.35,0,0,0-.38-.36,8.61,8.61,0,0,0-1.62-1.15,3.17,3.17,0,0,0-.41-.21,2.09,2.09,0,0,0-.3-.14,2.54,2.54,0,0,0-.41-.18l-.67-.24c6-6,4.15-18.78-4.47-19.57,2.12-5.27,1.08-12.47-5.69-13.8,2.14-6.46-3.82-10.93-9.81-8.61-.26-6.81-9.9-7.2-12.06-2.41.11-2.63-3.84-7.51-6.37-7.52,4.38-3.42,3.16-10.27-.59-11.18,5.1-3.87,2.37-12.69-3.71-12.61a6.18,6.18,0,0,0,.93-4.65q0-.21-.09-.39c0-.09-.05-.16-.07-.24a2.58,2.58,0,0,0-.08-.26,9.46,9.46,0,0,0-.61-1.29,1.57,1.57,0,0,0-.2-.3,2.08,2.08,0,0,0-.19-.29,9.08,9.08,0,0,0-1.24-1.4l-.28-.25a8.64,8.64,0,0,0-.88-.69c-.3-.21-.61-.39-.92-.57l0,0c-.19-.11-.4-.2-.6-.3a8.43,8.43,0,0,0-1.45-.54l-.35-.1-.35-.08c1.76,2,3.36,4.56,2.08,7.25-1.14,2.41-4.24,2.83-6.3,3.84,4.88,1.65,7.13,6.55,3.49,10.85,5,.63,5.62,7.24,3.63,9.93-1.23-1.08-3.76-1.31-5.62-.95-2.5.47-3.84,1.73-6.08,4.24C435.77,229.35,440.26,235.89,437.45,239.74Z"></path><path d="M61.37,263c-5.64,2.54-7.63,4.49-7.5,11C51.76,270.8,44,272.53,42,275s-1.9,7.93.46,10.15c-7.35.7-8.59,7.23-6.44,12.89-3.36-.23-7.16,1.93-8.14,5.1-.72,2.33-.94,7.31,2.82,6.58-3.81,2.27-6.86,4.84-6.35,9.83.79,7.71,7,6.84,12.53,5.68.18,4.48,4,7.26,8.32,8.49H12.77c-2.5-1.56-3.16-3.63-1.95-6a11.57,11.57,0,0,1-1.34-.3c-.23-.06-.44-.13-.64-.2a6.56,6.56,0,0,1-1.5-.75l-.07-.05L7,326.2l-.25-.2-.08-.07-.28-.27-.06-.06,0,0a4.8,4.8,0,0,1-.55-.75l-.06-.09-.06-.12c-.06-.11-.11-.22-.16-.33l0,0a4.44,4.44,0,0,1-.22-.61,1.82,1.82,0,0,1-.07-.25A6.94,6.94,0,0,1,5,322.09c0-.12,0-.24,0-.37s0-.39,0-.58H5a6.3,6.3,0,0,1,0-.75,5,5,0,0,1,.08-.54,2.7,2.7,0,0,1,.08-.39,5.12,5.12,0,0,1,.15-.56c.07-.23.15-.46.24-.68h0c.09-.21.19-.42.3-.62A3.57,3.57,0,0,1,6.2,317a2.73,2.73,0,0,1,.21-.3c.13-.19.28-.38.43-.56s.3-.32.46-.47.23-.21.35-.31l.27-.21,1.36-.83.4-.17.42-.16c.21-.08.42-.14.64-.2a3.88,3.88,0,0,1-.45-.24c-.15-.08-.29-.17-.43-.26a8.13,8.13,0,0,1-.82-.59l-.39-.35a7.9,7.9,0,0,1-1.44-1.88,6.53,6.53,0,0,1-.39-.85c-.05-.14-.1-.27-.14-.4s-.12-.39-.17-.59,0-.24-.07-.36a.64.64,0,0,0,0-.07l-.06-.43c0-.14,0-.28,0-.42s0-.36,0-.54a6.45,6.45,0,0,1,0-.76.25.25,0,0,1,0-.08,5.93,5.93,0,0,1,.1-.72s0,0,0-.07c0-.19.08-.39.13-.58l.06-.21a0,0,0,0,0,0,0s0-.05,0-.07c.07-.23.15-.45.24-.68s.2-.47.31-.69.19-.35.28-.51a7.81,7.81,0,0,1,.5-.73c.11-.14.21-.27.33-.4a3.59,3.59,0,0,1,.39-.39c.12-.12.25-.23.38-.34l.07-.05a4.91,4.91,0,0,1,.44-.31A2.65,2.65,0,0,1,10,300l.51-.26.32-.13a1.75,1.75,0,0,1,.32-.12l1.44-.36a3.89,3.89,0,0,1-.22-.79,3.82,3.82,0,0,1,0-1.58c0-.13.06-.26.1-.39a2.29,2.29,0,0,1,.08-.28.54.54,0,0,1,.05-.11,1.73,1.73,0,0,1,.16-.37c0-.1.1-.2.16-.3a2.39,2.39,0,0,1,.21-.34,2.94,2.94,0,0,1,.31-.41.7.7,0,0,1,.14-.16,1.93,1.93,0,0,1,.27-.3l.16-.16a5.49,5.49,0,0,1,.52-.44,5,5,0,0,1,.47-.33,5.3,5.3,0,0,1,.57-.33,5.38,5.38,0,0,1,.6-.28l.29-.1.38-.14.38-.12.29-.07.72-.15.28,0a5.31,5.31,0,0,1,.68-.05h.26c.23,0,.45,0,.66.05l.25.05a4.26,4.26,0,0,1,.62.13l.26.09a5.37,5.37,0,0,1,.56.21l.27.13a5,5,0,0,1,.51.27,2.61,2.61,0,0,1,.28.17c.2.13.4.26.59.41l-.33-.25-.34-.28-.11-.09a3.65,3.65,0,0,1-.3-.27.93.93,0,0,1-.14-.14l-.26-.26-.17-.18-.11-.13-.11-.12-.15-.19,0,0a2.35,2.35,0,0,1-.19-.25l-.18-.25-.16-.24c-.06-.09-.12-.18-.17-.27l0,0-.12-.2,0-.07-.11-.21-.06-.14a.54.54,0,0,1,0-.11c0-.09-.07-.19-.11-.28l-.09-.26a2.68,2.68,0,0,0-.07-.27v0a2.21,2.21,0,0,1,0-.25,1.15,1.15,0,0,1,0-.26.43.43,0,0,0,0-.11c0-.06,0-.12,0-.17s0-.16,0-.24a1,1,0,0,0,0-.17s0-.09,0-.13a.14.14,0,0,1,0-.06.58.58,0,0,1,0-.14l0-.15a.84.84,0,0,1,.05-.17.51.51,0,0,1,.07-.17,2.07,2.07,0,0,1,.15-.34.83.83,0,0,1,.08-.12l.14-.21.11-.15a3.57,3.57,0,0,1,.42-.46c-2.54.12-5.33-.29-7-2.15-.12-.13-.23-.27-.34-.41a5.5,5.5,0,0,1-.58-.94,4.47,4.47,0,0,1-.46-2,4.07,4.07,0,0,1,0-.5,3.43,3.43,0,0,1,.08-.48,5.61,5.61,0,0,1,.41-1.2,2.36,2.36,0,0,1-.46-.17,2.91,2.91,0,0,1-.42-.23l-.23-.16a5.77,5.77,0,0,1-.67-.58,7.34,7.34,0,0,1-.8-1l0,0c-.12-.18-.23-.38-.34-.58s-.19-.39-.28-.6l0-.05a6.31,6.31,0,0,1-.42-1.85,10.94,10.94,0,0,1,0-1.81,10.12,10.12,0,0,1,.31-1.92,5.58,5.58,0,0,1,.18-.58c.06-.17.12-.34.19-.51l0-.08q.11-.25.24-.51c.08-.16.17-.32.26-.47l0-.07c.08-.14.18-.28.27-.41l.08-.1a4.94,4.94,0,0,1,.36-.44,3,3,0,0,1,.3-.32,3.07,3.07,0,0,1,.26-.25c.11-.1.22-.2.34-.29l0,0,.4-.28.12-.08c.15-.1.31-.19.47-.28l.84-.41c-.31-.27-.6-.55-.88-.84l-.39-.43-.33-.39c-.13-.17-.26-.33-.37-.5a7.79,7.79,0,0,1-.58-.95,4.44,4.44,0,0,1-.24-.49l-.15-.36a8.06,8.06,0,0,1-.32-1.06c-.06-.26-.1-.53-.14-.8s0-.27,0-.41,0-.32,0-.48a9.07,9.07,0,0,1,.11-1.44,7.09,7.09,0,0,1,.28-1.19c0-.16.1-.31.16-.46s.17-.43.27-.65l0-.06.19-.39a11.47,11.47,0,0,1,.91-1.43l.34-.44.36-.42a10.33,10.33,0,0,1,.74-.74l0-.05,1-.77a8.54,8.54,0,0,1,1.26-.75,5,5,0,0,1,.48-.21l.37-.14q.3-.1.6-.18a5.58,5.58,0,0,1-1.09-1.6c0-.11-.09-.22-.13-.34a3.62,3.62,0,0,1-.13-.35l0-.12a3.17,3.17,0,0,1-.12-.44,2.88,2.88,0,0,1-.09-.4s0,0,0,0c0-.19-.07-.37-.09-.55,0,0,0-.06,0-.08a4.93,4.93,0,0,1-.05-.54c0-.21,0-.41,0-.61s0-.58,0-.87v0c0-.23,0-.45.07-.67l0-.21a.5.5,0,0,1,0-.12,13.08,13.08,0,0,1,.3-1.49v0c.07-.25.13-.49.21-.72s.14-.42.21-.61a8.51,8.51,0,0,1,.55-1.16c2.22-3.73,5.53-6.09,9.85-5.72h0a8.16,8.16,0,0,1-.6-1.59c0-.13-.07-.25-.1-.38l-.09-.44,0-.19a7.3,7.3,0,0,1-.1-.94c0-.23,0-.45,0-.67s0-.4,0-.6,0-.34,0-.52,0-.2,0-.3a11.72,11.72,0,0,1,.36-1.64,10.77,10.77,0,0,1,.74-1.76,9.37,9.37,0,0,1,1.19-1.71c.16-.17.32-.34.5-.51s.41-.37.62-.55.44-.36.67-.52l.05,0a13.3,13.3,0,0,1,1.4-.89c-2.54,4.6.66,8.47,6.13,11.3a9.58,9.58,0,0,0-7.17,6.07c-1.17,3.93,1.37,6.11,4.55,7.95-6.86-.39-13.11,10.75-4.33,10.54-4.59,6.37,4.25,10.26,9,5-.29,2.19,1.32,3.43,3.25,3.94,4,1,6.7-2.18,8.7-4.88C51.93,262.25,58,263.21,61.37,263Z"></path><path d="M55.18,333.67h.1v0Z"></path><path d="M132.71,232.06a6.91,6.91,0,0,0-9.58-1.84,6.78,6.78,0,0,0-1.46,1.36,6.89,6.89,0,0,0-11.59,2.48,8.2,8.2,0,0,1,13.32,3.38,5.6,5.6,0,0,0,.11-1.17,6.85,6.85,0,0,0-.57-2.76,7.31,7.31,0,0,1,.8-.65,8.18,8.18,0,0,1,9.54.24A5.31,5.31,0,0,0,132.71,232.06Z"></path><path d="M138.57,207.82a5.54,5.54,0,0,1,7.23-3,5.39,5.39,0,0,1,1.37.83,5.52,5.52,0,0,1,9.51.08,6.59,6.59,0,0,0-9.93,4.81,4.56,4.56,0,0,1-.27-.91,5.38,5.38,0,0,1,0-2.26,6.45,6.45,0,0,0-.74-.38,6.58,6.58,0,0,0-7.46,1.72A4.44,4.44,0,0,1,138.57,207.82Z"></path><path d="M192.89,208a4.25,4.25,0,0,1,6-.29,4.34,4.34,0,0,1,.77.95,4.23,4.23,0,0,1,6.83,2.51,5.09,5.09,0,0,0-3.2-1.8,5,5,0,0,0-5.19,2.7,3.53,3.53,0,0,1,0-.72,4.09,4.09,0,0,1,.59-1.63,3.72,3.72,0,0,0-.43-.46,5,5,0,0,0-5.82-.68A2.9,2.9,0,0,1,192.89,208Z"></path></g></g><ellipse id="freepik--floor--inject-457" cx="250" cy="352.17" rx="240.88" ry="139.07" style="fill:#f0f0f0"></ellipse><path id="freepik--Trail--inject-457" d="M98.52,244c-6.5,3.05-12.8,6.31-18.85,9.8C22,287.12-.3,333.09,12.73,376.2l195.65,113c74.66,7.52,154.28-5.36,211.94-38.65q9.07-5.24,17-10.88Z" style="fill:#fafafa"></path></g></g><g id="freepik--Shadows--inject-457"><path id="freepik--Shadow--inject-457" d="M216.13,271.08,399.93,377.2a7.48,7.48,0,0,0,6.77,0l56.75-32.77c1.87-1.08,1.87-2.83,0-3.91L279.65,234.4a7.48,7.48,0,0,0-6.77,0l-56.75,32.77C214.26,268.25,214.26,270,216.13,271.08Z" style="fill:#e6e6e6"></path><ellipse id="freepik--shadow--inject-457" cx="238.43" cy="422.3" rx="61.84" ry="35.7" style="fill:#e6e6e6"></ellipse><path id="freepik--shadow--inject-457" d="M394,370.13c8.81,5.09,8.81,13.34,0,18.42s-23.1,5.09-31.91,0-8.81-13.33,0-18.42S385.14,365.05,394,370.13Z" style="fill:#e6e6e6"></path></g><g id="freepik--Clouds--inject-457"><path id="freepik--Cloud--inject-457" d="M338.35,59.16c0-3.51-3.85-5.95-8.21-6.36-5.14-.49-8.78,1.8-8.91,5.85-3.35-1.38-6.9-.5-6.63,3.2-.87-1-4.14-1-5.32-.7a4.59,4.59,0,0,0-2.92,2.49,3.4,3.4,0,0,0-.31,1.89c-1.95-.64-6.41-1-7.52.77-2,3.19,5.94,3.29,7.53,2.33.34,2.48,8.85,2.89,10.91.6,1.61,1.62,3.93,2,6.42,2.12,4.21.26,6.8-1.17,10.08-2.85,3.57,3,9.75,3.08,13-.38.82.78,3.08,1,4.89.58,1.19-.28,1.47-.79,1.47-.79a10.32,10.32,0,0,0,2.18.66c2.34.49,6.68,0,4.86-2.13-.62-.72-2.89-1.17-3.86-1-1-2-5.1-3.9-7.45-2.21-.09-2.43-2.31-4.32-5.43-4.81C342.05,58.31,339.54,58.17,338.35,59.16Z" style="fill:#f5f5f5"></path><path id="freepik--cloud--inject-457" d="M77.39,94.33c0-3.87-4.25-6.56-9-7-5.66-.54-9.67,2-9.81,6.44-3.7-1.52-7.6-.54-7.31,3.53-1-1.11-4.56-1.08-5.85-.77a5.1,5.1,0,0,0-3.23,2.75,3.71,3.71,0,0,0-.33,2.08c-2.16-.71-7.07-1.14-8.29.84-2.19,3.52,6.54,3.63,8.3,2.57.37,2.74,9.75,3.19,12,.66,1.77,1.78,4.32,2.18,7.07,2.34,4.64.28,7.48-1.29,11.1-3.14C76,108,82.76,108,86.3,104.2c.91.85,3.4,1.12,5.39.64,1.31-.31,1.62-.87,1.62-.87a11.64,11.64,0,0,0,2.4.72c2.58.54,7.36,0,5.36-2.35-.69-.78-3.19-1.28-4.25-1-1.13-2.21-5.63-4.3-8.21-2.43-.1-2.68-2.55-4.77-6-5.3C81.47,93.39,78.7,93.24,77.39,94.33Z" style="fill:#f5f5f5"></path><path id="freepik--cloud--inject-457" d="M447.37,94.44c0-4.65-5.09-7.88-10.85-8.42-6.79-.64-11.61,2.39-11.77,7.74-4.44-1.83-9.13-.66-8.77,4.22-1.16-1.33-5.48-1.29-7-.92a6.08,6.08,0,0,0-3.87,3.3,4.48,4.48,0,0,0-.4,2.5c-2.59-.85-8.48-1.37-9.95,1-2.62,4.23,7.85,4.36,10,3.09.45,3.28,11.7,3.82,14.42.79,2.13,2.14,5.19,2.62,8.49,2.81,5.57.33,9-1.55,13.32-3.77,4.73,4,12.89,4.08,17.15-.5,1.08,1,4.07,1.34,6.47.77,1.57-.38,1.94-1,1.94-1a13.7,13.7,0,0,0,2.88.87c3.09.65,8.83,0,6.42-2.82-.82-.94-3.82-1.54-5.09-1.25-1.35-2.65-6.76-5.16-9.86-2.92-.12-3.21-3.05-5.72-7.18-6.36C452.27,93.31,449,93.13,447.37,94.44Z" style="fill:#f5f5f5"></path><path id="freepik--cloud--inject-457" d="M175.62,58.09a10.32,10.32,0,0,0-3.38-.63c-1.09-.08-1.44-.3-1.65-.54a8.05,8.05,0,0,0-9.68-2.85,6.18,6.18,0,0,0-7.29-4.13c.12-3.4-4.23-7.06-8.13-7.89-3.74-.79-7-.46-9.14,2-2.28-4.46-11.24-5.72-16.09-3.36-2.79,1.36-5.15,2.75-6.31,5.31a10.65,10.65,0,0,0-1,5.08c-1.89-1.67-5.67-2.12-8.2-1.14C102,51,101.77,53,101.64,55.13a9.5,9.5,0,0,0-5-.09C95,55.55,94,56.89,94.22,58c-1.36-.07-4.59,1-4.22,2.45.42,1.61,4.11,1.45,5.49,1.4a25.26,25.26,0,0,0,3.86-.61,5.65,5.65,0,0,0,2,.38c2.35,0,3.35-1,3.73-1.9,1.14,2.42,5.22,4.26,8.11,5,5.43,1.39,13.12.54,16.46-3.52a6,6,0,0,0,1.62,2,9.37,9.37,0,0,0,5,2c2.23.21,8.22.49,9.9-3,1.2,2.35,6.53,3.43,10.58,2.85a16.38,16.38,0,0,0,4.54-1.37,27.27,27.27,0,0,0,2.61-1.56,2.15,2.15,0,0,1,2.22-.15,13.3,13.3,0,0,0,8.85,0C177.27,61,177.74,59.05,175.62,58.09Z" style="fill:#f5f5f5"></path></g><g id="freepik--Sun--inject-457"><circle id="freepik--sun--inject-457" cx="404.99" cy="48.97" r="20.05" transform="translate(83.99 300.72) rotate(-45)" style="fill:#ffbda7"></circle></g><g id="freepik--Bench--inject-457"><g id="freepik--bench--inject-457"><path d="M318.86,276.61a4,4,0,0,0,2-.53l42.71-24.66a15.17,15.17,0,0,0,7.57-13.11V189a4,4,0,0,0-7.93,0v49.32a7.24,7.24,0,0,1-3.61,6.25l-42.71,24.66a4,4,0,0,0,2,7.39Z" style="fill:#e0e0e0"></path><path d="M406.05,325.84a4,4,0,0,0,2-.53l42.71-24.66a15.19,15.19,0,0,0,7.57-13.11V238.21a4,4,0,0,0-7.93,0v49.33a7.23,7.23,0,0,1-3.6,6.24l-42.71,24.66a4,4,0,0,0,2,7.4Z" style="fill:#e0e0e0"></path><path d="M234.66,227a3.89,3.89,0,0,0,2-.54l42.71-24.66a15.17,15.17,0,0,0,7.57-13.11V139.39a4,4,0,0,0-7.93,0v49.32a7.24,7.24,0,0,1-3.61,6.25l-42.71,24.66a4,4,0,0,0,2,7.4Z" style="fill:#e0e0e0"></path><path d="M398.66,320.93v45.64a2.24,2.24,0,0,0,1.32,1.84,7.07,7.07,0,0,0,6.37,0,2.24,2.24,0,0,0,1.31-1.84V320.93Z" style="fill:#e0e0e0"></path><path d="M436.33,299.47v45.64a2.24,2.24,0,0,0,1.32,1.84,7.07,7.07,0,0,0,6.37,0,2.24,2.24,0,0,0,1.32-1.84V299.47Z" style="fill:#e0e0e0"></path><path d="M227.41,222.05V267.7a2.25,2.25,0,0,0,1.32,1.84,7.07,7.07,0,0,0,6.37,0,2.25,2.25,0,0,0,1.32-1.84V222.05Z" style="fill:#e0e0e0"></path><path d="M265.09,200.59v45.65a2.25,2.25,0,0,0,1.32,1.84,7.05,7.05,0,0,0,6.36,0,2.25,2.25,0,0,0,1.32-1.84V200.59Z" style="fill:#e0e0e0"></path><path d="M467.14,249.41l.79-.46a5.06,5.06,0,0,0,2.29-4v-7.11a5.08,5.08,0,0,0-2.29-4L279.67,125.22a5,5,0,0,0-4.57,0l-.79.46a5,5,0,0,0-2.29,4v7.11a5,5,0,0,0,2.29,4l188.25,108.7A5.06,5.06,0,0,0,467.14,249.41Z" style="fill:#fafafa"></path><path d="M459.49,241.43l10.06-5.81a4.75,4.75,0,0,1,.67,2.26V245a5,5,0,0,1-2.29,4l-.79.46a5.06,5.06,0,0,1-4.58,0l-3.07-1.78Z" style="fill:#e0e0e0"></path><path d="M462.56,237,274.31,128.32c-1.27-.73-2.29-.14-2.29,1.32v7.11a5,5,0,0,0,2.29,4l188.25,108.7c1.27.73,2.29.13,2.29-1.33V241A5.05,5.05,0,0,0,462.56,237Z" style="fill:#f0f0f0"></path><path d="M467.14,271.14l.79-.45a5.08,5.08,0,0,0,2.29-4v-7.11a5.06,5.06,0,0,0-2.29-4L279.67,147a5,5,0,0,0-4.57,0l-.79.45a5.05,5.05,0,0,0-2.29,4v7.11a5,5,0,0,0,2.29,4L462.56,271.14A5.06,5.06,0,0,0,467.14,271.14Z" style="fill:#fafafa"></path><path d="M459.49,263.17l10.06-5.81a4.68,4.68,0,0,1,.67,2.25v7.11a5.05,5.05,0,0,1-2.29,4l-.79.45a5.06,5.06,0,0,1-4.58,0l-3.07-1.78Z" style="fill:#e0e0e0"></path><path d="M462.56,258.75,274.31,150.06c-1.27-.73-2.29-.14-2.29,1.32v7.11a5,5,0,0,0,2.29,4L462.56,271.14c1.27.73,2.29.14,2.29-1.32v-7.11A5,5,0,0,0,462.56,258.75Z" style="fill:#f0f0f0"></path><path d="M467.14,292.88l.79-.46a5.06,5.06,0,0,0,2.29-4v-7.11a5,5,0,0,0-2.29-4L279.67,168.69a5,5,0,0,0-4.57,0l-.79.46a5,5,0,0,0-2.29,4v7.11a5.05,5.05,0,0,0,2.29,4L462.56,292.88A5.06,5.06,0,0,0,467.14,292.88Z" style="fill:#fafafa"></path><path d="M459.49,284.9l10.06-5.81a4.75,4.75,0,0,1,.67,2.26v7.11a5,5,0,0,1-2.29,4l-.79.46a5.06,5.06,0,0,1-4.58,0l-3.07-1.78Z" style="fill:#e0e0e0"></path><path d="M462.56,280.48,274.31,171.79c-1.27-.73-2.29-.14-2.29,1.32v7.11a5.05,5.05,0,0,0,2.29,4L462.56,292.88c1.27.73,2.29.14,2.29-1.32v-7.11A5.05,5.05,0,0,0,462.56,280.48Z" style="fill:#f0f0f0"></path><path d="M459.49,306V307a5.06,5.06,0,0,1-2.29,4L451,314.47a5.06,5.06,0,0,1-4.58,0L258.2,205.78a5.07,5.07,0,0,1-2.28-4v-.91a5.05,5.05,0,0,1,2.28-4l6.16-3.56a5.06,5.06,0,0,1,4.58,0L457.2,302.07A5.08,5.08,0,0,1,459.49,306Z" style="fill:#f0f0f0"></path><path d="M448.75,303.4V315a4.73,4.73,0,0,0,2.29-.55l6.16-3.56a5.06,5.06,0,0,0,2.29-4V306a5.08,5.08,0,0,0-2.29-4l-3.08-1.77Z" style="fill:#e0e0e0"></path><path d="M446.46,308.27,258.2,199.58a1.39,1.39,0,0,1,0-2.64l6.16-3.56a5.06,5.06,0,0,1,4.58,0L457.2,302.07a1.4,1.4,0,0,1,0,2.65L451,308.27A5.06,5.06,0,0,1,446.46,308.27Z" style="fill:#fafafa"></path><path d="M440.7,316.88v.91a5.05,5.05,0,0,1-2.29,4l-6.15,3.55a5.06,5.06,0,0,1-4.58,0L239.42,216.62a5.06,5.06,0,0,1-2.29-4v-.91a5.08,5.08,0,0,1,2.29-4l6.16-3.55a5,5,0,0,1,4.57,0L438.41,312.92A5,5,0,0,1,440.7,316.88Z" style="fill:#f0f0f0"></path><path d="M430,314.24v11.62a4.62,4.62,0,0,0,2.29-.55l6.15-3.55a5.05,5.05,0,0,0,2.29-4v-.91a5,5,0,0,0-2.29-4l-3.07-1.78Z" style="fill:#e0e0e0"></path><path d="M427.68,319.12,239.42,210.43a1.4,1.4,0,0,1,0-2.65l6.16-3.55a5,5,0,0,1,4.57,0L438.41,312.92c1.27.73,1.27,1.91,0,2.64l-6.15,3.56A5.06,5.06,0,0,1,427.68,319.12Z" style="fill:#fafafa"></path><path d="M421.92,327.73v.91a5.06,5.06,0,0,1-2.29,4l-6.16,3.56a5,5,0,0,1-4.57,0L220.64,227.47a5.05,5.05,0,0,1-2.29-4v-.91a5,5,0,0,1,2.29-4l6.15-3.56a5.06,5.06,0,0,1,4.58,0L419.63,323.76A5.08,5.08,0,0,1,421.92,327.73Z" style="fill:#f0f0f0"></path><path d="M411.19,325.08V336.7a4.71,4.71,0,0,0,2.28-.54l6.16-3.56a5.06,5.06,0,0,0,2.29-4v-.91a5.08,5.08,0,0,0-2.29-4L416.55,322Z" style="fill:#e0e0e0"></path><path d="M408.9,330,220.64,221.27c-1.27-.73-1.27-1.91,0-2.64l6.15-3.56a5.06,5.06,0,0,1,4.58,0L419.63,323.76a1.4,1.4,0,0,1,0,2.65L413.47,330A5,5,0,0,1,408.9,330Z" style="fill:#fafafa"></path><path d="M454.35,236.51a3.28,3.28,0,0,1,1.47,2.56c0,.93-.66,1.32-1.47.85a3.26,3.26,0,0,1-1.48-2.56C452.87,236.42,453.53,236,454.35,236.51Z" style="fill:#e0e0e0"></path><path d="M454.35,258.2a3.28,3.28,0,0,1,1.47,2.56c0,.93-.66,1.32-1.47.85a3.26,3.26,0,0,1-1.48-2.56C452.87,258.11,453.53,257.73,454.35,258.2Z" style="fill:#e0e0e0"></path><path d="M454.35,279.89a3.28,3.28,0,0,1,1.47,2.56c0,.93-.66,1.32-1.47.85a3.26,3.26,0,0,1-1.48-2.56C452.87,279.8,453.53,279.42,454.35,279.89Z" style="fill:#e0e0e0"></path><path d="M283,137.74a3.26,3.26,0,0,1,1.48,2.56c0,.94-.66,1.32-1.48.85a3.28,3.28,0,0,1-1.47-2.56C281.48,137.66,282.14,137.27,283,137.74Z" style="fill:#e0e0e0"></path><path d="M283,159.43a3.26,3.26,0,0,1,1.48,2.56c0,.94-.66,1.32-1.48.85a3.27,3.27,0,0,1-1.47-2.55C281.48,159.35,282.14,159,283,159.43Z" style="fill:#e0e0e0"></path><path d="M283,181.12a3.26,3.26,0,0,1,1.48,2.56c0,.94-.66,1.32-1.48.85a3.27,3.27,0,0,1-1.47-2.55C281.48,181,282.14,180.66,283,181.12Z" style="fill:#e0e0e0"></path><path d="M442.13,297.79a.79.79,0,0,1,0,1.49,2.82,2.82,0,0,1-2.59,0,.79.79,0,0,1,0-1.49A2.88,2.88,0,0,1,442.13,297.79Z" style="fill:#e0e0e0"></path><path d="M423.29,308.72c.72.41.72,1.08,0,1.5a2.86,2.86,0,0,1-2.58,0c-.72-.42-.72-1.09,0-1.5A2.88,2.88,0,0,1,423.29,308.72Z" style="fill:#e0e0e0"></path><path d="M404.46,319.66a.79.79,0,0,1,0,1.49,2.88,2.88,0,0,1-2.59,0,.78.78,0,0,1,0-1.49A2.82,2.82,0,0,1,404.46,319.66Z" style="fill:#e0e0e0"></path><path d="M270.88,199a.79.79,0,0,1,0,1.49,2.88,2.88,0,0,1-2.59,0,.79.79,0,0,1,0-1.49A2.82,2.82,0,0,1,270.88,199Z" style="fill:#e0e0e0"></path><path d="M252.05,209.91a.79.79,0,0,1,0,1.49,2.82,2.82,0,0,1-2.59,0,.78.78,0,0,1,0-1.49A2.88,2.88,0,0,1,252.05,209.91Z" style="fill:#e0e0e0"></path><path d="M233.21,220.84a.79.79,0,0,1,0,1.5,2.88,2.88,0,0,1-2.59,0,.79.79,0,0,1,0-1.5A2.88,2.88,0,0,1,233.21,220.84Z" style="fill:#e0e0e0"></path><path d="M367.16,187.34a3.26,3.26,0,0,1,1.47,2.55c0,.94-.66,1.32-1.47.85a3.24,3.24,0,0,1-1.48-2.55C365.68,187.25,366.34,186.87,367.16,187.34Z" style="fill:#e0e0e0"></path><path d="M367.16,209a3.26,3.26,0,0,1,1.47,2.55c0,.94-.66,1.32-1.47.85a3.24,3.24,0,0,1-1.48-2.55C365.68,208.94,366.34,208.56,367.16,209Z" style="fill:#e0e0e0"></path><path d="M367.16,230.72a3.26,3.26,0,0,1,1.47,2.55c0,.94-.66,1.32-1.47.85a3.24,3.24,0,0,1-1.48-2.55C365.68,230.63,366.34,230.25,367.16,230.72Z" style="fill:#e0e0e0"></path><path d="M355.08,248.57c.72.42.72,1.09,0,1.5a2.88,2.88,0,0,1-2.59,0c-.72-.41-.72-1.08,0-1.5A2.86,2.86,0,0,1,355.08,248.57Z" style="fill:#e0e0e0"></path><path d="M336.25,259.51a.79.79,0,0,1,0,1.49,2.88,2.88,0,0,1-2.59,0,.79.79,0,0,1,0-1.49A2.82,2.82,0,0,1,336.25,259.51Z" style="fill:#e0e0e0"></path><path d="M317.41,270.44a.78.78,0,0,1,0,1.49,2.8,2.8,0,0,1-2.58,0,.79.79,0,0,1,0-1.49A2.88,2.88,0,0,1,317.41,270.44Z" style="fill:#e0e0e0"></path></g></g><g id="freepik--Bottle--inject-457"><g id="freepik--Water--inject-457"><path d="M393.17,353.81a34.9,34.9,0,0,0-2.45-6.34c-.11-.23-.22-.46-.34-.69a13,13,0,0,1,.18-12.26l.21-.39a13.76,13.76,0,0,0,1.9-7.21,8.52,8.52,0,0,0-4.11-6.82,14.68,14.68,0,0,0-1.91-.93,3.27,3.27,0,0,1-2.08-3l0-3.74-11.95,0,0,3.73a3.25,3.25,0,0,1-2.09,3,13.08,13.08,0,0,0-1.92.92,8.49,8.49,0,0,0-4.17,6.78,13.92,13.92,0,0,0,1.84,7.23l.2.36a13,13,0,0,1,.1,12.28c-.12.23-.23.46-.34.69a34.29,34.29,0,0,0-2.5,6.33,29.54,29.54,0,0,0-.59,6.43l-.06,17.39c0,2.26,1.47,4.52,4.44,6.25a20.86,20.86,0,0,0,8.64,2.52,25.85,25.85,0,0,0,4.31,0,21,21,0,0,0,8.61-2.46c3-1.7,4.48-4,4.49-6.2l.05-12.58c0-1.57.06-3.21.07-4.85A29.43,29.43,0,0,0,393.17,353.81Z" style="fill:#BA68C8"></path><path d="M390.56,334.52l.21-.39a13.77,13.77,0,0,0,1.86-6.1,10.62,10.62,0,0,1-1.13,2.47,23.56,23.56,0,0,1-5.39,5.62c-2,1.67-4.32,3.57-4.57,6.21s1.55,4.86,3.59,6.4,4.43,2.62,6.27,4.4a15.31,15.31,0,0,1,2.08,2.6,17.45,17.45,0,0,0-.31-1.92,34.9,34.9,0,0,0-2.45-6.34c-.11-.23-.22-.46-.34-.69A13,13,0,0,1,390.56,334.52Z" style="opacity:0.15"></path><path d="M370.62,316.54v2c0,1.19.78,2.4,2.36,3.33a12.74,12.74,0,0,0,11.49.05,5.41,5.41,0,0,0,1.78-1.55,3,3,0,0,0,.6-1.75v-2.05a2,2,0,0,0-.06-.54,4.3,4.3,0,0,0-2.3-2.78l-.12-.07a12.75,12.75,0,0,0-11.36,0,4.38,4.38,0,0,0-2.33,2.76A2.21,2.21,0,0,0,370.62,316.54Z" style="fill:#37474f"></path><path d="M384.46,319.89c3.18-1.82,3.19-4.79,0-6.63a12.72,12.72,0,0,0-11.48-.05c-3.18,1.82-3.19,4.79,0,6.63A12.66,12.66,0,0,0,384.46,319.89Z" style="fill:#263238"></path><path d="M370.62,314.19v1.21a2.21,2.21,0,0,0,.06.57,4.33,4.33,0,0,0,2.31,2.77,11.11,11.11,0,0,0,5.07,1.37,12,12,0,0,0,6.41-1.33,5.53,5.53,0,0,0,1.79-1.54,3.12,3.12,0,0,0,.53-1.2,2.06,2.06,0,0,0,.06-.55v-1.25a4,4,0,0,0-2.36-3.33c-.14-.08-.28-.16-.43-.23a12.77,12.77,0,0,0-11.05.19C371.42,311.78,370.62,313,370.62,314.19Z" style="fill:#37474f"></path><path d="M370.62,314.15c0,2.58,3.62,4.68,8.1,4.7s8.13-2.06,8.14-4.63-3.62-4.69-8.1-4.7S370.63,311.58,370.62,314.15Z" style="fill:#455a64"></path><path d="M376,309.36l0,4.21a1.5,1.5,0,0,0,0,.2,1.53,1.53,0,0,0,.8,1,4,4,0,0,0,1.76.47,4.17,4.17,0,0,0,2.22-.46,2.08,2.08,0,0,0,.62-.53,1,1,0,0,0,.18-.42.63.63,0,0,0,0-.19v-4.22a1.38,1.38,0,0,0-.81-1.15l-.15-.08a4.43,4.43,0,0,0-3.83.06A1.4,1.4,0,0,0,376,309.36Z" style="fill:#37474f"></path><path d="M376,309.35c0,.89,1.25,1.62,2.8,1.63s2.82-.71,2.82-1.61-1.25-1.62-2.8-1.63S376,308.46,376,309.35Z" style="fill:#455a64"></path><path d="M377.76,309.36c0,.31.45.57,1,.58s1-.26,1-.57-.45-.58-1-.58S377.76,309,377.76,309.36Z" style="fill:#263238"></path></g></g><g id="freepik--Character--inject-457"><g id="freepik--character--inject-457"><g id="freepik--Rope--inject-457"><path d="M174.75,384.08c-2.34,0-4.69,0-7.07-.12-21.78-.77-36.7-6.7-44.35-17.62-13-18.58-3.52-47.82,4.1-71.32,1.51-4.64,2.93-9,4.07-13,8.94-31.23,8.85-46.94,8.79-56.33,0-4.66,0-7.47,1.13-9.69a.51.51,0,0,1,.89.48c-1.07,2-1.05,4.7-1,9.2.05,8.83.15,25.25-8.83,56.61-1.14,4-2.57,8.41-4.08,13.06-7.55,23.29-16.95,52.27-4.23,70.43,7.46,10.66,22.11,16.44,43.56,17.2,68.4,2.4,121.1-30.09,161.1-99.37,27.48-47.59,31.92-89.51,28.39-94.74-.36-.53-.66-.48-.77-.47a.5.5,0,0,1-.14-1,1.76,1.76,0,0,1,1.74.9c4.44,6.57-1.67,49.58-28.35,95.8C290.87,351.31,240.13,384.08,174.75,384.08Z" style="fill:#263238"></path></g><g id="freepik--Bottom--inject-457"><path d="M277,176.12l-56.51-5.39s25.3,76.06,29.05,91.64c-5.28,3.07-19.59,8.41-29.38,22.38-5.39,7.68-12,19.05-17.9,25.13.17,0-1.72.89-2.53,1.33-1.13.6-2.29,1.15-3.42,1.74l-7.17,3.71a8.44,8.44,0,0,0-2.38,1.6,5.94,5.94,0,0,0-1.08,1.83c-1.91,4.83.21,10.22.29,15.41.09,6.26-2.83,12.43-1.84,18.62.93,5.74,5.11,10.45,9.79,13.9a10.24,10.24,0,0,0,4.2,2.11,6.07,6.07,0,0,0,6.83-5.28,15.45,15.45,0,0,0-.49-3.93,51.91,51.91,0,0,1-.68-8.26,54.45,54.45,0,0,1,.39-10.61,31.6,31.6,0,0,1,2.13-7.06,22.39,22.39,0,0,1,3.63-5.84,24.76,24.76,0,0,1,4-4.15c1.94-1.53,5.35-4.26,7.36-5.7,15.72-11.21,28.39-19.13,45.5-30.76,15.91-10.83,21.11-15,21.36-25.23.46-18.52.66-21.67-3.15-50.62C281.71,188,277,176.12,277,176.12Z" style="fill:#ffa8a7"></path><path d="M288.67,244.54s-1.35-21.3-4.27-37.89c-3.62-20.52-4.6-22.53-7.41-30.53l-57-5.39,21.64,66.58,7.24,24.79a74.41,74.41,0,0,0-27.11,19.46c-2.54,3.16-9.26,14.61-9.26,14.61s.81,4.34,5,11a15.62,15.62,0,0,0,10.63,7.31s33.07-21.37,41.63-27.28,14.88-10.39,17.12-15.18S289.15,260.37,288.67,244.54Z" style="fill:#37474f"></path><path d="M278,194.41H227.73l13.94,42.9,7.24,24.79a75.32,75.32,0,0,0-22.87,15l10.88,20.58a41.38,41.38,0,0,0-3,13c9.87-6.39,29.55-19.18,35.87-23.55,2.78-1.92,5.32-3.69,7.57-5.36l-11-63.09S280.48,209.36,278,194.41Z" style="fill:#263238"></path><path d="M204.37,348.63c.18-5.62,3.49-12.7,5.19-15.56,3.06-5.15,6.2-6.86,4.33-8.07l-.73.51c-4.47.95-9.41-2.37-11.35-2.79S197.06,330,195.6,336a39.35,39.35,0,0,0-.66,14.72Z" style="fill:#BA68C8"></path><g style="opacity:0.2"><path d="M204.37,348.63c.18-5.62,3.49-12.7,5.19-15.56,3.06-5.15,6.2-6.86,4.33-8.07l-.73.51c-4.47.95-9.41-2.37-11.35-2.79S197.06,330,195.6,336a39.35,39.35,0,0,0-.66,14.72Z"></path></g><path d="M199.77,371.93c-.9,1-2.21,1.3-7.39-1.25-4.58-2.26-8-8.3-10.61-13.94s-1.61-13.16-.22-17.53a35.25,35.25,0,0,0,.76-14.52c-.53-3.11-.74-3.47.39-4.46s2.17-1.79,2.17-1.79Z" style="fill:#ebebeb"></path><path d="M200.32,311.45c-1.86,1.78-2.36,2.71-2.39,5.67a8.17,8.17,0,0,0,1.71,5.12c1.15,1.45-1.92,6.74-3.4,13.31-1,4.56-1.57,12.72-.88,13.59,1.63-1.18,6.33-1.49,9-.95a90.94,90.94,0,0,0,1,12.58c.84,4.71,1.83,5.54.43,7.44-.79,1.08-4.2,3.65-6.52,3.54-1.69-.07-8.19-2.9-13.11-11.17-4.59-7.72-3-13.52-1.8-20.71,1-6,1-9.86.54-12.49-.61-3.89-1.18-6.59-.06-8.94a13.38,13.38,0,0,1,5-4.11c3.45-1.72,6.31-2.67,8.92-4.3a3.82,3.82,0,0,1,3.47-.15C201.78,310.32,200.93,311,200.32,311.45Z" style="fill:#BA68C8"></path><path d="M203.49,366.85c-2,1-2.69,1.32-3.89,3a3.36,3.36,0,0,1-3.34,1.9c-3-.35-6.1-3.11-7.22-4.3s-5.42-6.65-7-10.65a22.49,22.49,0,0,1-1.16-13.72c1.32-5.77,2.06-7.79,1.93-13.53s-1.1-7.19-.86-8.41a8.82,8.82,0,0,0-1,1c-.2,2.15,1.1,3.52.73,11.26-.14,2.78-1.18,6.67-1.91,9.83a24.86,24.86,0,0,0,1.34,14.35c2,5.12,5.81,11.59,12.4,14.63a11.61,11.61,0,0,0,10.83-.84c1.07-.83,2.11-3.82,2.07-4.65C206.45,365.64,205.14,366,203.49,366.85Z" style="fill:#455a64"></path><path d="M194.8,350.31c3.42-2.13,9.35-1.52,9.6-.38l0,.6s.46,0,.46-1.59c-.23-1.1-1-1.83-4.17-1.89a14.07,14.07,0,0,0-6.18,1.24S194.1,350,194.8,350.31Z" style="fill:#37474f"></path><path d="M195,343.91c5.19-1.84,9.74-.27,10,.5l-.08.37s.63,0,.63-1.59c-.16-.59-1.18-1.74-4.12-2a14.88,14.88,0,0,0-6.46.91S194.33,343.37,195,343.91Z" style="fill:#37474f"></path><path d="M195.47,338.59c6.28-2.66,10.83.11,11,.91l-.14.37s.65.08.8-1.53c-.1-.61-1-1.82-3.92-2.37a13.69,13.69,0,0,0-7.59.88S194.9,338,195.47,338.59Z" style="fill:#37474f"></path><path d="M196.64,332.29c5.81-1.66,12,1.28,12.19,2.08l-.16.32s.67.13.82-1.48c-.1-.61-1.15-1.33-3.92-2.37a14.19,14.19,0,0,0-8.47-.36S196.06,331.69,196.64,332.29Z" style="fill:#37474f"></path><path d="M270.93,420.75a17.46,17.46,0,0,0,5.68-1.38,4.94,4.94,0,0,0,2.54-2.26,4.22,4.22,0,0,0-.57-4c-1-1.46-2.41-2.24-3.74-3.28a54.63,54.63,0,0,1-12.83-14c-3.43-5.57-4.5-10-4.46-16.82a84.66,84.66,0,0,1,1.26-12c3.26-17.18,8.85-34.8,12-48.57,5.43-23.5,5.29-24.14,2.51-40.19-4.08-23.61-8-37.15-13.27-62.53,16-9.72,16.88-21.61,15.73-39.24-9.05,3-19.66,2.9-28.9,2.4s-18.52-1.12-27-4.77c-18.51,32.82-14.49,38.69-1.52,73.86,6.4,17.35,22.37,49.94,22.37,49.94-3.8,14.46-4.65,21.72-4.43,37.9.15,10.69,1.77,25.68.79,32.05a10.86,10.86,0,0,1-.93,2.89,10.49,10.49,0,0,1-1.77,2.48,22.29,22.29,0,0,0-3.21,6,10.22,10.22,0,0,0-.09,8.3c1.67,3.37,4.86,5.66,7.18,8.52a58.25,58.25,0,0,1,6.41,10.41c.68,1.33,1.35,2.67,2.14,3.94A23.72,23.72,0,0,0,262.53,421c2.21.41,4.85,0,7.09-.17C270.06,420.84,270.49,420.8,270.93,420.75Z" style="fill:#ffa8a7"></path><path d="M266.32,399.36c-2.27-2.95-6.57-12-7.22-14.27-1.17-4.15.61-6.19-1.92-7.85-2.7-1.25-7.85.53-11.09,2.62s2,11.36,3.58,14.34c2,3.91,5.58,9.15,9.16,12.3C261.32,404.1,264.1,402.16,266.32,399.36Z" style="fill:#BA68C8"></path><path d="M266.32,399.36c-2.27-2.95-6.57-12-7.22-14.27-1.17-4.15.61-6.19-1.92-7.85-2.7-1.25-7.85.53-11.09,2.62s2,11.36,3.58,14.34c2,3.91,5.58,9.15,9.16,12.3C261.32,404.1,264.1,402.16,266.32,399.36Z" style="opacity:0.2"></path><path d="M275.54,420c-2,2.76-2.83,3-7.46,3.85-4.11.72-12-1.4-16.9-4.39s-9.67-9.41-11.63-14.49a42.75,42.75,0,0,0-8.62-12.88c-2.24-2.32-2.58-2.23-2.62-4.05s.57-1.51.63-3C244.4,396.92,260.29,407.88,275.54,420Z" style="fill:#ebebeb"></path><path d="M236.73,369.94c-.14,3.05.25,3.5,2.25,6.27,1.24,1.73,2.36,2.28,5,4.16s4.05,9.26,6,13.23c1.39,2.76,5.09,9.48,8.27,11.44a12.9,12.9,0,0,1,8.47-5.27,32.63,32.63,0,0,0,7.62,8.28c2.26,1.68,6.71,3.52,5.25,6.82-.83,1.85-1.44,3.61-5.48,5.46-2.94,1.34-11.31,1.83-17.13-.65-10.66-4.53-12.07-10.09-14.52-15.67-2-4.65-5.62-8.71-7.69-11.18-3.07-3.66-4.81-3.8-5.75-7.74-.59-2.45.37-4,1.43-6.52s3.36-6.36,4.33-9c.61-1.67,1.43-1.93,2.34-1.73Z" style="fill:#BA68C8"></path><path d="M277,415a3.94,3.94,0,0,0-2.81,3.59c-.22,1.56.11,3-1.9,3.86-2.82,1.19-5.37,1.13-9.16.56a31.14,31.14,0,0,1-11.6-3.74,26.93,26.93,0,0,1-9.88-10.69,79.73,79.73,0,0,0-7.39-12.84c-2.5-3.26-4.06-3.8-6-6.74,0,.54-.11,1-.17,1.43,2.78,3.9,4.68,4.87,7.93,9.54,1.17,1.68,3.15,6,5,9.69a30.93,30.93,0,0,0,10.63,11.19c4.23,2.73,13.78,4.42,18.56,3.56,6.48-1.16,8.56-3.31,9.57-4.86.73-1.14.71-3.08.66-4.65C280.35,412.93,278.86,414.28,277,415Z" style="fill:#455a64"></path><path d="M257.94,405.68c1.55-2.37,6.18-5.68,9.33-5.13l.31.41c.31-.38.06-.76-.76-1.76-.6-.69-2.41-.55-4.91.61-1.76.83-4.44,2.48-5.46,4.43A2,2,0,0,0,257.94,405.68Z" style="fill:#37474f"></path><path d="M253.33,401.05c1.8-2.18,7.61-6.31,10.67-5.42l.25.45c.35-.35.17-.75-.54-1.84-.52-.74-2.55-.44-4.91.47-1.82.7-5.57,2.92-6.79,4.74A1.93,1.93,0,0,0,253.33,401.05Z" style="fill:#37474f"></path><path d="M250.33,395.59c1.9-2.09,8.08-6,11.1-5l.22.46c.37-.33.2-.74-.45-1.87-.49-.77-2.69-.48-5.1.31-1.84.62-5.7,2.65-7,4.41A2,2,0,0,0,250.33,395.59Z" style="fill:#37474f"></path><path d="M247.75,389.53c2.07-1.94,8.53-5.35,11.46-4.08l.17.47c.39-.3.28-.71-.29-1.89-.42-.8-2.64-.7-5.1-.09-1.89.46-5.9,2.18-7.34,3.83A2,2,0,0,0,247.75,389.53Z" style="fill:#37474f"></path><path d="M266.46,241.55,261,216.21s23.06-6,15.95-40.09l-57-5.39s-9,16.57-11.43,24a46.82,46.82,0,0,0-1.3,26.56c2.47,11.26,7.4,20.75,11.24,29.25s21.23,47.1,21.23,47.1A82.11,82.11,0,0,0,235.89,322c-.08,12.71.75,30,.75,30a26.92,26.92,0,0,0,13.21,5.45c7.61.76,11.15-.67,11.15-.67s11.56-42.34,13.23-50.71a55.46,55.46,0,0,0,.83-20.58C272.91,270.4,267.8,248.73,266.46,241.55Z" style="fill:#455a64"></path><path d="M251.25,295.6c-.37-4.63-3.72-13.6-8-25-3.89-10.41-8.3-22.21-11.43-33.45-6.27-22.59-9.33-31.13-24.46-38.29l-.24,1c14.58,7,17.59,15.39,23.74,37.55,3.14,11.29,7.55,23.11,11.45,33.54,4,10.85,7.55,20.21,7.91,24.7s-.95,10.94-2.35,17.61c-1.23,5.89-2.51,12-2.76,17.52-.36,7.66-5.79,8.93-7.44,9.14a8.61,8.61,0,0,1-1.52,0l0,1,.36,0a10.63,10.63,0,0,0,1.25-.08c1.85-.23,7.92-1.64,8.32-10.08.25-5.47,1.52-11.51,2.74-17.36C250.3,306.75,251.63,300.37,251.25,295.6Z" style="fill:#263238"></path></g><g id="freepik--Top--inject-457"><g id="freepik--Arm--inject-457"><path d="M290.09,164.58c2.15-3.62,4.45-12.39,11.13-8.93,7.65,4,21.43,11.3,26.34,13.61s6.8,1.87,9.66,2.07-1.42,7.23-1.42,7.23l1.84,13.24c-4.49,0-6.64-.69-9.31-2.52s-4-4.37-7.19-6.21-22.12-6.28-27.87-8.23S287.94,168.21,290.09,164.58Z" style="fill:#ffa8a7"></path><path d="M329.23,177.63a8.47,8.47,0,0,0,2.25,4.93s-2.38-.55-1.88,1.92,5.59,4.47,5.59,4.47l1-.26-1.58-5.87A9,9,0,0,1,329.23,177.63Z" style="fill:#f28f8f"></path><path d="M358.24,184.58A1.8,1.8,0,0,1,359.4,186a5.68,5.68,0,0,1-1.33,5,1.8,1.8,0,0,1-1.71.64l-22.44-6a1.8,1.8,0,0,1-1.16-1.41,5.65,5.65,0,0,1,1.33-5,1.83,1.83,0,0,1,1.71-.65Z" style="fill:#37474f"></path><path d="M334.09,179.21a5.65,5.65,0,0,0-1.33,5,1.56,1.56,0,0,0,2.86.77,5.65,5.65,0,0,0,1.33-5,1.81,1.81,0,0,0-1.15-1.42A1.83,1.83,0,0,0,334.09,179.21Z" style="fill:#455a64"></path><path d="M333.2,194c1.61,1,2.19,0,3.22-.47s1.17,1.06,3.49.29a15.07,15.07,0,0,0,1.68-.65c2.09.62,3-.64,3.55-.84a4.31,4.31,0,0,0,3.8,0c.43-.26,2.64-2,2.64-2l-2.26-.6a34.62,34.62,0,0,1-3.24-4.63c-.91-1.39-1.5-3.28-2.44-4.18-2.24-2.12-4.62-1.51-4.6-.67a5.69,5.69,0,0,0,.86,2.25c-1.48-2.63-3.84-2.63-4.23-1.37a8.6,8.6,0,0,0,.37,2.65c-1.49-3.06-3.85-2.25-3.84-1.64a13.66,13.66,0,0,0,.53,3.2s-1.26-3.25-3.27-2.17c-.65.36.34,5.73.6,6.91C330.57,192.37,331.65,193,333.2,194Z" style="fill:#ffa8a7"></path><path d="M332.73,185.32l.56,2.31a11.39,11.39,0,0,0,.72,2.23,10.73,10.73,0,0,0,1.39,1.88l1.53,1.8c-.58-.54-1.14-1.1-1.67-1.68a9.41,9.41,0,0,1-1.46-1.9,9.75,9.75,0,0,1-.69-2.29C333,186.89,332.84,186.11,332.73,185.32Z" style="fill:#f28f8f"></path><path d="M336,183.76c.29.9.53,1.81.74,2.73a7.54,7.54,0,0,0,.9,2.62,17.4,17.4,0,0,0,1.88,2.07l2,2c-.74-.58-1.47-1.19-2.16-1.83a15.39,15.39,0,0,1-1.95-2.08,7.38,7.38,0,0,1-.88-2.71C336.42,185.6,336.24,184.68,336,183.76Z" style="fill:#f28f8f"></path><path d="M339.9,182.48a22.61,22.61,0,0,1,1,2.64,10.78,10.78,0,0,0,1.06,2.57c.49.79,1.05,1.55,1.59,2.31l1.61,2.31a51.46,51.46,0,0,1-3.41-4.49,10.31,10.31,0,0,1-1-2.65C340.45,184.27,340.2,183.37,339.9,182.48Z" style="fill:#f28f8f"></path><path d="M334.73,171.29c6.83-.1,9.37,1.4,11.59,3.77s3.51,4.82,6.09,7.8c1.68,1.95-.55,3.36-3.63,2.2s-4.65-4.59-7.76-5.1l-5.22-1.4Z" style="fill:#ffa8a7"></path><path d="M343.64,180.9a4.66,4.66,0,0,0-3.48-1.39,1.63,1.63,0,0,0-.87.34.52.52,0,0,0-.19.38,2.46,2.46,0,0,0,.08.46,7.39,7.39,0,0,0,.77,1.75l-.11.07a5.12,5.12,0,0,0-1.29-1.52,2.58,2.58,0,0,0-1.83-.6,1.15,1.15,0,0,0-.81.45,1.13,1.13,0,0,0-.16.91,15.54,15.54,0,0,0,.39,2l.18.78-.37-.72a4.58,4.58,0,0,0-1.22-1.6,2.21,2.21,0,0,0-1.85-.49c-.29.08-.64.24-.56.55a8.8,8.8,0,0,0,.1,1,13.8,13.8,0,0,0,.42,2l-.22.08a4.78,4.78,0,0,0-1.4-2,1.57,1.57,0,0,0-1.11-.33,1.72,1.72,0,0,0-.57.18c-.13,0-.16.28-.18.48a25,25,0,0,0,.52,5,12.74,12.74,0,0,0,.58,2.44,4.44,4.44,0,0,0,1.5,2c.33.25.68.48,1,.71a3.42,3.42,0,0,0,1.12.54,1.69,1.69,0,0,0,1.2-.22,11.81,11.81,0,0,1,1.1-.61,11.94,11.94,0,0,0-1.09.64,1.74,1.74,0,0,1-1.22.24,3.47,3.47,0,0,1-1.16-.52,12.12,12.12,0,0,1-1.06-.7,4.54,4.54,0,0,1-1.56-2,14.15,14.15,0,0,1-.61-2.47,25.65,25.65,0,0,1-.55-5c0-.2,0-.48.28-.64a2.31,2.31,0,0,1,.63-.2,1.77,1.77,0,0,1,1.26.36,5.05,5.05,0,0,1,1.5,2.07l-.22.08a16.28,16.28,0,0,1-.44-2.05,8.93,8.93,0,0,1-.09-1,.7.7,0,0,1,0-.31.68.68,0,0,1,.2-.24,1.24,1.24,0,0,1,.51-.23,2.47,2.47,0,0,1,2,.54,5,5,0,0,1,1.27,1.69l-.18.06a17,17,0,0,1-.38-2,1.23,1.23,0,0,1,1.13-1.54,2.69,2.69,0,0,1,1.94.64,5.16,5.16,0,0,1,1.32,1.58l-.12.06a7.15,7.15,0,0,1-.78-1.79,2,2,0,0,1-.07-.49.64.64,0,0,1,.23-.46,1.76,1.76,0,0,1,.93-.34A4.66,4.66,0,0,1,343.64,180.9Z" style="fill:#f28f8f"></path><path d="M262.29,111.71c7.33.26,12,1.29,18.61,11.72l22.17,34.92s-4.5,18-9.2,16.7-7-1.85-10.58-6.93C278,160.66,266,143.36,266,143.36S251.84,119.31,262.29,111.71Z" style="fill:#ffa8a7"></path></g><g id="freepik--Chest--inject-457"><path d="M255.31,111.18s-16.81-1.59-26.27,1.59l-15.17,5.09c-2.16,2.92-3.76,12.42-2.59,18.53,1,5.24,5.82,27.14,6.94,33.81-4.58,9.25-10.49,25.79-10.49,25.79,14,12.28,66.15,11.54,74.53-3.68,0,0-3.21-12.06-5.92-21.58-.36-7,0-11.11.05-14.95A17.07,17.07,0,0,0,283,142c0-5.77-1.06-9.06-8.89-18s-11.87-12.27-11.87-12.27Z" style="fill:#BA68C8"></path><path d="M260.6,156.14c-6.55,8-23,5.33-27.42-3.16C235.23,166.19,257.7,166.41,260.6,156.14Z" style="opacity:0.2"></path><path d="M218.69,201.39c2.76-7.93,8-23.57,9.13-32.38,1.62-12.13-8.55-32.83-8.55-32.83h-8c0,.07,0,.14,0,.21,1,5.24,5.82,27.14,6.94,33.81-4.58,9.25-10.49,25.79-10.49,25.79C210.28,198.23,214.1,200,218.69,201.39Z" style="fill:#fff;opacity:0.30000000000000004"></path></g><g id="freepik--Head--inject-457"><path d="M244.31,98.85A55.53,55.53,0,0,0,255,90.61c3.35-3.39,1.55-8.55,4.36-11.77,1.44-1.66,4.06-1.83,5.82-3.08A7.21,7.21,0,0,0,268.52,70c0-1.48-1-3.13-2.49-3.15a6.59,6.59,0,0,0,2.54-3.51,3.09,3.09,0,0,0-1.74-3.63,26.93,26.93,0,0,0,4.31-5,9.1,9.1,0,0,0,1.42-6.31,1.39,1.39,0,0,0-.5-1,1.49,1.49,0,0,0-1-.11c-2.5.34-4.91,1.17-7.41,1.52-9,1.26-17.73-3.93-26.76-2.53-7,1.09-14.47,6.84-15.61,14.06a7.14,7.14,0,0,0-5.48,3.36,17.29,17.29,0,0,0-2.21,10.21c1.05,9.13,4.18,14.21,10.33,19.77,3.07,2.77,6.35,5.79,8.11,9.58.57,1.23.08,1.95,1.73,1.72s3.42-1.77,4.8-2.62C240.46,101.19,242.39,100,244.31,98.85Z" style="fill:#263238"></path><path d="M224.94,54c-9.18-6.73-20.62,2.92-18,10.1-5.16-.74-9,4.85-7.91,12.53-4,.4-4.77,6-3.08,9.89-2.73.27-5,3.6-4.32,8-3.36-1.89-6.05,1.48-7.81,3.28-.32-3.21-3.87-3.29-5.85-4.67a7.46,7.46,0,0,0-4.62-7.71c-3.49-1.57-.38-3.81-.38-3.81s-2.82-.25-3.9,5.19,2.64,7.32,5.25,8.4c.4,4,1.72,8.9,7.79,7.24,3.9,3.19,10.71,1.84,11.81-2.13,5.75-1.62,8.55-5.08,6.37-9.8,5.18-1.65,9.09-6.23,6-11.1,3.47.13,9.52-3.92,7-8.9,8.16,2.86,12-.79,14-4.55S224.94,54,224.94,54Z" style="fill:#263238"></path><path d="M230.45,108.23c.09-4.83-.08-12.23-.08-12.23-.74,1.26-5.27,3.4-9-.77-4.32-4.82-4.16-8.64-1.85-11.44,2.64-3.2,7.91-3.06,10.58,1.24,3.56.39,4.5-5.09,1.24-9.82-.55-6.48,6.11-6.94,8.44-15.67,8.83,3.37,16.14-1,22.19,4.63,1.45,3,3.37,7.76,4,16.56.81,12-1.34,17.73-5,19.93-2.19,1.31-4.28,2.21-8.72,2.39v5.3c0,1.63.51,2.56,2.6,2.78,2.23,2.42,7.56,6.72-3.94,8.49-14.83,2.27-23.07-4.2-24.69-5.88C230.05,112.4,230.39,111.26,230.45,108.23Z" style="fill:#ffa8a7"></path><path d="M246.21,90.24l6.41,1.21a3.21,3.21,0,0,1-3.74,2.71A3.41,3.41,0,0,1,246.21,90.24Z" style="fill:#b16668"></path><path d="M246.77,91.62A3.59,3.59,0,0,1,250.68,94a3.13,3.13,0,0,1-1.8.2,3.35,3.35,0,0,1-2.58-2.43A4,4,0,0,1,246.77,91.62Z" style="fill:#f28f8f"></path><path d="M262,69.49l-5,.07A2.41,2.41,0,0,1,259.34,67,2.64,2.64,0,0,1,262,69.49Z" style="fill:#263238"></path><path d="M238.53,72.65l4.84-1.57a2.43,2.43,0,0,0-3.12-1.68A2.68,2.68,0,0,0,238.53,72.65Z" style="fill:#263238"></path><path d="M257.14,76.41a2.15,2.15,0,0,0,2.19,2,2,2,0,0,0,2-2.11,2.15,2.15,0,0,0-2.19-2A2,2,0,0,0,257.14,76.41Z" style="fill:#263238"></path><path d="M242.13,78.61a2.15,2.15,0,0,0,2.19,2,2,2,0,0,0,2-2.1,2.14,2.14,0,0,0-2.18-2A2,2,0,0,0,242.13,78.61Z" style="fill:#263238"></path><polygon points="259.97 82.89 253.45 86.7 249.97 73.3 259.97 82.89" style="fill:#f28f8f"></polygon><path d="M252.18,103.05c-8,.16-15.87-1.51-18.08-4.89a6.66,6.66,0,0,0,4,4.64c4.82,2.1,14.13,2.22,14.13,2.22Z" style="fill:#f28f8f"></path></g><g id="freepik--arm--inject-457"><path d="M200.71,176.12c-3-3-7.51-10.82-13.07-5.75-6.36,5.81-17.78,16.46-21.92,20s-6.08,3.56-8.8,4.5,3.25,6.62,3.25,6.62l1.64,13.26c4.35-1.13,6.25-2.39,8.35-4.84s2.74-5.27,5.33-7.86,19.75-11.8,24.8-15.17S203.72,179.07,200.71,176.12Z" style="fill:#ffa8a7"></path><path d="M166.27,198.85a8.5,8.5,0,0,1-.89,5.35,1.46,1.46,0,0,1,2.31,1.36c.16,2.52-4.25,5.77-4.25,5.77h-1v-6.08A9,9,0,0,0,166.27,198.85Z" style="fill:#f28f8f"></path><path d="M140.05,213.07a1.83,1.83,0,0,0-.75,1.67,5.68,5.68,0,0,0,2.57,4.45,1.84,1.84,0,0,0,1.81.18l20.13-11.62a1.83,1.83,0,0,0,.75-1.67,5.66,5.66,0,0,0-2.57-4.44,1.81,1.81,0,0,0-1.82-.18Z" style="fill:#37474f"></path><path d="M141.87,213.25a5.71,5.71,0,0,1,2.56,4.45,1.81,1.81,0,0,1-.75,1.67,1.84,1.84,0,0,1-1.81-.18,5.68,5.68,0,0,1-2.57-4.45,1.83,1.83,0,0,1,.75-1.67A1.86,1.86,0,0,1,141.87,213.25Z" style="fill:#455a64"></path><path d="M166.67,215.67c-1.3,1.39-2.13.53-3.23.38s-.85,1.33-3.3,1.19a14,14,0,0,1-1.79-.2c-1.85,1.14-3.08.17-3.64.12a4.31,4.31,0,0,1-3.66,1c-.49-.14-3.08-1.27-3.08-1.27l2-1.17a34.79,34.79,0,0,0,1.94-5.31c.52-1.58.59-3.56,1.28-4.67,1.61-2.63,4.06-2.65,4.26-1.83a5.78,5.78,0,0,1-.24,2.39c.75-2.92,3-3.54,3.72-2.41a8.35,8.35,0,0,1,.33,2.65c.65-3.34,3.14-3.18,3.29-2.58a13.89,13.89,0,0,1,.32,3.23s.37-3.47,2.59-2.94c.72.17,1.15,5.62,1.21,6.83C168.79,213.44,167.92,214.33,166.67,215.67Z" style="fill:#ffa8a7"></path><path d="M164.89,207.19c.1.79.19,1.57.24,2.37a10.64,10.64,0,0,1-.07,2.39,10,10,0,0,1-.92,2.21c-.37.7-.77,1.39-1.19,2.06l1-2.14a7.34,7.34,0,0,0,1-4.52Z" style="fill:#f28f8f"></path><path d="M161.28,206.54c0,.94.11,1.88.18,2.82a7.37,7.37,0,0,1-.15,2.84,14.06,14.06,0,0,1-1.35,2.51c-.5.8-1,1.58-1.61,2.33l1.46-2.42a17.18,17.18,0,0,0,1.27-2.49,7.48,7.48,0,0,0,.19-2.76C161.24,208.42,161.24,207.48,161.28,206.54Z" style="fill:#f28f8f"></path><path d="M157.23,206.3c-.07.94-.08,1.87-.09,2.81a10.33,10.33,0,0,1-.3,2.82,54,54,0,0,1-2.13,5.23l1-2.65c.32-.88.66-1.76.94-2.65a10.91,10.91,0,0,0,.35-2.75A22.08,22.08,0,0,1,157.23,206.3Z" style="fill:#f28f8f"></path><path d="M159.32,194.15c-6.62,1.68-8.69,3.78-10.22,6.65s-2.14,5.56-3.86,9.11c-1.12,2.31,1.4,3.09,4.08,1.18s3.3-5.64,6.17-6.93l4.68-2.7Z" style="fill:#ffa8a7"></path><path d="M153.21,205.74a4.64,4.64,0,0,1,3-2.32,1.77,1.77,0,0,1,1,.09.64.64,0,0,1,.34.38,2.14,2.14,0,0,1,.06.5,7.45,7.45,0,0,1-.29,1.93l-.13,0a5.18,5.18,0,0,1,.86-1.86,2.7,2.7,0,0,1,1.71-1.12,1.28,1.28,0,0,1,1,.25,1.35,1.35,0,0,1,.46.94,17.52,17.52,0,0,1,.16,2h-.19a4.82,4.82,0,0,1,.79-2,2.44,2.44,0,0,1,1.81-1.06,1.35,1.35,0,0,1,.56.09.87.87,0,0,1,.26.18.71.71,0,0,1,.1.29c.08.34.14.69.19,1a16.16,16.16,0,0,1,.1,2.09l-.23,0a5,5,0,0,1,.91-2.39,1.77,1.77,0,0,1,1.12-.67,1.83,1.83,0,0,1,.66,0c.3.09.35.36.44.54a25.1,25.1,0,0,1,.77,5,13.36,13.36,0,0,1,.05,2.53,4.55,4.55,0,0,1-1,2.33c-.27.33-.56.64-.85.94a3.28,3.28,0,0,1-1,.8,1.72,1.72,0,0,1-1.24.09,10.52,10.52,0,0,0-1.22-.34c.42.06.81.21,1.22.31a1.66,1.66,0,0,0,1.22-.1,3.46,3.46,0,0,0,.94-.81,12.25,12.25,0,0,0,.82-1,4.36,4.36,0,0,0,.94-2.27,13.19,13.19,0,0,0-.06-2.51,25.56,25.56,0,0,0-.8-5c-.07-.18-.16-.41-.3-.42a1.67,1.67,0,0,0-.59,0,1.57,1.57,0,0,0-1,.6,4.75,4.75,0,0,0-.84,2.28h-.23a15.56,15.56,0,0,0-.11-2.05c0-.34-.1-.68-.17-1s-.38-.38-.69-.38a2.21,2.21,0,0,0-1.66.95,4.76,4.76,0,0,0-.76,1.86l-.17.8,0-.81a16.85,16.85,0,0,0-.13-2,1.08,1.08,0,0,0-1.3-1.06,2.6,2.6,0,0,0-1.61,1,5.11,5.11,0,0,0-.85,1.81l-.13,0a7.23,7.23,0,0,0,.3-1.89,2.42,2.42,0,0,0-.05-.47.55.55,0,0,0-.28-.32,1.69,1.69,0,0,0-.92-.1A4.62,4.62,0,0,0,153.21,205.74Z" style="fill:#f28f8f"></path><path d="M213.87,117.86c-7,2.14-11.24,4.34-14.94,16.13-4.51,14.35-12.37,39.47-12.37,39.47s9,16.22,13.2,13.75,6.27-3.6,8.42-9.44c3.16-8.56,10.34-28.39,10.34-28.39S225.94,122.5,213.87,117.86Z" style="fill:#ffa8a7"></path></g></g><path d="M179.87,305.63a11.75,11.75,0,0,0-3.64,3.62,21.9,21.9,0,0,0-2.44,4.52,19.19,19.19,0,0,0-1.32,10c0,.19.22.08.24-.06A36,36,0,0,1,175,314a29.11,29.11,0,0,1,2.16-4.19c.87-1.4,1.87-2.7,2.75-4.09C180,305.71,180,305.58,179.87,305.63Zm-4-6.32a31.11,31.11,0,0,0-4.54,5.18A38.73,38.73,0,0,0,168,310.7a40.47,40.47,0,0,0-2.28,7,23.63,23.63,0,0,0-.54,7.59c0,.08.09,0,.09,0,.25-1.25.59-2.48.85-3.73s.45-2.36.73-3.52a45.05,45.05,0,0,1,5.25-12.71,63.2,63.2,0,0,1,3.82-5.9S175.88,299.27,175.84,299.31Zm123.54-25.62a14.89,14.89,0,0,0,.33-6.43c0-.13-.15,0-.17.05-.56,2-.94,4-1.53,6a36.56,36.56,0,0,1-2.1,5.53,45.81,45.81,0,0,1-7.13,10.27c-.12.13,0,.4.15.27a24.15,24.15,0,0,0,8.27-9.62A28.56,28.56,0,0,0,299.38,273.69Zm9.55-7.95a78.7,78.7,0,0,1-2.32,8.51,55.33,55.33,0,0,1-3.31,8.42,54.6,54.6,0,0,1-4.18,7.12c-.85,1.25-1.78,2.43-2.68,3.65s-1.81,2.63-2.78,3.91c0,0,0,.18,0,.12a29.91,29.91,0,0,0,6.66-6.86,52,52,0,0,0,4.59-8,50.52,50.52,0,0,0,3-8.33,39.41,39.41,0,0,0,1-8.59C309,265.66,308.94,265.69,308.93,265.74Z" style="fill:#e0e0e0"></path><g style="opacity:0.30000000000000004"><path d="M175.84,299.31a31.11,31.11,0,0,0-4.54,5.18A38.73,38.73,0,0,0,168,310.7a40.47,40.47,0,0,0-2.28,7,23.63,23.63,0,0,0-.54,7.59c0,.08.09,0,.09,0,.25-1.25.59-2.48.85-3.73s.45-2.36.73-3.52a45.05,45.05,0,0,1,5.25-12.71,63.2,63.2,0,0,1,3.82-5.9S175.88,299.27,175.84,299.31Zm4,6.32a11.75,11.75,0,0,0-3.64,3.62,21.9,21.9,0,0,0-2.44,4.52,19.19,19.19,0,0,0-1.32,10c0,.19.22.08.24-.06A36,36,0,0,1,175,314a29.11,29.11,0,0,1,2.16-4.19c.87-1.4,1.87-2.7,2.75-4.09C180,305.71,180,305.58,179.87,305.63Zm119.51-31.94a14.89,14.89,0,0,0,.33-6.43c0-.13-.15,0-.17.05-.56,2-.94,4-1.53,6a36.56,36.56,0,0,1-2.1,5.53,45.81,45.81,0,0,1-7.13,10.27c-.12.13,0,.4.15.27a24.15,24.15,0,0,0,8.27-9.62A28.56,28.56,0,0,0,299.38,273.69Zm9.55-7.95a78.7,78.7,0,0,1-2.32,8.51,55.33,55.33,0,0,1-3.31,8.42,54.6,54.6,0,0,1-4.18,7.12c-.85,1.25-1.78,2.43-2.68,3.65s-1.81,2.63-2.78,3.91c0,0,0,.18,0,.12a29.91,29.91,0,0,0,6.66-6.86,52,52,0,0,0,4.59-8,50.52,50.52,0,0,0,3-8.33,39.41,39.41,0,0,0,1-8.59C309,265.66,308.94,265.69,308.93,265.74Z"></path></g></g></g></svg>