<svg xmlns="http://www.w3.org/2000/svg" viewBox="0 0 500 500"><g id="freepik--background-complete--inject-233"><rect x="416.78" y="398.49" width="33.12" height="0.25" style="fill:#ebebeb"></rect><rect x="322.53" y="401.21" width="8.69" height="0.25" style="fill:#ebebeb"></rect><rect x="396.59" y="389.21" width="19.19" height="0.25" style="fill:#ebebeb"></rect><rect x="52.46" y="390.89" width="43.19" height="0.25" style="fill:#ebebeb"></rect><rect x="104.56" y="390.89" width="6.33" height="0.25" style="fill:#ebebeb"></rect><rect x="131.47" y="395.11" width="93.68" height="0.25" style="fill:#ebebeb"></rect><path d="M237,337.8H43.91a5.71,5.71,0,0,1-5.7-5.71V60.66A5.71,5.71,0,0,1,43.91,55H237a5.71,5.71,0,0,1,5.71,5.71V332.09A5.71,5.71,0,0,1,237,337.8ZM43.91,55.2a5.46,5.46,0,0,0-5.45,5.46V332.09a5.46,5.46,0,0,0,5.45,5.46H237a5.47,5.47,0,0,0,5.46-5.46V60.66A5.47,5.47,0,0,0,237,55.2Z" style="fill:#ebebeb"></path><path d="M453.31,337.8H260.21a5.72,5.72,0,0,1-5.71-5.71V60.66A5.72,5.72,0,0,1,260.21,55h193.1A5.71,5.71,0,0,1,459,60.66V332.09A5.71,5.71,0,0,1,453.31,337.8ZM260.21,55.2a5.47,5.47,0,0,0-5.46,5.46V332.09a5.47,5.47,0,0,0,5.46,5.46h193.1a5.47,5.47,0,0,0,5.46-5.46V60.66a5.47,5.47,0,0,0-5.46-5.46Z" style="fill:#ebebeb"></path><rect y="382.4" width="500" height="0.25" style="fill:#ebebeb"></rect><rect x="382.89" y="133.87" width="41.52" height="57.38" style="fill:#e6e6e6"></rect><rect x="376.93" y="133.76" width="41.52" height="57.38" style="fill:#ebebeb"></rect><rect x="381.19" y="136.97" width="33" height="49.66" style="fill:#f5f5f5"></rect><rect x="418.6" y="157.94" width="1.77" height="9.25" style="fill:#e0e0e0"></rect><path d="M381,174.61v12h1.17L414,143.3V137h-4.46Z" style="fill:#fff"></path><polygon points="381.19 160.55 381.19 166.19 403.65 136.97 400.24 136.97 381.19 160.55" style="fill:#fff"></polygon><rect x="366.21" y="338.42" width="20.69" height="20.69" rx="4.36" style="fill:#f5f5f5"></rect><rect x="389.74" y="338.42" width="20.69" height="20.69" rx="4.36" style="fill:#f5f5f5"></rect><rect x="389.74" y="361.68" width="20.69" height="20.69" rx="4.36" style="fill:#f5f5f5"></rect><rect x="366.47" y="361.68" width="20.69" height="20.69" rx="4.36" style="fill:#f5f5f5"></rect><rect x="413.11" y="338.42" width="20.69" height="20.69" rx="4.36" style="fill:#f5f5f5"></rect><rect x="413.11" y="361.68" width="20.69" height="20.69" rx="4.36" style="fill:#f5f5f5"></rect><rect x="366.13" y="71.67" width="20.69" height="20.69" rx="4.36" style="fill:#f5f5f5"></rect><rect x="389.66" y="71.67" width="20.69" height="20.69" rx="4.36" style="fill:#f5f5f5"></rect><rect x="389.66" y="94.94" width="20.69" height="20.69" rx="4.36" style="fill:#f5f5f5"></rect><rect x="366.39" y="94.94" width="20.69" height="20.69" rx="4.36" style="fill:#f5f5f5"></rect><rect x="413.03" y="71.67" width="20.69" height="20.69" rx="4.36" style="fill:#f5f5f5"></rect><rect x="413.03" y="94.94" width="20.69" height="20.69" rx="4.36" style="fill:#f5f5f5"></rect><rect x="63.35" y="72.48" width="20.69" height="20.69" rx="4.36" style="fill:#f5f5f5"></rect><rect x="86.88" y="72.48" width="20.69" height="20.69" rx="4.36" style="fill:#f5f5f5"></rect><rect x="86.88" y="95.75" width="20.69" height="20.69" rx="4.36" style="fill:#f5f5f5"></rect><rect x="63.61" y="95.75" width="20.69" height="20.69" rx="4.36" style="fill:#f5f5f5"></rect><rect x="110.25" y="72.48" width="20.69" height="20.69" rx="4.36" style="fill:#f5f5f5"></rect><rect x="110.25" y="95.75" width="20.69" height="20.69" rx="4.36" style="fill:#f5f5f5"></rect><rect x="63.35" y="338.13" width="20.69" height="20.69" rx="4.36" style="fill:#f5f5f5"></rect><rect x="86.88" y="338.13" width="20.69" height="20.69" rx="4.36" style="fill:#f5f5f5"></rect><rect x="86.88" y="361.39" width="20.69" height="20.69" rx="4.36" style="fill:#f5f5f5"></rect><rect x="63.61" y="361.39" width="20.69" height="20.69" rx="4.36" style="fill:#f5f5f5"></rect><rect x="110.25" y="338.13" width="20.69" height="20.69" rx="4.36" style="fill:#f5f5f5"></rect><rect x="110.25" y="361.39" width="20.69" height="20.69" rx="4.36" style="fill:#f5f5f5"></rect><path d="M145.48,366.51c-1.26-20.94,6.55-39.26,6.63-39.44l.63.27c-.08.18-7.83,18.35-6.58,39.13Z" style="fill:#ebebeb"></path><path d="M150.25,322.13a2.3,2.3,0,0,0-4.49.5c-.12,1.43,1.06,2.6,2.14,3.55a5,5,0,0,0,3.12,1.59,3.32,3.32,0,0,0,2.4-1.28,9.66,9.66,0,0,0,1.36-2.43,6.9,6.9,0,0,0,.77-2.7,2.06,2.06,0,0,0-3.7-1.51,6.92,6.92,0,0,0-1.24,2.2Z" style="fill:#e6e6e6"></path><path d="M158.3,326.21a2.31,2.31,0,0,1,1.92,4.1c-1.16.84-2.77.44-4.14,0a5,5,0,0,1-3-1.82,3.31,3.31,0,0,1-.16-2.72,10.11,10.11,0,0,1,1.37-2.44,6.91,6.91,0,0,1,1.9-2,2.06,2.06,0,0,1,3.22,2.36,6.9,6.9,0,0,1-1.24,2.21Z" style="fill:#e6e6e6"></path><path d="M145.93,328.79A2.3,2.3,0,0,1,144,324.7c1.16-.85,2.78-.45,4.14,0a5,5,0,0,1,3,1.83,3.28,3.28,0,0,1,.16,2.71,9.79,9.79,0,0,1-1.37,2.44,6.94,6.94,0,0,1-1.9,2.06,2.06,2.06,0,0,1-3.22-2.37,6.86,6.86,0,0,1,1.24-2.2Z" style="fill:#e6e6e6"></path><path d="M154,333.77a2.3,2.3,0,0,0,4.49-.5c.12-1.43-1.06-2.6-2.14-3.54a4.94,4.94,0,0,0-3.12-1.6,3.32,3.32,0,0,0-2.4,1.28,9.55,9.55,0,0,0-1.36,2.44,6.81,6.81,0,0,0-.77,2.69,2.06,2.06,0,0,0,3.69,1.52,7.1,7.1,0,0,0,1.25-2.21Z" style="fill:#e6e6e6"></path><path d="M146.82,346.59a4.76,4.76,0,0,1,3.57-2.27c.61-.07,1.24,0,1.84-.11a1.88,1.88,0,0,0,1.46-1c.62-1.47-1.4-2.3-2.26-1.09-.19-2.22-2.13-1.28-3.09-.21C147,343.41,147.63,345.23,146.82,346.59Z" style="fill:#e6e6e6"></path><path d="M137.83,371.5c0,4.64.73,7.64,2,9.56a5.06,5.06,0,0,0,4.29,2.26h6.72a5.07,5.07,0,0,0,4.3-2.26c1.22-1.92,2-4.92,2-9.56,0-6.73-2.93-12.12-3.89-16.42-.35-1.55.8-6.3.8-6.3h-13s1.15,4.75.81,6.3C140.77,359.38,137.83,364.77,137.83,371.5Z" style="fill:#f0f0f0"></path><path d="M153.93,362.06c.87,2.47,1.7,5.17,1.42,7.8-.06.5-.21,1.07-.57,1.16s-.67-.33-.79-.79a5.52,5.52,0,0,1-.09-1.41c0-4.08-2.21-7.52-2.63-11.49-.12-1.13.17-4.71.84-2.08C152.7,357.59,153.12,359.78,153.93,362.06Z" style="fill:#fafafa"></path><polygon points="141.65 352.56 145.25 352.56 145.93 352.56 153.24 352.56 153.47 351.13 145.93 351.13 145.26 351.13 141.42 351.13 141.65 352.56" style="fill:#e0e0e0"></polygon></g><g id="freepik--Shadow--inject-233"><ellipse id="freepik--path--inject-233" cx="250" cy="415.69" rx="193.89" ry="11.32" style="fill:#f5f5f5"></ellipse></g><g id="freepik--Shower--inject-233"><path d="M288.79,54.91h45.56a5.24,5.24,0,0,1,5.24,5.24V398.67a5.82,5.82,0,0,1-5.82,5.82H289.38a5.82,5.82,0,0,1-5.82-5.82V60.15A5.24,5.24,0,0,1,288.79,54.91Z" style="fill:#407BFF"></path><g style="opacity:0.2"><rect x="283.55" y="54.91" width="56.03" height="349.58" rx="6.07" style="fill:#fff"></rect></g><path d="M299.37,61.1h-5.88A2.93,2.93,0,0,0,290.55,64v130a2.94,2.94,0,0,0,2.94,3h5.88a2.94,2.94,0,0,0,2.94-3V193a2.93,2.93,0,0,0-2.94-2.94h-1.26a2.94,2.94,0,0,1-2.94-2.94V69.92A2.94,2.94,0,0,1,298.11,67h1.26A2.94,2.94,0,0,0,302.31,64h0A2.93,2.93,0,0,0,299.37,61.1Z" style="fill:#407BFF"></path><path d="M299.37,61.1h-5.88A2.93,2.93,0,0,0,290.55,64v130a2.94,2.94,0,0,0,2.94,3h5.88a2.94,2.94,0,0,0,2.94-3V193a2.93,2.93,0,0,0-2.94-2.94h-1.26a2.94,2.94,0,0,1-2.94-2.94V69.92A2.94,2.94,0,0,1,298.11,67h1.26A2.94,2.94,0,0,0,302.31,64h0A2.93,2.93,0,0,0,299.37,61.1Z" style="fill:#fff;opacity:0.4"></path><path d="M297.67,103.2l-16.31-9.64a2.61,2.61,0,0,0-1.91-.29l-6.2,1.41a2.6,2.6,0,0,0-2,2.54v2.21a2.6,2.6,0,0,0,1.41,2.32l11,5.69a2.59,2.59,0,0,1,1.41,2.32h0a2.61,2.61,0,0,0,2.61,2.61h8.65a2.61,2.61,0,0,0,2.61-2.61v-4.31A2.63,2.63,0,0,0,297.67,103.2Z" style="fill:#407BFF"></path><path d="M297.67,103.2l-16.31-9.64a2.61,2.61,0,0,0-1.91-.29l-6.2,1.41a2.6,2.6,0,0,0-2,2.54v2.21a2.6,2.6,0,0,0,1.41,2.32l11,5.69a2.59,2.59,0,0,1,1.41,2.32h0a2.61,2.61,0,0,0,2.61,2.61h8.65a2.61,2.61,0,0,0,2.61-2.61v-4.31A2.63,2.63,0,0,0,297.67,103.2Z" style="fill:#407BFF"></path><path d="M297.78,111.93a2.62,2.62,0,0,1-1.44.43h-8.65a2.59,2.59,0,0,1-1.84-.76,2.57,2.57,0,0,1-.77-1.85,2.61,2.61,0,0,0-1.41-2.32l-11-5.68a2.61,2.61,0,0,1-1-.92l7-2a4,4,0,0,1,3.25.49l10.65,7a2.69,2.69,0,0,1,1.24,2.25,2.68,2.68,0,0,0,.91,2l0,0a2.93,2.93,0,0,0,.9.53Z" style="opacity:0.2"></path><path d="M293.9,233.22c0,4.47-2.54,8.09-5.67,8.09s-5.67-3.62-5.67-8.09,2.53-8.09,5.67-8.09S293.9,228.75,293.9,233.22Z" style="fill:#407BFF"></path><path d="M312.05,233.22c0,4.47-2.54,8.09-5.68,8.09H288.23c3.13,0,5.67-3.62,5.67-8.09s-2.54-8.09-5.67-8.09h18.14C309.51,225.13,312.05,228.75,312.05,233.22Z" style="fill:#407BFF"></path><path d="M312.05,233.22c0,4.47-2.54,8.09-5.68,8.09H288.23c3.13,0,5.67-3.62,5.67-8.09s-2.54-8.09-5.67-8.09h18.14C309.51,225.13,312.05,228.75,312.05,233.22Z" style="fill:#fff;opacity:0.4"></path><path d="M299.47,295.12a8.38,8.38,0,0,1-.86,0c-4.42-.48-8.14-4.57-8.47-9.33-.36-5,0-42.85,0-44.45l3,0c0,.4-.35,39.3,0,44.22a7,7,0,0,0,5.8,6.55c2.78.3,5-1.81,6.21-5.79,2.05-7-12.32-96.9-20-145.18-2.62-16.44-4.74-29.66-5.77-36.73a1.49,1.49,0,0,1,1.27-1.69h0a1.5,1.5,0,0,1,1.7,1.26c1,7,3.14,20.26,5.77,36.68,11.23,70.24,22,139.41,19.95,146.5C306.54,292.2,303.38,295.12,299.47,295.12Z" style="fill:#407BFF"></path><g style="opacity:0.8"><path d="M299.47,295.12a8.38,8.38,0,0,1-.86,0c-4.42-.48-8.14-4.57-8.47-9.33-.36-5,0-42.85,0-44.45l3,0c0,.4-.35,39.3,0,44.22a7,7,0,0,0,5.8,6.55c2.78.3,5-1.81,6.21-5.79,2.05-7-12.32-96.9-20-145.18-2.62-16.44-4.74-29.66-5.77-36.73a1.49,1.49,0,0,1,1.27-1.69h0a1.5,1.5,0,0,1,1.7,1.26c1,7,3.14,20.26,5.77,36.68,11.23,70.24,22,139.41,19.95,146.5C306.54,292.2,303.38,295.12,299.47,295.12Z" style="fill:#fff"></path></g><path d="M297.17,180.87h-9.69a1.79,1.79,0,0,1-1.79-1.79h0a1.79,1.79,0,0,1,1.79-1.78h9.69a1.78,1.78,0,0,1,1.78,1.78h0A1.79,1.79,0,0,1,297.17,180.87Z" style="fill:#407BFF"></path><path d="M239,68.72c1.24-.16,2.76-.32,4.61-.45,16.3-1.07,26.83,13.3,26.83,13.3l-4.58,3.09s-4.17-7-10.81-9.53a26.85,26.85,0,0,0-8.13-2Z" style="fill:#407BFF"></path><path d="M239,68.72c1.24-.16,2.75-.32,4.61-.45,16.3-1.07,27,13.47,27,13.47l-4.72,2.92s-4.17-7-10.81-9.53a26.85,26.85,0,0,0-8.13-2S239.86,69,239,68.72Z" style="fill:#fff;opacity:0.4"></path><path d="M248,73.85,247.57,79c-5.67,1.2-15.06,0-20.39-2.23l-.15,0-.24-5.51,6.05-1.75a10,10,0,0,1,2.6-.82,10.16,10.16,0,0,1,2.34-.12,9.45,9.45,0,0,1,1.19.16,9.94,9.94,0,0,1,5.2,2.72l2.72,1.73Z" style="fill:#407BFF"></path><polygon points="265.83 84.67 273.12 94.7 278.07 93.58 270.4 81.57 265.83 84.67" style="fill:#407BFF"></polygon><path d="M290.94,233.27c0,2.49-1.46,4.51-3.26,4.51s-3.27-2-3.27-4.51,1.46-4.52,3.27-4.52S290.94,230.77,290.94,233.27Z" style="fill:#fff"></path><path d="M248,73.85,247.57,79c-5.67,1.2-15.06,0-20.39-2.23l-.15,0-.24-5.51,6.05-1.75a10,10,0,0,1,2.6-.82,10.16,10.16,0,0,1,2.34-.12,9.45,9.45,0,0,1,1.19.16,9.94,9.94,0,0,1,5.2,2.72l2.72,1.73Z" style="fill:#fff;opacity:0.5"></path><path d="M245.8,77.14c-.15,1.18-4.1,1.65-8.82,1.06s-8.43-2-8.28-3.22,4.1-1.65,8.82-1S246,76,245.8,77.14Z" style="fill:#407BFF"></path><path d="M245.8,77.14c-.15,1.18-4.1,1.65-8.82,1.06s-8.43-2-8.28-3.22,4.1-1.65,8.82-1S246,76,245.8,77.14Z" style="opacity:0.5"></path><rect x="343.42" y="106.11" width="0.75" height="8.01" style="fill:#407BFF"></rect><rect x="343.42" y="67.12" width="0.75" height="31.72" style="fill:#407BFF"></rect><rect x="279.16" y="198.24" width="0.75" height="8.01" style="fill:#407BFF"></rect><rect x="279.16" y="213.52" width="0.75" height="31.72" style="fill:#407BFF"></rect></g><g id="freepik--bathroom-amenities--inject-233"><g id="freepik--Towel--inject-233"><path d="M417.41,306.61a21.64,21.64,0,0,1,.58,5.94c-.19,2-1.07,4-2.62,4.86s-3.19.42-4.78,0l-3.18-.79a6.8,6.8,0,0,1-1.66-.57c-2.45-1.34-2.95-5.08-3.12-8.24l-2.37-43.24c-.53-9.61-4.14-19.32-1.82-28.56.62-2.5,2.37-7.9,4.25-9.29s9.62-.84,9.62-.84c.57,1,.24,4-.33,7.22a104.49,104.49,0,0,0-1.21,25.67A370.94,370.94,0,0,0,417.41,306.61Z" style="fill:#407BFF"></path><path d="M417.41,306.61a21.64,21.64,0,0,1,.58,5.94c-.19,2-1.07,4-2.62,4.86s-3.19.42-4.78,0l-3.18-.79a6.8,6.8,0,0,1-1.66-.57c-2.45-1.34-2.95-5.08-3.12-8.24l-2.37-43.24c-.53-9.61-4.14-19.32-1.82-28.56.62-2.5,2.37-7.9,4.25-9.29s9.62-.84,9.62-.84c.57,1,.24,4-.33,7.22a104.49,104.49,0,0,0-1.21,25.67A370.94,370.94,0,0,0,417.41,306.61Z" style="fill:#407BFF"></path><path d="M417.41,306.61a21.64,21.64,0,0,1,.58,5.94c-.19,2-1.07,4-2.62,4.86s-3.19.42-4.78,0l-3.18-.79a6.8,6.8,0,0,1-1.66-.57c-2.45-1.34-2.95-5.08-3.12-8.24l-2.37-43.24c-.53-9.61-4.14-19.32-1.82-28.56.62-2.5,2.37-7.9,4.25-9.29s9.62-.84,9.62-.84c.57,1,.24,4-.33,7.22a104.49,104.49,0,0,0-1.21,25.67A370.94,370.94,0,0,0,417.41,306.61Z" style="opacity:0.2"></path><path d="M353,227.82h0a2.61,2.61,0,0,0,2.61,2.61h90.73V225.2H355.63A2.62,2.62,0,0,0,353,227.82Z" style="fill:#263238"></path><path d="M353,227.82h0a2.61,2.61,0,0,0,2.61,2.61h64.24a2.88,2.88,0,0,1,0-5.23H355.63A2.62,2.62,0,0,0,353,227.82Z" style="fill:#fff;opacity:0.2"></path><path d="M440.09,230.44v15.93h0a8.72,8.72,0,0,1-7.67-4.58l-.27-.51a8.71,8.71,0,0,0-4.61-4l-.15-.05a8.74,8.74,0,0,1-4.38-3.64l-1.9-3.12Z" style="fill:#263238"></path><path d="M442.62,230.44v15.93h0a8.72,8.72,0,0,1-7.67-4.58l-.27-.51a8.71,8.71,0,0,0-4.61-4l-.15-.05a8.74,8.74,0,0,1-4.38-3.64l-1.9-3.12Z" style="fill:#263238"></path><path d="M442.62,230.44v15.93h0a8.72,8.72,0,0,1-7.67-4.58l-.27-.51a8.71,8.71,0,0,0-4.61-4l-.15-.05a8.74,8.74,0,0,1-4.38-3.64l-1.9-3.12Z" style="fill:#fff;opacity:0.2"></path><path d="M375.51,230.44v15.93h0a8.72,8.72,0,0,1-7.67-4.58l-.27-.51a8.71,8.71,0,0,0-4.61-4l-.15-.05a8.77,8.77,0,0,1-4.38-3.63l-1.9-3.13Z" style="fill:#263238"></path><path d="M375.51,230.44v15.93h0a8.72,8.72,0,0,1-7.67-4.58l-.27-.51a8.71,8.71,0,0,0-4.61-4l-.15-.05a8.77,8.77,0,0,1-4.38-3.63l-1.9-3.13Z" style="fill:#fff;opacity:0.2"></path><path d="M378,230.44v15.93h0a8.72,8.72,0,0,1-7.67-4.58l-.27-.51a8.71,8.71,0,0,0-4.61-4l-.15-.05a8.77,8.77,0,0,1-4.38-3.63l-1.9-3.13Z" style="fill:#263238"></path><path d="M407.85,234.54c0,6.39,2.73,57.7,3.15,73.84.11,4.24.12,8.64-1.45,12.46s-5.18,6.84-8.72,5.88c-3.35-.91-5.83-5-9.28-5-3.21.09-5.63,3.86-8.83,4.14-2.28.2-4.34-1.41-6.44-2.49a14.82,14.82,0,0,0-12.79-.37,824.39,824.39,0,0,1,4.74-86c.51-4.69,1.37-10,4.8-12.49,2.32-1.69,3.19,0,5.93.11,0,0,9.66-.15,21.74-.29,2.12,0,7.25-.43,8.3-.4a6.62,6.62,0,0,1,2.51,1.17S407.89,228.14,407.85,234.54Z" style="fill:#407BFF"></path><path d="M407.85,234.54c0,6.39,2.73,57.7,3.15,73.84.11,4.24.12,8.64-1.45,12.46s-5.18,6.84-8.72,5.88c-3.35-.91-5.83-5-9.28-5-3.21.09-5.63,3.86-8.83,4.14-2.28.2-4.34-1.41-6.44-2.49a14.82,14.82,0,0,0-12.79-.37,824.39,824.39,0,0,1,4.74-86c.51-4.69,1.37-10,4.8-12.49,2.32-1.69,3.19,0,5.93.11,0,0,9.66-.15,21.74-.29,2.12,0,7.25-.43,8.3-.4a6.62,6.62,0,0,1,2.51,1.17S407.89,228.14,407.85,234.54Z" style="fill:#fff;opacity:0.7000000000000001"></path></g><g id="freepik--Soap--inject-233"><rect x="61.94" y="204.26" width="93.34" height="5.23" style="fill:#263238"></rect><rect x="88.43" y="204.26" width="66.85" height="5.23" style="fill:#fff;opacity:0.2"></rect><path d="M68.21,209.5v15.92h0a8.7,8.7,0,0,0,7.67-4.57l.28-.51a8.66,8.66,0,0,1,4.6-4l.15-.05a8.76,8.76,0,0,0,4.39-3.64l1.89-3.12Z" style="fill:#263238"></path><path d="M65.68,209.5v15.92h0a8.7,8.7,0,0,0,7.67-4.57l.28-.51a8.66,8.66,0,0,1,4.6-4l.15-.05a8.7,8.7,0,0,0,4.38-3.64l1.9-3.12Z" style="fill:#263238"></path><path d="M65.68,209.5v15.92h0a8.7,8.7,0,0,0,7.67-4.57l.28-.51a8.66,8.66,0,0,1,4.6-4l.15-.05a8.7,8.7,0,0,0,4.38-3.64l1.9-3.12Z" style="fill:#fff;opacity:0.2"></path><path d="M132.79,209.5v15.92h0a8.7,8.7,0,0,0,7.67-4.57l.28-.51a8.66,8.66,0,0,1,4.6-4l.15-.05a8.76,8.76,0,0,0,4.39-3.64l1.89-3.12Z" style="fill:#263238"></path><path d="M132.79,209.5v15.92h0a8.7,8.7,0,0,0,7.67-4.57l.28-.51a8.66,8.66,0,0,1,4.6-4l.15-.05a8.76,8.76,0,0,0,4.39-3.64l1.89-3.12Z" style="fill:#fff;opacity:0.2"></path><path d="M130.26,209.5v15.92h0a8.7,8.7,0,0,0,7.67-4.57l.28-.51a8.66,8.66,0,0,1,4.6-4l.15-.05a8.7,8.7,0,0,0,4.38-3.64l1.9-3.12Z" style="fill:#263238"></path><rect x="83.83" y="166.64" width="1.24" height="5.31" style="fill:#263238"></rect><path d="M92,204.28H77V179.19a7.52,7.52,0,0,1,7.52-7.52h0A7.52,7.52,0,0,1,92,179.19Z" style="fill:#407BFF"></path><path d="M92,204.28H77V179.19a7.52,7.52,0,0,1,7.52-7.52h0A7.52,7.52,0,0,1,92,179.19Z" style="fill:#fff;opacity:0.2"></path><polygon points="87.92 170.44 87.92 173.25 81.21 173.25 81.21 170.44 83 170.44 83 169.29 85.94 169.29 85.94 170.44 87.92 170.44" style="fill:#407BFF"></polygon><polygon points="77.97 165.13 87.23 165.13 92.17 164.15 91.19 166.07 87.23 166.87 77.97 166.87 77.97 165.13" style="fill:#407BFF"></polygon><polygon points="77.97 165.13 87.23 165.13 92.17 164.15 91.19 166.07 87.23 166.87 77.97 166.87 77.97 165.13" style="fill:#fff;opacity:0.2"></polygon><rect x="78.98" y="181.21" width="11.17" height="15.24" style="fill:#fafafa"></rect><polygon points="104.8 198.12 104.34 204.29 98.46 204.29 98 198.12 104.8 198.12" style="fill:#407BFF"></polygon><polygon points="104.8 198.12 104.34 204.29 98.46 204.29 98 198.12 104.8 198.12" style="fill:#fff;opacity:0.2"></polygon><polygon points="106.66 173.24 104.8 198.12 98 198.12 96.15 173.24 106.66 173.24" style="fill:#407BFF"></polygon><polygon points="106.66 173.24 104.8 198.12 98 198.12 96.15 173.24 106.66 173.24" style="fill:#fff;opacity:0.7000000000000001"></polygon><path d="M151.59,199c0,2.26-5.2,4.09-11.61,4.09s-11.61-1.83-11.61-4.09,5.2-4.1,11.61-4.1S151.59,196.76,151.59,199Z" style="fill:#407BFF"></path><path d="M151.59,199c0,2.26-5.2,4.09-11.61,4.09s-11.61-1.83-11.61-4.09,5.2-4.1,11.61-4.1S151.59,196.76,151.59,199Z" style="fill:#fff;opacity:0.4"></path><path d="M126.78,199.91h25.76a0,0,0,0,1,0,0V201a3.09,3.09,0,0,1-3.09,3.09H129.87a3.08,3.08,0,0,1-3.08-3.08v-1.1A0,0,0,0,1,126.78,199.91Z" style="fill:#407BFF"></path><path d="M126.78,199.91h25.76a0,0,0,0,1,0,0V201a3.09,3.09,0,0,1-3.09,3.09H129.87a3.08,3.08,0,0,1-3.08-3.08v-1.1A0,0,0,0,1,126.78,199.91Z" style="fill:#fff;opacity:0.9"></path><rect x="113.51" y="165.18" width="5.21" height="5.21" style="fill:#407BFF"></rect><rect x="113.55" y="163.82" width="5.12" height="1.36" style="fill:#407BFF"></rect><rect x="113.55" y="163.82" width="5.12" height="1.36" style="fill:#fff;opacity:0.2"></rect><path d="M123.63,204.28h-15V179.19a7.52,7.52,0,0,1,7.52-7.52h0a7.52,7.52,0,0,1,7.51,7.52Z" style="fill:#407BFF"></path><g style="opacity:0.5"><path d="M123.63,204.28h-15V179.19a7.52,7.52,0,0,1,7.52-7.52h0a7.52,7.52,0,0,1,7.51,7.52Z" style="fill:#fff"></path></g><rect x="118.1" y="179.83" width="4.54" height="19.19" style="fill:#fff"></rect><path d="M119.58,170.45v2.08a7.32,7.32,0,0,0-3.46-.85,7.4,7.4,0,0,0-3.26.75v-2Z" style="fill:#407BFF"></path><path d="M119.58,170.45v2.08a7.32,7.32,0,0,0-3.46-.85,7.4,7.4,0,0,0-3.26.75v-2Z" style="opacity:0.2"></path></g></g><g id="freepik--Water--inject-233"><path d="M205.27,109.33c-.39,1.25-.76,2.51-1.06,3.79l1,.23c.3-1.26.66-2.5,1-3.73A2.63,2.63,0,0,1,205.27,109.33Z" style="fill:#407BFF"></path><path d="M224.24,82.22a55.64,55.64,0,0,0-17.07,22,2.46,2.46,0,0,1,.92.39A54.72,54.72,0,0,1,224.85,83Z" style="fill:#407BFF"></path><path d="M230.26,86.5c.46-.89.93-1.76,1.42-2.61l-.86-.5c-.5.86-1,1.75-1.46,2.66A2.46,2.46,0,0,1,230.26,86.5Z" style="fill:#407BFF"></path><path d="M221.68,108.75c-.37,1.88-.69,3.77-.94,5.68l1,.14c.27-2,.6-4,1-6A2.34,2.34,0,0,1,221.68,108.75Z" style="fill:#407BFF"></path><path d="M223.61,104.6a86.22,86.22,0,0,1,4.65-13.93,2.31,2.31,0,0,1-.9-.42,86.34,86.34,0,0,0-4.65,13.83A1.93,1.93,0,0,1,223.61,104.6Z" style="fill:#407BFF"></path><path d="M239.07,89.78h0c.08-1.74.15-3.45.21-5.08l-1,0c-.06,1.68-.13,3.45-.22,5.25A2.28,2.28,0,0,1,239.07,89.78Z" style="fill:#407BFF"></path><path d="M238.82,94.21a2.2,2.2,0,0,1-.93-.25c-.37,6.59-.89,13.86-1.48,21.74l1,.07c.58-7.8,1.1-15,1.47-21.56Z" style="fill:#407BFF"></path><path d="M252.92,107h.22a90.36,90.36,0,0,0-2.73-9.41,2.48,2.48,0,0,1-.9.46,87,87,0,0,1,2.63,9.11A2.09,2.09,0,0,1,252.92,107Z" style="fill:#407BFF"></path><path d="M253,111.4c.34,1.89.62,3.79.82,5.69l1-.11c-.2-1.86-.47-3.73-.79-5.58Z" style="fill:#407BFF"></path><path d="M248.8,93.32a84.16,84.16,0,0,0-3.7-7.86l-.89.47a82.48,82.48,0,0,1,3.65,7.72A2.51,2.51,0,0,1,248.8,93.32Z" style="fill:#407BFF"></path><path d="M182.58,287.08a2.32,2.32,0,0,1,.83.15c2.83-16.87,5.83-34.64,8.88-52.3a2.43,2.43,0,0,1-1-.14c-3,17.54-6,35.28-8.87,52.31Z" style="fill:#407BFF"></path><path d="M176.41,324.15a2.15,2.15,0,0,1,.83.16c1.7-10.26,3.53-21.3,5.46-32.81h-.12a2.14,2.14,0,0,1-.87-.17c-1.91,11.39-3.74,22.43-5.46,32.82Z" style="fill:#407BFF"></path><path d="M167.38,382.29a1.88,1.88,0,0,1-.72-.12c-1.41,8.37-2.37,13.81-2.71,15.24l1,.23c.35-1.45,1.32-6.95,2.74-15.39Z" style="fill:#407BFF"></path><path d="M170.23,361.38l-.11,0c-1,5.74-1.82,11-2.58,15.55a2.06,2.06,0,0,1,1,.31c.78-4.7,1.68-10.08,2.65-16A3,3,0,0,1,170.23,361.38Z" style="fill:#407BFF"></path><path d="M174.64,340.11q.92-5.57,1.9-11.54h-.13a2.27,2.27,0,0,1-.86-.16q-1,5.88-1.88,11.42A2.29,2.29,0,0,1,174.64,340.11Z" style="fill:#407BFF"></path><path d="M173.55,344.27a2.28,2.28,0,0,1-.6-.09l-.39,2.39c-.57,3.43-1.11,6.73-1.64,9.91a2,2,0,0,1,1,.33c.53-3.23,1.09-6.59,1.66-10.08.14-.82.28-1.67.42-2.5A2.59,2.59,0,0,1,173.55,344.27Z" style="fill:#407BFF"></path><path d="M193.11,230.15C201,184.4,209.14,140,215,114.31h0a2.14,2.14,0,0,1-.88-.19c-5.93,25.76-14,69.94-22,116A2.16,2.16,0,0,1,193.11,230.15Z" style="fill:#407BFF"></path><path d="M221.24,91.22c-1.43,1.1-3.55,7.85-6.16,18.65h.24a2.27,2.27,0,0,1,.69.12c2.5-10.44,4.52-16.95,5.84-18Z" style="fill:#407BFF"></path><path d="M224.94,118.25h.18a2.35,2.35,0,0,1,.6.09c2.4-14,4.16-22.89,4.93-24.21l-.86-.51c-.81,1.4-2.61,10.46-5.06,24.65Z" style="fill:#407BFF"></path><path d="M183.13,395.11c-.35,2.46-.58,4.12-.68,4.85l1,.13c.09-.68.3-2.23.63-4.53A2,2,0,0,1,183.13,395.11Z" style="fill:#407BFF"></path><path d="M194,321.77a2,2,0,0,1,.69.11c9.48-65.15,22.67-154.1,30.29-199.2h0a2.19,2.19,0,0,1-.93-.21c-7.69,45.27-20.88,134.22-30.35,199.35Z" style="fill:#407BFF"></path><path d="M192.23,338.71q.86-5.83,1.75-12a1.89,1.89,0,0,1-1-.24q-.88,6.15-1.74,12A2.09,2.09,0,0,1,192.23,338.71Z" style="fill:#407BFF"></path><path d="M191.14,342.84h-.52c-3.05,21-5.48,38.08-6.89,48a2.73,2.73,0,0,1,.75-.17l.28,0c1.42-10,3.85-27,6.89-47.93A2.24,2.24,0,0,1,191.14,342.84Z" style="fill:#407BFF"></path><path d="M230.82,121.46a2,2,0,0,1,.25,0c2.13-17.6,3.42-29.12,3.38-30.81l-1,0c0,1.68-1.26,13.25-3.4,30.94A2.46,2.46,0,0,1,230.82,121.46Z" style="fill:#407BFF"></path><path d="M197.2,385.32c-.74,6.44-1.16,10.55-1.18,11.73l1,0c0-1.14.43-5.17,1.15-11.47A2,2,0,0,1,197.2,385.32Z" style="fill:#407BFF"></path><path d="M225.86,163.76c1.76-14,3.34-26.86,4.66-37.71a2.07,2.07,0,0,1-1-.38c-1.32,10.87-2.91,23.74-4.67,37.85A2.08,2.08,0,0,1,225.86,163.76Z" style="fill:#407BFF"></path><path d="M224.88,168h-.55c-3.05,24.47-6.57,52.32-10.05,79.83-7,55.08-13.63,107.88-16.62,133.51a2.11,2.11,0,0,1,.61-.1h.41c3.07-26.25,9.92-80.44,16.59-133.29,3.49-27.57,7-55.48,10.08-80A1.89,1.89,0,0,1,224.88,168Z" style="fill:#407BFF"></path><path d="M243.66,99.58c0-2.72-.22-4.49-.56-5.12l-.89.47c.33.6.49,2.33.51,5A2.13,2.13,0,0,1,243.66,99.58Z" style="fill:#407BFF"></path><path d="M241.87,125.73a2.36,2.36,0,0,1,.55.07c.65-8.93,1.07-16.32,1.21-21.69a2.43,2.43,0,0,1-.94-.31c-.14,5.34-.57,12.85-1.25,22A2,2,0,0,1,241.87,125.73Z" style="fill:#407BFF"></path><path d="M239.94,155.87c.84-9.4,1.57-18.05,2.16-25.72l-.23,0a2.22,2.22,0,0,1-.75-.13c-.6,7.79-1.35,16.6-2.21,26.15A2.06,2.06,0,0,1,239.94,155.87Z" style="fill:#407BFF"></path><path d="M217.36,367.49c-.75,7.53-1.38,14.06-1.85,19.32a2,2,0,0,1,1-.38c.46-5.11,1.06-11.36,1.77-18.5A2.11,2.11,0,0,1,217.36,367.49Z" style="fill:#407BFF"></path><path d="M221.08,332.39H221c-1.17,11.18-2.23,21.46-3.15,30.47a2.64,2.64,0,0,1,.88-.21h.15c.92-9.1,2-19.41,3.15-30.5A2.36,2.36,0,0,1,221.08,332.39Z" style="fill:#407BFF"></path><path d="M226.31,285.18a2.52,2.52,0,0,1,.63.09c4.51-42.85,9.31-88.89,12.6-125a1.93,1.93,0,0,1-.95-.53c-3.37,36.84-8.26,83.76-12.65,125.53A2.1,2.1,0,0,1,226.31,285.18Z" style="fill:#407BFF"></path><path d="M226.31,289.61a2.3,2.3,0,0,1-.82-.15q-.6,5.7-1.19,11.23c-1,9.33-1.93,18.31-2.82,26.81a2.15,2.15,0,0,1,1,.46c.91-8.69,1.87-17.81,2.86-27.16q.58-5.55,1.18-11.2Z" style="fill:#407BFF"></path><path d="M216.17,390.75a2,2,0,0,1-1-.58,105.77,105.77,0,0,0-.64,11.21l1-.1A101,101,0,0,1,216.17,390.75Z" style="fill:#407BFF"></path></g><g id="freepik--Character--inject-233"><path d="M225.83,144.19c.1.68.53,1.17,1,1.11s.72-.66.62-1.34-.53-1.16-1-1.11S225.73,143.51,225.83,144.19Z" style="fill:#263238"></path><path d="M226.3,145.37a24.92,24.92,0,0,0,4,5.33c-1,1.28-3.14,1-3.14,1Z" style="fill:#a02724"></path><path d="M222.83,140.79a.4.4,0,0,1-.37-.43.42.42,0,0,1,.12-.26,4,4,0,0,1,3.47-1.12.4.4,0,0,1,.24.52.39.39,0,0,1-.41.26h0a3.19,3.19,0,0,0-2.75.92A.38.38,0,0,1,222.83,140.79Z" style="fill:#263238"></path><path d="M206.77,150.47c1.39,6.16,2.93,17.46-1.29,21.71,0,0,1.88,6.22,13.38,5.89,12.63-.37,5.86-6.45,5.86-6.45-6.95-1.44-6.91-6.57-5.85-11.41Z" style="fill:#b26752"></path><path d="M268.59,416.91c-5.75-.29-10-.76-14.85-1-2.09-.11-3.34-.13-4.47-.16s-2.17,0-3.83-.07a3.78,3.78,0,0,1-3.76-5.29c.39-.87.86-2,1.35-3.47a45.36,45.36,0,0,0,2.3-15.38c-.19-9.93-.16-33.83,3.67-54.27a32.74,32.74,0,0,0-2.14-19,227.64,227.64,0,0,0-16-29.51c4.54-1.59,5.57-1.6,5.61-1.57,14.37-2.26,14-7.23,19-12.25,7.47,20.52,10.72,33.8,13.48,50,.49,2.88.13,7.25-1.6,15.72C256.23,394.79,255.8,404.4,256,404.53c5.53,3.77,9.22,6.93,15.76,8.7C273.18,413.62,272.05,417.08,268.59,416.91Z" style="fill:#b26752"></path><path d="M219.52,331.12c-.47,2.89-2.23,6.91-6.62,14.35-28.08,47.64-31.59,56.59-31.46,56.77,2.09,2.8,3.77,5.28,5.69,7.54l.56.71c1.8.88,3.2.89,5.48,1.47,1.45.36.38,3.84-3.09,3.73-.88,0-2-.09-3-.15a17.9,17.9,0,0,1-6.35-1.6c-3.09-1.41-7.57-3.44-8.26-3.69-1.07-.38-3-.3-4.59-.89a3.78,3.78,0,0,1-1.84-6.23c.65-.69,1.47-1.63,2.4-2.84a45.14,45.14,0,0,0,7.16-13.8c3-9.46,10.83-32.05,21.08-50.15a32.74,32.74,0,0,0,4.15-18.68,228,228,0,0,0-5.61-33.12c4.81,0,5.79.29,5.82.33,14.32,2.53,15.63-2.28,22-5.41C223.39,301.29,222.16,314.91,219.52,331.12Z" style="fill:#b26752"></path><path d="M239,178.68c2.43,8.33,1.48,33.39,2.33,66.65l-45.14,2.85c-1.27-11.64,4.08-30.47-5-63.4a10.16,10.16,0,0,1,8-11.94l.34-.06c1.42-.24,2.89-.45,4.35-.61a166.32,166.32,0,0,1,19.19-1.23,74.81,74.81,0,0,1,7.46.61A10.14,10.14,0,0,1,239,178.68Z" style="fill:#b26752"></path><path d="M227.53,245.46s-1.45,35.42-3,44.5c-17.52,2.09-26.2.14-31.21-3.15.07-8.4-6.31-23.42,3.08-40.85a69,69,0,0,0,14.83.6C221.56,245.88,227.53,245.46,227.53,245.46Z" style="fill:#263238"></path><path d="M225.66,275.52l-9.17-8.07c.12.25,3.74,17.55,8,22.51,0,0,.45-5.9.45-5.94Z" style="opacity:0.2;isolation:isolate"></path><path d="M227.89,154.42a11.76,11.76,0,0,1-6,9.15h0a10.86,10.86,0,0,1-3.52,1.27,10.51,10.51,0,0,1-8.25-2.12c-4.79-3.65-5.36-8.54-7-16.77a11.44,11.44,0,0,1,14.05-13.54C225.74,134.56,228.62,146.71,227.89,154.42Z" style="fill:#b26752"></path><path d="M221.8,163.55a10.68,10.68,0,0,1-3.48,1.25l.47-4.58S220.17,163.17,221.8,163.55Z" style="opacity:0.2"></path><path d="M240.6,186.27,236,191.38a4.89,4.89,0,0,0-1.2,3.84l.65,5.32A15.34,15.34,0,0,0,240.6,186.27Z" style="opacity:0.2"></path><path d="M227.86,154.71a5.71,5.71,0,0,1-2.66-1.29.21.21,0,0,1,0-.29.22.22,0,0,1,.3,0,5.54,5.54,0,0,0,2.4,1.16Z" style="fill:#263238"></path><path d="M219.09,143.46a14.64,14.64,0,0,1,2,5.5c.3-4.35-.51-5.65,0-10s1.44-3.12,2-2.72a7.6,7.6,0,0,0-4.4-6.81c-3.46-1.38-7.5-.61-11,.12a23,23,0,0,0-12.08,6.69c-3.52,3.78-4.11,8.09-2.42,13.1,1,2.87,2.78,3.48,3.67,6.38s0,7.87-2.89,8.79c5.43,1.5,7.64-2.66,7.64-2.66s.66,2.53-2.22,5.3h0c3.69.1,7.19-4.66,7.19-4.66s1.29,2.58-2.4,6c7.08-2.06,10.42-6.34,11.85-10.87s.42-9.43-.6-14.07h0A2.11,2.11,0,0,1,219.09,143.46Z" style="fill:#263238"></path><path d="M202.78,124.24a8.1,8.1,0,0,0-10.53,11.67,7.37,7.37,0,0,0-4.59,9.16c-3.84,1.82-5,7.6-2.19,10.77s8.7,2.66,10.94-1a5.66,5.66,0,0,0,11.3.4c1.38,2.83,6,3.19,7.81.61h0a3.73,3.73,0,0,0,3.4-3.64,4.14,4.14,0,0,0-1.54-3.41c-1.71-1.29-1.8-3.16,0-4.3,2.44-1.53,1.65,1.35,4.06,1.55a2.87,2.87,0,0,0,2.54-1.27c1.86-2.64-1.15-5.15-3.35-4.3a5.09,5.09,0,0,0,.38-10,7.55,7.55,0,1,0-13.19-7,2.47,2.47,0,1,0-4.73,1.38Z" style="fill:#407BFF"></path><path d="M202.78,124.24a8.1,8.1,0,0,0-10.53,11.67,7.37,7.37,0,0,0-4.59,9.16c-3.84,1.82-5,7.6-2.19,10.77s8.7,2.66,10.94-1a5.66,5.66,0,0,0,11.3.4c1.38,2.83,6,3.19,7.81.61h0a3.73,3.73,0,0,0,3.4-3.64,4.14,4.14,0,0,0-1.54-3.41c-1.71-1.29-1.8-3.16,0-4.3,2.44-1.53,1.65,1.35,4.06,1.55a2.87,2.87,0,0,0,2.54-1.27c1.86-2.64-1.15-5.15-3.35-4.3a5.09,5.09,0,0,0,.38-10,7.55,7.55,0,1,0-13.19-7,2.47,2.47,0,1,0-4.73,1.38Z" style="fill:#fff;opacity:0.8"></path><path d="M214.6,145.81a9.54,9.54,0,0,0,3.45,5c2.21,1.62,3.84-.05,3.67-2.5-.16-2.23-1.5-5.78-3.93-6.42S214,143.37,214.6,145.81Z" style="fill:#b26752"></path><polygon points="241.92 240.22 242.92 244.46 195.42 247.61 195.47 243.24 241.92 240.22" style="fill:#fff"></polygon><path d="M258.55,275c-.12,7.07-18.54,15.29-30.68,14.31a56.4,56.4,0,0,0-3.93-8.43l0,0c-.71-.77-1.43-1.57-2.15-2.42a55.39,55.39,0,0,1-5.62-8.13h0c-3.61-6.45-6.42-14.8-5.78-23.63,0-.09,31.78-2.16,31.78-2.16a152.18,152.18,0,0,0,7.27,14.93C252.62,265.21,258.57,273.93,258.55,275Z" style="fill:#263238"></path><path d="M213.33,122.74c.95.66,5.65,0,7.45,3.52l-3.13,9.33-9.92-6Z" style="fill:#b26752"></path><polygon points="217.65 135.59 219.5 124.68 226.77 129.62 225.22 136.15 217.65 135.59" style="fill:#b26752"></polygon><path d="M222.57,134.44l31.09,20.94s14.9,4,13.55-3.37c-1.29-7-42-23.22-42-23.22l-.95,3.15Z" style="fill:#b26752"></path><path d="M243.33,163.85c6.08-5.12,5.32-6.49,11.4-11.61a17.14,17.14,0,0,1,5.14-3.35,5.14,5.14,0,0,1,6.86,6.92,29.41,29.41,0,0,1-7.5,11.79,352.62,352.62,0,0,0-24.66,25.57c-2.79-.63-4.62-14.87-4.68-18S241.19,165.65,243.33,163.85Z" style="fill:#b26752"></path><path d="M190,133.64l-24.93,28s-13.43,7.6-14,.1c-.5-7.16,34.94-32.93,34.94-32.93l1.7,2.82Z" style="fill:#b26752"></path><path d="M186.08,128.82s-.35,3,1.39,3.55a7.48,7.48,0,0,1,2.56,1.27l7.56-2.92s-1.72-5.47-1.22-7.77S186.08,128.82,186.08,128.82Z" style="fill:#b26752"></path><path d="M196.1,122.54l5.74-.07s3.64,5.26,3.09,5.47l-7.34,2.78S194.36,125.21,196.1,122.54Z" style="fill:#b26752"></path><path d="M177.21,167.28c-7.16-3.44-6.77-5-13.92-8.41a17.24,17.24,0,0,0-5.81-2,5.78,5.78,0,0,0-5.4,2.29c-1.15,1.82-.72,4.31.47,6.11a16.93,16.93,0,0,0,4.81,4.29c4.22,2.91,35.35,20.84,35.35,20.84,2.55-1.31,6.06-12.59,5.34-15.65S179.73,168.49,177.21,167.28Z" style="fill:#b26752"></path><path d="M195.45,245.86a.49.49,0,0,1-.5-.47.5.5,0,0,1,.46-.53l47-3.06a.5.5,0,0,1,.06,1l-47,3.06Z"></path></g><g id="freepik--Foam--inject-233"><path d="M240.86,162a4.59,4.59,0,0,0-8.19,4.16,2,2,0,0,0-2.89,2,3.33,3.33,0,0,0-4.11,5.17,2.72,2.72,0,1,0,4.94,2.09,5.89,5.89,0,0,0,8.2-3.72,5.37,5.37,0,0,0,6.77-5c-.06-1.67,2.49-2.13,0-4.22C244.67,161.72,241.81,161.65,240.86,162Z" style="fill:#407BFF"></path><path d="M240.86,162a4.59,4.59,0,0,0-8.19,4.16,2,2,0,0,0-2.89,2,3.33,3.33,0,0,0-4.11,5.17,2.72,2.72,0,1,0,4.94,2.09,5.89,5.89,0,0,0,8.2-3.72,5.37,5.37,0,0,0,6.77-5c-.06-1.67,2.49-2.13,0-4.22C244.67,161.72,241.81,161.65,240.86,162Z" style="fill:#fff;opacity:0.8"></path><path d="M202.28,178.55a2,2,0,0,0-2.25,3.17,3.91,3.91,0,0,0-1.93,6.93,5,5,0,0,0,3.15,7.07,2.71,2.71,0,0,0,2.1,4.53,6.53,6.53,0,0,0,12.47-.86c-.57.85.81,1.93,1.72,1.46a2.72,2.72,0,0,0,1.1-2.69,7.22,7.22,0,0,0-4.21-5.95l-2.1-1.32a8,8,0,0,1-3-2.79c-.63-1.24-.36-3,.9-3.62a1.85,1.85,0,1,0-.38-2.5,1.8,1.8,0,1,0-3.11-1.76,2.41,2.41,0,0,0-3.93-1.55Z" style="fill:#407BFF"></path><g style="opacity:0.8"><path d="M202.28,178.55a2,2,0,0,0-2.25,3.17,3.91,3.91,0,0,0-1.93,6.93,5,5,0,0,0,3.15,7.07,2.71,2.71,0,0,0,2.1,4.53,6.53,6.53,0,0,0,12.47-.86c-.57.85.81,1.93,1.72,1.46a2.72,2.72,0,0,0,1.1-2.69,7.22,7.22,0,0,0-4.21-5.95l-2.1-1.32a8,8,0,0,1-3-2.79c-.63-1.24-.36-3,.9-3.62a1.85,1.85,0,1,0-.38-2.5,1.8,1.8,0,1,0-3.11-1.76,2.41,2.41,0,0,0-3.93-1.55Z" style="fill:#fff"></path></g><path d="M179.66,138.28c0,.78-.86,1.3-1.63,1.4s-1.57-.06-2.33.09-1.56.75-1.47,1.53a3.43,3.43,0,0,0-4.38,4.71,2,2,0,0,0-1.84,3.23,3.18,3.18,0,0,0-2,.88c-.47.59-.28,1.7.47,1.79a1.67,1.67,0,0,0,1.07-.44l4.31-3.17a18.48,18.48,0,0,0,4.41-4l5.49-5.76c.35-.38.74-.89.54-1.37a1,1,0,0,0-1.35-.28,2.71,2.71,0,0,0-.91,1.26l.4-.65Z" style="fill:#407BFF"></path><g style="opacity:0.8"><path d="M179.66,138.28c0,.78-.86,1.3-1.63,1.4s-1.57-.06-2.33.09-1.56.75-1.47,1.53a3.43,3.43,0,0,0-4.38,4.71,2,2,0,0,0-1.84,3.23,3.18,3.18,0,0,0-2,.88c-.47.59-.28,1.7.47,1.79a1.67,1.67,0,0,0,1.07-.44l4.31-3.17a18.48,18.48,0,0,0,4.41-4l5.49-5.76c.35-.38.74-.89.54-1.37a1,1,0,0,0-1.35-.28,2.71,2.71,0,0,0-.91,1.26l.4-.65Z" style="fill:#fff"></path></g><path d="M225.88,215.86a2.8,2.8,0,0,0-2.25,3.18,3.46,3.46,0,0,0,3.05,2.68,4.55,4.55,0,0,0,3.83-1.7,4.32,4.32,0,0,0,.52-5,3,3,0,0,0-4.57-.6Z" style="fill:#407BFF"></path><g style="opacity:0.8"><path d="M225.88,215.86a2.8,2.8,0,0,0-2.25,3.18,3.46,3.46,0,0,0,3.05,2.68,4.55,4.55,0,0,0,3.83-1.7,4.32,4.32,0,0,0,.52-5,3,3,0,0,0-4.57-.6Z" style="fill:#fff"></path></g></g></svg>