<svg width="33" height="33" viewBox="0 0 33 33" fill="none" xmlns="http://www.w3.org/2000/svg">
<rect width="33" height="33" rx="9" fill="#EAEBEA"/>
<path d="M9.22863 15.0446L8.61432 15.6695L8 15.0446L8.61432 14.4197L9.22863 15.0446ZM24 22.1161C24 22.3505 23.9085 22.5753 23.7455 22.7411C23.5826 22.9069 23.3615 23 23.1311 23C22.9006 23 22.6796 22.9069 22.5167 22.7411C22.3537 22.5753 22.2622 22.3505 22.2622 22.1161H24ZM12.9588 20.0892L8.61432 15.6695L9.84295 14.4197L14.1875 18.8393L12.9588 20.0892ZM8.61432 14.4197L12.9588 10L14.1875 11.2499L9.84295 15.6695L8.61432 14.4197ZM9.22863 14.1607H17.9177V15.9285H9.22863V14.1607ZM24 20.3482V22.1161H22.2622V20.3482H24ZM17.9177 14.1607C19.5308 14.1607 21.0779 14.8126 22.2185 15.973C23.3592 17.1333 24 18.7072 24 20.3482H22.2622C22.2622 19.176 21.8045 18.0519 20.9897 17.223C20.175 16.3942 19.0699 15.9285 17.9177 15.9285V14.1607Z" fill="#0F0945"/>
</svg>
