<svg width="71" height="71" viewBox="0 0 71 71" fill="none" xmlns="http://www.w3.org/2000/svg">
<rect width="71" height="71" rx="18.2051" fill="#0F0945"/>
<path d="M20.75 30.2805C20.906 27.1305 21.3725 25.1655 22.7705 23.7705C24.1655 22.3725 26.1305 21.906 29.2805 21.75M49.25 30.2805C49.094 27.1305 48.6275 25.1655 47.2295 23.7705C45.8345 22.3725 43.8695 21.906 40.7195 21.75M40.7195 50.25C43.8695 50.094 45.8345 49.6275 47.2295 48.2295C48.6275 46.8345 49.094 44.8695 49.25 41.7195M29.2805 50.25C26.1305 50.094 24.1655 49.6275 22.7705 48.2295C21.3725 46.8345 20.906 44.8695 20.75 41.7195M43.25 43.5L42.947 42.2265C42.8238 41.7097 42.5655 41.235 42.1987 40.8507C41.8318 40.4665 41.3695 40.1865 40.859 40.0395L37.25 38.9985V36.798C38.594 35.8905 39.5 34.194 39.5 32.25C39.5 29.3505 37.484 27 35 27C32.5145 27 30.5 29.3505 30.5 32.25C30.5 34.194 31.4045 35.8905 32.75 36.798V38.9985L29.1635 40.0485C28.6683 40.1935 28.2188 40.4638 27.8586 40.8332C27.4983 41.2027 27.2395 41.6588 27.107 42.1575L26.75 43.5" stroke="white" stroke-width="2.25" stroke-linecap="round" stroke-linejoin="round"/>
</svg>
