<?xml version="1.0" standalone="no"?>
<!DOCTYPE svg PUBLIC "-//W3C//DTD SVG 20010904//EN"
 "http://www.w3.org/TR/2001/REC-SVG-20010904/DTD/svg10.dtd">
<svg version="1.0" xmlns="http://www.w3.org/2000/svg"
 width="512.000000pt" height="512.000000pt" viewBox="0 0 512.000000 512.000000"
 preserveAspectRatio="xMidYMid meet">

<g transform="translate(0.000000,512.000000) scale(0.100000,-0.100000)"
fill="#000000" stroke="none">
<path d="M2400 5114 c-19 -2 -82 -9 -140 -15 -555 -58 -1161 -366 -1542 -783
-345 -378 -554 -769 -653 -1221 -34 -156 -45 -239 -55 -404 -45 -804 306
-1582 953 -2112 594 -487 1374 -677 2117 -518 469 101 920 350 1292 711 173
169 357 426 477 665 129 259 209 515 248 793 21 147 23 507 5 640 -41 287
-120 549 -242 796 -381 773 -1107 1304 -1955 1430 -96 14 -433 26 -505 18z
m461 -630 c707 -114 1283 -588 1530 -1259 207 -561 132 -1222 -193 -1717 l-64
-97 -1359 1359 -1360 1360 30 25 c51 41 225 141 321 184 181 81 401 140 599
160 117 13 377 5 496 -15z m-506 -2136 l1357 -1363 -28 -22 c-53 -42 -232
-143 -330 -186 -254 -112 -455 -157 -744 -164 -140 -4 -214 -1 -305 12 -435
60 -819 249 -1125 555 -474 474 -667 1139 -525 1810 24 114 91 302 149 421 55
110 172 299 186 299 5 0 619 -613 1365 -1362z"/>
</g>
</svg>
