<?xml version="1.0" encoding="UTF-8"?>
<svg version="1.1" xmlns="http://www.w3.org/2000/svg" width="512" height="512">
<path d="M0 0 C10.24334413 8.86360498 19.47867425 18.36311849 27.8125 29.0625 C28.80833526 30.3061966 29.80444703 31.54967183 30.80078125 32.79296875 C41.64419303 46.48055411 50.67306384 61.17045521 59 76.5 C67.51345226 92.16262423 78.67577839 106.05014243 90.8125 119.0625 C91.56015625 119.87589844 92.3078125 120.68929687 93.078125 121.52734375 C110.95736892 140.26502819 134.55775082 153.39902258 160.8125 154.0625 C181.56795386 153.52835229 200.54390086 144.63891346 214.9921875 129.828125 C228.75389673 113.87096799 233.02544948 95.30296435 232.01953125 74.68164062 C230.67482415 57.66982722 221.6756963 42.53524274 209.54296875 30.8828125 C194.39716335 17.97245765 175.17598248 11.06320336 155.23046875 12.28125 C123.62999973 15.72255762 101.44116265 34.06376518 79.8125 56.0625 C76.93813758 53.3653481 74.85602074 50.76494048 72.89453125 47.3515625 C72.36617676 46.44269287 71.83782227 45.53382324 71.29345703 44.59741211 C70.74286621 43.63714111 70.19227539 42.67687012 69.625 41.6875 C65.0952343 33.85828326 60.41163347 26.25101409 55.2265625 18.83984375 C53.8125 16.0625 53.8125 16.0625 53.703125 13.60546875 C55.36401395 9.7982902 57.97934311 7.30413074 60.9375 4.4375 C61.56350098 3.82430908 62.18950195 3.21111816 62.83447266 2.5793457 C88.50654048 -22.0163988 123.71701522 -37.42059773 159.3125 -37.3125 C160.0183725 -37.31162384 160.724245 -37.31074768 161.45150757 -37.30984497 C172.96623814 -37.26279823 183.78051748 -36.41208199 194.8125 -32.9375 C195.60398437 -32.69080566 196.39546875 -32.44411133 197.2109375 -32.18994141 C224.95114432 -23.28047829 249.71446417 -5.12965121 264.8125 20.0625 C265.19100098 20.69349609 265.56950195 21.32449219 265.95947266 21.97460938 C277.1659961 40.97998658 282.22309849 60.76696678 282.125 82.8125 C282.12284485 83.47269135 282.1206897 84.13288269 282.11846924 84.81307983 C281.94196664 118.54089044 268.40133508 147.13078865 244.62036133 170.67260742 C219.74693477 194.55072368 188.0399823 203.87330403 154.14381409 203.38476562 C145.37567563 203.20488578 137.27873539 202.4787894 128.8125 200.0625 C128.13606445 199.87977539 127.45962891 199.69705078 126.76269531 199.50878906 C99.00808483 191.87094099 76.01789306 175.07195478 55.8125 155.0625 C55.20873535 154.47049805 54.6049707 153.87849609 53.98291016 153.26855469 C49.34039611 148.6841184 45.18882907 143.86251939 41.14160156 138.7421875 C40.21567161 137.57201886 39.28495745 136.40562671 38.35058594 135.2421875 C26.90683545 120.95737956 17.35487959 105.69634696 8.625 89.625 C0.11154774 73.96237577 -11.05077839 60.07485757 -23.1875 47.0625 C-23.93515625 46.24910156 -24.6828125 45.43570313 -25.453125 44.59765625 C-42.16019107 27.08842972 -65.17823482 13.04180002 -89.875 11.9921875 C-112.03938257 12.46265788 -131.73905665 20.27664051 -147.3671875 36.296875 C-161.12889673 52.25403201 -165.40044948 70.82203565 -164.39453125 91.44335938 C-163.04982415 108.45517278 -154.0506963 123.58975726 -141.91796875 135.2421875 C-126.62321322 148.27950814 -107.54832192 154.86685003 -87.453125 153.87890625 C-55.5968418 150.8254878 -33.59757583 132.23415277 -12.1875 110.0625 C-9.31313758 112.7596519 -7.23102074 115.36005952 -5.26953125 118.7734375 C-4.74117676 119.68230713 -4.21282227 120.59117676 -3.66845703 121.52758789 C-2.8425708 122.96799438 -2.8425708 122.96799438 -2 124.4375 C2.5297657 132.26671674 7.21336653 139.87398591 12.3984375 147.28515625 C13.8125 150.0625 13.8125 150.0625 13.9453125 152.4921875 C12.19600557 156.4613046 9.38962946 159.1186047 6.3125 162.125 C5.64468506 162.78258301 4.97687012 163.44016602 4.28881836 164.11767578 C-25.21367768 192.41242729 -62.06082185 204.06023312 -102.23683167 203.29496765 C-110.91256483 203.05564101 -118.92849163 201.66371893 -127.1875 199.0625 C-127.97898437 198.81580566 -128.77046875 198.56911133 -129.5859375 198.31494141 C-162.14630011 187.85736438 -187.29324624 165.6421559 -203.08203125 135.50268555 C-206.57894537 128.56252436 -209.15678597 121.58012371 -211.1875 114.0625 C-211.66509766 112.3609375 -211.66509766 112.3609375 -212.15234375 110.625 C-219.56714217 78.91563165 -213.05758572 45.52639262 -196.1875 18.0625 C-178.0463974 -10.02745065 -149.28713752 -28.26533544 -117.0625 -35.8125 C-72.82930012 -43.15538706 -33.47010884 -28.36700153 0 0 Z " fill="#FE9A00" transform="translate(222.1875,172.9375)"/>
</svg>
