<svg width="24" height="24" viewBox="0 0 24 24" fill="none" xmlns="http://www.w3.org/2000/svg">
<path d="M1.99957 5.49994L8.91257 9.41694C11.4616 10.8609 12.5376 10.8609 15.0866 9.41694L21.9996 5.49994" stroke="white" stroke-width="1.5" stroke-linejoin="round"/>
<path d="M21.9837 12.976C22.0047 11.99 22.0047 11.01 21.9837 10.024C21.9187 6.95896 21.8857 5.42596 20.7547 4.29096C19.6237 3.15496 18.0497 3.11596 14.9007 3.03696C12.967 2.98817 11.0324 2.98817 9.09869 3.03696C5.94969 3.11596 4.37569 3.15496 3.24469 4.29096C2.11369 5.42596 2.08069 6.95896 2.01469 10.024C1.99364 11.0078 1.99364 11.9921 2.01469 12.976C2.08069 16.041 2.11369 17.574 3.24469 18.709C4.37569 19.845 5.94969 19.884 9.09869 19.963C10.4037 19.996 11.6997 20.007 12.9997 19.996" stroke="white" stroke-width="1.5" stroke-linecap="round" stroke-linejoin="round"/>
<path d="M18.4999 14L18.7579 14.697C19.0959 15.611 19.2649 16.068 19.5979 16.401C19.9319 16.735 20.3889 16.904 21.3029 17.242L21.9999 17.5L21.3029 17.758C20.3889 18.096 19.9319 18.265 19.5989 18.598C19.2649 18.932 19.0959 19.389 18.7579 20.303L18.4999 21L18.2419 20.303C17.9039 19.389 17.7349 18.932 17.4019 18.599C17.0679 18.265 16.6109 18.096 15.6969 17.758L14.9999 17.5L15.6969 17.242C16.6109 16.904 17.0679 16.735 17.4009 16.402C17.7349 16.068 17.9039 15.611 18.2419 14.697L18.4999 14Z" stroke="white" stroke-width="1.5" stroke-linejoin="round"/>
</svg>
