<svg width="71" height="71" viewBox="0 0 71 71" fill="none" xmlns="http://www.w3.org/2000/svg">
<rect width="71" height="71" rx="18.2051" fill="#0F0945"/>
<path d="M46.6516 22.1948C46.505 22.1948 46.3583 22.1582 46.23 22.0848C42.71 20.2698 39.6666 19.4998 36.0183 19.4998C32.3883 19.4998 28.9416 20.3615 25.8066 22.0848C25.3666 22.3232 24.8166 22.1582 24.56 21.7182C24.4456 21.5038 24.42 21.253 24.4886 21.0199C24.5571 20.7868 24.7144 20.5899 24.9266 20.4715C28.3366 18.6198 32.0766 17.6665 36.0183 17.6665C39.9233 17.6665 43.3333 18.5282 47.0733 20.4532C47.5316 20.6915 47.6966 21.2415 47.4583 21.6815C47.3858 21.8343 47.2717 21.9636 47.1289 22.0544C46.9862 22.1452 46.8208 22.1939 46.6516 22.1948ZM20.4166 31.8198C20.2477 31.8214 20.0815 31.7761 19.9367 31.6891C19.7919 31.602 19.674 31.4765 19.5961 31.3265C19.5183 31.1765 19.4835 31.0078 19.4957 30.8393C19.5078 30.6707 19.5664 30.5088 19.665 30.3715C21.48 27.8048 23.79 25.7882 26.54 24.3765C32.2966 21.4065 39.6666 21.3882 45.4416 24.3582C48.1916 25.7698 50.5016 27.7682 52.3166 30.3165C52.387 30.415 52.4371 30.5265 52.4641 30.6445C52.4912 30.7625 52.4945 30.8847 52.4741 31.004C52.4536 31.1233 52.4098 31.2374 52.345 31.3397C52.2802 31.4419 52.1958 31.5304 52.0966 31.5998C51.675 31.8932 51.1066 31.8015 50.8133 31.3798C49.2072 29.1078 47.0747 27.2584 44.5983 25.9898C39.3366 23.2948 32.6083 23.2948 27.365 26.0082C24.8716 27.2915 22.7816 29.1248 21.1316 31.4348C20.985 31.6915 20.71 31.8198 20.4166 31.8198ZM31.875 53.9482C31.7548 53.9496 31.6356 53.9259 31.525 53.8786C31.4145 53.8312 31.3152 53.7612 31.2333 53.6732C29.6383 52.0782 28.7766 51.0515 27.5483 48.8332C26.2833 46.5782 25.6233 43.8282 25.6233 40.8765C25.6233 35.4315 30.28 30.9948 36 30.9948C41.72 30.9948 46.3766 35.4315 46.3766 40.8765C46.3766 41.3898 45.9733 41.7932 45.46 41.7932C44.9466 41.7932 44.5433 41.3898 44.5433 40.8765C44.5433 36.4398 40.7116 32.8282 36 32.8282C31.2883 32.8282 27.4566 36.4398 27.4566 40.8765C27.4566 43.5165 28.0433 45.9548 29.1616 47.9348C30.335 50.0432 31.1416 50.9415 32.5533 52.3715C32.9016 52.7382 32.9016 53.3065 32.5533 53.6732C32.3516 53.8565 32.1133 53.9482 31.875 53.9482ZM45.02 50.5565C42.8383 50.5565 40.9133 50.0065 39.3366 48.9248C36.605 47.0732 34.9733 44.0665 34.9733 40.8765C34.9733 40.3632 35.3766 39.9598 35.89 39.9598C36.4033 39.9598 36.8066 40.3632 36.8066 40.8765C36.8066 43.4615 38.1266 45.8998 40.3633 47.4032C41.665 48.2832 43.1866 48.7048 45.02 48.7048C45.46 48.7048 46.1933 48.6498 46.9266 48.5215C47.4216 48.4298 47.8983 48.7598 47.99 49.2732C48.0816 49.7682 47.7516 50.2448 47.2383 50.3365C46.1933 50.5382 45.2766 50.5565 45.02 50.5565ZM41.335 54.3332C41.2616 54.3332 41.17 54.3148 41.0966 54.2965C38.1816 53.4898 36.275 52.4082 34.2766 50.4465C33.0106 49.1959 32.0066 47.7055 31.3235 46.0622C30.6404 44.419 30.2919 42.656 30.2983 40.8765C30.2983 37.9065 32.8283 35.4865 35.945 35.4865C39.0616 35.4865 41.5916 37.9065 41.5916 40.8765C41.5916 42.8382 43.2966 44.4332 45.405 44.4332C47.5133 44.4332 49.2183 42.8382 49.2183 40.8765C49.2183 33.9648 43.26 28.3548 35.9266 28.3548C30.72 28.3548 25.9533 31.2515 23.8083 35.7432C23.0933 37.2282 22.7266 38.9698 22.7266 40.8765C22.7266 42.3065 22.855 44.5615 23.955 47.4948C24.1383 47.9715 23.9 48.5032 23.4233 48.6682C22.9466 48.8515 22.415 48.5948 22.25 48.1365C21.365 45.8183 20.9114 43.3579 20.9116 40.8765C20.9116 38.6765 21.3333 36.6782 22.1583 34.9365C24.5966 29.8215 30.005 26.5032 35.9266 26.5032C44.2683 26.5032 51.0516 32.9382 51.0516 40.8582C51.0516 43.8282 48.5216 46.2482 45.405 46.2482C42.2883 46.2482 39.7583 43.8282 39.7583 40.8582C39.7583 38.8965 38.0533 37.3015 35.945 37.3015C33.8366 37.3015 32.1316 38.8965 32.1316 40.8582C32.1316 43.9932 33.3416 46.9265 35.56 49.1265C37.3016 50.8498 38.97 51.8032 41.555 52.5182C42.05 52.6465 42.325 53.1598 42.1966 53.6365C42.105 54.0582 41.72 54.3332 41.335 54.3332Z" fill="white"/>
</svg>
