<?xml version="1.0" encoding="UTF-8"?>
<svg version="1.1" xmlns="http://www.w3.org/2000/svg" width="512" height="512">
<path d="M0 0 C1.7295891 -0.00321971 3.45917793 -0.0065843 5.18876648 -0.01008606 C8.80382925 -0.01605116 12.41886821 -0.01792865 16.03393555 -0.01733398 C20.63651707 -0.01723249 25.23894391 -0.03088395 29.84148884 -0.04810619 C33.41141951 -0.05929522 36.98131359 -0.06125109 40.55125999 -0.06072426 C42.24670126 -0.06189402 43.94214379 -0.06625848 45.63756752 -0.07405663 C64.69466939 -0.15351294 80.75058803 1.8617397 95.078125 15.71875 C108.51535702 30.79056481 110.58196497 47.82187072 110.5625 67.18359375 C110.56639591 68.8102021 110.57073239 70.43680945 110.57548523 72.06341553 C110.58289995 75.45214152 110.58268898 78.8407632 110.57739258 82.22949219 C110.57157543 86.55908551 110.58860577 90.88825416 110.61173725 95.21777725 C110.6264988 98.56877104 110.6273435 101.91966275 110.62422752 105.27068329 C110.62473857 106.86699013 110.62993538 108.463303 110.64003944 110.05957794 C110.65244723 112.2916255 110.64558932 114.5228474 110.6340332 116.75488281 C110.63466263 118.02076233 110.63529205 119.28664185 110.63594055 120.59088135 C110.13030183 125.42414839 108.80740154 129.4044852 105.54296875 133.12890625 C104.95515625 133.59554687 104.36734375 134.0621875 103.76171875 134.54296875 C103.17390625 135.02507812 102.58609375 135.5071875 101.98046875 136.00390625 C97.78967196 138.84221862 93.11975351 138.62627392 88.26171875 138.16796875 C83.56567047 136.45210495 80.42516352 134.03440125 77.26171875 130.16796875 C74.58290759 123.44731971 74.96516637 116.57571463 74.953125 109.4296875 C74.93441087 107.4177382 74.91568013 105.40578888 74.89594173 103.39384937 C74.8506469 98.45235794 74.8268239 93.51073566 74.80541992 88.5690918 C74.79264216 85.78558449 74.77200415 83.00233496 74.7431488 80.21894836 C74.71679446 77.60038388 74.70301096 74.9816579 74.70277405 72.36296082 C74.68276588 70.59521049 74.68276588 70.59521049 74.66235352 68.79174805 C74.65728287 67.75140915 74.65221222 66.71107025 74.64698792 65.63920593 C74.51984909 64.82369766 74.39271027 64.00818939 74.26171875 63.16796875 C71.04028599 61.02034691 70.00217205 60.60690075 66.26171875 61.16796875 C63.57347244 64.01881205 62.88491466 65.98693185 62.86299133 69.86297607 C62.85045319 70.80244583 62.83791504 71.74191559 62.82499695 72.70985413 C62.82643204 73.733405 62.82786713 74.75695587 62.8293457 75.81152344 C62.81915405 76.89475388 62.8089624 77.97798431 62.79846191 79.09403992 C62.76825737 82.67602663 62.75905434 86.25774625 62.75 89.83984375 C62.7331589 92.32278335 62.71500943 94.80571439 62.69560242 97.28863525 C62.65289723 103.15690857 62.62339268 109.02513223 62.60027903 114.89351296 C62.56582232 123.40371877 62.50467204 131.91373991 62.44676971 140.42381287 C62.36817669 152.33851484 62.31763022 164.25304145 62.26171875 176.16796875 C35.20171875 176.16796875 8.14171875 176.16796875 -19.73828125 176.16796875 C-19.77566406 168.11777344 -19.81304687 160.06757813 -19.8515625 151.7734375 C-19.88182735 146.682921 -19.91296552 141.59244011 -19.94726562 136.50195312 C-20.00166166 128.41660256 -20.05321041 120.33132565 -20.0847168 112.24584961 C-20.11012464 105.72944477 -20.1510107 99.21324498 -20.20146751 92.69698524 C-20.21819235 90.20705398 -20.2296715 87.71708194 -20.23589516 85.22710228 C-20.24547513 81.74774682 -20.27346162 78.26900155 -20.3059082 74.78979492 C-20.30447311 73.75329803 -20.30303802 72.71680115 -20.30155945 71.64889526 C-20.3140976 70.70238602 -20.32663574 69.75587677 -20.33955383 68.78068542 C-20.3441628 67.95752429 -20.34877176 67.13436316 -20.35352039 66.28625774 C-20.83107952 63.65707074 -21.62859251 62.76529572 -23.73828125 61.16796875 C-26.53620006 60.74828093 -28.0324562 60.6693807 -30.37246704 62.32234192 C-32.31203202 64.94327904 -32.10334966 66.83225868 -32.09130859 70.07299805 C-32.09679214 71.89585579 -32.09679214 71.89585579 -32.10238647 73.75553894 C-32.09309113 75.07113297 -32.08379578 76.38672699 -32.07421875 77.7421875 C-32.07837304 79.10879762 -32.08455788 80.47540295 -32.09268188 81.84199524 C-32.12360097 87.64139133 -32.1188613 93.44056312 -32.09863281 99.23999023 C-32.0876575 102.79042947 -32.10103176 106.34014317 -32.12852859 109.89048195 C-32.13655489 111.88888938 -32.11670866 113.88734673 -32.09628296 115.88566589 C-32.15534699 123.18562806 -32.63053111 128.6553449 -37.73828125 134.16796875 C-42.22268776 137.97597333 -46.46688103 138.812149 -52.30859375 138.5546875 C-57.38815678 137.74620399 -60.61463392 135.38032508 -64.11328125 131.60546875 C-66.95082754 127.34914931 -66.8970049 123.53462003 -66.9152832 118.59814453 C-66.9218544 117.82854904 -66.9284256 117.05895355 -66.93519592 116.26603699 C-66.95492562 113.71511735 -66.96659661 111.16425685 -66.9765625 108.61328125 C-66.98063803 107.73862087 -66.98471355 106.86396049 -66.98891258 105.96279526 C-67.00978132 101.32480862 -67.02407424 96.68685156 -67.03344727 92.04882812 C-67.04445659 87.28684041 -67.07879007 82.5253271 -67.11861897 77.76350594 C-67.14494254 74.07942925 -67.15315342 70.39546232 -67.15672874 66.7112999 C-67.16156161 64.95804551 -67.17307984 63.20479491 -67.19176674 61.45163345 C-67.37074949 43.53237756 -63.66536185 27.69848311 -50.99609375 14.234375 C-36.06967139 0.57334139 -19.10468754 0.00839124 0 0 Z " fill="#000000" transform="translate(231.73828125,318.83203125)"/>
<path d="M0 0 C3.30976475 0.09645945 3.97791415 0.31911383 6.6875 2.5 C8.62590571 6.46108992 8.43041614 8.23115909 7.125 12.4375 C5.72987102 14.33002279 4.25353012 15.99598317 2.59765625 17.6640625 C-0.77416489 21.72455799 -1.11307109 25.60526536 -1 30.75 C-0.98195313 31.81863281 -0.96390625 32.88726562 -0.9453125 33.98828125 C-0.92210937 34.79652344 -0.89890625 35.60476562 -0.875 36.4375 C0.25164062 36.11652344 1.37828125 35.79554687 2.5390625 35.46484375 C11.54844289 33.22736235 23.2974651 32.51822636 31.875 36.4375 C40.41883784 41.73646563 45.49240722 49.62725583 47.80859375 59.2890625 C52.00517021 81.69009821 46.59791459 105.44630163 34.125 124.4375 C28.1668154 132.42760546 20.23664586 140.3738988 10.125 142.4375 C4.99865633 142.84267493 0.35639026 142.60614941 -4.625 141.3125 C-8.74771145 140.27823093 -10.84841461 140.98792926 -14.875 142.4375 C-23.68656786 143.44453633 -31.00087021 141.91101778 -38.25390625 136.7421875 C-52.94495769 124.4623577 -61.49703554 104.19201213 -63.875 85.4375 C-64.68608006 70.09536403 -65.1716491 53.82519838 -54.27734375 41.65234375 C-47.65820732 35.51569562 -40.58583183 33.94909644 -31.75 34.1875 C-30.97785156 34.19265625 -30.20570313 34.1978125 -29.41015625 34.203125 C-25.13610685 34.2613744 -21.08178897 34.60420634 -16.875 35.4375 C-16.92140625 34.55449219 -16.9678125 33.67148437 -17.015625 32.76171875 C-17.33123406 22.26771751 -16.24861393 14.01326296 -9.25 5.875 C-8.14267991 4.71207213 -7.02029475 3.56304829 -5.875 2.4375 C-3.875 0.4375 -3.875 0.4375 0 0 Z " fill="#000000" transform="translate(260.875,16.5625)"/>
<path d="M0 0 C8.42458658 7.60171999 13.10313049 18.28834987 14.375 29.375 C15.22557446 46.20207253 14.2254675 61.14675588 3.0625 74.75 C-4.86738993 83.1330265 -14.84225143 87.58713579 -26.28125 88.61328125 C-38.07137528 88.92099056 -48.41918902 85.82300849 -57.625 78.375 C-58.54539063 77.65763672 -58.54539063 77.65763672 -59.484375 76.92578125 C-65.86333162 71.32302511 -70.9904978 61.75252587 -72.625 53.375 C-72.88017563 48.83674006 -72.85635512 44.29468911 -72.875 39.75 C-72.895625 38.51636719 -72.91625 37.28273437 -72.9375 36.01171875 C-72.99474989 22.54368299 -69.67325504 11.50209778 -60.25 1.5625 C-54.14087195 -4.13131452 -47.63441415 -7.40533678 -39.625 -9.625 C-38.820625 -9.851875 -38.01625 -10.07875 -37.1875 -10.3125 C-23.35768055 -11.99906335 -11.01268003 -8.47317066 0 0 Z " fill="#000000" transform="translate(282.625,217.625)"/>
<path d="M0 0 C1.5152124 0.00241699 1.5152124 0.00241699 3.06103516 0.00488281 C14.99560145 0.19962378 23.85421654 3.5046518 34.8125 8.375 C34.8125 35.765 34.8125 63.155 34.8125 91.375 C29.33234534 90.27896907 24.41505029 88.46904881 19.1875 86.53125 C12.90882896 84.38022381 7.0803674 84.13052585 0.5 84.0625 C-0.39267578 84.03349609 -1.28535156 84.00449219 -2.20507812 83.97460938 C-11.44918385 83.89027718 -17.52870633 85.96030158 -27.1875 88.375 C-27.1875 60.985 -27.1875 33.595 -27.1875 5.375 C-17.80893754 1.35561609 -10.15374357 -0.01693137 0 0 Z " fill="#000000" transform="translate(102.1875,188.625)"/>
<path d="M0 0 C0 27.39 0 54.78 0 83 C-5 82 -5 82 -7.33984375 81.24609375 C-23.40190795 76.24632339 -39.56927379 78.16707944 -55 84 C-58.465 84.99 -58.465 84.99 -62 86 C-62 58.61 -62 31.22 -62 3 C-42.77379576 -5.73918374 -19.89480192 -9.94740096 0 0 Z " fill="#000000" transform="translate(62,194)"/>
<path d="M0 0 C1.02996094 -0.00128906 2.05992187 -0.00257813 3.12109375 -0.00390625 C4.74724609 0.00189453 4.74724609 0.00189453 6.40625 0.0078125 C7.49035156 0.00394531 8.57445312 0.00007812 9.69140625 -0.00390625 C10.72136719 -0.00261719 11.75132812 -0.00132812 12.8125 0 C14.24045898 0.00169189 14.24045898 0.00169189 15.69726562 0.00341797 C17.90625 0.1328125 17.90625 0.1328125 18.90625 1.1328125 C18.99408542 3.35136514 19.01319609 5.57269746 19.00390625 7.79296875 C19.00140869 9.00863525 18.99891113 10.22430176 18.99633789 11.47680664 C18.98723389 13.03391357 18.97812988 14.59102051 18.96875 16.1953125 C18.948125 21.1246875 18.9275 26.0540625 18.90625 31.1328125 C31.44625 31.1328125 43.98625 31.1328125 56.90625 31.1328125 C56.86665272 21.30478225 56.86665272 21.30478225 56.81616211 11.47680664 C56.81366455 10.26114014 56.81116699 9.04547363 56.80859375 7.79296875 C56.80335693 6.54136963 56.79812012 5.28977051 56.79272461 4.00024414 C56.90625 1.1328125 56.90625 1.1328125 57.90625 0.1328125 C59.60183726 0.03349097 61.30150747 0.00201243 63 0 C64.02996094 -0.00128906 65.05992187 -0.00257813 66.12109375 -0.00390625 C67.74724609 0.00189453 67.74724609 0.00189453 69.40625 0.0078125 C70.49035156 0.00394531 71.57445312 0.00007812 72.69140625 -0.00390625 C73.72136719 -0.00261719 74.75132812 -0.00132812 75.8125 0 C77.24045898 0.00169189 77.24045898 0.00169189 78.69726562 0.00341797 C80.90625 0.1328125 80.90625 0.1328125 81.90625 1.1328125 C82.00648555 3.46995575 82.04244203 5.77755575 82.03564453 8.11523438 C82.03827301 9.21032066 82.03827301 9.21032066 82.04095459 10.32752991 C82.04537299 12.75223128 82.04243517 15.17686032 82.0390625 17.6015625 C82.03973554 19.27925633 82.04070557 20.95695006 82.04196167 22.63464355 C82.04343863 26.15536424 82.04128416 29.6760596 82.03662109 33.19677734 C82.0309238 37.71991746 82.03420282 42.24299824 82.04019356 46.76613617 C82.04379923 50.23183645 82.04266056 53.69752257 82.04006577 57.16322327 C82.03939651 58.83146675 82.04022486 60.49971149 82.04254532 62.16795349 C82.04507195 64.49546744 82.04123113 66.82288398 82.03564453 69.15039062 C82.03766876 69.84652969 82.03969299 70.54266876 82.04177856 71.25990295 C82.02051274 76.01854976 82.02051274 76.01854976 80.90625 77.1328125 C79.21066274 77.23213403 77.51099253 77.26361257 75.8125 77.265625 C74.78253906 77.26691406 73.75257813 77.26820313 72.69140625 77.26953125 C71.06525391 77.26373047 71.06525391 77.26373047 69.40625 77.2578125 C68.32214844 77.26167969 67.23804688 77.26554687 66.12109375 77.26953125 C64.57615234 77.26759766 64.57615234 77.26759766 63 77.265625 C62.04802734 77.26449707 61.09605469 77.26336914 60.11523438 77.26220703 C57.90625 77.1328125 57.90625 77.1328125 56.90625 76.1328125 C56.81841458 73.91425986 56.79930391 71.69292754 56.80859375 69.47265625 C56.81109131 68.25698975 56.81358887 67.04132324 56.81616211 65.78881836 C56.82526611 64.23171143 56.83437012 62.67460449 56.84375 61.0703125 C56.864375 56.1409375 56.885 51.2115625 56.90625 46.1328125 C44.36625 46.1328125 31.82625 46.1328125 18.90625 46.1328125 C18.94584728 55.96084275 18.94584728 55.96084275 18.99633789 65.78881836 C18.99883545 67.00448486 19.00133301 68.22015137 19.00390625 69.47265625 C19.01176147 71.35005493 19.01176147 71.35005493 19.01977539 73.26538086 C18.90625 76.1328125 18.90625 76.1328125 17.90625 77.1328125 C16.21066274 77.23213403 14.51099253 77.26361257 12.8125 77.265625 C11.78253906 77.26691406 10.75257813 77.26820313 9.69140625 77.26953125 C8.06525391 77.26373047 8.06525391 77.26373047 6.40625 77.2578125 C5.32214844 77.26167969 4.23804688 77.26554687 3.12109375 77.26953125 C2.09113281 77.26824219 1.06117188 77.26695312 0 77.265625 C-0.95197266 77.26449707 -1.90394531 77.26336914 -2.88476562 77.26220703 C-5.09375 77.1328125 -5.09375 77.1328125 -6.09375 76.1328125 C-6.19398555 73.79566925 -6.22994203 71.48806925 -6.22314453 69.15039062 C-6.22489685 68.4203331 -6.22664917 67.69027557 -6.22845459 66.93809509 C-6.23287299 64.51339372 -6.22993517 62.08876468 -6.2265625 59.6640625 C-6.22723554 57.98636867 -6.22820557 56.30867494 -6.22946167 54.63098145 C-6.23093863 51.11026076 -6.22878416 47.5895654 -6.22412109 44.06884766 C-6.2184238 39.54570754 -6.22170282 35.02262676 -6.22769356 30.49948883 C-6.23129923 27.03378855 -6.23016056 23.56810243 -6.22756577 20.10240173 C-6.22689651 18.43415825 -6.22772486 16.76591351 -6.23004532 15.09767151 C-6.23257195 12.77015756 -6.22873113 10.44274102 -6.22314453 8.11523438 C-6.22516876 7.41909531 -6.22719299 6.72295624 -6.22927856 6.00572205 C-6.20322466 0.17564943 -5.71529402 0.00677168 0 0 Z " fill="#000000" transform="translate(400.09375,195.8671875)"/>
<path d="M0 0 C4.76865553 3.34897946 5.41664886 8.15208145 6.75 13.5 C17.43740611 53.21671189 40.36025288 88.64090426 72.72265625 114.16015625 C77.91824249 118.35761958 77.91824249 118.35761958 78.4375 122.4375 C78 126 78 126 76.4375 128.4375 C72.8329718 130.748095 71.24379278 130.82137925 67 130 C63.33355093 127.70608646 60.20383422 124.8934913 57 122 C56.51305664 121.56655273 56.02611328 121.13310547 55.52441406 120.68652344 C51.96170786 117.51381083 48.47091857 114.27284984 45 111 C44.21625 110.27039063 43.4325 109.54078125 42.625 108.7890625 C36.55287416 102.95548447 31.41452599 96.50362085 26.35546875 89.79541016 C25.48662971 88.64457401 24.61211531 87.4979877 23.73046875 86.35693359 C8.33070347 66.39223789 -2.15357358 43.1597705 -9.0625 19 C-9.36885376 17.93313965 -9.36885376 17.93313965 -9.68139648 16.84472656 C-10.84421374 12.47878571 -11.31294928 8.50982271 -11 4 C-8.11188513 -0.5054592 -5.11821063 -0.73117295 0 0 Z " fill="#000000" transform="translate(61,321)"/>
<path d="M0 0 C2.3125 1.125 2.3125 1.125 4 3 C5.75646171 8.73538516 4.12613937 13.34558296 2.4375 18.875 C2.16083496 19.80465576 1.88416992 20.73431152 1.59912109 21.69213867 C-2.67761415 35.8165238 -8.04111386 48.98528928 -15 62 C-15.32226562 62.60585938 -15.64453125 63.21171875 -15.9765625 63.8359375 C-24.31701737 79.36410145 -34.80779602 94.27229434 -47.5234375 106.5234375 C-49.159558 108.09766332 -49.159558 108.09766332 -50.9375 110.5 C-53.26901554 113.32607945 -55.79729605 115.5949213 -58.59375 117.953125 C-60.3978452 119.48777741 -62.16261753 121.06885805 -63.90625 122.671875 C-72.72224932 130.65226115 -72.72224932 130.65226115 -77.5 130.9375 C-81 130 -81 130 -83.5625 127.9375 C-85.48027956 124.01855917 -85.13014885 122.19578884 -84 118 C-82.13523109 115.67390555 -79.9150369 113.94052153 -77.5625 112.125 C-76.28051012 111.08163761 -74.99926464 110.03735993 -73.71875 108.9921875 C-73.08582031 108.48526367 -72.45289063 107.97833984 -71.80078125 107.45605469 C-64.89248791 101.87022748 -58.60549022 95.88575651 -53 89 C-51.75089844 87.48986328 -51.75089844 87.48986328 -50.4765625 85.94921875 C-43.53105023 77.42501265 -37.52111605 68.50407803 -32 59 C-31.61070312 58.33129883 -31.22140625 57.66259766 -30.8203125 56.97363281 C-22.13077181 41.83254555 -15.66661249 25.61348319 -11.72167969 8.59594727 C-10.94938562 5.46277495 -10.34836727 3.3511542 -8.046875 1.03125 C-5.17376365 -0.41627175 -3.1740418 -0.39675523 0 0 Z " fill="#000000" transform="translate(452,321)"/>
<path d="M0 0 C2.70019854 1.00524861 5.09727989 2.39324048 7.5625 3.875 C8.25577393 4.27992676 8.94904785 4.68485352 9.66333008 5.10205078 C21.70695509 12.26149222 32.46483686 20.80592718 43 30 C43.85851562 30.72316406 44.71703125 31.44632813 45.6015625 32.19140625 C55.23320969 40.42179373 55.23320969 40.42179373 58 46 C58.13073252 49.98734178 57.94257437 51.91778498 55.3125 54.9375 C52.2135552 56.3613395 50.37817188 56.55153827 47 56 C45.2800995 54.38832453 43.62272001 52.70948394 42 51 C28.54839905 37.72667056 14.06813115 26.93128434 -2.17016602 17.27539062 C-3.02924561 16.76041016 -3.8883252 16.24542969 -4.7734375 15.71484375 C-5.54091309 15.26230225 -6.30838867 14.80976074 -7.09912109 14.34350586 C-9 13 -9 13 -11 10 C-10.81989972 6.63812807 -10.58112046 4.00081858 -8.875 1.0625 C-5.85245727 -0.65027421 -3.42872617 -0.27443705 0 0 Z " fill="#000000" transform="translate(350,99)"/>
<path d="M0 0 C2.4375 1.5625 2.4375 1.5625 4 4 C4.625 7.4375 4.625 7.4375 4 11 C-0.01040167 14.79901001 -4.34762164 17.52593612 -9.125 20.25 C-24.26479414 29.13454144 -37.90660497 40.47592071 -50.07421875 53.1015625 C-52.49053025 55.48356532 -53.48430557 55.94394626 -56.875 56.3125 C-60 56 -60 56 -62.375 54.5 C-64.22287617 51.65711358 -64.55563572 49.53041855 -64.47753906 46.15771484 C-63.53615229 41.90414822 -60.30506218 39.40353434 -57.1875 36.5625 C-56.49897949 35.90854248 -55.81045898 35.25458496 -55.10107422 34.58081055 C-42.41460754 22.65494111 -28.34215562 12.16082125 -13.375 3.25 C-12.31023437 2.61578125 -11.24546875 1.9815625 -10.1484375 1.328125 C-6.49982634 -0.21099137 -3.92386395 -0.36271011 0 0 Z " fill="#000000" transform="translate(163,99)"/>
<path d="M0 0 C5.28 0 10.56 0 16 0 C16 15.51 16 31.02 16 47 C10.72 47 5.44 47 0 47 C-1.1610884 44.67782321 -1.12673847 43.33438469 -1.12939453 40.74975586 C-1.13254669 39.87222153 -1.13569885 38.99468719 -1.13894653 38.09056091 C-1.1369223 37.14157425 -1.13489807 36.19258759 -1.1328125 35.21484375 C-1.13376923 34.24341934 -1.13472595 33.27199493 -1.13571167 32.27113342 C-1.13639283 30.21582983 -1.13454299 28.16052408 -1.13037109 26.10522461 C-1.1250162 22.94705411 -1.13032122 19.78902546 -1.13671875 16.63085938 C-1.13605807 14.63802052 -1.13477712 12.64518175 -1.1328125 10.65234375 C-1.13483673 9.70133286 -1.13686096 8.75032196 -1.13894653 7.77049255 C-1.13579437 6.89611038 -1.13264221 6.02172821 -1.12939453 5.12084961 C-1.12859894 4.34744736 -1.12780334 3.5740451 -1.12698364 2.77720642 C-1 1 -1 1 0 0 Z " fill="#000000" transform="translate(365,211)"/>
<path d="M0 0 C4.95 0 9.9 0 15 0 C16.55906782 1.55906782 16.12722371 3.06154281 16.12939453 5.22851562 C16.13254669 6.12614624 16.13569885 7.02377686 16.13894653 7.9486084 C16.1369223 8.92463013 16.13489807 9.90065186 16.1328125 10.90625 C16.13424759 12.3988031 16.13424759 12.3988031 16.13571167 13.92150879 C16.1363936 16.02986718 16.13453844 18.13822765 16.13037109 20.24658203 C16.12502303 23.48605027 16.13031567 26.72537985 16.13671875 29.96484375 C16.13605797 32.00781281 16.13477681 34.05078178 16.1328125 36.09375 C16.13483673 37.06977173 16.13686096 38.04579346 16.13894653 39.0513916 C16.13579437 39.94902222 16.13264221 40.84665283 16.12939453 41.77148438 C16.12859894 42.56566772 16.12780334 43.35985107 16.12698364 44.17810059 C16 46 16 46 15 47 C10.05 47 5.1 47 0 47 C0 31.49 0 15.98 0 0 Z " fill="#000000" transform="translate(496,211)"/>
</svg>
