<svg width="26" height="26" viewBox="0 0 26 26" fill="none" xmlns="http://www.w3.org/2000/svg">
<path d="M13.3082 18.5427L18.5435 13.3074C18.6388 13.2078 18.7136 13.0904 18.7634 12.9619C18.8681 12.707 18.8681 12.421 18.7634 12.1661C18.7136 12.0376 18.6388 11.9202 18.5435 11.8206L13.3082 6.58528C13.2106 6.48765 13.0947 6.41021 12.9671 6.35737C12.8396 6.30454 12.7028 6.27734 12.5648 6.27734C12.2859 6.27734 12.0185 6.38811 11.8214 6.58528C11.6242 6.78244 11.5134 7.04986 11.5134 7.32869C11.5134 7.60753 11.6242 7.87494 11.8214 8.07211L15.2767 11.5169L7.32946 11.5169C7.05176 11.5169 6.78543 11.6273 6.58907 11.8236C6.39271 12.02 6.28239 12.2863 6.28239 12.564C6.28239 12.8417 6.39271 13.108 6.58907 13.3044C6.78543 13.5008 7.05176 13.6111 7.32946 13.6111L15.2767 13.6111L11.8214 17.0559C11.7232 17.1533 11.6453 17.2691 11.5922 17.3967C11.539 17.5243 11.5116 17.6611 11.5116 17.7993C11.5116 17.9376 11.539 18.0744 11.5922 18.202C11.6453 18.3296 11.7232 18.4454 11.8214 18.5427C11.9187 18.6409 12.0345 18.7188 12.1621 18.7719C12.2897 18.8251 12.4266 18.8525 12.5648 18.8525C12.703 18.8525 12.8399 18.8251 12.9675 18.7719C13.095 18.7188 13.2109 18.6409 13.3082 18.5427Z" fill="white"/>
</svg>
