<svg width="20" height="20" viewBox="0 0 20 20" fill="none" xmlns="http://www.w3.org/2000/svg">
<g clip-path="url(#clip0_2014_1644)">
<path d="M7.84473 9.65434C7.84473 10.1341 8.0353 10.5942 8.37452 10.9334C8.71374 11.2726 9.17382 11.4632 9.65355 11.4632C10.1333 11.4632 10.5934 11.2726 10.9326 10.9334C11.2718 10.5942 11.4624 10.1341 11.4624 9.65434C11.4624 9.17461 11.2718 8.71453 10.9326 8.37531C10.5934 8.03609 10.1333 7.84552 9.65355 7.84552C9.17382 7.84552 8.71374 8.03609 8.37452 8.37531C8.0353 8.71453 7.84473 9.17461 7.84473 9.65434Z" stroke="white" stroke-width="1.20588" stroke-linecap="round" stroke-linejoin="round"/>
<path d="M1.12766 18.1815C1.91872 18.9734 3.57641 18.8343 5.73494 17.7948C7.89347 16.7554 10.3776 14.9007 12.639 12.6393C14.9004 10.3778 16.7551 7.89453 17.7938 5.736C18.8332 3.57667 18.9723 1.91979 18.1813 1.12793C17.3894 0.336867 15.7325 0.475945 13.5732 1.51542C11.4146 2.55489 8.93133 4.40953 6.6699 6.67016C4.40847 8.93159 2.55382 11.4149 1.51435 13.5742C0.474879 15.7336 0.335801 17.3905 1.12766 18.1815Z" stroke="white" stroke-width="1.20588" stroke-linecap="round" stroke-linejoin="round"/>
<path d="M6.66996 12.6393C7.75884 13.7339 8.92513 14.7487 10.1598 15.6757C11.3448 16.56 12.5048 17.2804 13.5732 17.7949C14.6417 18.3094 15.5991 18.6084 16.3902 18.6752C17.1804 18.7411 17.789 18.5739 18.1813 18.1816C18.5728 17.79 18.7408 17.1815 18.6741 16.3904C18.6082 15.6002 18.3083 14.6427 17.7938 13.5743C17.2793 12.5059 16.559 11.345 15.6747 10.1608C14.7479 8.92592 13.7334 7.75936 12.6391 6.6702C11.5499 5.57584 10.3834 4.56135 9.14845 3.63459C7.96428 2.75028 6.80422 2.02996 5.735 1.51545C4.66579 1.00094 3.70912 0.701081 2.91887 0.63516C2.12861 0.569238 1.52004 0.736454 1.12773 1.12796C0.735414 1.52028 0.568198 2.12885 0.63412 2.9191C0.700845 3.71016 0.999904 4.66683 1.51441 5.73604C2.02892 6.80526 2.74924 7.96451 3.63436 9.14869C4.56114 10.3833 5.57564 11.5496 6.66996 12.6385" stroke="white" stroke-width="1.20588" stroke-linecap="round" stroke-linejoin="round"/>
</g>
<defs>
<clipPath id="clip0_2014_1644">
<rect width="19.2941" height="19.2941" fill="white"/>
</clipPath>
</defs>
</svg>
