<?xml version="1.0" encoding="UTF-8"?>
<svg version="1.1" xmlns="http://www.w3.org/2000/svg" width="512" height="512">
<path d="M0 0 C1.07721313 -0.00671722 2.15442627 -0.01343445 3.26428223 -0.02035522 C6.81978998 -0.03932771 10.37510885 -0.04325924 13.93066406 -0.04541016 C16.40920082 -0.05183915 18.88773681 -0.05856759 21.36627197 -0.06558228 C26.5612565 -0.07755358 31.75617453 -0.0812633 36.95117188 -0.08007812 C43.59325039 -0.07987508 50.23488956 -0.10716377 56.87688828 -0.14162254 C61.99686626 -0.163911 67.11674148 -0.16791504 72.236763 -0.16685867 C74.68466924 -0.1692122 77.13257842 -0.17802163 79.58043671 -0.19352341 C83.01225879 -0.21321956 86.44316166 -0.20732999 89.875 -0.1953125 C91.37785553 -0.21217102 91.37785553 -0.21217102 92.91107178 -0.22937012 C101.98672095 -0.14901281 109.93854196 2.30510788 116.66503906 8.58740234 C123.40974399 16.08916598 125.5126698 23.7278078 125.39160156 33.62646484 C125.38735672 34.94549301 125.38735672 34.94549301 125.38302612 36.29116821 C125.37188618 39.08276328 125.34679317 41.87403025 125.32128906 44.66552734 C125.31125126 46.56526227 125.30212681 48.46500226 125.29394531 50.36474609 C125.27196712 55.00679841 125.23748016 59.64860736 125.19628906 64.29052734 C127.11735977 64.27720367 127.11735977 64.27720367 129.07723999 64.26361084 C141.17074673 64.18238083 153.26419781 64.12249264 165.35791588 64.08327866 C171.57482688 64.06244032 177.79151692 64.03419083 184.00830078 63.98876953 C190.01241847 63.94517858 196.01632415 63.92136202 202.02058792 63.91101837 C204.30663005 63.90365082 206.5926611 63.88926385 208.87861252 63.86760712 C212.09071307 63.83839767 215.3019473 63.83457875 218.51416016 63.83642578 C219.91894623 63.81485413 219.91894623 63.81485413 221.35211182 63.79284668 C230.2324741 63.84778485 238.10176866 66.45755546 244.66503906 72.58740234 C250.68835188 79.28680129 253.45029001 86.36389092 253.4367981 95.38998413 C253.43936137 96.42672915 253.43936137 96.42672915 253.44197643 97.48441851 C253.44525617 99.78757124 253.43429292 102.09042904 253.42333984 104.39355469 C253.4227754 106.04959099 253.42309294 107.7056278 253.42422485 109.36166382 C253.42479808 113.84881273 253.41304865 118.33585446 253.39907694 122.8229785 C253.38656455 127.51549452 253.38539868 132.20801308 253.38302612 136.90054321 C253.37681286 145.78269166 253.36040409 154.66479081 253.34032714 163.54691756 C253.31796339 173.6605212 253.30697351 183.77412721 253.29693627 193.88774943 C253.27603775 214.68870291 253.24086472 235.48961202 253.19628906 256.29052734 C253.83131348 256.26958008 254.46633789 256.24863281 255.12060547 256.22705078 C258.02066983 256.14348154 260.92048022 256.09173961 263.82128906 256.04052734 C264.8203125 256.00701172 265.81933594 255.97349609 266.84863281 255.93896484 C273.00858191 255.85737611 276.51256692 256.17725854 281.19628906 260.29052734 C284.8246257 264.10982906 285.50629364 267.17331741 285.69628906 272.29052734 C285.50629364 277.40773728 284.8246257 280.47122562 281.19628906 284.29052734 C276.58838292 287.97913612 273.05507079 288.86881085 267.29077148 288.79389191 C266.5089941 288.79970567 265.72721672 288.80551943 264.92174911 288.81150937 C262.29810541 288.82612509 259.67539493 288.81221711 257.05175781 288.79846191 C255.1534426 288.80307021 253.25513095 288.80942264 251.35682678 288.81737089 C246.13714574 288.83409709 240.91775655 288.82580283 235.69807434 288.81342602 C230.0701803 288.80439134 224.44233713 288.81833739 218.81445312 288.8293457 C207.78814839 288.84715241 196.76195243 288.84328134 185.73564339 288.83169514 C176.77606436 288.82266956 167.81651586 288.82143303 158.85693359 288.82579041 C157.5828127 288.82640334 156.30869181 288.82701627 154.99596119 288.82764778 C152.40778477 288.82892665 149.81960836 288.8302235 147.23143196 288.83153814 C123.64220616 288.84262478 100.05305331 288.8311184 76.46383977 288.81016775 C54.92670773 288.79118512 33.38967028 288.79288362 11.85253906 288.81201172 C-12.34100652 288.83342724 -36.53448483 288.84185155 -60.7280426 288.82956266 C-63.30681355 288.82828844 -65.88558451 288.82703096 -68.46435547 288.82579041 C-69.73323199 288.8251733 -71.00210852 288.8245562 -72.30943584 288.8239204 C-81.26050268 288.82046356 -90.21153601 288.82630304 -99.16259766 288.83570862 C-110.06773652 288.84691537 -120.97276019 288.8439164 -131.87788582 288.82258564 C-137.44416776 288.81205746 -143.01025748 288.80798359 -148.57653809 288.82118225 C-153.66911138 288.83307523 -158.76131373 288.82659464 -163.85385323 288.80527204 C-165.69898676 288.80079285 -167.54415145 288.80310164 -169.38926506 288.81277519 C-171.89269002 288.82489635 -174.39483573 288.81250837 -176.89819336 288.79389191 C-177.6187151 288.80325657 -178.33923683 288.81262124 -179.08159256 288.82226968 C-184.1065412 288.74731238 -186.91282972 287.40516079 -190.80371094 284.29052734 C-194.43204757 280.47122562 -195.11371552 277.40773728 -195.30371094 272.29052734 C-195.11371552 267.17331741 -194.43204757 264.10982906 -190.80371094 260.29052734 C-185.33816785 255.49065937 -180.48902909 255.80366506 -173.42871094 256.04052734 C-172.40648437 256.05857422 -171.38425781 256.07662109 -170.33105469 256.09521484 C-167.82096345 256.14213244 -165.31283329 256.20776005 -162.80371094 256.29052734 C-162.81259338 255.00981354 -162.82147583 253.72909973 -162.83062744 252.40957642 C-162.91185745 240.31606968 -162.97174564 228.22261859 -163.01095963 216.12890053 C-163.03179796 209.91198952 -163.06004746 203.69529948 -163.10546875 197.47851562 C-163.1490597 191.47439794 -163.17287626 185.47049226 -163.18321991 179.46622849 C-163.19058746 177.18018636 -163.20497444 174.8941553 -163.22663116 172.60820389 C-163.25584061 169.39610334 -163.25965953 166.1848691 -163.2578125 162.97265625 C-163.2721936 162.0361322 -163.28657471 161.09960815 -163.3013916 160.13470459 C-163.24645343 151.2543423 -160.63668282 143.38504775 -154.50683594 136.82177734 C-146.6940831 129.79746745 -138.84203196 127.98584452 -128.57568359 128.06347656 C-127.5604361 128.06318451 -126.5451886 128.06289246 -125.49917603 128.06259155 C-122.15528716 128.06398095 -118.81162322 128.07952395 -115.46777344 128.09521484 C-113.14464439 128.09894636 -110.82151376 128.10179268 -108.49838257 128.10379028 C-102.39263542 128.11141582 -96.28698387 128.13105515 -90.18127441 128.15319824 C-83.94736016 128.17367986 -77.71343041 128.18279696 -71.47949219 128.19287109 C-59.25418984 128.21430197 -47.02895835 128.24842498 -34.80371094 128.29052734 C-34.81259338 127.00981354 -34.82147583 125.72909973 -34.83062744 124.40957642 C-34.91185745 112.31606968 -34.97174564 100.22261859 -35.01095963 88.12890053 C-35.03179796 81.91198952 -35.06004746 75.69529948 -35.10546875 69.47851562 C-35.1490597 63.47439794 -35.17287626 57.47049226 -35.18321991 51.46622849 C-35.19058746 49.18018636 -35.20497444 46.8941553 -35.22663116 44.60820389 C-35.25584061 41.39610334 -35.25965953 38.1848691 -35.2578125 34.97265625 C-35.2721936 34.0361322 -35.28657471 33.09960815 -35.3013916 32.13470459 C-35.24645343 23.2543423 -32.63668282 15.38504775 -26.50683594 8.82177734 C-18.50934634 1.63137385 -10.48722859 -0.00941121 0 0 Z " fill="#2F2F2F" transform="translate(210.8037109375,207.70947265625)"/>
<path d="M0 0 C7.51249522 5.11489036 12.0741078 13.00021944 16.9609375 20.48828125 C19.23106622 23.95693006 21.56134823 27.37980558 23.9140625 30.79296875 C24.59919922 31.78796387 25.28433594 32.78295898 25.99023438 33.80810547 C27.36070796 35.79503382 28.73435724 37.77977587 30.11132812 39.76220703 C30.73716797 40.67212402 31.36300781 41.58204102 32.0078125 42.51953125 C32.57258301 43.33526611 33.13735352 44.15100098 33.71923828 44.99145508 C34.9375 47 34.9375 47 34.9375 49 C35.5439183 48.74943848 36.15033661 48.49887695 36.77513123 48.24072266 C43.11089961 45.62652214 49.45543691 43.03455309 55.80541992 40.45507812 C58.17132935 39.49065571 60.53497678 38.52066411 62.89624023 37.54492188 C66.29866641 36.14008612 69.70883321 34.75574773 73.12109375 33.375 C74.69194984 32.71878662 74.69194984 32.71878662 76.29454041 32.04931641 C83.51706447 29.15834359 89.56107255 27.48508281 97.1875 30.125 C101.3671989 32.9747947 104.30614324 36.10592971 105.9375 41 C106.44634494 47.11253542 105.59395348 52.67177278 104.07324219 58.57055664 C103.77564247 59.77755722 103.77564247 59.77755722 103.47203064 61.00894165 C102.81940475 63.64526361 102.15202553 66.27760309 101.484375 68.91015625 C101.02221641 70.764456 100.56099011 72.61898834 100.10064697 74.47373962 C98.88833178 79.34756301 97.66345107 84.21814193 96.43585205 89.08813477 C95.2009505 93.99631699 93.97791456 98.90745153 92.75390625 103.81835938 C91.37010078 109.36591687 89.98491364 114.91311539 88.59246826 120.45851135 C88.38032307 121.30388679 88.16817787 122.14926222 87.94960403 123.02025509 C87.53442475 124.66934829 87.11711623 126.31790711 86.69752121 127.9658823 C85.7170501 131.8268937 84.77311036 135.68881996 83.91418457 139.5788269 C83.74885349 140.30320922 83.58352242 141.02759153 83.4131813 141.77392483 C82.97204253 143.71713279 82.54808137 145.66421849 82.12554932 147.61155701 C80.34921634 152.67784757 77.79307979 155.89530165 73.17080975 158.64711761 C69.65673219 160.11747895 67.2472225 160.37940488 63.4546051 160.38768005 C61.52635895 160.402537 61.52635895 160.402537 59.55915833 160.41769409 C58.14694118 160.41345656 56.73472496 160.40889876 55.32250977 160.40405273 C53.82560721 160.40975904 52.328709 160.41672431 50.83181763 160.42485046 C46.7759842 160.44276839 42.72036729 160.4416161 38.6645062 160.43590808 C35.27486142 160.43281423 31.88525811 160.43891086 28.49561924 160.44494683 C20.49728843 160.45898596 12.49906446 160.45743588 4.50073242 160.44604492 C-3.74273254 160.43456408 -11.98587215 160.44864008 -20.22929424 160.4754414 C-27.31483956 160.49761317 -34.40028287 160.50423246 -41.48586041 160.49836498 C-45.71425453 160.49499775 -49.94244012 160.49739485 -54.17080498 160.51461601 C-58.1477319 160.53010675 -62.12417761 160.52610639 -66.10108566 160.50731087 C-67.55751391 160.50363083 -69.01397797 160.50671642 -70.47037315 160.51719666 C-84.34712731 160.60940227 -84.34712731 160.60940227 -90.0625 156 C-93.56553292 152.45173416 -94.83395008 149.29663539 -96.04199219 144.49853516 C-96.28693924 143.54800766 -96.28693924 143.54800766 -96.53683472 142.57827759 C-97.07313923 140.48474698 -97.59121992 138.38715199 -98.109375 136.2890625 C-98.48692465 134.80076808 -98.86563077 133.31276661 -99.24542236 131.82504272 C-100.24653821 127.89090065 -101.23241245 123.95309529 -102.21496582 120.01428223 C-103.18677566 116.12843258 -104.17174968 112.24593149 -105.15625 108.36328125 C-106.3211371 103.76764225 -107.48375439 99.17149389 -108.63464355 94.57232666 C-110.51337695 87.07138584 -112.4261046 79.58251434 -114.42382812 72.11230469 C-114.80105423 70.69156361 -115.1781124 69.27077793 -115.55499268 67.84994507 C-116.25452414 65.21310907 -116.96742872 62.58122533 -117.68865967 59.95010376 C-121.56455681 45.33927522 -121.56455681 45.33927522 -118.9375 37.75 C-116.32556126 33.91915651 -113.25926371 31.09838185 -109.0625 29 C-100.68242431 28.0691718 -94.15189175 29.94932759 -86.48828125 33.15625 C-85.43843552 33.57797485 -84.38858978 33.99969971 -83.30693054 34.4342041 C-79.98880043 35.77180583 -76.68207561 37.13532817 -73.375 38.5 C-71.1133354 39.41710556 -68.85097111 40.33248765 -66.58789062 41.24609375 C-61.07118175 43.47753555 -55.56357004 45.73029786 -50.0625 48 C-46.5167076 43.74977334 -43.49111645 39.24207189 -40.44921875 34.62890625 C-39.35530502 32.98600355 -38.26088822 31.34343572 -37.16601562 29.70117188 C-35.45638864 27.1326848 -33.74989713 24.56234391 -32.05200195 21.98608398 C-30.40217345 19.48561128 -28.73932155 16.99422517 -27.07421875 14.50390625 C-26.57605148 13.7412294 -26.07788422 12.97855255 -25.56462097 12.19276428 C-19.23633195 2.78403758 -11.93720379 -3.89786246 0 0 Z " fill="#303030" transform="translate(263.0625,16)"/>
<path d="M0 0 C31.68 0 63.36 0 96 0 C96 73.92 96 147.84 96 224 C64.32 224 32.64 224 0 224 C0 150.08 0 76.16 0 0 Z " fill="#FFCB5B" transform="translate(208,240)"/>
<path d="M0 0 C31.68 0 63.36 0 96 0 C96 52.8 96 105.6 96 160 C64.32 160 32.64 160 0 160 C0 107.2 0 54.4 0 0 Z " fill="#E0E0E0" transform="translate(336,304)"/>
<path d="M0 0 C31.68 0 63.36 0 96 0 C96 31.68 96 63.36 96 96 C64.32 96 32.64 96 0 96 C0 64.32 0 32.64 0 0 Z " fill="#FF9838" transform="translate(80,368)"/>
<path d="M0 0 C0.66 0 1.32 0 2 0 C3.11799622 1.34651184 3.11799622 1.34651184 4.35083008 3.25708008 C4.8150386 3.96814407 5.27924713 4.67920807 5.75752258 5.41181946 C6.25648544 6.18986435 6.7554483 6.96790924 7.26953125 7.76953125 C8.33381043 9.39659816 9.39826929 11.02354757 10.46289062 12.65039062 C12.13846015 15.22888822 13.81058489 17.80953432 15.47875977 20.39282227 C17.08753216 22.87854361 18.7090596 25.35556589 20.33203125 27.83203125 C21.0713665 28.98998955 21.0713665 28.98998955 21.82563782 30.17134094 C24.95545489 34.93229489 27.51139807 38.25112071 33.34741211 39.50390625 C42.24069739 39.71297555 49.56876765 36.44612259 57.5625 33 C59.60606095 32.13955329 61.65179873 31.28455952 63.69871521 30.43212891 C65.53426247 29.66457625 67.36410807 28.88343029 69.19360352 28.1015625 C72 27 72 27 74 27 C73.76563232 27.99515625 73.53126465 28.9903125 73.28979492 30.015625 C72.95749985 31.4270787 72.62522633 32.83853747 72.29296875 34.25 C72.11404587 35.00998291 71.93512299 35.76996582 71.7507782 36.55297852 C70.58332315 41.51413503 69.4202941 46.47630669 68.26028442 51.43920898 C67.4784421 54.78096955 66.69346095 58.1219886 65.90795898 61.46289062 C65.50433364 63.18264242 65.10203124 64.90270515 64.70092773 66.62304688 C64.11256747 69.14533201 63.5196588 71.66650906 62.92578125 74.1875 C62.65704948 75.3465686 62.65704948 75.3465686 62.38288879 76.52905273 C61.11390952 81.88609048 61.11390952 81.88609048 60 83 C58.46914161 83.09581822 56.93386244 83.12188108 55.40000916 83.12025452 C53.90864189 83.12231651 53.90864189 83.12231651 52.387146 83.12442017 C51.28735413 83.12082489 50.18756226 83.11722961 49.05444336 83.11352539 C47.90337601 83.11367142 46.75230865 83.11381744 45.56636047 83.1139679 C41.74083609 83.11326818 37.91535969 83.10547302 34.08984375 83.09765625 C31.44568407 83.09579228 28.80152404 83.09436828 26.15736389 83.09336853 C19.89584583 83.09025549 13.63434514 83.08204248 7.37283474 83.07201904 C0.24598463 83.06085705 -6.8808663 83.05534724 -14.00772297 83.05032361 C-28.6718243 83.03985984 -43.33591191 83.02226093 -58 83 C-61.19448985 73.58540019 -61.19448985 73.58540019 -62.36621094 68.98681641 C-62.58944031 68.11626617 -62.81266968 67.24571594 -63.04266357 66.3487854 C-63.38506073 64.98891006 -63.38506073 64.98891006 -63.734375 63.6015625 C-63.97665833 62.64478607 -64.21894165 61.68800964 -64.46856689 60.70223999 C-64.97457596 58.69763727 -65.47868221 56.69255335 -65.98095703 54.68701172 C-66.75357969 51.61074716 -67.53871762 48.53784161 -68.32421875 45.46484375 C-68.81587281 43.51060988 -69.30678498 41.55618919 -69.796875 39.6015625 C-70.03323669 38.68283356 -70.26959839 37.76410461 -70.51312256 36.8175354 C-70.72374329 35.96589813 -70.93436401 35.11426086 -71.15136719 34.23681641 C-71.339953 33.48896881 -71.52853882 32.74112122 -71.72283936 31.97061157 C-72 30 -72 30 -71 27 C-66.1171875 28.953125 -61.234375 30.90625 -56.3515625 32.859375 C-55.02813843 33.3853125 -55.02813843 33.3853125 -53.67797852 33.921875 C-51.88032958 34.6455889 -50.08910261 35.3854463 -48.30444336 36.140625 C-42.03197507 38.76668015 -42.03197507 38.76668015 -35.3125 39.5 C-34.46300781 39.5103125 -33.61351562 39.520625 -32.73828125 39.53125 C-27.19132221 38.45509247 -23.3383848 35.878763 -20.12573242 31.33300781 C-19.18687086 29.88292793 -18.2640839 28.42234629 -17.35546875 26.953125 C-16.8596077 26.18192322 -16.36374664 25.41072144 -15.8528595 24.6161499 C-14.28281934 22.169916 -12.73407289 19.71112472 -11.1875 17.25 C-9.62013595 14.77667985 -8.04840165 12.3063871 -6.46858215 9.84100342 C-5.48901663 8.31029983 -4.51717532 6.77462109 -3.55375671 5.23370361 C-2.42157084 3.45468276 -1.21759594 1.72169107 0 0 Z " fill="#FDC95A" transform="translate(255,61)"/>
</svg>
