<svg width="26" height="26" viewBox="0 0 26 26" fill="none" xmlns="http://www.w3.org/2000/svg">
<path d="M12.4713 9.48711L15.813 12.8183V12.6496C15.813 11.8109 15.4798 11.0065 14.8867 10.4134C14.2937 9.8203 13.4893 9.48711 12.6505 9.48711H12.4713ZM7.9384 10.3304L9.57235 11.9644C9.51965 12.1858 9.48802 12.4072 9.48802 12.6496C9.48802 13.4884 9.82121 14.2928 10.4143 14.8858C11.0074 15.4789 11.8118 15.8121 12.6505 15.8121C12.8824 15.8121 13.1144 15.7805 13.3357 15.7278L14.9697 17.3617C14.2634 17.7096 13.4833 17.9204 12.6505 17.9204C11.2526 17.9204 9.91195 17.3651 8.92348 16.3766C7.93501 15.3882 7.37969 14.0475 7.37969 12.6496C7.37969 11.8168 7.59052 11.0367 7.9384 10.3304ZM2.10885 4.5009L4.51235 6.9044L4.98673 7.37878C3.65255 8.42995 2.53545 9.72921 1.71631 11.229C1.2331 12.1137 1.23553 13.1847 1.72 14.0687C3.83795 17.9334 7.93646 20.5559 12.6505 20.5559C14.2845 20.5559 15.8446 20.2396 17.2678 19.6704L17.7211 20.1131L20.7992 23.1913L22.138 21.8525L3.44765 3.16211M12.6505 7.37878C14.0484 7.37878 15.3891 7.93409 16.3776 8.92257C17.366 9.91104 17.9214 11.2517 17.9214 12.6496C17.9214 13.3243 17.7843 13.9779 17.5419 14.5682L20.6306 17.6569C21.8167 16.6685 22.8249 15.4487 23.5795 14.0732C24.0658 13.1868 24.0649 12.1126 23.5787 11.2262C21.46 7.36381 17.3628 4.74336 12.6505 4.74336C11.1747 4.74336 9.7621 5.0069 8.43385 5.48128L10.7214 7.74773C11.3223 7.51582 11.9653 7.37878 12.6505 7.37878Z" fill="#637381"/>
</svg>
