<svg width="24" height="24" viewBox="0 0 24 24" fill="none" xmlns="http://www.w3.org/2000/svg">
<path d="M15.8599 4.39V19.39C15.8599 21.06 16.9999 22 18.2499 22C19.3899 22 20.6399 21.21 20.6399 19.39V4.5C20.6399 2.96 19.4999 2 18.2499 2C16.9999 2 15.8599 3.06 15.8599 4.39ZM9.60986 12V19.39C9.60986 21.07 10.7699 22 11.9999 22C13.1399 22 14.3899 21.21 14.3899 19.39V12.11C14.3899 10.57 13.2499 9.61 11.9999 9.61C10.7499 9.61 9.60986 10.67 9.60986 12ZM5.74986 17.23C7.06986 17.23 8.13986 18.3 8.13986 19.61C8.13986 20.2439 7.88806 20.8518 7.43985 21.3C6.99164 21.7482 6.38373 22 5.74986 22C5.116 22 4.50809 21.7482 4.05988 21.3C3.61167 20.8518 3.35986 20.2439 3.35986 19.61C3.35986 18.3 4.42986 17.23 5.74986 17.23Z" fill="#0F0945"/>
</svg>
