<svg width="24" height="24" viewBox="0 0 24 24" fill="none" xmlns="http://www.w3.org/2000/svg">
<path d="M12 9C12.4641 9 12.9091 9.18451 13.2373 9.5127C13.5655 9.84088 13.75 10.2859 13.75 10.75V18.75C13.75 19.2141 13.5655 19.6591 13.2373 19.9873C12.9091 20.3155 12.4641 20.5 12 20.5C11.5359 20.5 11.0909 20.3155 10.7627 19.9873C10.4345 19.6591 10.25 19.2141 10.25 18.75V10.75C10.25 10.2859 10.4345 9.84088 10.7627 9.5127C11.0909 9.18451 11.5359 9 12 9ZM18.75 3.5C19.2141 3.5 19.6591 3.68451 19.9873 4.0127C20.3155 4.34088 20.5 4.78587 20.5 5.25V18.75C20.5 19.2141 20.3155 19.6591 19.9873 19.9873C19.6591 20.3155 19.2141 20.5 18.75 20.5C18.2859 20.5 17.8409 20.3155 17.5127 19.9873C17.1845 19.6591 17 19.2141 17 18.75V5.25C17 4.78587 17.1845 4.34088 17.5127 4.0127C17.8409 3.68451 18.2859 3.5 18.75 3.5Z" stroke="#0F0945" stroke-width="1.5" stroke-linecap="round" stroke-linejoin="round"/>
<path d="M5.25 17C6.2165 17 7 17.7835 7 18.75C7 19.7165 6.2165 20.5 5.25 20.5C4.2835 20.5 3.5 19.7165 3.5 18.75C3.5 17.7835 4.2835 17 5.25 17Z" stroke="#0F0945" stroke-width="1.5" stroke-linecap="round" stroke-linejoin="round"/>
</svg>
